%TF.GenerationSoftware,KiCad,Pcbnew,(7.0.0)*%
%TF.CreationDate,2023-04-30T16:43:56+02:00*%
%TF.ProjectId,midi-sync-module,6d696469-2d73-4796-9e63-2d6d6f64756c,rev?*%
%TF.SameCoordinates,Original*%
%TF.FileFunction,Legend,Bot*%
%TF.FilePolarity,Positive*%
%FSLAX46Y46*%
G04 Gerber Fmt 4.6, Leading zero omitted, Abs format (unit mm)*
G04 Created by KiCad (PCBNEW (7.0.0)) date 2023-04-30 16:43:56*
%MOMM*%
%LPD*%
G01*
G04 APERTURE LIST*
%ADD10C,0.150000*%
%ADD11C,0.014750*%
%ADD12C,0.100000*%
%ADD13C,0.187500*%
%ADD14C,0.120000*%
G04 APERTURE END LIST*
D10*
X175675000Y-64475000D02*
X175675000Y-57425000D01*
X194125000Y-57425000D02*
X194125000Y-64475000D01*
D11*
G36*
X177251549Y-88423121D02*
G01*
X175800092Y-88423121D01*
X175800092Y-89874579D01*
X175640784Y-89874579D01*
X175640784Y-88263816D01*
X177251549Y-88263816D01*
X177251549Y-88423121D01*
G37*
X177251549Y-88423121D02*
X175800092Y-88423121D01*
X175800092Y-89874579D01*
X175640784Y-89874579D01*
X175640784Y-88263816D01*
X177251549Y-88263816D01*
X177251549Y-88423121D01*
G36*
X181541016Y-94559305D02*
G01*
X179930252Y-94559305D01*
X179930252Y-94400000D01*
X181381708Y-94400000D01*
X181381708Y-92948538D01*
X181541016Y-92948538D01*
X181541016Y-94559305D01*
G37*
X181541016Y-94559305D02*
X179930252Y-94559305D01*
X179930252Y-94400000D01*
X181381708Y-94400000D01*
X181381708Y-92948538D01*
X181541016Y-92948538D01*
X181541016Y-94559305D01*
D10*
X187425000Y-64000000D02*
X187425000Y-63725000D01*
X182425000Y-63725000D02*
X182425000Y-64475000D01*
D11*
G36*
X176900639Y-89493475D02*
G01*
X177059880Y-89493475D01*
X177061096Y-89509206D01*
X177063796Y-89524816D01*
X177068021Y-89540200D01*
X177073818Y-89555256D01*
X177081228Y-89569880D01*
X177090295Y-89583970D01*
X177101064Y-89597423D01*
X177113577Y-89610135D01*
X177127879Y-89622003D01*
X177144013Y-89632924D01*
X177162023Y-89642795D01*
X177170169Y-89646546D01*
X177178393Y-89649839D01*
X177186682Y-89652681D01*
X177195023Y-89655075D01*
X177203403Y-89657027D01*
X177211809Y-89658540D01*
X177220229Y-89659619D01*
X177228650Y-89660269D01*
X177237059Y-89660495D01*
X177245443Y-89660300D01*
X177253791Y-89659689D01*
X177262088Y-89658668D01*
X177270322Y-89657239D01*
X177278480Y-89655409D01*
X177286551Y-89653182D01*
X177294520Y-89650561D01*
X177302375Y-89647552D01*
X177310103Y-89644159D01*
X177317692Y-89640387D01*
X177325129Y-89636240D01*
X177332401Y-89631722D01*
X177339495Y-89626839D01*
X177346398Y-89621595D01*
X177353099Y-89615994D01*
X177359583Y-89610041D01*
X177365839Y-89603741D01*
X177371853Y-89597097D01*
X177377613Y-89590115D01*
X177383106Y-89582799D01*
X177388319Y-89575154D01*
X177393239Y-89567184D01*
X177397855Y-89558893D01*
X177401836Y-89550708D01*
X177405264Y-89542319D01*
X177408147Y-89533752D01*
X177410496Y-89525031D01*
X177412320Y-89516180D01*
X177413630Y-89507224D01*
X177414436Y-89498187D01*
X177414747Y-89489093D01*
X177414573Y-89479968D01*
X177413925Y-89470835D01*
X177412812Y-89461720D01*
X177411244Y-89452645D01*
X177409231Y-89443637D01*
X177406783Y-89434718D01*
X177403911Y-89425915D01*
X177400623Y-89417250D01*
X177396930Y-89408749D01*
X177392841Y-89400436D01*
X177388368Y-89392335D01*
X177383519Y-89384472D01*
X177378305Y-89376869D01*
X177372735Y-89369552D01*
X177366820Y-89362545D01*
X177360569Y-89355873D01*
X177353993Y-89349560D01*
X177347101Y-89343630D01*
X177339903Y-89338108D01*
X177332409Y-89333019D01*
X177324630Y-89328386D01*
X177316574Y-89324234D01*
X177308253Y-89320588D01*
X177299675Y-89317472D01*
X177279823Y-89311955D01*
X177260539Y-89308480D01*
X177241865Y-89306945D01*
X177223845Y-89307247D01*
X177206523Y-89309282D01*
X177189943Y-89312948D01*
X177174147Y-89318140D01*
X177159181Y-89324757D01*
X177145087Y-89332696D01*
X177131909Y-89341852D01*
X177119690Y-89352123D01*
X177108475Y-89363406D01*
X177098307Y-89375597D01*
X177089229Y-89388594D01*
X177081285Y-89402294D01*
X177074519Y-89416594D01*
X177068974Y-89431389D01*
X177064694Y-89446579D01*
X177061723Y-89462058D01*
X177060103Y-89477724D01*
X177059880Y-89493475D01*
X176900639Y-89493475D01*
X176900636Y-89493422D01*
X176901041Y-89467658D01*
X176903277Y-89441976D01*
X176907337Y-89416507D01*
X176913213Y-89391380D01*
X176920900Y-89366726D01*
X176930390Y-89342674D01*
X176941678Y-89319354D01*
X176954756Y-89296897D01*
X176969617Y-89275431D01*
X176986256Y-89255088D01*
X177004665Y-89235996D01*
X177024837Y-89218287D01*
X177046767Y-89202089D01*
X177070446Y-89187534D01*
X177095870Y-89174750D01*
X177123030Y-89163868D01*
X177151921Y-89155018D01*
X177151926Y-89155024D01*
X177178751Y-89149045D01*
X177205208Y-89145198D01*
X177231239Y-89143406D01*
X177256785Y-89143595D01*
X177281786Y-89145688D01*
X177306184Y-89149612D01*
X177329920Y-89155289D01*
X177352935Y-89162645D01*
X177375170Y-89171605D01*
X177396567Y-89182092D01*
X177417066Y-89194033D01*
X177436609Y-89207350D01*
X177455137Y-89221969D01*
X177472591Y-89237815D01*
X177488911Y-89254812D01*
X177504040Y-89272884D01*
X177517918Y-89291957D01*
X177530486Y-89311954D01*
X177541686Y-89332801D01*
X177551459Y-89354422D01*
X177559745Y-89376742D01*
X177566487Y-89399685D01*
X177571624Y-89423176D01*
X177575099Y-89447139D01*
X177576852Y-89471499D01*
X177576824Y-89496182D01*
X177574957Y-89521110D01*
X177571192Y-89546210D01*
X177565470Y-89571404D01*
X177557731Y-89596619D01*
X177547918Y-89621779D01*
X177535971Y-89646808D01*
X177528488Y-89660119D01*
X177520073Y-89673258D01*
X177510797Y-89686167D01*
X177500728Y-89698789D01*
X177489936Y-89711066D01*
X177478490Y-89722941D01*
X177466459Y-89734356D01*
X177453913Y-89745253D01*
X177440921Y-89755575D01*
X177427553Y-89765264D01*
X177413877Y-89774263D01*
X177399963Y-89782513D01*
X177385880Y-89789958D01*
X177371698Y-89796540D01*
X177357486Y-89802200D01*
X177343314Y-89806882D01*
X177319403Y-89813923D01*
X177317664Y-90078785D01*
X177317349Y-90206499D01*
X177318447Y-90312568D01*
X177319630Y-90358636D01*
X177321289Y-90400673D01*
X177323465Y-90439140D01*
X177326201Y-90474496D01*
X177329536Y-90507203D01*
X177333512Y-90537720D01*
X177338170Y-90566507D01*
X177343551Y-90594025D01*
X177349697Y-90620735D01*
X177356647Y-90647095D01*
X177364443Y-90673567D01*
X177373126Y-90700611D01*
X177389574Y-90746616D01*
X177407963Y-90791638D01*
X177428253Y-90835628D01*
X177450400Y-90878531D01*
X177474364Y-90920297D01*
X177500104Y-90960874D01*
X177527576Y-91000210D01*
X177556741Y-91038252D01*
X177587557Y-91074950D01*
X177619981Y-91110251D01*
X177653973Y-91144104D01*
X177689490Y-91176456D01*
X177726492Y-91207256D01*
X177764936Y-91236451D01*
X177804781Y-91263991D01*
X177845986Y-91289823D01*
X177896727Y-91320060D01*
X178022550Y-91255201D01*
X178275183Y-91124970D01*
X178324637Y-91099227D01*
X178346434Y-91087700D01*
X178365567Y-91077453D01*
X178381506Y-91068771D01*
X178393717Y-91061943D01*
X178401668Y-91057254D01*
X178403880Y-91055802D01*
X178404826Y-91054993D01*
X178404298Y-91054101D01*
X178402180Y-91052405D01*
X178393490Y-91046781D01*
X178379392Y-91038473D01*
X178360522Y-91027834D01*
X178311000Y-91000975D01*
X178250005Y-90969025D01*
X178188501Y-90937090D01*
X178162430Y-90923339D01*
X178139118Y-90910836D01*
X178118290Y-90899408D01*
X178099676Y-90888884D01*
X178083001Y-90879092D01*
X178067994Y-90869858D01*
X178054382Y-90861012D01*
X178041892Y-90852380D01*
X178030252Y-90843791D01*
X178019190Y-90835072D01*
X178008432Y-90826051D01*
X177997706Y-90816556D01*
X177986740Y-90806416D01*
X177975261Y-90795456D01*
X177955256Y-90775241D01*
X177936393Y-90754345D01*
X177918679Y-90732783D01*
X177902122Y-90710571D01*
X177886728Y-90687725D01*
X177872505Y-90664260D01*
X177859459Y-90640192D01*
X177847598Y-90615537D01*
X177836929Y-90590310D01*
X177827459Y-90564527D01*
X177819194Y-90538204D01*
X177812142Y-90511357D01*
X177806310Y-90484000D01*
X177801705Y-90456150D01*
X177798334Y-90427823D01*
X177796204Y-90399033D01*
X177792650Y-90330503D01*
X177761939Y-90320823D01*
X177743648Y-90314170D01*
X177725595Y-90305870D01*
X177707871Y-90296028D01*
X177690568Y-90284750D01*
X177673778Y-90272142D01*
X177657592Y-90258309D01*
X177642101Y-90243358D01*
X177627399Y-90227392D01*
X177613576Y-90210519D01*
X177600724Y-90192844D01*
X177588936Y-90174472D01*
X177578301Y-90155508D01*
X177568914Y-90136060D01*
X177560864Y-90116232D01*
X177554245Y-90096129D01*
X177549147Y-90075858D01*
X177543913Y-90045045D01*
X177541343Y-90014957D01*
X177541340Y-90011705D01*
X177702800Y-90011705D01*
X177704172Y-90026794D01*
X177706920Y-90041473D01*
X177710971Y-90055692D01*
X177716251Y-90069399D01*
X177722684Y-90082545D01*
X177730197Y-90095079D01*
X177738716Y-90106950D01*
X177748165Y-90118107D01*
X177758471Y-90128501D01*
X177769560Y-90138079D01*
X177781356Y-90146792D01*
X177793786Y-90154588D01*
X177806776Y-90161418D01*
X177820250Y-90167230D01*
X177834136Y-90171974D01*
X177848357Y-90175600D01*
X177862841Y-90178056D01*
X177877513Y-90179291D01*
X177892298Y-90179257D01*
X177907122Y-90177900D01*
X177921910Y-90175172D01*
X177936590Y-90171021D01*
X177951085Y-90165397D01*
X177965322Y-90158249D01*
X177979227Y-90149527D01*
X177992725Y-90139179D01*
X178005742Y-90127155D01*
X178013834Y-90118412D01*
X178021199Y-90109290D01*
X178027845Y-90099825D01*
X178033781Y-90090053D01*
X178039013Y-90080010D01*
X178043550Y-90069731D01*
X178047399Y-90059252D01*
X178050567Y-90048610D01*
X178053064Y-90037839D01*
X178054896Y-90026976D01*
X178056072Y-90016057D01*
X178056598Y-90005116D01*
X178056484Y-89994191D01*
X178055736Y-89983316D01*
X178054362Y-89972527D01*
X178052371Y-89961861D01*
X178049769Y-89951353D01*
X178046565Y-89941039D01*
X178042766Y-89930954D01*
X178038380Y-89921135D01*
X178033415Y-89911617D01*
X178027879Y-89902435D01*
X178021780Y-89893627D01*
X178015124Y-89885227D01*
X178007921Y-89877271D01*
X178000177Y-89869795D01*
X177991900Y-89862835D01*
X177983099Y-89856427D01*
X177973781Y-89850606D01*
X177963953Y-89845408D01*
X177953624Y-89840869D01*
X177942801Y-89837024D01*
X177942801Y-89837028D01*
X177933765Y-89834368D01*
X177924797Y-89832098D01*
X177915903Y-89830216D01*
X177907090Y-89828718D01*
X177898364Y-89827603D01*
X177889731Y-89826867D01*
X177881199Y-89826507D01*
X177872772Y-89826521D01*
X177864458Y-89826906D01*
X177856264Y-89827659D01*
X177848196Y-89828779D01*
X177840259Y-89830260D01*
X177832461Y-89832102D01*
X177824808Y-89834302D01*
X177817307Y-89836856D01*
X177809963Y-89839762D01*
X177802784Y-89843017D01*
X177795775Y-89846619D01*
X177788944Y-89850564D01*
X177782297Y-89854850D01*
X177775839Y-89859475D01*
X177769578Y-89864435D01*
X177763521Y-89869728D01*
X177757672Y-89875351D01*
X177752040Y-89881301D01*
X177746629Y-89887576D01*
X177741448Y-89894173D01*
X177736502Y-89901089D01*
X177731797Y-89908321D01*
X177727340Y-89915867D01*
X177723138Y-89923723D01*
X177719197Y-89931888D01*
X177712569Y-89948266D01*
X177707690Y-89964487D01*
X177704485Y-89980501D01*
X177702880Y-89996257D01*
X177702800Y-90011705D01*
X177541340Y-90011705D01*
X177541319Y-89985659D01*
X177543724Y-89957213D01*
X177548442Y-89929683D01*
X177555355Y-89903133D01*
X177564346Y-89877626D01*
X177575299Y-89853226D01*
X177588096Y-89829996D01*
X177602621Y-89807999D01*
X177618755Y-89787300D01*
X177636383Y-89767961D01*
X177655387Y-89750047D01*
X177675651Y-89733621D01*
X177697056Y-89718745D01*
X177719487Y-89705485D01*
X177742826Y-89693903D01*
X177766956Y-89684062D01*
X177791761Y-89676027D01*
X177817122Y-89669861D01*
X177842924Y-89665627D01*
X177869049Y-89663389D01*
X177895380Y-89663210D01*
X177921800Y-89665154D01*
X177948192Y-89669285D01*
X177974439Y-89675665D01*
X178000424Y-89684359D01*
X178026030Y-89695430D01*
X178051140Y-89708941D01*
X178075638Y-89724956D01*
X178099405Y-89743539D01*
X178122325Y-89764753D01*
X178138387Y-89782015D01*
X178152949Y-89799985D01*
X178166030Y-89818593D01*
X178177645Y-89837772D01*
X178187814Y-89857453D01*
X178196553Y-89877568D01*
X178203879Y-89898048D01*
X178209810Y-89918826D01*
X178214364Y-89939833D01*
X178217557Y-89961001D01*
X178219406Y-89982262D01*
X178219931Y-90003547D01*
X178219147Y-90024788D01*
X178217072Y-90045917D01*
X178213723Y-90066866D01*
X178209118Y-90087566D01*
X178203274Y-90107949D01*
X178196209Y-90127946D01*
X178187939Y-90147491D01*
X178178483Y-90166513D01*
X178167858Y-90184946D01*
X178156080Y-90202720D01*
X178143167Y-90219768D01*
X178129138Y-90236021D01*
X178114008Y-90251411D01*
X178097795Y-90265870D01*
X178080518Y-90279329D01*
X178062192Y-90291720D01*
X178042836Y-90302976D01*
X178022467Y-90313027D01*
X178001102Y-90321805D01*
X177978758Y-90329242D01*
X177973507Y-90330942D01*
X177968897Y-90332814D01*
X177964910Y-90334968D01*
X177961531Y-90337509D01*
X177960065Y-90338958D01*
X177958745Y-90340545D01*
X177957568Y-90342282D01*
X177956534Y-90344183D01*
X177954883Y-90348531D01*
X177953775Y-90353696D01*
X177953196Y-90359785D01*
X177953128Y-90366905D01*
X177953555Y-90375163D01*
X177954461Y-90384668D01*
X177955831Y-90395526D01*
X177957648Y-90407844D01*
X177962560Y-90437290D01*
X177969082Y-90471095D01*
X177976583Y-90502225D01*
X177985418Y-90531030D01*
X177995941Y-90557861D01*
X178008507Y-90583071D01*
X178023469Y-90607009D01*
X178041184Y-90630028D01*
X178062005Y-90652479D01*
X178086287Y-90674712D01*
X178114384Y-90697080D01*
X178146652Y-90719933D01*
X178183444Y-90743623D01*
X178225115Y-90768500D01*
X178272021Y-90794917D01*
X178324515Y-90823224D01*
X178382951Y-90853772D01*
X178590964Y-90961246D01*
X178798909Y-90853803D01*
X178871235Y-90816209D01*
X178929969Y-90785073D01*
X178954826Y-90771572D01*
X178976990Y-90759259D01*
X178996696Y-90747992D01*
X179014178Y-90737628D01*
X179029671Y-90728025D01*
X179043410Y-90719042D01*
X179055631Y-90710535D01*
X179066567Y-90702362D01*
X179076454Y-90694382D01*
X179085526Y-90686452D01*
X179094019Y-90678430D01*
X179102167Y-90670173D01*
X179111583Y-90659897D01*
X179120762Y-90649037D01*
X179129685Y-90637649D01*
X179138336Y-90625788D01*
X179154757Y-90600874D01*
X179169893Y-90574743D01*
X179183611Y-90547842D01*
X179195779Y-90520620D01*
X179206264Y-90493524D01*
X179214933Y-90467003D01*
X179221655Y-90441503D01*
X179226297Y-90417473D01*
X179227796Y-90406149D01*
X179228726Y-90395361D01*
X179229069Y-90385164D01*
X179228810Y-90375615D01*
X179227931Y-90366768D01*
X179226416Y-90358682D01*
X179224249Y-90351410D01*
X179221413Y-90345010D01*
X179217891Y-90339537D01*
X179213667Y-90335048D01*
X179208724Y-90331597D01*
X179203046Y-90329242D01*
X179180713Y-90321809D01*
X179159357Y-90313033D01*
X179138997Y-90302984D01*
X179119649Y-90291730D01*
X179101331Y-90279339D01*
X179084060Y-90265879D01*
X179067853Y-90251420D01*
X179052728Y-90236028D01*
X179038703Y-90219773D01*
X179025794Y-90202723D01*
X179014019Y-90184946D01*
X179003396Y-90166510D01*
X178993941Y-90147484D01*
X178985672Y-90127937D01*
X178978607Y-90107936D01*
X178972763Y-90087550D01*
X178968157Y-90066847D01*
X178964807Y-90045895D01*
X178962730Y-90024764D01*
X178962074Y-90007059D01*
X179122878Y-90007059D01*
X179123845Y-90021422D01*
X179126073Y-90035869D01*
X179129608Y-90050340D01*
X179134497Y-90064780D01*
X179140785Y-90079130D01*
X179148520Y-90093335D01*
X179157747Y-90107337D01*
X179164423Y-90116049D01*
X179171503Y-90124201D01*
X179178960Y-90131794D01*
X179186767Y-90138828D01*
X179194898Y-90145302D01*
X179203328Y-90151217D01*
X179212029Y-90156571D01*
X179220976Y-90161367D01*
X179230142Y-90165602D01*
X179239501Y-90169278D01*
X179249027Y-90172393D01*
X179258693Y-90174949D01*
X179268474Y-90176944D01*
X179278342Y-90178379D01*
X179288272Y-90179254D01*
X179298237Y-90179569D01*
X179308212Y-90179323D01*
X179318169Y-90178517D01*
X179328083Y-90177150D01*
X179337927Y-90175223D01*
X179347675Y-90172735D01*
X179357301Y-90169686D01*
X179366779Y-90166076D01*
X179376082Y-90161905D01*
X179385184Y-90157174D01*
X179394058Y-90151881D01*
X179402679Y-90146027D01*
X179411020Y-90139612D01*
X179419055Y-90132636D01*
X179426758Y-90125098D01*
X179434102Y-90116999D01*
X179441061Y-90108338D01*
X179447191Y-90099726D01*
X179452733Y-90090912D01*
X179457691Y-90081916D01*
X179462071Y-90072762D01*
X179465880Y-90063472D01*
X179469123Y-90054067D01*
X179471805Y-90044570D01*
X179473932Y-90035003D01*
X179475509Y-90025387D01*
X179476543Y-90015745D01*
X179477039Y-90006100D01*
X179477002Y-89996473D01*
X179476439Y-89986885D01*
X179475354Y-89977361D01*
X179473754Y-89967920D01*
X179471643Y-89958587D01*
X179469029Y-89949381D01*
X179465916Y-89940327D01*
X179462309Y-89931445D01*
X179458215Y-89922759D01*
X179453640Y-89914289D01*
X179448588Y-89906059D01*
X179443066Y-89898089D01*
X179437079Y-89890403D01*
X179430632Y-89883023D01*
X179423732Y-89875970D01*
X179416384Y-89869266D01*
X179408594Y-89862935D01*
X179400366Y-89856997D01*
X179391708Y-89851475D01*
X179382624Y-89846391D01*
X179373120Y-89841767D01*
X179373120Y-89841724D01*
X179357606Y-89835474D01*
X179342196Y-89830734D01*
X179326936Y-89827446D01*
X179311873Y-89825554D01*
X179297052Y-89825000D01*
X179282520Y-89825727D01*
X179268324Y-89827679D01*
X179254509Y-89830797D01*
X179241122Y-89835026D01*
X179228208Y-89840308D01*
X179215816Y-89846585D01*
X179203990Y-89853801D01*
X179192777Y-89861899D01*
X179182223Y-89870821D01*
X179172375Y-89880511D01*
X179163278Y-89890911D01*
X179154980Y-89901964D01*
X179147526Y-89913614D01*
X179140963Y-89925802D01*
X179135336Y-89938473D01*
X179130693Y-89951569D01*
X179127079Y-89965032D01*
X179124541Y-89978806D01*
X179123125Y-89992834D01*
X179122878Y-90007059D01*
X178962074Y-90007059D01*
X178961943Y-90003520D01*
X178962464Y-89982233D01*
X178964310Y-89960971D01*
X178967499Y-89939803D01*
X178972047Y-89918795D01*
X178977973Y-89898018D01*
X178985294Y-89877539D01*
X178994027Y-89857426D01*
X179004189Y-89837748D01*
X179015797Y-89818574D01*
X179028871Y-89799971D01*
X179043425Y-89782008D01*
X179059479Y-89764753D01*
X179082395Y-89743543D01*
X179106159Y-89724964D01*
X179130653Y-89708953D01*
X179155760Y-89695445D01*
X179181364Y-89684377D01*
X179207347Y-89675686D01*
X179233593Y-89669309D01*
X179259984Y-89665181D01*
X179286402Y-89663239D01*
X179312733Y-89663420D01*
X179338857Y-89665660D01*
X179364658Y-89669896D01*
X179390020Y-89676064D01*
X179414824Y-89684100D01*
X179438955Y-89693941D01*
X179462294Y-89705524D01*
X179484726Y-89718785D01*
X179506132Y-89733660D01*
X179526397Y-89750086D01*
X179545402Y-89768000D01*
X179563031Y-89787337D01*
X179579167Y-89808035D01*
X179593693Y-89830029D01*
X179606491Y-89853257D01*
X179617446Y-89877655D01*
X179626439Y-89903159D01*
X179633353Y-89929706D01*
X179638072Y-89957232D01*
X179640479Y-89985674D01*
X179640457Y-90014968D01*
X179637888Y-90045050D01*
X179632655Y-90075858D01*
X179630295Y-90086045D01*
X179627543Y-90096199D01*
X179620912Y-90116354D01*
X179612852Y-90136219D01*
X179603453Y-90155691D01*
X179592805Y-90174667D01*
X179580999Y-90193043D01*
X179568124Y-90210716D01*
X179554270Y-90227583D01*
X179539527Y-90243540D01*
X179523986Y-90258484D01*
X179507736Y-90272312D01*
X179490868Y-90284919D01*
X179473471Y-90296204D01*
X179455635Y-90306062D01*
X179446581Y-90310424D01*
X179437452Y-90314390D01*
X179428257Y-90317948D01*
X179419009Y-90321085D01*
X179387427Y-90331046D01*
X179387427Y-90373188D01*
X179386728Y-90400782D01*
X179384648Y-90428328D01*
X179381209Y-90455774D01*
X179376431Y-90483063D01*
X179370339Y-90510141D01*
X179362953Y-90536955D01*
X179354296Y-90563448D01*
X179344390Y-90589566D01*
X179333258Y-90615255D01*
X179320921Y-90640461D01*
X179307401Y-90665128D01*
X179292721Y-90689202D01*
X179276903Y-90712629D01*
X179259969Y-90735353D01*
X179241941Y-90757320D01*
X179222841Y-90778476D01*
X179198160Y-90803525D01*
X179172844Y-90826134D01*
X179158824Y-90837212D01*
X179143296Y-90848507D01*
X179105922Y-90872852D01*
X179057126Y-90901373D01*
X178993313Y-90936277D01*
X178910888Y-90979770D01*
X178806255Y-91034058D01*
X178213958Y-91340182D01*
X178037556Y-91431768D01*
X177972795Y-91465645D01*
X177921184Y-91492894D01*
X177880868Y-91514500D01*
X177849990Y-91531451D01*
X177826693Y-91544733D01*
X177809122Y-91555333D01*
X177795420Y-91564237D01*
X177783730Y-91572432D01*
X177758963Y-91590641D01*
X177726236Y-91615476D01*
X177694488Y-91641635D01*
X177663759Y-91669060D01*
X177634089Y-91697698D01*
X177605518Y-91727493D01*
X177578088Y-91758390D01*
X177551837Y-91790334D01*
X177526807Y-91823270D01*
X177503038Y-91857141D01*
X177480570Y-91891895D01*
X177459444Y-91927474D01*
X177439699Y-91963825D01*
X177421377Y-92000892D01*
X177404517Y-92038619D01*
X177389159Y-92076952D01*
X177375345Y-92115836D01*
X177358264Y-92170523D01*
X177344764Y-92223223D01*
X177339232Y-92250147D01*
X177334445Y-92278159D01*
X177326902Y-92339556D01*
X177321735Y-92411639D01*
X177318541Y-92498633D01*
X177316917Y-92604763D01*
X177316461Y-92734253D01*
X177316446Y-93006681D01*
X177338571Y-93013761D01*
X177371816Y-93026046D01*
X177402422Y-93040675D01*
X177430418Y-93057469D01*
X177455832Y-93076248D01*
X177478692Y-93096834D01*
X177499026Y-93119046D01*
X177516864Y-93142707D01*
X177532232Y-93167635D01*
X177545160Y-93193652D01*
X177555674Y-93220579D01*
X177563805Y-93248237D01*
X177569579Y-93276445D01*
X177573025Y-93305026D01*
X177574171Y-93333798D01*
X177573046Y-93362584D01*
X177569678Y-93391204D01*
X177564094Y-93419479D01*
X177556323Y-93447229D01*
X177546394Y-93474274D01*
X177534334Y-93500437D01*
X177520172Y-93525536D01*
X177503936Y-93549394D01*
X177485654Y-93571831D01*
X177465355Y-93592667D01*
X177443066Y-93611724D01*
X177418815Y-93628821D01*
X177392632Y-93643780D01*
X177364545Y-93656421D01*
X177334580Y-93666565D01*
X177302767Y-93674032D01*
X177269135Y-93678645D01*
X177233710Y-93680222D01*
X177199718Y-93678678D01*
X177167400Y-93674161D01*
X177136785Y-93666845D01*
X177107903Y-93656906D01*
X177080783Y-93644515D01*
X177055454Y-93629849D01*
X177031947Y-93613081D01*
X177010290Y-93594384D01*
X176990512Y-93573933D01*
X176972644Y-93551902D01*
X176956715Y-93528466D01*
X176942753Y-93503797D01*
X176930789Y-93478071D01*
X176920852Y-93451461D01*
X176912971Y-93424141D01*
X176907176Y-93396286D01*
X176903496Y-93368070D01*
X176902058Y-93341462D01*
X177060819Y-93341462D01*
X177061334Y-93355708D01*
X177063076Y-93369969D01*
X177066087Y-93384178D01*
X177070407Y-93398269D01*
X177076078Y-93412175D01*
X177083140Y-93425830D01*
X177091634Y-93439167D01*
X177101602Y-93452120D01*
X177113083Y-93464621D01*
X177125542Y-93476073D01*
X177138441Y-93486025D01*
X177151717Y-93494518D01*
X177165303Y-93501591D01*
X177179136Y-93507284D01*
X177193148Y-93511636D01*
X177207276Y-93514688D01*
X177221454Y-93516480D01*
X177235617Y-93517051D01*
X177249700Y-93516441D01*
X177263638Y-93514689D01*
X177277365Y-93511837D01*
X177290816Y-93507923D01*
X177303926Y-93502987D01*
X177316631Y-93497069D01*
X177328864Y-93490209D01*
X177340561Y-93482447D01*
X177351657Y-93473823D01*
X177362085Y-93464376D01*
X177371782Y-93454146D01*
X177380682Y-93443173D01*
X177388720Y-93431498D01*
X177395831Y-93419158D01*
X177401949Y-93406195D01*
X177407009Y-93392649D01*
X177410946Y-93378558D01*
X177413696Y-93363964D01*
X177415192Y-93348905D01*
X177415370Y-93333422D01*
X177414165Y-93317554D01*
X177411511Y-93301342D01*
X177407343Y-93284824D01*
X177405996Y-93280667D01*
X177404412Y-93276453D01*
X177400566Y-93267891D01*
X177395882Y-93259216D01*
X177390436Y-93250503D01*
X177384306Y-93241830D01*
X177377568Y-93233273D01*
X177370298Y-93224910D01*
X177362575Y-93216817D01*
X177354473Y-93209070D01*
X177346072Y-93201747D01*
X177337446Y-93194925D01*
X177328673Y-93188680D01*
X177319829Y-93183089D01*
X177310992Y-93178229D01*
X177302239Y-93174177D01*
X177293645Y-93171009D01*
X177293645Y-93171012D01*
X177277223Y-93166543D01*
X177261087Y-93163621D01*
X177245278Y-93162178D01*
X177229837Y-93162147D01*
X177214805Y-93163463D01*
X177200223Y-93166059D01*
X177186131Y-93169867D01*
X177172572Y-93174822D01*
X177159585Y-93180857D01*
X177147211Y-93187905D01*
X177135493Y-93195900D01*
X177124469Y-93204776D01*
X177114182Y-93214464D01*
X177104672Y-93224901D01*
X177095981Y-93236017D01*
X177088149Y-93247748D01*
X177081217Y-93260026D01*
X177075226Y-93272784D01*
X177070217Y-93285958D01*
X177066230Y-93299478D01*
X177063308Y-93313280D01*
X177061491Y-93327297D01*
X177060819Y-93341462D01*
X176902058Y-93341462D01*
X176901961Y-93339666D01*
X176902599Y-93311248D01*
X176905441Y-93282991D01*
X176910515Y-93255070D01*
X176917852Y-93227656D01*
X176927480Y-93200926D01*
X176939429Y-93175053D01*
X176953728Y-93150211D01*
X176970408Y-93126574D01*
X176989496Y-93104317D01*
X177011024Y-93083612D01*
X177035019Y-93064635D01*
X177061512Y-93047560D01*
X177090531Y-93032560D01*
X177122107Y-93019809D01*
X177154190Y-93008509D01*
X177157524Y-92664362D01*
X177158840Y-92542421D01*
X177160394Y-92446963D01*
X177161376Y-92407578D01*
X177162557Y-92372909D01*
X177163984Y-92342320D01*
X177165703Y-92315177D01*
X177167761Y-92290844D01*
X177170204Y-92268687D01*
X177173079Y-92248070D01*
X177176433Y-92228358D01*
X177180312Y-92208917D01*
X177184763Y-92189111D01*
X177195566Y-92145865D01*
X177210375Y-92093723D01*
X177227588Y-92042207D01*
X177247131Y-91991423D01*
X177268931Y-91941478D01*
X177292912Y-91892480D01*
X177319002Y-91844533D01*
X177347126Y-91797746D01*
X177377211Y-91752225D01*
X177409182Y-91708076D01*
X177442967Y-91665407D01*
X177478490Y-91624324D01*
X177515679Y-91584934D01*
X177554459Y-91547343D01*
X177594756Y-91511659D01*
X177636496Y-91477988D01*
X177679607Y-91446436D01*
X177696847Y-91434434D01*
X177703624Y-91429545D01*
X177709175Y-91425244D01*
X177711492Y-91423278D01*
X177713503Y-91421417D01*
X177715210Y-91419647D01*
X177716611Y-91417951D01*
X177717708Y-91416318D01*
X177718501Y-91414731D01*
X177718990Y-91413178D01*
X177719176Y-91411643D01*
X177719058Y-91410113D01*
X177718638Y-91408573D01*
X177717915Y-91407008D01*
X177716889Y-91405406D01*
X177715562Y-91403750D01*
X177713933Y-91402028D01*
X177712003Y-91400224D01*
X177709772Y-91398325D01*
X177704408Y-91394183D01*
X177697844Y-91389487D01*
X177681126Y-91377979D01*
X177638274Y-91346901D01*
X177596688Y-91313551D01*
X177556456Y-91278051D01*
X177517663Y-91240527D01*
X177480394Y-91201100D01*
X177444735Y-91159896D01*
X177410772Y-91117038D01*
X177378591Y-91072649D01*
X177348277Y-91026854D01*
X177319917Y-90979776D01*
X177293595Y-90931539D01*
X177269397Y-90882267D01*
X177247410Y-90832083D01*
X177227719Y-90781111D01*
X177210410Y-90729475D01*
X177195568Y-90677298D01*
X177184764Y-90634048D01*
X177176435Y-90594798D01*
X177170205Y-90554465D01*
X177165704Y-90507964D01*
X177162558Y-90450211D01*
X177160395Y-90376122D01*
X177157526Y-90158594D01*
X177154192Y-89814255D01*
X177118732Y-89801417D01*
X177090882Y-89790009D01*
X177064962Y-89776734D01*
X177040966Y-89761723D01*
X177018887Y-89745105D01*
X176998718Y-89727010D01*
X176980454Y-89707569D01*
X176964086Y-89686910D01*
X176949608Y-89665164D01*
X176937014Y-89642461D01*
X176926298Y-89618931D01*
X176917451Y-89594704D01*
X176910469Y-89569909D01*
X176905343Y-89544677D01*
X176902068Y-89519138D01*
X176900639Y-89493475D01*
G37*
X176900639Y-89493475D02*
X177059880Y-89493475D01*
X177061096Y-89509206D01*
X177063796Y-89524816D01*
X177068021Y-89540200D01*
X177073818Y-89555256D01*
X177081228Y-89569880D01*
X177090295Y-89583970D01*
X177101064Y-89597423D01*
X177113577Y-89610135D01*
X177127879Y-89622003D01*
X177144013Y-89632924D01*
X177162023Y-89642795D01*
X177170169Y-89646546D01*
X177178393Y-89649839D01*
X177186682Y-89652681D01*
X177195023Y-89655075D01*
X177203403Y-89657027D01*
X177211809Y-89658540D01*
X177220229Y-89659619D01*
X177228650Y-89660269D01*
X177237059Y-89660495D01*
X177245443Y-89660300D01*
X177253791Y-89659689D01*
X177262088Y-89658668D01*
X177270322Y-89657239D01*
X177278480Y-89655409D01*
X177286551Y-89653182D01*
X177294520Y-89650561D01*
X177302375Y-89647552D01*
X177310103Y-89644159D01*
X177317692Y-89640387D01*
X177325129Y-89636240D01*
X177332401Y-89631722D01*
X177339495Y-89626839D01*
X177346398Y-89621595D01*
X177353099Y-89615994D01*
X177359583Y-89610041D01*
X177365839Y-89603741D01*
X177371853Y-89597097D01*
X177377613Y-89590115D01*
X177383106Y-89582799D01*
X177388319Y-89575154D01*
X177393239Y-89567184D01*
X177397855Y-89558893D01*
X177401836Y-89550708D01*
X177405264Y-89542319D01*
X177408147Y-89533752D01*
X177410496Y-89525031D01*
X177412320Y-89516180D01*
X177413630Y-89507224D01*
X177414436Y-89498187D01*
X177414747Y-89489093D01*
X177414573Y-89479968D01*
X177413925Y-89470835D01*
X177412812Y-89461720D01*
X177411244Y-89452645D01*
X177409231Y-89443637D01*
X177406783Y-89434718D01*
X177403911Y-89425915D01*
X177400623Y-89417250D01*
X177396930Y-89408749D01*
X177392841Y-89400436D01*
X177388368Y-89392335D01*
X177383519Y-89384472D01*
X177378305Y-89376869D01*
X177372735Y-89369552D01*
X177366820Y-89362545D01*
X177360569Y-89355873D01*
X177353993Y-89349560D01*
X177347101Y-89343630D01*
X177339903Y-89338108D01*
X177332409Y-89333019D01*
X177324630Y-89328386D01*
X177316574Y-89324234D01*
X177308253Y-89320588D01*
X177299675Y-89317472D01*
X177279823Y-89311955D01*
X177260539Y-89308480D01*
X177241865Y-89306945D01*
X177223845Y-89307247D01*
X177206523Y-89309282D01*
X177189943Y-89312948D01*
X177174147Y-89318140D01*
X177159181Y-89324757D01*
X177145087Y-89332696D01*
X177131909Y-89341852D01*
X177119690Y-89352123D01*
X177108475Y-89363406D01*
X177098307Y-89375597D01*
X177089229Y-89388594D01*
X177081285Y-89402294D01*
X177074519Y-89416594D01*
X177068974Y-89431389D01*
X177064694Y-89446579D01*
X177061723Y-89462058D01*
X177060103Y-89477724D01*
X177059880Y-89493475D01*
X176900639Y-89493475D01*
X176900636Y-89493422D01*
X176901041Y-89467658D01*
X176903277Y-89441976D01*
X176907337Y-89416507D01*
X176913213Y-89391380D01*
X176920900Y-89366726D01*
X176930390Y-89342674D01*
X176941678Y-89319354D01*
X176954756Y-89296897D01*
X176969617Y-89275431D01*
X176986256Y-89255088D01*
X177004665Y-89235996D01*
X177024837Y-89218287D01*
X177046767Y-89202089D01*
X177070446Y-89187534D01*
X177095870Y-89174750D01*
X177123030Y-89163868D01*
X177151921Y-89155018D01*
X177151926Y-89155024D01*
X177178751Y-89149045D01*
X177205208Y-89145198D01*
X177231239Y-89143406D01*
X177256785Y-89143595D01*
X177281786Y-89145688D01*
X177306184Y-89149612D01*
X177329920Y-89155289D01*
X177352935Y-89162645D01*
X177375170Y-89171605D01*
X177396567Y-89182092D01*
X177417066Y-89194033D01*
X177436609Y-89207350D01*
X177455137Y-89221969D01*
X177472591Y-89237815D01*
X177488911Y-89254812D01*
X177504040Y-89272884D01*
X177517918Y-89291957D01*
X177530486Y-89311954D01*
X177541686Y-89332801D01*
X177551459Y-89354422D01*
X177559745Y-89376742D01*
X177566487Y-89399685D01*
X177571624Y-89423176D01*
X177575099Y-89447139D01*
X177576852Y-89471499D01*
X177576824Y-89496182D01*
X177574957Y-89521110D01*
X177571192Y-89546210D01*
X177565470Y-89571404D01*
X177557731Y-89596619D01*
X177547918Y-89621779D01*
X177535971Y-89646808D01*
X177528488Y-89660119D01*
X177520073Y-89673258D01*
X177510797Y-89686167D01*
X177500728Y-89698789D01*
X177489936Y-89711066D01*
X177478490Y-89722941D01*
X177466459Y-89734356D01*
X177453913Y-89745253D01*
X177440921Y-89755575D01*
X177427553Y-89765264D01*
X177413877Y-89774263D01*
X177399963Y-89782513D01*
X177385880Y-89789958D01*
X177371698Y-89796540D01*
X177357486Y-89802200D01*
X177343314Y-89806882D01*
X177319403Y-89813923D01*
X177317664Y-90078785D01*
X177317349Y-90206499D01*
X177318447Y-90312568D01*
X177319630Y-90358636D01*
X177321289Y-90400673D01*
X177323465Y-90439140D01*
X177326201Y-90474496D01*
X177329536Y-90507203D01*
X177333512Y-90537720D01*
X177338170Y-90566507D01*
X177343551Y-90594025D01*
X177349697Y-90620735D01*
X177356647Y-90647095D01*
X177364443Y-90673567D01*
X177373126Y-90700611D01*
X177389574Y-90746616D01*
X177407963Y-90791638D01*
X177428253Y-90835628D01*
X177450400Y-90878531D01*
X177474364Y-90920297D01*
X177500104Y-90960874D01*
X177527576Y-91000210D01*
X177556741Y-91038252D01*
X177587557Y-91074950D01*
X177619981Y-91110251D01*
X177653973Y-91144104D01*
X177689490Y-91176456D01*
X177726492Y-91207256D01*
X177764936Y-91236451D01*
X177804781Y-91263991D01*
X177845986Y-91289823D01*
X177896727Y-91320060D01*
X178022550Y-91255201D01*
X178275183Y-91124970D01*
X178324637Y-91099227D01*
X178346434Y-91087700D01*
X178365567Y-91077453D01*
X178381506Y-91068771D01*
X178393717Y-91061943D01*
X178401668Y-91057254D01*
X178403880Y-91055802D01*
X178404826Y-91054993D01*
X178404298Y-91054101D01*
X178402180Y-91052405D01*
X178393490Y-91046781D01*
X178379392Y-91038473D01*
X178360522Y-91027834D01*
X178311000Y-91000975D01*
X178250005Y-90969025D01*
X178188501Y-90937090D01*
X178162430Y-90923339D01*
X178139118Y-90910836D01*
X178118290Y-90899408D01*
X178099676Y-90888884D01*
X178083001Y-90879092D01*
X178067994Y-90869858D01*
X178054382Y-90861012D01*
X178041892Y-90852380D01*
X178030252Y-90843791D01*
X178019190Y-90835072D01*
X178008432Y-90826051D01*
X177997706Y-90816556D01*
X177986740Y-90806416D01*
X177975261Y-90795456D01*
X177955256Y-90775241D01*
X177936393Y-90754345D01*
X177918679Y-90732783D01*
X177902122Y-90710571D01*
X177886728Y-90687725D01*
X177872505Y-90664260D01*
X177859459Y-90640192D01*
X177847598Y-90615537D01*
X177836929Y-90590310D01*
X177827459Y-90564527D01*
X177819194Y-90538204D01*
X177812142Y-90511357D01*
X177806310Y-90484000D01*
X177801705Y-90456150D01*
X177798334Y-90427823D01*
X177796204Y-90399033D01*
X177792650Y-90330503D01*
X177761939Y-90320823D01*
X177743648Y-90314170D01*
X177725595Y-90305870D01*
X177707871Y-90296028D01*
X177690568Y-90284750D01*
X177673778Y-90272142D01*
X177657592Y-90258309D01*
X177642101Y-90243358D01*
X177627399Y-90227392D01*
X177613576Y-90210519D01*
X177600724Y-90192844D01*
X177588936Y-90174472D01*
X177578301Y-90155508D01*
X177568914Y-90136060D01*
X177560864Y-90116232D01*
X177554245Y-90096129D01*
X177549147Y-90075858D01*
X177543913Y-90045045D01*
X177541343Y-90014957D01*
X177541340Y-90011705D01*
X177702800Y-90011705D01*
X177704172Y-90026794D01*
X177706920Y-90041473D01*
X177710971Y-90055692D01*
X177716251Y-90069399D01*
X177722684Y-90082545D01*
X177730197Y-90095079D01*
X177738716Y-90106950D01*
X177748165Y-90118107D01*
X177758471Y-90128501D01*
X177769560Y-90138079D01*
X177781356Y-90146792D01*
X177793786Y-90154588D01*
X177806776Y-90161418D01*
X177820250Y-90167230D01*
X177834136Y-90171974D01*
X177848357Y-90175600D01*
X177862841Y-90178056D01*
X177877513Y-90179291D01*
X177892298Y-90179257D01*
X177907122Y-90177900D01*
X177921910Y-90175172D01*
X177936590Y-90171021D01*
X177951085Y-90165397D01*
X177965322Y-90158249D01*
X177979227Y-90149527D01*
X177992725Y-90139179D01*
X178005742Y-90127155D01*
X178013834Y-90118412D01*
X178021199Y-90109290D01*
X178027845Y-90099825D01*
X178033781Y-90090053D01*
X178039013Y-90080010D01*
X178043550Y-90069731D01*
X178047399Y-90059252D01*
X178050567Y-90048610D01*
X178053064Y-90037839D01*
X178054896Y-90026976D01*
X178056072Y-90016057D01*
X178056598Y-90005116D01*
X178056484Y-89994191D01*
X178055736Y-89983316D01*
X178054362Y-89972527D01*
X178052371Y-89961861D01*
X178049769Y-89951353D01*
X178046565Y-89941039D01*
X178042766Y-89930954D01*
X178038380Y-89921135D01*
X178033415Y-89911617D01*
X178027879Y-89902435D01*
X178021780Y-89893627D01*
X178015124Y-89885227D01*
X178007921Y-89877271D01*
X178000177Y-89869795D01*
X177991900Y-89862835D01*
X177983099Y-89856427D01*
X177973781Y-89850606D01*
X177963953Y-89845408D01*
X177953624Y-89840869D01*
X177942801Y-89837024D01*
X177942801Y-89837028D01*
X177933765Y-89834368D01*
X177924797Y-89832098D01*
X177915903Y-89830216D01*
X177907090Y-89828718D01*
X177898364Y-89827603D01*
X177889731Y-89826867D01*
X177881199Y-89826507D01*
X177872772Y-89826521D01*
X177864458Y-89826906D01*
X177856264Y-89827659D01*
X177848196Y-89828779D01*
X177840259Y-89830260D01*
X177832461Y-89832102D01*
X177824808Y-89834302D01*
X177817307Y-89836856D01*
X177809963Y-89839762D01*
X177802784Y-89843017D01*
X177795775Y-89846619D01*
X177788944Y-89850564D01*
X177782297Y-89854850D01*
X177775839Y-89859475D01*
X177769578Y-89864435D01*
X177763521Y-89869728D01*
X177757672Y-89875351D01*
X177752040Y-89881301D01*
X177746629Y-89887576D01*
X177741448Y-89894173D01*
X177736502Y-89901089D01*
X177731797Y-89908321D01*
X177727340Y-89915867D01*
X177723138Y-89923723D01*
X177719197Y-89931888D01*
X177712569Y-89948266D01*
X177707690Y-89964487D01*
X177704485Y-89980501D01*
X177702880Y-89996257D01*
X177702800Y-90011705D01*
X177541340Y-90011705D01*
X177541319Y-89985659D01*
X177543724Y-89957213D01*
X177548442Y-89929683D01*
X177555355Y-89903133D01*
X177564346Y-89877626D01*
X177575299Y-89853226D01*
X177588096Y-89829996D01*
X177602621Y-89807999D01*
X177618755Y-89787300D01*
X177636383Y-89767961D01*
X177655387Y-89750047D01*
X177675651Y-89733621D01*
X177697056Y-89718745D01*
X177719487Y-89705485D01*
X177742826Y-89693903D01*
X177766956Y-89684062D01*
X177791761Y-89676027D01*
X177817122Y-89669861D01*
X177842924Y-89665627D01*
X177869049Y-89663389D01*
X177895380Y-89663210D01*
X177921800Y-89665154D01*
X177948192Y-89669285D01*
X177974439Y-89675665D01*
X178000424Y-89684359D01*
X178026030Y-89695430D01*
X178051140Y-89708941D01*
X178075638Y-89724956D01*
X178099405Y-89743539D01*
X178122325Y-89764753D01*
X178138387Y-89782015D01*
X178152949Y-89799985D01*
X178166030Y-89818593D01*
X178177645Y-89837772D01*
X178187814Y-89857453D01*
X178196553Y-89877568D01*
X178203879Y-89898048D01*
X178209810Y-89918826D01*
X178214364Y-89939833D01*
X178217557Y-89961001D01*
X178219406Y-89982262D01*
X178219931Y-90003547D01*
X178219147Y-90024788D01*
X178217072Y-90045917D01*
X178213723Y-90066866D01*
X178209118Y-90087566D01*
X178203274Y-90107949D01*
X178196209Y-90127946D01*
X178187939Y-90147491D01*
X178178483Y-90166513D01*
X178167858Y-90184946D01*
X178156080Y-90202720D01*
X178143167Y-90219768D01*
X178129138Y-90236021D01*
X178114008Y-90251411D01*
X178097795Y-90265870D01*
X178080518Y-90279329D01*
X178062192Y-90291720D01*
X178042836Y-90302976D01*
X178022467Y-90313027D01*
X178001102Y-90321805D01*
X177978758Y-90329242D01*
X177973507Y-90330942D01*
X177968897Y-90332814D01*
X177964910Y-90334968D01*
X177961531Y-90337509D01*
X177960065Y-90338958D01*
X177958745Y-90340545D01*
X177957568Y-90342282D01*
X177956534Y-90344183D01*
X177954883Y-90348531D01*
X177953775Y-90353696D01*
X177953196Y-90359785D01*
X177953128Y-90366905D01*
X177953555Y-90375163D01*
X177954461Y-90384668D01*
X177955831Y-90395526D01*
X177957648Y-90407844D01*
X177962560Y-90437290D01*
X177969082Y-90471095D01*
X177976583Y-90502225D01*
X177985418Y-90531030D01*
X177995941Y-90557861D01*
X178008507Y-90583071D01*
X178023469Y-90607009D01*
X178041184Y-90630028D01*
X178062005Y-90652479D01*
X178086287Y-90674712D01*
X178114384Y-90697080D01*
X178146652Y-90719933D01*
X178183444Y-90743623D01*
X178225115Y-90768500D01*
X178272021Y-90794917D01*
X178324515Y-90823224D01*
X178382951Y-90853772D01*
X178590964Y-90961246D01*
X178798909Y-90853803D01*
X178871235Y-90816209D01*
X178929969Y-90785073D01*
X178954826Y-90771572D01*
X178976990Y-90759259D01*
X178996696Y-90747992D01*
X179014178Y-90737628D01*
X179029671Y-90728025D01*
X179043410Y-90719042D01*
X179055631Y-90710535D01*
X179066567Y-90702362D01*
X179076454Y-90694382D01*
X179085526Y-90686452D01*
X179094019Y-90678430D01*
X179102167Y-90670173D01*
X179111583Y-90659897D01*
X179120762Y-90649037D01*
X179129685Y-90637649D01*
X179138336Y-90625788D01*
X179154757Y-90600874D01*
X179169893Y-90574743D01*
X179183611Y-90547842D01*
X179195779Y-90520620D01*
X179206264Y-90493524D01*
X179214933Y-90467003D01*
X179221655Y-90441503D01*
X179226297Y-90417473D01*
X179227796Y-90406149D01*
X179228726Y-90395361D01*
X179229069Y-90385164D01*
X179228810Y-90375615D01*
X179227931Y-90366768D01*
X179226416Y-90358682D01*
X179224249Y-90351410D01*
X179221413Y-90345010D01*
X179217891Y-90339537D01*
X179213667Y-90335048D01*
X179208724Y-90331597D01*
X179203046Y-90329242D01*
X179180713Y-90321809D01*
X179159357Y-90313033D01*
X179138997Y-90302984D01*
X179119649Y-90291730D01*
X179101331Y-90279339D01*
X179084060Y-90265879D01*
X179067853Y-90251420D01*
X179052728Y-90236028D01*
X179038703Y-90219773D01*
X179025794Y-90202723D01*
X179014019Y-90184946D01*
X179003396Y-90166510D01*
X178993941Y-90147484D01*
X178985672Y-90127937D01*
X178978607Y-90107936D01*
X178972763Y-90087550D01*
X178968157Y-90066847D01*
X178964807Y-90045895D01*
X178962730Y-90024764D01*
X178962074Y-90007059D01*
X179122878Y-90007059D01*
X179123845Y-90021422D01*
X179126073Y-90035869D01*
X179129608Y-90050340D01*
X179134497Y-90064780D01*
X179140785Y-90079130D01*
X179148520Y-90093335D01*
X179157747Y-90107337D01*
X179164423Y-90116049D01*
X179171503Y-90124201D01*
X179178960Y-90131794D01*
X179186767Y-90138828D01*
X179194898Y-90145302D01*
X179203328Y-90151217D01*
X179212029Y-90156571D01*
X179220976Y-90161367D01*
X179230142Y-90165602D01*
X179239501Y-90169278D01*
X179249027Y-90172393D01*
X179258693Y-90174949D01*
X179268474Y-90176944D01*
X179278342Y-90178379D01*
X179288272Y-90179254D01*
X179298237Y-90179569D01*
X179308212Y-90179323D01*
X179318169Y-90178517D01*
X179328083Y-90177150D01*
X179337927Y-90175223D01*
X179347675Y-90172735D01*
X179357301Y-90169686D01*
X179366779Y-90166076D01*
X179376082Y-90161905D01*
X179385184Y-90157174D01*
X179394058Y-90151881D01*
X179402679Y-90146027D01*
X179411020Y-90139612D01*
X179419055Y-90132636D01*
X179426758Y-90125098D01*
X179434102Y-90116999D01*
X179441061Y-90108338D01*
X179447191Y-90099726D01*
X179452733Y-90090912D01*
X179457691Y-90081916D01*
X179462071Y-90072762D01*
X179465880Y-90063472D01*
X179469123Y-90054067D01*
X179471805Y-90044570D01*
X179473932Y-90035003D01*
X179475509Y-90025387D01*
X179476543Y-90015745D01*
X179477039Y-90006100D01*
X179477002Y-89996473D01*
X179476439Y-89986885D01*
X179475354Y-89977361D01*
X179473754Y-89967920D01*
X179471643Y-89958587D01*
X179469029Y-89949381D01*
X179465916Y-89940327D01*
X179462309Y-89931445D01*
X179458215Y-89922759D01*
X179453640Y-89914289D01*
X179448588Y-89906059D01*
X179443066Y-89898089D01*
X179437079Y-89890403D01*
X179430632Y-89883023D01*
X179423732Y-89875970D01*
X179416384Y-89869266D01*
X179408594Y-89862935D01*
X179400366Y-89856997D01*
X179391708Y-89851475D01*
X179382624Y-89846391D01*
X179373120Y-89841767D01*
X179373120Y-89841724D01*
X179357606Y-89835474D01*
X179342196Y-89830734D01*
X179326936Y-89827446D01*
X179311873Y-89825554D01*
X179297052Y-89825000D01*
X179282520Y-89825727D01*
X179268324Y-89827679D01*
X179254509Y-89830797D01*
X179241122Y-89835026D01*
X179228208Y-89840308D01*
X179215816Y-89846585D01*
X179203990Y-89853801D01*
X179192777Y-89861899D01*
X179182223Y-89870821D01*
X179172375Y-89880511D01*
X179163278Y-89890911D01*
X179154980Y-89901964D01*
X179147526Y-89913614D01*
X179140963Y-89925802D01*
X179135336Y-89938473D01*
X179130693Y-89951569D01*
X179127079Y-89965032D01*
X179124541Y-89978806D01*
X179123125Y-89992834D01*
X179122878Y-90007059D01*
X178962074Y-90007059D01*
X178961943Y-90003520D01*
X178962464Y-89982233D01*
X178964310Y-89960971D01*
X178967499Y-89939803D01*
X178972047Y-89918795D01*
X178977973Y-89898018D01*
X178985294Y-89877539D01*
X178994027Y-89857426D01*
X179004189Y-89837748D01*
X179015797Y-89818574D01*
X179028871Y-89799971D01*
X179043425Y-89782008D01*
X179059479Y-89764753D01*
X179082395Y-89743543D01*
X179106159Y-89724964D01*
X179130653Y-89708953D01*
X179155760Y-89695445D01*
X179181364Y-89684377D01*
X179207347Y-89675686D01*
X179233593Y-89669309D01*
X179259984Y-89665181D01*
X179286402Y-89663239D01*
X179312733Y-89663420D01*
X179338857Y-89665660D01*
X179364658Y-89669896D01*
X179390020Y-89676064D01*
X179414824Y-89684100D01*
X179438955Y-89693941D01*
X179462294Y-89705524D01*
X179484726Y-89718785D01*
X179506132Y-89733660D01*
X179526397Y-89750086D01*
X179545402Y-89768000D01*
X179563031Y-89787337D01*
X179579167Y-89808035D01*
X179593693Y-89830029D01*
X179606491Y-89853257D01*
X179617446Y-89877655D01*
X179626439Y-89903159D01*
X179633353Y-89929706D01*
X179638072Y-89957232D01*
X179640479Y-89985674D01*
X179640457Y-90014968D01*
X179637888Y-90045050D01*
X179632655Y-90075858D01*
X179630295Y-90086045D01*
X179627543Y-90096199D01*
X179620912Y-90116354D01*
X179612852Y-90136219D01*
X179603453Y-90155691D01*
X179592805Y-90174667D01*
X179580999Y-90193043D01*
X179568124Y-90210716D01*
X179554270Y-90227583D01*
X179539527Y-90243540D01*
X179523986Y-90258484D01*
X179507736Y-90272312D01*
X179490868Y-90284919D01*
X179473471Y-90296204D01*
X179455635Y-90306062D01*
X179446581Y-90310424D01*
X179437452Y-90314390D01*
X179428257Y-90317948D01*
X179419009Y-90321085D01*
X179387427Y-90331046D01*
X179387427Y-90373188D01*
X179386728Y-90400782D01*
X179384648Y-90428328D01*
X179381209Y-90455774D01*
X179376431Y-90483063D01*
X179370339Y-90510141D01*
X179362953Y-90536955D01*
X179354296Y-90563448D01*
X179344390Y-90589566D01*
X179333258Y-90615255D01*
X179320921Y-90640461D01*
X179307401Y-90665128D01*
X179292721Y-90689202D01*
X179276903Y-90712629D01*
X179259969Y-90735353D01*
X179241941Y-90757320D01*
X179222841Y-90778476D01*
X179198160Y-90803525D01*
X179172844Y-90826134D01*
X179158824Y-90837212D01*
X179143296Y-90848507D01*
X179105922Y-90872852D01*
X179057126Y-90901373D01*
X178993313Y-90936277D01*
X178910888Y-90979770D01*
X178806255Y-91034058D01*
X178213958Y-91340182D01*
X178037556Y-91431768D01*
X177972795Y-91465645D01*
X177921184Y-91492894D01*
X177880868Y-91514500D01*
X177849990Y-91531451D01*
X177826693Y-91544733D01*
X177809122Y-91555333D01*
X177795420Y-91564237D01*
X177783730Y-91572432D01*
X177758963Y-91590641D01*
X177726236Y-91615476D01*
X177694488Y-91641635D01*
X177663759Y-91669060D01*
X177634089Y-91697698D01*
X177605518Y-91727493D01*
X177578088Y-91758390D01*
X177551837Y-91790334D01*
X177526807Y-91823270D01*
X177503038Y-91857141D01*
X177480570Y-91891895D01*
X177459444Y-91927474D01*
X177439699Y-91963825D01*
X177421377Y-92000892D01*
X177404517Y-92038619D01*
X177389159Y-92076952D01*
X177375345Y-92115836D01*
X177358264Y-92170523D01*
X177344764Y-92223223D01*
X177339232Y-92250147D01*
X177334445Y-92278159D01*
X177326902Y-92339556D01*
X177321735Y-92411639D01*
X177318541Y-92498633D01*
X177316917Y-92604763D01*
X177316461Y-92734253D01*
X177316446Y-93006681D01*
X177338571Y-93013761D01*
X177371816Y-93026046D01*
X177402422Y-93040675D01*
X177430418Y-93057469D01*
X177455832Y-93076248D01*
X177478692Y-93096834D01*
X177499026Y-93119046D01*
X177516864Y-93142707D01*
X177532232Y-93167635D01*
X177545160Y-93193652D01*
X177555674Y-93220579D01*
X177563805Y-93248237D01*
X177569579Y-93276445D01*
X177573025Y-93305026D01*
X177574171Y-93333798D01*
X177573046Y-93362584D01*
X177569678Y-93391204D01*
X177564094Y-93419479D01*
X177556323Y-93447229D01*
X177546394Y-93474274D01*
X177534334Y-93500437D01*
X177520172Y-93525536D01*
X177503936Y-93549394D01*
X177485654Y-93571831D01*
X177465355Y-93592667D01*
X177443066Y-93611724D01*
X177418815Y-93628821D01*
X177392632Y-93643780D01*
X177364545Y-93656421D01*
X177334580Y-93666565D01*
X177302767Y-93674032D01*
X177269135Y-93678645D01*
X177233710Y-93680222D01*
X177199718Y-93678678D01*
X177167400Y-93674161D01*
X177136785Y-93666845D01*
X177107903Y-93656906D01*
X177080783Y-93644515D01*
X177055454Y-93629849D01*
X177031947Y-93613081D01*
X177010290Y-93594384D01*
X176990512Y-93573933D01*
X176972644Y-93551902D01*
X176956715Y-93528466D01*
X176942753Y-93503797D01*
X176930789Y-93478071D01*
X176920852Y-93451461D01*
X176912971Y-93424141D01*
X176907176Y-93396286D01*
X176903496Y-93368070D01*
X176902058Y-93341462D01*
X177060819Y-93341462D01*
X177061334Y-93355708D01*
X177063076Y-93369969D01*
X177066087Y-93384178D01*
X177070407Y-93398269D01*
X177076078Y-93412175D01*
X177083140Y-93425830D01*
X177091634Y-93439167D01*
X177101602Y-93452120D01*
X177113083Y-93464621D01*
X177125542Y-93476073D01*
X177138441Y-93486025D01*
X177151717Y-93494518D01*
X177165303Y-93501591D01*
X177179136Y-93507284D01*
X177193148Y-93511636D01*
X177207276Y-93514688D01*
X177221454Y-93516480D01*
X177235617Y-93517051D01*
X177249700Y-93516441D01*
X177263638Y-93514689D01*
X177277365Y-93511837D01*
X177290816Y-93507923D01*
X177303926Y-93502987D01*
X177316631Y-93497069D01*
X177328864Y-93490209D01*
X177340561Y-93482447D01*
X177351657Y-93473823D01*
X177362085Y-93464376D01*
X177371782Y-93454146D01*
X177380682Y-93443173D01*
X177388720Y-93431498D01*
X177395831Y-93419158D01*
X177401949Y-93406195D01*
X177407009Y-93392649D01*
X177410946Y-93378558D01*
X177413696Y-93363964D01*
X177415192Y-93348905D01*
X177415370Y-93333422D01*
X177414165Y-93317554D01*
X177411511Y-93301342D01*
X177407343Y-93284824D01*
X177405996Y-93280667D01*
X177404412Y-93276453D01*
X177400566Y-93267891D01*
X177395882Y-93259216D01*
X177390436Y-93250503D01*
X177384306Y-93241830D01*
X177377568Y-93233273D01*
X177370298Y-93224910D01*
X177362575Y-93216817D01*
X177354473Y-93209070D01*
X177346072Y-93201747D01*
X177337446Y-93194925D01*
X177328673Y-93188680D01*
X177319829Y-93183089D01*
X177310992Y-93178229D01*
X177302239Y-93174177D01*
X177293645Y-93171009D01*
X177293645Y-93171012D01*
X177277223Y-93166543D01*
X177261087Y-93163621D01*
X177245278Y-93162178D01*
X177229837Y-93162147D01*
X177214805Y-93163463D01*
X177200223Y-93166059D01*
X177186131Y-93169867D01*
X177172572Y-93174822D01*
X177159585Y-93180857D01*
X177147211Y-93187905D01*
X177135493Y-93195900D01*
X177124469Y-93204776D01*
X177114182Y-93214464D01*
X177104672Y-93224901D01*
X177095981Y-93236017D01*
X177088149Y-93247748D01*
X177081217Y-93260026D01*
X177075226Y-93272784D01*
X177070217Y-93285958D01*
X177066230Y-93299478D01*
X177063308Y-93313280D01*
X177061491Y-93327297D01*
X177060819Y-93341462D01*
X176902058Y-93341462D01*
X176901961Y-93339666D01*
X176902599Y-93311248D01*
X176905441Y-93282991D01*
X176910515Y-93255070D01*
X176917852Y-93227656D01*
X176927480Y-93200926D01*
X176939429Y-93175053D01*
X176953728Y-93150211D01*
X176970408Y-93126574D01*
X176989496Y-93104317D01*
X177011024Y-93083612D01*
X177035019Y-93064635D01*
X177061512Y-93047560D01*
X177090531Y-93032560D01*
X177122107Y-93019809D01*
X177154190Y-93008509D01*
X177157524Y-92664362D01*
X177158840Y-92542421D01*
X177160394Y-92446963D01*
X177161376Y-92407578D01*
X177162557Y-92372909D01*
X177163984Y-92342320D01*
X177165703Y-92315177D01*
X177167761Y-92290844D01*
X177170204Y-92268687D01*
X177173079Y-92248070D01*
X177176433Y-92228358D01*
X177180312Y-92208917D01*
X177184763Y-92189111D01*
X177195566Y-92145865D01*
X177210375Y-92093723D01*
X177227588Y-92042207D01*
X177247131Y-91991423D01*
X177268931Y-91941478D01*
X177292912Y-91892480D01*
X177319002Y-91844533D01*
X177347126Y-91797746D01*
X177377211Y-91752225D01*
X177409182Y-91708076D01*
X177442967Y-91665407D01*
X177478490Y-91624324D01*
X177515679Y-91584934D01*
X177554459Y-91547343D01*
X177594756Y-91511659D01*
X177636496Y-91477988D01*
X177679607Y-91446436D01*
X177696847Y-91434434D01*
X177703624Y-91429545D01*
X177709175Y-91425244D01*
X177711492Y-91423278D01*
X177713503Y-91421417D01*
X177715210Y-91419647D01*
X177716611Y-91417951D01*
X177717708Y-91416318D01*
X177718501Y-91414731D01*
X177718990Y-91413178D01*
X177719176Y-91411643D01*
X177719058Y-91410113D01*
X177718638Y-91408573D01*
X177717915Y-91407008D01*
X177716889Y-91405406D01*
X177715562Y-91403750D01*
X177713933Y-91402028D01*
X177712003Y-91400224D01*
X177709772Y-91398325D01*
X177704408Y-91394183D01*
X177697844Y-91389487D01*
X177681126Y-91377979D01*
X177638274Y-91346901D01*
X177596688Y-91313551D01*
X177556456Y-91278051D01*
X177517663Y-91240527D01*
X177480394Y-91201100D01*
X177444735Y-91159896D01*
X177410772Y-91117038D01*
X177378591Y-91072649D01*
X177348277Y-91026854D01*
X177319917Y-90979776D01*
X177293595Y-90931539D01*
X177269397Y-90882267D01*
X177247410Y-90832083D01*
X177227719Y-90781111D01*
X177210410Y-90729475D01*
X177195568Y-90677298D01*
X177184764Y-90634048D01*
X177176435Y-90594798D01*
X177170205Y-90554465D01*
X177165704Y-90507964D01*
X177162558Y-90450211D01*
X177160395Y-90376122D01*
X177157526Y-90158594D01*
X177154192Y-89814255D01*
X177118732Y-89801417D01*
X177090882Y-89790009D01*
X177064962Y-89776734D01*
X177040966Y-89761723D01*
X177018887Y-89745105D01*
X176998718Y-89727010D01*
X176980454Y-89707569D01*
X176964086Y-89686910D01*
X176949608Y-89665164D01*
X176937014Y-89642461D01*
X176926298Y-89618931D01*
X176917451Y-89594704D01*
X176910469Y-89569909D01*
X176905343Y-89544677D01*
X176902068Y-89519138D01*
X176900639Y-89493475D01*
D10*
X175675000Y-57425000D02*
X194125000Y-57425000D01*
D11*
G36*
X179608323Y-89490022D02*
G01*
X179766193Y-89490022D01*
X179767447Y-89504832D01*
X179770061Y-89519662D01*
X179774087Y-89534443D01*
X179779572Y-89549103D01*
X179786566Y-89563573D01*
X179795119Y-89577784D01*
X179805280Y-89591665D01*
X179817097Y-89605146D01*
X179827797Y-89615537D01*
X179838916Y-89624795D01*
X179850405Y-89632941D01*
X179862212Y-89639996D01*
X179874288Y-89645981D01*
X179886584Y-89650915D01*
X179899049Y-89654821D01*
X179911634Y-89657718D01*
X179924289Y-89659629D01*
X179936963Y-89660572D01*
X179949607Y-89660570D01*
X179962170Y-89659643D01*
X179974604Y-89657812D01*
X179986858Y-89655098D01*
X179998882Y-89651521D01*
X180010627Y-89647103D01*
X180022041Y-89641864D01*
X180033076Y-89635824D01*
X180043682Y-89629005D01*
X180053808Y-89621428D01*
X180063405Y-89613113D01*
X180072423Y-89604081D01*
X180080811Y-89594353D01*
X180088521Y-89583950D01*
X180095502Y-89572892D01*
X180101704Y-89561201D01*
X180107077Y-89548896D01*
X180111571Y-89536000D01*
X180115137Y-89522532D01*
X180117725Y-89508514D01*
X180119284Y-89493967D01*
X180119765Y-89478910D01*
X180119616Y-89472730D01*
X180119231Y-89466578D01*
X180118614Y-89460459D01*
X180117768Y-89454378D01*
X180116697Y-89448341D01*
X180115404Y-89442354D01*
X180113893Y-89436422D01*
X180112169Y-89430551D01*
X180110234Y-89424747D01*
X180108093Y-89419015D01*
X180105749Y-89413361D01*
X180103205Y-89407790D01*
X180100467Y-89402308D01*
X180097536Y-89396921D01*
X180094418Y-89391635D01*
X180091115Y-89386454D01*
X180087632Y-89381385D01*
X180083972Y-89376432D01*
X180080139Y-89371603D01*
X180076136Y-89366902D01*
X180071968Y-89362335D01*
X180067638Y-89357908D01*
X180063149Y-89353626D01*
X180058506Y-89349495D01*
X180053712Y-89345521D01*
X180048771Y-89341708D01*
X180043687Y-89338064D01*
X180038463Y-89334592D01*
X180033103Y-89331300D01*
X180027611Y-89328192D01*
X180021990Y-89325275D01*
X180016244Y-89322553D01*
X180016246Y-89322553D01*
X179999626Y-89315887D01*
X179983183Y-89310920D01*
X179966967Y-89307583D01*
X179951028Y-89305806D01*
X179935414Y-89305519D01*
X179920174Y-89306651D01*
X179905359Y-89309133D01*
X179891018Y-89312894D01*
X179877199Y-89317866D01*
X179863953Y-89323977D01*
X179851328Y-89331158D01*
X179839373Y-89339339D01*
X179828139Y-89348450D01*
X179817674Y-89358420D01*
X179808028Y-89369181D01*
X179799250Y-89380661D01*
X179791389Y-89392791D01*
X179784495Y-89405502D01*
X179778617Y-89418722D01*
X179773805Y-89432382D01*
X179770106Y-89446412D01*
X179767572Y-89460742D01*
X179766251Y-89475302D01*
X179766193Y-89490022D01*
X179608323Y-89490022D01*
X179608493Y-89470065D01*
X179610633Y-89443358D01*
X179614680Y-89416871D01*
X179620627Y-89390751D01*
X179628466Y-89365145D01*
X179638192Y-89340202D01*
X179649798Y-89316068D01*
X179663277Y-89292891D01*
X179678623Y-89270818D01*
X179695830Y-89249998D01*
X179714890Y-89230577D01*
X179735798Y-89212704D01*
X179758546Y-89196525D01*
X179783128Y-89182188D01*
X179809539Y-89169840D01*
X179837770Y-89159629D01*
X179867816Y-89151703D01*
X179867737Y-89151673D01*
X179905517Y-89145290D01*
X179941869Y-89142745D01*
X179976729Y-89143826D01*
X180010037Y-89148323D01*
X180041729Y-89156023D01*
X180071743Y-89166717D01*
X180100018Y-89180192D01*
X180126491Y-89196237D01*
X180151100Y-89214641D01*
X180173783Y-89235194D01*
X180194478Y-89257683D01*
X180213121Y-89281898D01*
X180229652Y-89307628D01*
X180244009Y-89334661D01*
X180256128Y-89362785D01*
X180265947Y-89391791D01*
X180273405Y-89421466D01*
X180278440Y-89451600D01*
X180280989Y-89481981D01*
X180280989Y-89512398D01*
X180278380Y-89542640D01*
X180273098Y-89572495D01*
X180265082Y-89601753D01*
X180254268Y-89630203D01*
X180240596Y-89657632D01*
X180224003Y-89683830D01*
X180204427Y-89708586D01*
X180181805Y-89731689D01*
X180156075Y-89752926D01*
X180127176Y-89772088D01*
X180095045Y-89788963D01*
X180059619Y-89803339D01*
X180027534Y-89814640D01*
X180024095Y-90158786D01*
X180022778Y-90281242D01*
X180021310Y-90375895D01*
X180020391Y-90414531D01*
X180019281Y-90448301D01*
X180017929Y-90477897D01*
X180016283Y-90504016D01*
X180014293Y-90527351D01*
X180011907Y-90548596D01*
X180009074Y-90568447D01*
X180005744Y-90587597D01*
X180001865Y-90606742D01*
X179997386Y-90626576D01*
X179986423Y-90671088D01*
X179971010Y-90726411D01*
X179952928Y-90780987D01*
X179932258Y-90834704D01*
X179909080Y-90887446D01*
X179883476Y-90939099D01*
X179855528Y-90989550D01*
X179825317Y-91038684D01*
X179792924Y-91086387D01*
X179758430Y-91132545D01*
X179721917Y-91177044D01*
X179683466Y-91219770D01*
X179643158Y-91260608D01*
X179601075Y-91299445D01*
X179557299Y-91336166D01*
X179511909Y-91370658D01*
X179464989Y-91402805D01*
X179460555Y-91405804D01*
X179458931Y-91407135D01*
X179457758Y-91408427D01*
X179457355Y-91409077D01*
X179457080Y-91409737D01*
X179456940Y-91410416D01*
X179456940Y-91411120D01*
X179457084Y-91411855D01*
X179457379Y-91412630D01*
X179457829Y-91413451D01*
X179458440Y-91414325D01*
X179460167Y-91416258D01*
X179462602Y-91418487D01*
X179465787Y-91421065D01*
X179469765Y-91424050D01*
X179480271Y-91431458D01*
X179494461Y-91441156D01*
X179543636Y-91476538D01*
X179590804Y-91514363D01*
X179635906Y-91554541D01*
X179678884Y-91596980D01*
X179719681Y-91641589D01*
X179758239Y-91688277D01*
X179794500Y-91736953D01*
X179828405Y-91787524D01*
X179859897Y-91839900D01*
X179888917Y-91893990D01*
X179915409Y-91949702D01*
X179939313Y-92006944D01*
X179960572Y-92065627D01*
X179979128Y-92125658D01*
X179994923Y-92186945D01*
X180007899Y-92249399D01*
X180011946Y-92273022D01*
X180015114Y-92296966D01*
X180017556Y-92325107D01*
X180019423Y-92361317D01*
X180022045Y-92473445D01*
X180024199Y-92664347D01*
X180027539Y-93008493D01*
X180059621Y-93019794D01*
X180088293Y-93031277D01*
X180114933Y-93044729D01*
X180139550Y-93060010D01*
X180162153Y-93076981D01*
X180182753Y-93095502D01*
X180201357Y-93115434D01*
X180217977Y-93136636D01*
X180232620Y-93158970D01*
X180245297Y-93182296D01*
X180256017Y-93206473D01*
X180264789Y-93231363D01*
X180271623Y-93256826D01*
X180276528Y-93282722D01*
X180279514Y-93308912D01*
X180280589Y-93335256D01*
X180279764Y-93361614D01*
X180277048Y-93387847D01*
X180272449Y-93413814D01*
X180265978Y-93439378D01*
X180257644Y-93464397D01*
X180247456Y-93488733D01*
X180235425Y-93512245D01*
X180221558Y-93534795D01*
X180205865Y-93556242D01*
X180188357Y-93576447D01*
X180169042Y-93595269D01*
X180147930Y-93612571D01*
X180125029Y-93628212D01*
X180100351Y-93642052D01*
X180073903Y-93653951D01*
X180045695Y-93663771D01*
X180015738Y-93671372D01*
X179977275Y-93677549D01*
X179940376Y-93679828D01*
X179905097Y-93678427D01*
X179871495Y-93673562D01*
X179839627Y-93665452D01*
X179809550Y-93654313D01*
X179781322Y-93640362D01*
X179754999Y-93623818D01*
X179730638Y-93604897D01*
X179708297Y-93583817D01*
X179688032Y-93560796D01*
X179669901Y-93536050D01*
X179653960Y-93509796D01*
X179640267Y-93482254D01*
X179628878Y-93453639D01*
X179619851Y-93424169D01*
X179613243Y-93394061D01*
X179609111Y-93363533D01*
X179608035Y-93342873D01*
X179766505Y-93342873D01*
X179767242Y-93356244D01*
X179769079Y-93369736D01*
X179772060Y-93383307D01*
X179776223Y-93396918D01*
X179781610Y-93410526D01*
X179786642Y-93421008D01*
X179792218Y-93430974D01*
X179798310Y-93440420D01*
X179804889Y-93449339D01*
X179811925Y-93457727D01*
X179819390Y-93465579D01*
X179827256Y-93472888D01*
X179835493Y-93479650D01*
X179844072Y-93485859D01*
X179852965Y-93491510D01*
X179862142Y-93496597D01*
X179871576Y-93501116D01*
X179881236Y-93505060D01*
X179891094Y-93508425D01*
X179901121Y-93511205D01*
X179911289Y-93513396D01*
X179921569Y-93514990D01*
X179931931Y-93515984D01*
X179942346Y-93516371D01*
X179952787Y-93516147D01*
X179963224Y-93515307D01*
X179973628Y-93513844D01*
X179983970Y-93511753D01*
X179994221Y-93509030D01*
X180004354Y-93505668D01*
X180014338Y-93501663D01*
X180024144Y-93497009D01*
X180033745Y-93491701D01*
X180043111Y-93485733D01*
X180052213Y-93479100D01*
X180061023Y-93471797D01*
X180069511Y-93463819D01*
X180077385Y-93455433D01*
X180084583Y-93446719D01*
X180091110Y-93437708D01*
X180096972Y-93428428D01*
X180102174Y-93418908D01*
X180106723Y-93409177D01*
X180110623Y-93399264D01*
X180113881Y-93389198D01*
X180116502Y-93379008D01*
X180118491Y-93368724D01*
X180119855Y-93358374D01*
X180120598Y-93347987D01*
X180120728Y-93337592D01*
X180120248Y-93327218D01*
X180119165Y-93316895D01*
X180117485Y-93306651D01*
X180115213Y-93296516D01*
X180112355Y-93286518D01*
X180108915Y-93276686D01*
X180104901Y-93267050D01*
X180100318Y-93257638D01*
X180095171Y-93248480D01*
X180089465Y-93239605D01*
X180083208Y-93231041D01*
X180076403Y-93222818D01*
X180069057Y-93214964D01*
X180061175Y-93207509D01*
X180052764Y-93200482D01*
X180043828Y-93193912D01*
X180034374Y-93187827D01*
X180024406Y-93182257D01*
X180013931Y-93177231D01*
X180013933Y-93177231D01*
X180000348Y-93171854D01*
X179986763Y-93167703D01*
X179973219Y-93164739D01*
X179959757Y-93162920D01*
X179946417Y-93162204D01*
X179933241Y-93162552D01*
X179920269Y-93163922D01*
X179907541Y-93166273D01*
X179895100Y-93169564D01*
X179882985Y-93173755D01*
X179871237Y-93178803D01*
X179859897Y-93184669D01*
X179849006Y-93191312D01*
X179838605Y-93198689D01*
X179828734Y-93206761D01*
X179819435Y-93215486D01*
X179810747Y-93224824D01*
X179802712Y-93234733D01*
X179795371Y-93245173D01*
X179788764Y-93256103D01*
X179782933Y-93267480D01*
X179777917Y-93279266D01*
X179773758Y-93291418D01*
X179770496Y-93303896D01*
X179768173Y-93316658D01*
X179766829Y-93329664D01*
X179766505Y-93342873D01*
X179608035Y-93342873D01*
X179607511Y-93332803D01*
X179608501Y-93302086D01*
X179612138Y-93271602D01*
X179618479Y-93241567D01*
X179627581Y-93212199D01*
X179639502Y-93183714D01*
X179654297Y-93156331D01*
X179672024Y-93130267D01*
X179692740Y-93105738D01*
X179716503Y-93082964D01*
X179743369Y-93062159D01*
X179773395Y-93043543D01*
X179806638Y-93027333D01*
X179843156Y-93013745D01*
X179865282Y-93006665D01*
X179865268Y-92734238D01*
X179864806Y-92605015D01*
X179863166Y-92498991D01*
X179861780Y-92453370D01*
X179859949Y-92411977D01*
X179857624Y-92374289D01*
X179854755Y-92339782D01*
X179851292Y-92307933D01*
X179847185Y-92278218D01*
X179842384Y-92250113D01*
X179836838Y-92223094D01*
X179830499Y-92196638D01*
X179823316Y-92170221D01*
X179815240Y-92143319D01*
X179806219Y-92115409D01*
X179789571Y-92069064D01*
X179770772Y-92023602D01*
X179749883Y-91979096D01*
X179726967Y-91935622D01*
X179702086Y-91893255D01*
X179675300Y-91852069D01*
X179646674Y-91812141D01*
X179616267Y-91773545D01*
X179584143Y-91736356D01*
X179550363Y-91700650D01*
X179514990Y-91666500D01*
X179478084Y-91633984D01*
X179439709Y-91603175D01*
X179399926Y-91574148D01*
X179358797Y-91546980D01*
X179316383Y-91521744D01*
X179283739Y-91503363D01*
X179171826Y-91561112D01*
X178967328Y-91666735D01*
X178898434Y-91702459D01*
X178848091Y-91728723D01*
X178813532Y-91746979D01*
X178791992Y-91758673D01*
X178785240Y-91762514D01*
X178780706Y-91765257D01*
X178778044Y-91767086D01*
X178777307Y-91767713D01*
X178776909Y-91768180D01*
X178777437Y-91769069D01*
X178779556Y-91770762D01*
X178788245Y-91776383D01*
X178802343Y-91784688D01*
X178821214Y-91795325D01*
X178870735Y-91822183D01*
X178931731Y-91854132D01*
X178993235Y-91886067D01*
X179019305Y-91899818D01*
X179042617Y-91912322D01*
X179063445Y-91923750D01*
X179082059Y-91934274D01*
X179098734Y-91944067D01*
X179113741Y-91953300D01*
X179127353Y-91962147D01*
X179139843Y-91970779D01*
X179151483Y-91979368D01*
X179162546Y-91988087D01*
X179173303Y-91997108D01*
X179184029Y-92006602D01*
X179194995Y-92016742D01*
X179206474Y-92027701D01*
X179226480Y-92047916D01*
X179245343Y-92068813D01*
X179263056Y-92090375D01*
X179279613Y-92112586D01*
X179295007Y-92135433D01*
X179309230Y-92158898D01*
X179322275Y-92182965D01*
X179334136Y-92207620D01*
X179344805Y-92232847D01*
X179354276Y-92258630D01*
X179362541Y-92284953D01*
X179369593Y-92311801D01*
X179375425Y-92339157D01*
X179380030Y-92367007D01*
X179383401Y-92395335D01*
X179385532Y-92424124D01*
X179389091Y-92492658D01*
X179419801Y-92502338D01*
X179438092Y-92508991D01*
X179456145Y-92517292D01*
X179473868Y-92527134D01*
X179491172Y-92538412D01*
X179507962Y-92551020D01*
X179524149Y-92564852D01*
X179539639Y-92579804D01*
X179554341Y-92595769D01*
X179568164Y-92612642D01*
X179581016Y-92630318D01*
X179592805Y-92648690D01*
X179603439Y-92667653D01*
X179612827Y-92687101D01*
X179620876Y-92706929D01*
X179627495Y-92727031D01*
X179632593Y-92747303D01*
X179637825Y-92778110D01*
X179640394Y-92808193D01*
X179640417Y-92837487D01*
X179638010Y-92865928D01*
X179633291Y-92893454D01*
X179626376Y-92920001D01*
X179617383Y-92945505D01*
X179606429Y-92969903D01*
X179593630Y-92993131D01*
X179579105Y-93015126D01*
X179562969Y-93035824D01*
X179545339Y-93055161D01*
X179526334Y-93073075D01*
X179506070Y-93089501D01*
X179484663Y-93104376D01*
X179462232Y-93117637D01*
X179438892Y-93129220D01*
X179414762Y-93139061D01*
X179389957Y-93147097D01*
X179364596Y-93153265D01*
X179338794Y-93157500D01*
X179312670Y-93159740D01*
X179286340Y-93159921D01*
X179259921Y-93157980D01*
X179233530Y-93153852D01*
X179207285Y-93147474D01*
X179181302Y-93138783D01*
X179155698Y-93127716D01*
X179130590Y-93114208D01*
X179106096Y-93098196D01*
X179082332Y-93079618D01*
X179059416Y-93058408D01*
X179043327Y-93041118D01*
X179028741Y-93023125D01*
X179015640Y-93004497D01*
X179004008Y-92985301D01*
X178993826Y-92965606D01*
X178985077Y-92945479D01*
X178977744Y-92924990D01*
X178971810Y-92904205D01*
X178967257Y-92883193D01*
X178964067Y-92862022D01*
X178962224Y-92840759D01*
X178961710Y-92819474D01*
X178961832Y-92816232D01*
X179122994Y-92816232D01*
X179123269Y-92829093D01*
X179124528Y-92842112D01*
X179126807Y-92855253D01*
X179130140Y-92868483D01*
X179134561Y-92881766D01*
X179139095Y-92892784D01*
X179144245Y-92903290D01*
X179149977Y-92913276D01*
X179156259Y-92922736D01*
X179163061Y-92931662D01*
X179170349Y-92940048D01*
X179178091Y-92947887D01*
X179186256Y-92955171D01*
X179194811Y-92961894D01*
X179203724Y-92968048D01*
X179212963Y-92973626D01*
X179222497Y-92978622D01*
X179232292Y-92983029D01*
X179242317Y-92986839D01*
X179252541Y-92990045D01*
X179262929Y-92992641D01*
X179273452Y-92994619D01*
X179284076Y-92995972D01*
X179294770Y-92996694D01*
X179305501Y-92996777D01*
X179316237Y-92996214D01*
X179326947Y-92994999D01*
X179337598Y-92993124D01*
X179348158Y-92990582D01*
X179358595Y-92987366D01*
X179368877Y-92983470D01*
X179378971Y-92978885D01*
X179388847Y-92973606D01*
X179398471Y-92967625D01*
X179407812Y-92960936D01*
X179416838Y-92953530D01*
X179425516Y-92945401D01*
X179433628Y-92936739D01*
X179441018Y-92927726D01*
X179447693Y-92918396D01*
X179453660Y-92908780D01*
X179458926Y-92898911D01*
X179463498Y-92888820D01*
X179467383Y-92878541D01*
X179470588Y-92868105D01*
X179473120Y-92857545D01*
X179474987Y-92846893D01*
X179476195Y-92836181D01*
X179476751Y-92825441D01*
X179476662Y-92814705D01*
X179475936Y-92804007D01*
X179474580Y-92793377D01*
X179472600Y-92782848D01*
X179470004Y-92772453D01*
X179466798Y-92762223D01*
X179462990Y-92752192D01*
X179458587Y-92742390D01*
X179453595Y-92732851D01*
X179448022Y-92723606D01*
X179441876Y-92714688D01*
X179435162Y-92706129D01*
X179427888Y-92697961D01*
X179420061Y-92690217D01*
X179411688Y-92682928D01*
X179402776Y-92676127D01*
X179393333Y-92669846D01*
X179383365Y-92664118D01*
X179372879Y-92658974D01*
X179361882Y-92654447D01*
X179348598Y-92650025D01*
X179335369Y-92646692D01*
X179322227Y-92644413D01*
X179309209Y-92643154D01*
X179296347Y-92642879D01*
X179283678Y-92643555D01*
X179271235Y-92645147D01*
X179259052Y-92647620D01*
X179247165Y-92650941D01*
X179235607Y-92655074D01*
X179224414Y-92659984D01*
X179213619Y-92665639D01*
X179203258Y-92672002D01*
X179193364Y-92679041D01*
X179183973Y-92686719D01*
X179175118Y-92695003D01*
X179166834Y-92703858D01*
X179159156Y-92713249D01*
X179152118Y-92723143D01*
X179145754Y-92733504D01*
X179140100Y-92744299D01*
X179135189Y-92755492D01*
X179131056Y-92767050D01*
X179127735Y-92778937D01*
X179125262Y-92791119D01*
X179123670Y-92803562D01*
X179122994Y-92816232D01*
X178961832Y-92816232D01*
X178962508Y-92798233D01*
X178964599Y-92777105D01*
X178967968Y-92756159D01*
X178972595Y-92735461D01*
X178978465Y-92715081D01*
X178985560Y-92695085D01*
X178993862Y-92675543D01*
X179003353Y-92656522D01*
X179014018Y-92638090D01*
X179025837Y-92620315D01*
X179038794Y-92603266D01*
X179052871Y-92587010D01*
X179068051Y-92571615D01*
X179084317Y-92557150D01*
X179101651Y-92543681D01*
X179120036Y-92531279D01*
X179139454Y-92520010D01*
X179159888Y-92509942D01*
X179181321Y-92501144D01*
X179203735Y-92493683D01*
X179229564Y-92486063D01*
X179225626Y-92438538D01*
X179223454Y-92416762D01*
X179220600Y-92395646D01*
X179217050Y-92375160D01*
X179212791Y-92355274D01*
X179207812Y-92335961D01*
X179202099Y-92317191D01*
X179195639Y-92298935D01*
X179188421Y-92281165D01*
X179180432Y-92263851D01*
X179171659Y-92246964D01*
X179162089Y-92230476D01*
X179151710Y-92214357D01*
X179140510Y-92198578D01*
X179128476Y-92183112D01*
X179115594Y-92167928D01*
X179101854Y-92152997D01*
X179084959Y-92136178D01*
X179066910Y-92120542D01*
X179045282Y-92104620D01*
X179017652Y-92086943D01*
X178981596Y-92066044D01*
X178934689Y-92040453D01*
X178798627Y-91969324D01*
X178590703Y-91861881D01*
X178382779Y-91969370D01*
X178308351Y-92007956D01*
X178250102Y-92038531D01*
X178226206Y-92051312D01*
X178205346Y-92062688D01*
X178187188Y-92072857D01*
X178171394Y-92082019D01*
X178157630Y-92090373D01*
X178145559Y-92098117D01*
X178134846Y-92105451D01*
X178125153Y-92112574D01*
X178116146Y-92119686D01*
X178107489Y-92126984D01*
X178098844Y-92134669D01*
X178089877Y-92142938D01*
X178080110Y-92152533D01*
X178070548Y-92162852D01*
X178061210Y-92173831D01*
X178052117Y-92185408D01*
X178034746Y-92210099D01*
X178018597Y-92236415D01*
X178003829Y-92263850D01*
X177990605Y-92291893D01*
X177979086Y-92320036D01*
X177969431Y-92347771D01*
X177961804Y-92374589D01*
X177956364Y-92399982D01*
X177954515Y-92411985D01*
X177953273Y-92423441D01*
X177952658Y-92434286D01*
X177952692Y-92444457D01*
X177953393Y-92453891D01*
X177954781Y-92462523D01*
X177956878Y-92470290D01*
X177959703Y-92477129D01*
X177963277Y-92482975D01*
X177967619Y-92487766D01*
X177972749Y-92491438D01*
X177978688Y-92493927D01*
X178001042Y-92501363D01*
X178022413Y-92510129D01*
X178042785Y-92520158D01*
X178062140Y-92531383D01*
X178080462Y-92543736D01*
X178097733Y-92557151D01*
X178113936Y-92571561D01*
X178129054Y-92586897D01*
X178143070Y-92603093D01*
X178155967Y-92620082D01*
X178167728Y-92637797D01*
X178178337Y-92656170D01*
X178187774Y-92675134D01*
X178196025Y-92694622D01*
X178203071Y-92714567D01*
X178208896Y-92734901D01*
X178213483Y-92755558D01*
X178216814Y-92776470D01*
X178218872Y-92797571D01*
X178219641Y-92818792D01*
X178219103Y-92840066D01*
X178217241Y-92861328D01*
X178214039Y-92882508D01*
X178209478Y-92903541D01*
X178203543Y-92924359D01*
X178196215Y-92944894D01*
X178187479Y-92965080D01*
X178177316Y-92984849D01*
X178165710Y-93004135D01*
X178152644Y-93022870D01*
X178138101Y-93040986D01*
X178122063Y-93058417D01*
X178102369Y-93077005D01*
X178081882Y-93093624D01*
X178060692Y-93108308D01*
X178038888Y-93121091D01*
X178016560Y-93132005D01*
X177993796Y-93141084D01*
X177970688Y-93148362D01*
X177947323Y-93153872D01*
X177923792Y-93157647D01*
X177900183Y-93159720D01*
X177876588Y-93160126D01*
X177853095Y-93158896D01*
X177829793Y-93156065D01*
X177806772Y-93151667D01*
X177784122Y-93145733D01*
X177761932Y-93138299D01*
X177740291Y-93129396D01*
X177719290Y-93119059D01*
X177699017Y-93107321D01*
X177679563Y-93094215D01*
X177661016Y-93079774D01*
X177643466Y-93064032D01*
X177627002Y-93047023D01*
X177611715Y-93028779D01*
X177597694Y-93009334D01*
X177585027Y-92988722D01*
X177573806Y-92966975D01*
X177564118Y-92944128D01*
X177556054Y-92920213D01*
X177549703Y-92895263D01*
X177545155Y-92869313D01*
X177542499Y-92842395D01*
X177541941Y-92828340D01*
X177541974Y-92817645D01*
X177703829Y-92817645D01*
X177704073Y-92831366D01*
X177705463Y-92845222D01*
X177708042Y-92859167D01*
X177711855Y-92873155D01*
X177716945Y-92887139D01*
X177723358Y-92901074D01*
X177728693Y-92910787D01*
X177734518Y-92920007D01*
X177740807Y-92928730D01*
X177747532Y-92936950D01*
X177754668Y-92944665D01*
X177762186Y-92951869D01*
X177770061Y-92958558D01*
X177778265Y-92964729D01*
X177786771Y-92970376D01*
X177795553Y-92975496D01*
X177804584Y-92980084D01*
X177813836Y-92984136D01*
X177823284Y-92987648D01*
X177832900Y-92990615D01*
X177842657Y-92993032D01*
X177852529Y-92994897D01*
X177862488Y-92996204D01*
X177872508Y-92996949D01*
X177882562Y-92997128D01*
X177892623Y-92996736D01*
X177902665Y-92995770D01*
X177912659Y-92994224D01*
X177922581Y-92992095D01*
X177932402Y-92989379D01*
X177942095Y-92986070D01*
X177951635Y-92982166D01*
X177960994Y-92977660D01*
X177970145Y-92972550D01*
X177979062Y-92966831D01*
X177987717Y-92960498D01*
X177996084Y-92953548D01*
X178004135Y-92945975D01*
X178012170Y-92937452D01*
X178019542Y-92928637D01*
X178026256Y-92919556D01*
X178032317Y-92910236D01*
X178037728Y-92900703D01*
X178042495Y-92890983D01*
X178046621Y-92881104D01*
X178050112Y-92871090D01*
X178052972Y-92860968D01*
X178055205Y-92850766D01*
X178056817Y-92840509D01*
X178057811Y-92830224D01*
X178058191Y-92819937D01*
X178057964Y-92809674D01*
X178057133Y-92799463D01*
X178055702Y-92789328D01*
X178053676Y-92779298D01*
X178051060Y-92769397D01*
X178047859Y-92759653D01*
X178044076Y-92750091D01*
X178039716Y-92740739D01*
X178034784Y-92731623D01*
X178029284Y-92722768D01*
X178023221Y-92714202D01*
X178016600Y-92705951D01*
X178009424Y-92698041D01*
X178001699Y-92690498D01*
X177993429Y-92683350D01*
X177984618Y-92676621D01*
X177975271Y-92670340D01*
X177965392Y-92664532D01*
X177954987Y-92659223D01*
X177954987Y-92659226D01*
X177940938Y-92653264D01*
X177926887Y-92648636D01*
X177912878Y-92645294D01*
X177898956Y-92643193D01*
X177885164Y-92642287D01*
X177871546Y-92642530D01*
X177858148Y-92643875D01*
X177845012Y-92646277D01*
X177832183Y-92649689D01*
X177819705Y-92654066D01*
X177807623Y-92659361D01*
X177795980Y-92665528D01*
X177784821Y-92672521D01*
X177774189Y-92680294D01*
X177764129Y-92688801D01*
X177754685Y-92697996D01*
X177745901Y-92707833D01*
X177737821Y-92718266D01*
X177730489Y-92729248D01*
X177723950Y-92740734D01*
X177718248Y-92752678D01*
X177713426Y-92765033D01*
X177709529Y-92777753D01*
X177706601Y-92790793D01*
X177704687Y-92804105D01*
X177703829Y-92817645D01*
X177541974Y-92817645D01*
X177541984Y-92814316D01*
X177542617Y-92800341D01*
X177543826Y-92786434D01*
X177545600Y-92772615D01*
X177547925Y-92758903D01*
X177550791Y-92745316D01*
X177554185Y-92731874D01*
X177558093Y-92718596D01*
X177562504Y-92705502D01*
X177567406Y-92692609D01*
X177572787Y-92679937D01*
X177578633Y-92667506D01*
X177584933Y-92655334D01*
X177591674Y-92643441D01*
X177598845Y-92631845D01*
X177606432Y-92620565D01*
X177614423Y-92609622D01*
X177622807Y-92599033D01*
X177631570Y-92588818D01*
X177640701Y-92578996D01*
X177650187Y-92569586D01*
X177660015Y-92560607D01*
X177670175Y-92552079D01*
X177680652Y-92544020D01*
X177691435Y-92536449D01*
X177702512Y-92529386D01*
X177713871Y-92522849D01*
X177725498Y-92516858D01*
X177737382Y-92511432D01*
X177749510Y-92506590D01*
X177761870Y-92502350D01*
X177792581Y-92492670D01*
X177796135Y-92424140D01*
X177798265Y-92395350D01*
X177801637Y-92367022D01*
X177806242Y-92339173D01*
X177812074Y-92311816D01*
X177819126Y-92284968D01*
X177827391Y-92258645D01*
X177836861Y-92232863D01*
X177847530Y-92207636D01*
X177859391Y-92182981D01*
X177872437Y-92158913D01*
X177886660Y-92135448D01*
X177902053Y-92112602D01*
X177918610Y-92090390D01*
X177936324Y-92068828D01*
X177955187Y-92047931D01*
X177975192Y-92027716D01*
X177999063Y-92004100D01*
X178022753Y-91983589D01*
X178060838Y-91958190D01*
X178127892Y-91919908D01*
X178407209Y-91772718D01*
X178977302Y-91478064D01*
X179064151Y-91432955D01*
X179142178Y-91391819D01*
X179212059Y-91354159D01*
X179274468Y-91319473D01*
X179330082Y-91287263D01*
X179379575Y-91257028D01*
X179423624Y-91228269D01*
X179462904Y-91200485D01*
X179498090Y-91173178D01*
X179514359Y-91159546D01*
X179529858Y-91145847D01*
X179544671Y-91132016D01*
X179558883Y-91117992D01*
X179585841Y-91089114D01*
X179611408Y-91058712D01*
X179636258Y-91026288D01*
X179661067Y-90991342D01*
X179686511Y-90953373D01*
X179713171Y-90911370D01*
X179737183Y-90870473D01*
X179758668Y-90830072D01*
X179777751Y-90789559D01*
X179794554Y-90748324D01*
X179809199Y-90705758D01*
X179821809Y-90661252D01*
X179832508Y-90614197D01*
X179841418Y-90563983D01*
X179848661Y-90510001D01*
X179854361Y-90451643D01*
X179858640Y-90388299D01*
X179861621Y-90319360D01*
X179863427Y-90244216D01*
X179864004Y-90072879D01*
X179862404Y-89813920D01*
X179838801Y-89806879D01*
X179809556Y-89796719D01*
X179782321Y-89784418D01*
X179757091Y-89770124D01*
X179733858Y-89753985D01*
X179712616Y-89736148D01*
X179693358Y-89716761D01*
X179676078Y-89695970D01*
X179660770Y-89673925D01*
X179647427Y-89650771D01*
X179636042Y-89626657D01*
X179626609Y-89601730D01*
X179619121Y-89576138D01*
X179613572Y-89550028D01*
X179609956Y-89523547D01*
X179608265Y-89496844D01*
X179608323Y-89490022D01*
G37*
X179608323Y-89490022D02*
X179766193Y-89490022D01*
X179767447Y-89504832D01*
X179770061Y-89519662D01*
X179774087Y-89534443D01*
X179779572Y-89549103D01*
X179786566Y-89563573D01*
X179795119Y-89577784D01*
X179805280Y-89591665D01*
X179817097Y-89605146D01*
X179827797Y-89615537D01*
X179838916Y-89624795D01*
X179850405Y-89632941D01*
X179862212Y-89639996D01*
X179874288Y-89645981D01*
X179886584Y-89650915D01*
X179899049Y-89654821D01*
X179911634Y-89657718D01*
X179924289Y-89659629D01*
X179936963Y-89660572D01*
X179949607Y-89660570D01*
X179962170Y-89659643D01*
X179974604Y-89657812D01*
X179986858Y-89655098D01*
X179998882Y-89651521D01*
X180010627Y-89647103D01*
X180022041Y-89641864D01*
X180033076Y-89635824D01*
X180043682Y-89629005D01*
X180053808Y-89621428D01*
X180063405Y-89613113D01*
X180072423Y-89604081D01*
X180080811Y-89594353D01*
X180088521Y-89583950D01*
X180095502Y-89572892D01*
X180101704Y-89561201D01*
X180107077Y-89548896D01*
X180111571Y-89536000D01*
X180115137Y-89522532D01*
X180117725Y-89508514D01*
X180119284Y-89493967D01*
X180119765Y-89478910D01*
X180119616Y-89472730D01*
X180119231Y-89466578D01*
X180118614Y-89460459D01*
X180117768Y-89454378D01*
X180116697Y-89448341D01*
X180115404Y-89442354D01*
X180113893Y-89436422D01*
X180112169Y-89430551D01*
X180110234Y-89424747D01*
X180108093Y-89419015D01*
X180105749Y-89413361D01*
X180103205Y-89407790D01*
X180100467Y-89402308D01*
X180097536Y-89396921D01*
X180094418Y-89391635D01*
X180091115Y-89386454D01*
X180087632Y-89381385D01*
X180083972Y-89376432D01*
X180080139Y-89371603D01*
X180076136Y-89366902D01*
X180071968Y-89362335D01*
X180067638Y-89357908D01*
X180063149Y-89353626D01*
X180058506Y-89349495D01*
X180053712Y-89345521D01*
X180048771Y-89341708D01*
X180043687Y-89338064D01*
X180038463Y-89334592D01*
X180033103Y-89331300D01*
X180027611Y-89328192D01*
X180021990Y-89325275D01*
X180016244Y-89322553D01*
X180016246Y-89322553D01*
X179999626Y-89315887D01*
X179983183Y-89310920D01*
X179966967Y-89307583D01*
X179951028Y-89305806D01*
X179935414Y-89305519D01*
X179920174Y-89306651D01*
X179905359Y-89309133D01*
X179891018Y-89312894D01*
X179877199Y-89317866D01*
X179863953Y-89323977D01*
X179851328Y-89331158D01*
X179839373Y-89339339D01*
X179828139Y-89348450D01*
X179817674Y-89358420D01*
X179808028Y-89369181D01*
X179799250Y-89380661D01*
X179791389Y-89392791D01*
X179784495Y-89405502D01*
X179778617Y-89418722D01*
X179773805Y-89432382D01*
X179770106Y-89446412D01*
X179767572Y-89460742D01*
X179766251Y-89475302D01*
X179766193Y-89490022D01*
X179608323Y-89490022D01*
X179608493Y-89470065D01*
X179610633Y-89443358D01*
X179614680Y-89416871D01*
X179620627Y-89390751D01*
X179628466Y-89365145D01*
X179638192Y-89340202D01*
X179649798Y-89316068D01*
X179663277Y-89292891D01*
X179678623Y-89270818D01*
X179695830Y-89249998D01*
X179714890Y-89230577D01*
X179735798Y-89212704D01*
X179758546Y-89196525D01*
X179783128Y-89182188D01*
X179809539Y-89169840D01*
X179837770Y-89159629D01*
X179867816Y-89151703D01*
X179867737Y-89151673D01*
X179905517Y-89145290D01*
X179941869Y-89142745D01*
X179976729Y-89143826D01*
X180010037Y-89148323D01*
X180041729Y-89156023D01*
X180071743Y-89166717D01*
X180100018Y-89180192D01*
X180126491Y-89196237D01*
X180151100Y-89214641D01*
X180173783Y-89235194D01*
X180194478Y-89257683D01*
X180213121Y-89281898D01*
X180229652Y-89307628D01*
X180244009Y-89334661D01*
X180256128Y-89362785D01*
X180265947Y-89391791D01*
X180273405Y-89421466D01*
X180278440Y-89451600D01*
X180280989Y-89481981D01*
X180280989Y-89512398D01*
X180278380Y-89542640D01*
X180273098Y-89572495D01*
X180265082Y-89601753D01*
X180254268Y-89630203D01*
X180240596Y-89657632D01*
X180224003Y-89683830D01*
X180204427Y-89708586D01*
X180181805Y-89731689D01*
X180156075Y-89752926D01*
X180127176Y-89772088D01*
X180095045Y-89788963D01*
X180059619Y-89803339D01*
X180027534Y-89814640D01*
X180024095Y-90158786D01*
X180022778Y-90281242D01*
X180021310Y-90375895D01*
X180020391Y-90414531D01*
X180019281Y-90448301D01*
X180017929Y-90477897D01*
X180016283Y-90504016D01*
X180014293Y-90527351D01*
X180011907Y-90548596D01*
X180009074Y-90568447D01*
X180005744Y-90587597D01*
X180001865Y-90606742D01*
X179997386Y-90626576D01*
X179986423Y-90671088D01*
X179971010Y-90726411D01*
X179952928Y-90780987D01*
X179932258Y-90834704D01*
X179909080Y-90887446D01*
X179883476Y-90939099D01*
X179855528Y-90989550D01*
X179825317Y-91038684D01*
X179792924Y-91086387D01*
X179758430Y-91132545D01*
X179721917Y-91177044D01*
X179683466Y-91219770D01*
X179643158Y-91260608D01*
X179601075Y-91299445D01*
X179557299Y-91336166D01*
X179511909Y-91370658D01*
X179464989Y-91402805D01*
X179460555Y-91405804D01*
X179458931Y-91407135D01*
X179457758Y-91408427D01*
X179457355Y-91409077D01*
X179457080Y-91409737D01*
X179456940Y-91410416D01*
X179456940Y-91411120D01*
X179457084Y-91411855D01*
X179457379Y-91412630D01*
X179457829Y-91413451D01*
X179458440Y-91414325D01*
X179460167Y-91416258D01*
X179462602Y-91418487D01*
X179465787Y-91421065D01*
X179469765Y-91424050D01*
X179480271Y-91431458D01*
X179494461Y-91441156D01*
X179543636Y-91476538D01*
X179590804Y-91514363D01*
X179635906Y-91554541D01*
X179678884Y-91596980D01*
X179719681Y-91641589D01*
X179758239Y-91688277D01*
X179794500Y-91736953D01*
X179828405Y-91787524D01*
X179859897Y-91839900D01*
X179888917Y-91893990D01*
X179915409Y-91949702D01*
X179939313Y-92006944D01*
X179960572Y-92065627D01*
X179979128Y-92125658D01*
X179994923Y-92186945D01*
X180007899Y-92249399D01*
X180011946Y-92273022D01*
X180015114Y-92296966D01*
X180017556Y-92325107D01*
X180019423Y-92361317D01*
X180022045Y-92473445D01*
X180024199Y-92664347D01*
X180027539Y-93008493D01*
X180059621Y-93019794D01*
X180088293Y-93031277D01*
X180114933Y-93044729D01*
X180139550Y-93060010D01*
X180162153Y-93076981D01*
X180182753Y-93095502D01*
X180201357Y-93115434D01*
X180217977Y-93136636D01*
X180232620Y-93158970D01*
X180245297Y-93182296D01*
X180256017Y-93206473D01*
X180264789Y-93231363D01*
X180271623Y-93256826D01*
X180276528Y-93282722D01*
X180279514Y-93308912D01*
X180280589Y-93335256D01*
X180279764Y-93361614D01*
X180277048Y-93387847D01*
X180272449Y-93413814D01*
X180265978Y-93439378D01*
X180257644Y-93464397D01*
X180247456Y-93488733D01*
X180235425Y-93512245D01*
X180221558Y-93534795D01*
X180205865Y-93556242D01*
X180188357Y-93576447D01*
X180169042Y-93595269D01*
X180147930Y-93612571D01*
X180125029Y-93628212D01*
X180100351Y-93642052D01*
X180073903Y-93653951D01*
X180045695Y-93663771D01*
X180015738Y-93671372D01*
X179977275Y-93677549D01*
X179940376Y-93679828D01*
X179905097Y-93678427D01*
X179871495Y-93673562D01*
X179839627Y-93665452D01*
X179809550Y-93654313D01*
X179781322Y-93640362D01*
X179754999Y-93623818D01*
X179730638Y-93604897D01*
X179708297Y-93583817D01*
X179688032Y-93560796D01*
X179669901Y-93536050D01*
X179653960Y-93509796D01*
X179640267Y-93482254D01*
X179628878Y-93453639D01*
X179619851Y-93424169D01*
X179613243Y-93394061D01*
X179609111Y-93363533D01*
X179608035Y-93342873D01*
X179766505Y-93342873D01*
X179767242Y-93356244D01*
X179769079Y-93369736D01*
X179772060Y-93383307D01*
X179776223Y-93396918D01*
X179781610Y-93410526D01*
X179786642Y-93421008D01*
X179792218Y-93430974D01*
X179798310Y-93440420D01*
X179804889Y-93449339D01*
X179811925Y-93457727D01*
X179819390Y-93465579D01*
X179827256Y-93472888D01*
X179835493Y-93479650D01*
X179844072Y-93485859D01*
X179852965Y-93491510D01*
X179862142Y-93496597D01*
X179871576Y-93501116D01*
X179881236Y-93505060D01*
X179891094Y-93508425D01*
X179901121Y-93511205D01*
X179911289Y-93513396D01*
X179921569Y-93514990D01*
X179931931Y-93515984D01*
X179942346Y-93516371D01*
X179952787Y-93516147D01*
X179963224Y-93515307D01*
X179973628Y-93513844D01*
X179983970Y-93511753D01*
X179994221Y-93509030D01*
X180004354Y-93505668D01*
X180014338Y-93501663D01*
X180024144Y-93497009D01*
X180033745Y-93491701D01*
X180043111Y-93485733D01*
X180052213Y-93479100D01*
X180061023Y-93471797D01*
X180069511Y-93463819D01*
X180077385Y-93455433D01*
X180084583Y-93446719D01*
X180091110Y-93437708D01*
X180096972Y-93428428D01*
X180102174Y-93418908D01*
X180106723Y-93409177D01*
X180110623Y-93399264D01*
X180113881Y-93389198D01*
X180116502Y-93379008D01*
X180118491Y-93368724D01*
X180119855Y-93358374D01*
X180120598Y-93347987D01*
X180120728Y-93337592D01*
X180120248Y-93327218D01*
X180119165Y-93316895D01*
X180117485Y-93306651D01*
X180115213Y-93296516D01*
X180112355Y-93286518D01*
X180108915Y-93276686D01*
X180104901Y-93267050D01*
X180100318Y-93257638D01*
X180095171Y-93248480D01*
X180089465Y-93239605D01*
X180083208Y-93231041D01*
X180076403Y-93222818D01*
X180069057Y-93214964D01*
X180061175Y-93207509D01*
X180052764Y-93200482D01*
X180043828Y-93193912D01*
X180034374Y-93187827D01*
X180024406Y-93182257D01*
X180013931Y-93177231D01*
X180013933Y-93177231D01*
X180000348Y-93171854D01*
X179986763Y-93167703D01*
X179973219Y-93164739D01*
X179959757Y-93162920D01*
X179946417Y-93162204D01*
X179933241Y-93162552D01*
X179920269Y-93163922D01*
X179907541Y-93166273D01*
X179895100Y-93169564D01*
X179882985Y-93173755D01*
X179871237Y-93178803D01*
X179859897Y-93184669D01*
X179849006Y-93191312D01*
X179838605Y-93198689D01*
X179828734Y-93206761D01*
X179819435Y-93215486D01*
X179810747Y-93224824D01*
X179802712Y-93234733D01*
X179795371Y-93245173D01*
X179788764Y-93256103D01*
X179782933Y-93267480D01*
X179777917Y-93279266D01*
X179773758Y-93291418D01*
X179770496Y-93303896D01*
X179768173Y-93316658D01*
X179766829Y-93329664D01*
X179766505Y-93342873D01*
X179608035Y-93342873D01*
X179607511Y-93332803D01*
X179608501Y-93302086D01*
X179612138Y-93271602D01*
X179618479Y-93241567D01*
X179627581Y-93212199D01*
X179639502Y-93183714D01*
X179654297Y-93156331D01*
X179672024Y-93130267D01*
X179692740Y-93105738D01*
X179716503Y-93082964D01*
X179743369Y-93062159D01*
X179773395Y-93043543D01*
X179806638Y-93027333D01*
X179843156Y-93013745D01*
X179865282Y-93006665D01*
X179865268Y-92734238D01*
X179864806Y-92605015D01*
X179863166Y-92498991D01*
X179861780Y-92453370D01*
X179859949Y-92411977D01*
X179857624Y-92374289D01*
X179854755Y-92339782D01*
X179851292Y-92307933D01*
X179847185Y-92278218D01*
X179842384Y-92250113D01*
X179836838Y-92223094D01*
X179830499Y-92196638D01*
X179823316Y-92170221D01*
X179815240Y-92143319D01*
X179806219Y-92115409D01*
X179789571Y-92069064D01*
X179770772Y-92023602D01*
X179749883Y-91979096D01*
X179726967Y-91935622D01*
X179702086Y-91893255D01*
X179675300Y-91852069D01*
X179646674Y-91812141D01*
X179616267Y-91773545D01*
X179584143Y-91736356D01*
X179550363Y-91700650D01*
X179514990Y-91666500D01*
X179478084Y-91633984D01*
X179439709Y-91603175D01*
X179399926Y-91574148D01*
X179358797Y-91546980D01*
X179316383Y-91521744D01*
X179283739Y-91503363D01*
X179171826Y-91561112D01*
X178967328Y-91666735D01*
X178898434Y-91702459D01*
X178848091Y-91728723D01*
X178813532Y-91746979D01*
X178791992Y-91758673D01*
X178785240Y-91762514D01*
X178780706Y-91765257D01*
X178778044Y-91767086D01*
X178777307Y-91767713D01*
X178776909Y-91768180D01*
X178777437Y-91769069D01*
X178779556Y-91770762D01*
X178788245Y-91776383D01*
X178802343Y-91784688D01*
X178821214Y-91795325D01*
X178870735Y-91822183D01*
X178931731Y-91854132D01*
X178993235Y-91886067D01*
X179019305Y-91899818D01*
X179042617Y-91912322D01*
X179063445Y-91923750D01*
X179082059Y-91934274D01*
X179098734Y-91944067D01*
X179113741Y-91953300D01*
X179127353Y-91962147D01*
X179139843Y-91970779D01*
X179151483Y-91979368D01*
X179162546Y-91988087D01*
X179173303Y-91997108D01*
X179184029Y-92006602D01*
X179194995Y-92016742D01*
X179206474Y-92027701D01*
X179226480Y-92047916D01*
X179245343Y-92068813D01*
X179263056Y-92090375D01*
X179279613Y-92112586D01*
X179295007Y-92135433D01*
X179309230Y-92158898D01*
X179322275Y-92182965D01*
X179334136Y-92207620D01*
X179344805Y-92232847D01*
X179354276Y-92258630D01*
X179362541Y-92284953D01*
X179369593Y-92311801D01*
X179375425Y-92339157D01*
X179380030Y-92367007D01*
X179383401Y-92395335D01*
X179385532Y-92424124D01*
X179389091Y-92492658D01*
X179419801Y-92502338D01*
X179438092Y-92508991D01*
X179456145Y-92517292D01*
X179473868Y-92527134D01*
X179491172Y-92538412D01*
X179507962Y-92551020D01*
X179524149Y-92564852D01*
X179539639Y-92579804D01*
X179554341Y-92595769D01*
X179568164Y-92612642D01*
X179581016Y-92630318D01*
X179592805Y-92648690D01*
X179603439Y-92667653D01*
X179612827Y-92687101D01*
X179620876Y-92706929D01*
X179627495Y-92727031D01*
X179632593Y-92747303D01*
X179637825Y-92778110D01*
X179640394Y-92808193D01*
X179640417Y-92837487D01*
X179638010Y-92865928D01*
X179633291Y-92893454D01*
X179626376Y-92920001D01*
X179617383Y-92945505D01*
X179606429Y-92969903D01*
X179593630Y-92993131D01*
X179579105Y-93015126D01*
X179562969Y-93035824D01*
X179545339Y-93055161D01*
X179526334Y-93073075D01*
X179506070Y-93089501D01*
X179484663Y-93104376D01*
X179462232Y-93117637D01*
X179438892Y-93129220D01*
X179414762Y-93139061D01*
X179389957Y-93147097D01*
X179364596Y-93153265D01*
X179338794Y-93157500D01*
X179312670Y-93159740D01*
X179286340Y-93159921D01*
X179259921Y-93157980D01*
X179233530Y-93153852D01*
X179207285Y-93147474D01*
X179181302Y-93138783D01*
X179155698Y-93127716D01*
X179130590Y-93114208D01*
X179106096Y-93098196D01*
X179082332Y-93079618D01*
X179059416Y-93058408D01*
X179043327Y-93041118D01*
X179028741Y-93023125D01*
X179015640Y-93004497D01*
X179004008Y-92985301D01*
X178993826Y-92965606D01*
X178985077Y-92945479D01*
X178977744Y-92924990D01*
X178971810Y-92904205D01*
X178967257Y-92883193D01*
X178964067Y-92862022D01*
X178962224Y-92840759D01*
X178961710Y-92819474D01*
X178961832Y-92816232D01*
X179122994Y-92816232D01*
X179123269Y-92829093D01*
X179124528Y-92842112D01*
X179126807Y-92855253D01*
X179130140Y-92868483D01*
X179134561Y-92881766D01*
X179139095Y-92892784D01*
X179144245Y-92903290D01*
X179149977Y-92913276D01*
X179156259Y-92922736D01*
X179163061Y-92931662D01*
X179170349Y-92940048D01*
X179178091Y-92947887D01*
X179186256Y-92955171D01*
X179194811Y-92961894D01*
X179203724Y-92968048D01*
X179212963Y-92973626D01*
X179222497Y-92978622D01*
X179232292Y-92983029D01*
X179242317Y-92986839D01*
X179252541Y-92990045D01*
X179262929Y-92992641D01*
X179273452Y-92994619D01*
X179284076Y-92995972D01*
X179294770Y-92996694D01*
X179305501Y-92996777D01*
X179316237Y-92996214D01*
X179326947Y-92994999D01*
X179337598Y-92993124D01*
X179348158Y-92990582D01*
X179358595Y-92987366D01*
X179368877Y-92983470D01*
X179378971Y-92978885D01*
X179388847Y-92973606D01*
X179398471Y-92967625D01*
X179407812Y-92960936D01*
X179416838Y-92953530D01*
X179425516Y-92945401D01*
X179433628Y-92936739D01*
X179441018Y-92927726D01*
X179447693Y-92918396D01*
X179453660Y-92908780D01*
X179458926Y-92898911D01*
X179463498Y-92888820D01*
X179467383Y-92878541D01*
X179470588Y-92868105D01*
X179473120Y-92857545D01*
X179474987Y-92846893D01*
X179476195Y-92836181D01*
X179476751Y-92825441D01*
X179476662Y-92814705D01*
X179475936Y-92804007D01*
X179474580Y-92793377D01*
X179472600Y-92782848D01*
X179470004Y-92772453D01*
X179466798Y-92762223D01*
X179462990Y-92752192D01*
X179458587Y-92742390D01*
X179453595Y-92732851D01*
X179448022Y-92723606D01*
X179441876Y-92714688D01*
X179435162Y-92706129D01*
X179427888Y-92697961D01*
X179420061Y-92690217D01*
X179411688Y-92682928D01*
X179402776Y-92676127D01*
X179393333Y-92669846D01*
X179383365Y-92664118D01*
X179372879Y-92658974D01*
X179361882Y-92654447D01*
X179348598Y-92650025D01*
X179335369Y-92646692D01*
X179322227Y-92644413D01*
X179309209Y-92643154D01*
X179296347Y-92642879D01*
X179283678Y-92643555D01*
X179271235Y-92645147D01*
X179259052Y-92647620D01*
X179247165Y-92650941D01*
X179235607Y-92655074D01*
X179224414Y-92659984D01*
X179213619Y-92665639D01*
X179203258Y-92672002D01*
X179193364Y-92679041D01*
X179183973Y-92686719D01*
X179175118Y-92695003D01*
X179166834Y-92703858D01*
X179159156Y-92713249D01*
X179152118Y-92723143D01*
X179145754Y-92733504D01*
X179140100Y-92744299D01*
X179135189Y-92755492D01*
X179131056Y-92767050D01*
X179127735Y-92778937D01*
X179125262Y-92791119D01*
X179123670Y-92803562D01*
X179122994Y-92816232D01*
X178961832Y-92816232D01*
X178962508Y-92798233D01*
X178964599Y-92777105D01*
X178967968Y-92756159D01*
X178972595Y-92735461D01*
X178978465Y-92715081D01*
X178985560Y-92695085D01*
X178993862Y-92675543D01*
X179003353Y-92656522D01*
X179014018Y-92638090D01*
X179025837Y-92620315D01*
X179038794Y-92603266D01*
X179052871Y-92587010D01*
X179068051Y-92571615D01*
X179084317Y-92557150D01*
X179101651Y-92543681D01*
X179120036Y-92531279D01*
X179139454Y-92520010D01*
X179159888Y-92509942D01*
X179181321Y-92501144D01*
X179203735Y-92493683D01*
X179229564Y-92486063D01*
X179225626Y-92438538D01*
X179223454Y-92416762D01*
X179220600Y-92395646D01*
X179217050Y-92375160D01*
X179212791Y-92355274D01*
X179207812Y-92335961D01*
X179202099Y-92317191D01*
X179195639Y-92298935D01*
X179188421Y-92281165D01*
X179180432Y-92263851D01*
X179171659Y-92246964D01*
X179162089Y-92230476D01*
X179151710Y-92214357D01*
X179140510Y-92198578D01*
X179128476Y-92183112D01*
X179115594Y-92167928D01*
X179101854Y-92152997D01*
X179084959Y-92136178D01*
X179066910Y-92120542D01*
X179045282Y-92104620D01*
X179017652Y-92086943D01*
X178981596Y-92066044D01*
X178934689Y-92040453D01*
X178798627Y-91969324D01*
X178590703Y-91861881D01*
X178382779Y-91969370D01*
X178308351Y-92007956D01*
X178250102Y-92038531D01*
X178226206Y-92051312D01*
X178205346Y-92062688D01*
X178187188Y-92072857D01*
X178171394Y-92082019D01*
X178157630Y-92090373D01*
X178145559Y-92098117D01*
X178134846Y-92105451D01*
X178125153Y-92112574D01*
X178116146Y-92119686D01*
X178107489Y-92126984D01*
X178098844Y-92134669D01*
X178089877Y-92142938D01*
X178080110Y-92152533D01*
X178070548Y-92162852D01*
X178061210Y-92173831D01*
X178052117Y-92185408D01*
X178034746Y-92210099D01*
X178018597Y-92236415D01*
X178003829Y-92263850D01*
X177990605Y-92291893D01*
X177979086Y-92320036D01*
X177969431Y-92347771D01*
X177961804Y-92374589D01*
X177956364Y-92399982D01*
X177954515Y-92411985D01*
X177953273Y-92423441D01*
X177952658Y-92434286D01*
X177952692Y-92444457D01*
X177953393Y-92453891D01*
X177954781Y-92462523D01*
X177956878Y-92470290D01*
X177959703Y-92477129D01*
X177963277Y-92482975D01*
X177967619Y-92487766D01*
X177972749Y-92491438D01*
X177978688Y-92493927D01*
X178001042Y-92501363D01*
X178022413Y-92510129D01*
X178042785Y-92520158D01*
X178062140Y-92531383D01*
X178080462Y-92543736D01*
X178097733Y-92557151D01*
X178113936Y-92571561D01*
X178129054Y-92586897D01*
X178143070Y-92603093D01*
X178155967Y-92620082D01*
X178167728Y-92637797D01*
X178178337Y-92656170D01*
X178187774Y-92675134D01*
X178196025Y-92694622D01*
X178203071Y-92714567D01*
X178208896Y-92734901D01*
X178213483Y-92755558D01*
X178216814Y-92776470D01*
X178218872Y-92797571D01*
X178219641Y-92818792D01*
X178219103Y-92840066D01*
X178217241Y-92861328D01*
X178214039Y-92882508D01*
X178209478Y-92903541D01*
X178203543Y-92924359D01*
X178196215Y-92944894D01*
X178187479Y-92965080D01*
X178177316Y-92984849D01*
X178165710Y-93004135D01*
X178152644Y-93022870D01*
X178138101Y-93040986D01*
X178122063Y-93058417D01*
X178102369Y-93077005D01*
X178081882Y-93093624D01*
X178060692Y-93108308D01*
X178038888Y-93121091D01*
X178016560Y-93132005D01*
X177993796Y-93141084D01*
X177970688Y-93148362D01*
X177947323Y-93153872D01*
X177923792Y-93157647D01*
X177900183Y-93159720D01*
X177876588Y-93160126D01*
X177853095Y-93158896D01*
X177829793Y-93156065D01*
X177806772Y-93151667D01*
X177784122Y-93145733D01*
X177761932Y-93138299D01*
X177740291Y-93129396D01*
X177719290Y-93119059D01*
X177699017Y-93107321D01*
X177679563Y-93094215D01*
X177661016Y-93079774D01*
X177643466Y-93064032D01*
X177627002Y-93047023D01*
X177611715Y-93028779D01*
X177597694Y-93009334D01*
X177585027Y-92988722D01*
X177573806Y-92966975D01*
X177564118Y-92944128D01*
X177556054Y-92920213D01*
X177549703Y-92895263D01*
X177545155Y-92869313D01*
X177542499Y-92842395D01*
X177541941Y-92828340D01*
X177541974Y-92817645D01*
X177703829Y-92817645D01*
X177704073Y-92831366D01*
X177705463Y-92845222D01*
X177708042Y-92859167D01*
X177711855Y-92873155D01*
X177716945Y-92887139D01*
X177723358Y-92901074D01*
X177728693Y-92910787D01*
X177734518Y-92920007D01*
X177740807Y-92928730D01*
X177747532Y-92936950D01*
X177754668Y-92944665D01*
X177762186Y-92951869D01*
X177770061Y-92958558D01*
X177778265Y-92964729D01*
X177786771Y-92970376D01*
X177795553Y-92975496D01*
X177804584Y-92980084D01*
X177813836Y-92984136D01*
X177823284Y-92987648D01*
X177832900Y-92990615D01*
X177842657Y-92993032D01*
X177852529Y-92994897D01*
X177862488Y-92996204D01*
X177872508Y-92996949D01*
X177882562Y-92997128D01*
X177892623Y-92996736D01*
X177902665Y-92995770D01*
X177912659Y-92994224D01*
X177922581Y-92992095D01*
X177932402Y-92989379D01*
X177942095Y-92986070D01*
X177951635Y-92982166D01*
X177960994Y-92977660D01*
X177970145Y-92972550D01*
X177979062Y-92966831D01*
X177987717Y-92960498D01*
X177996084Y-92953548D01*
X178004135Y-92945975D01*
X178012170Y-92937452D01*
X178019542Y-92928637D01*
X178026256Y-92919556D01*
X178032317Y-92910236D01*
X178037728Y-92900703D01*
X178042495Y-92890983D01*
X178046621Y-92881104D01*
X178050112Y-92871090D01*
X178052972Y-92860968D01*
X178055205Y-92850766D01*
X178056817Y-92840509D01*
X178057811Y-92830224D01*
X178058191Y-92819937D01*
X178057964Y-92809674D01*
X178057133Y-92799463D01*
X178055702Y-92789328D01*
X178053676Y-92779298D01*
X178051060Y-92769397D01*
X178047859Y-92759653D01*
X178044076Y-92750091D01*
X178039716Y-92740739D01*
X178034784Y-92731623D01*
X178029284Y-92722768D01*
X178023221Y-92714202D01*
X178016600Y-92705951D01*
X178009424Y-92698041D01*
X178001699Y-92690498D01*
X177993429Y-92683350D01*
X177984618Y-92676621D01*
X177975271Y-92670340D01*
X177965392Y-92664532D01*
X177954987Y-92659223D01*
X177954987Y-92659226D01*
X177940938Y-92653264D01*
X177926887Y-92648636D01*
X177912878Y-92645294D01*
X177898956Y-92643193D01*
X177885164Y-92642287D01*
X177871546Y-92642530D01*
X177858148Y-92643875D01*
X177845012Y-92646277D01*
X177832183Y-92649689D01*
X177819705Y-92654066D01*
X177807623Y-92659361D01*
X177795980Y-92665528D01*
X177784821Y-92672521D01*
X177774189Y-92680294D01*
X177764129Y-92688801D01*
X177754685Y-92697996D01*
X177745901Y-92707833D01*
X177737821Y-92718266D01*
X177730489Y-92729248D01*
X177723950Y-92740734D01*
X177718248Y-92752678D01*
X177713426Y-92765033D01*
X177709529Y-92777753D01*
X177706601Y-92790793D01*
X177704687Y-92804105D01*
X177703829Y-92817645D01*
X177541974Y-92817645D01*
X177541984Y-92814316D01*
X177542617Y-92800341D01*
X177543826Y-92786434D01*
X177545600Y-92772615D01*
X177547925Y-92758903D01*
X177550791Y-92745316D01*
X177554185Y-92731874D01*
X177558093Y-92718596D01*
X177562504Y-92705502D01*
X177567406Y-92692609D01*
X177572787Y-92679937D01*
X177578633Y-92667506D01*
X177584933Y-92655334D01*
X177591674Y-92643441D01*
X177598845Y-92631845D01*
X177606432Y-92620565D01*
X177614423Y-92609622D01*
X177622807Y-92599033D01*
X177631570Y-92588818D01*
X177640701Y-92578996D01*
X177650187Y-92569586D01*
X177660015Y-92560607D01*
X177670175Y-92552079D01*
X177680652Y-92544020D01*
X177691435Y-92536449D01*
X177702512Y-92529386D01*
X177713871Y-92522849D01*
X177725498Y-92516858D01*
X177737382Y-92511432D01*
X177749510Y-92506590D01*
X177761870Y-92502350D01*
X177792581Y-92492670D01*
X177796135Y-92424140D01*
X177798265Y-92395350D01*
X177801637Y-92367022D01*
X177806242Y-92339173D01*
X177812074Y-92311816D01*
X177819126Y-92284968D01*
X177827391Y-92258645D01*
X177836861Y-92232863D01*
X177847530Y-92207636D01*
X177859391Y-92182981D01*
X177872437Y-92158913D01*
X177886660Y-92135448D01*
X177902053Y-92112602D01*
X177918610Y-92090390D01*
X177936324Y-92068828D01*
X177955187Y-92047931D01*
X177975192Y-92027716D01*
X177999063Y-92004100D01*
X178022753Y-91983589D01*
X178060838Y-91958190D01*
X178127892Y-91919908D01*
X178407209Y-91772718D01*
X178977302Y-91478064D01*
X179064151Y-91432955D01*
X179142178Y-91391819D01*
X179212059Y-91354159D01*
X179274468Y-91319473D01*
X179330082Y-91287263D01*
X179379575Y-91257028D01*
X179423624Y-91228269D01*
X179462904Y-91200485D01*
X179498090Y-91173178D01*
X179514359Y-91159546D01*
X179529858Y-91145847D01*
X179544671Y-91132016D01*
X179558883Y-91117992D01*
X179585841Y-91089114D01*
X179611408Y-91058712D01*
X179636258Y-91026288D01*
X179661067Y-90991342D01*
X179686511Y-90953373D01*
X179713171Y-90911370D01*
X179737183Y-90870473D01*
X179758668Y-90830072D01*
X179777751Y-90789559D01*
X179794554Y-90748324D01*
X179809199Y-90705758D01*
X179821809Y-90661252D01*
X179832508Y-90614197D01*
X179841418Y-90563983D01*
X179848661Y-90510001D01*
X179854361Y-90451643D01*
X179858640Y-90388299D01*
X179861621Y-90319360D01*
X179863427Y-90244216D01*
X179864004Y-90072879D01*
X179862404Y-89813920D01*
X179838801Y-89806879D01*
X179809556Y-89796719D01*
X179782321Y-89784418D01*
X179757091Y-89770124D01*
X179733858Y-89753985D01*
X179712616Y-89736148D01*
X179693358Y-89716761D01*
X179676078Y-89695970D01*
X179660770Y-89673925D01*
X179647427Y-89650771D01*
X179636042Y-89626657D01*
X179626609Y-89601730D01*
X179619121Y-89576138D01*
X179613572Y-89550028D01*
X179609956Y-89523547D01*
X179608265Y-89496844D01*
X179608323Y-89490022D01*
G36*
X175800000Y-94400000D02*
G01*
X177251457Y-94400000D01*
X177251457Y-94559305D01*
X175640694Y-94559305D01*
X175640694Y-93753922D01*
X175640784Y-93753925D01*
X175640784Y-92948542D01*
X175800000Y-92948542D01*
X175800000Y-94400000D01*
G37*
X175800000Y-94400000D02*
X177251457Y-94400000D01*
X177251457Y-94559305D01*
X175640694Y-94559305D01*
X175640694Y-93753922D01*
X175640784Y-93753925D01*
X175640784Y-92948542D01*
X175800000Y-92948542D01*
X175800000Y-94400000D01*
D10*
X194125000Y-64475000D02*
X193000000Y-64475000D01*
D11*
G36*
X181541016Y-89874582D02*
G01*
X181381708Y-89874582D01*
X181381708Y-88423124D01*
X179930252Y-88423124D01*
X179930252Y-88263819D01*
X181541016Y-88263819D01*
X181541016Y-89874582D01*
G37*
X181541016Y-89874582D02*
X181381708Y-89874582D01*
X181381708Y-88423124D01*
X179930252Y-88423124D01*
X179930252Y-88263819D01*
X181541016Y-88263819D01*
X181541016Y-89874582D01*
D10*
X176600000Y-64475000D02*
X175675000Y-64475000D01*
D12*
X180215000Y-135538095D02*
X180191190Y-135490476D01*
X180191190Y-135490476D02*
X180191190Y-135419047D01*
X180191190Y-135419047D02*
X180215000Y-135347619D01*
X180215000Y-135347619D02*
X180262619Y-135300000D01*
X180262619Y-135300000D02*
X180310238Y-135276190D01*
X180310238Y-135276190D02*
X180405476Y-135252381D01*
X180405476Y-135252381D02*
X180476904Y-135252381D01*
X180476904Y-135252381D02*
X180572142Y-135276190D01*
X180572142Y-135276190D02*
X180619761Y-135300000D01*
X180619761Y-135300000D02*
X180667380Y-135347619D01*
X180667380Y-135347619D02*
X180691190Y-135419047D01*
X180691190Y-135419047D02*
X180691190Y-135466666D01*
X180691190Y-135466666D02*
X180667380Y-135538095D01*
X180667380Y-135538095D02*
X180643571Y-135561904D01*
X180643571Y-135561904D02*
X180476904Y-135561904D01*
X180476904Y-135561904D02*
X180476904Y-135466666D01*
X180691190Y-135776190D02*
X180191190Y-135776190D01*
X180191190Y-135776190D02*
X180691190Y-136061904D01*
X180691190Y-136061904D02*
X180191190Y-136061904D01*
X180691190Y-136300000D02*
X180191190Y-136300000D01*
X180191190Y-136300000D02*
X180191190Y-136419048D01*
X180191190Y-136419048D02*
X180215000Y-136490476D01*
X180215000Y-136490476D02*
X180262619Y-136538095D01*
X180262619Y-136538095D02*
X180310238Y-136561905D01*
X180310238Y-136561905D02*
X180405476Y-136585714D01*
X180405476Y-136585714D02*
X180476904Y-136585714D01*
X180476904Y-136585714D02*
X180572142Y-136561905D01*
X180572142Y-136561905D02*
X180619761Y-136538095D01*
X180619761Y-136538095D02*
X180667380Y-136490476D01*
X180667380Y-136490476D02*
X180691190Y-136419048D01*
X180691190Y-136419048D02*
X180691190Y-136300000D01*
X181415000Y-132966666D02*
X181391190Y-132919047D01*
X181391190Y-132919047D02*
X181391190Y-132847618D01*
X181391190Y-132847618D02*
X181415000Y-132776190D01*
X181415000Y-132776190D02*
X181462619Y-132728571D01*
X181462619Y-132728571D02*
X181510238Y-132704761D01*
X181510238Y-132704761D02*
X181605476Y-132680952D01*
X181605476Y-132680952D02*
X181676904Y-132680952D01*
X181676904Y-132680952D02*
X181772142Y-132704761D01*
X181772142Y-132704761D02*
X181819761Y-132728571D01*
X181819761Y-132728571D02*
X181867380Y-132776190D01*
X181867380Y-132776190D02*
X181891190Y-132847618D01*
X181891190Y-132847618D02*
X181891190Y-132895237D01*
X181891190Y-132895237D02*
X181867380Y-132966666D01*
X181867380Y-132966666D02*
X181843571Y-132990475D01*
X181843571Y-132990475D02*
X181676904Y-132990475D01*
X181676904Y-132990475D02*
X181676904Y-132895237D01*
X181891190Y-133204761D02*
X181391190Y-133204761D01*
X181391190Y-133204761D02*
X181891190Y-133490475D01*
X181891190Y-133490475D02*
X181391190Y-133490475D01*
X181891190Y-133728571D02*
X181391190Y-133728571D01*
X181391190Y-133728571D02*
X181391190Y-133847619D01*
X181391190Y-133847619D02*
X181415000Y-133919047D01*
X181415000Y-133919047D02*
X181462619Y-133966666D01*
X181462619Y-133966666D02*
X181510238Y-133990476D01*
X181510238Y-133990476D02*
X181605476Y-134014285D01*
X181605476Y-134014285D02*
X181676904Y-134014285D01*
X181676904Y-134014285D02*
X181772142Y-133990476D01*
X181772142Y-133990476D02*
X181819761Y-133966666D01*
X181819761Y-133966666D02*
X181867380Y-133919047D01*
X181867380Y-133919047D02*
X181891190Y-133847619D01*
X181891190Y-133847619D02*
X181891190Y-133728571D01*
X181415000Y-135538095D02*
X181391190Y-135490476D01*
X181391190Y-135490476D02*
X181391190Y-135419047D01*
X181391190Y-135419047D02*
X181415000Y-135347619D01*
X181415000Y-135347619D02*
X181462619Y-135300000D01*
X181462619Y-135300000D02*
X181510238Y-135276190D01*
X181510238Y-135276190D02*
X181605476Y-135252381D01*
X181605476Y-135252381D02*
X181676904Y-135252381D01*
X181676904Y-135252381D02*
X181772142Y-135276190D01*
X181772142Y-135276190D02*
X181819761Y-135300000D01*
X181819761Y-135300000D02*
X181867380Y-135347619D01*
X181867380Y-135347619D02*
X181891190Y-135419047D01*
X181891190Y-135419047D02*
X181891190Y-135466666D01*
X181891190Y-135466666D02*
X181867380Y-135538095D01*
X181867380Y-135538095D02*
X181843571Y-135561904D01*
X181843571Y-135561904D02*
X181676904Y-135561904D01*
X181676904Y-135561904D02*
X181676904Y-135466666D01*
X181891190Y-135776190D02*
X181391190Y-135776190D01*
X181391190Y-135776190D02*
X181891190Y-136061904D01*
X181891190Y-136061904D02*
X181391190Y-136061904D01*
X181891190Y-136300000D02*
X181391190Y-136300000D01*
X181391190Y-136300000D02*
X181391190Y-136419048D01*
X181391190Y-136419048D02*
X181415000Y-136490476D01*
X181415000Y-136490476D02*
X181462619Y-136538095D01*
X181462619Y-136538095D02*
X181510238Y-136561905D01*
X181510238Y-136561905D02*
X181605476Y-136585714D01*
X181605476Y-136585714D02*
X181676904Y-136585714D01*
X181676904Y-136585714D02*
X181772142Y-136561905D01*
X181772142Y-136561905D02*
X181819761Y-136538095D01*
X181819761Y-136538095D02*
X181867380Y-136490476D01*
X181867380Y-136490476D02*
X181891190Y-136419048D01*
X181891190Y-136419048D02*
X181891190Y-136300000D01*
X187104761Y-110057380D02*
X187033333Y-110081190D01*
X187033333Y-110081190D02*
X186914285Y-110081190D01*
X186914285Y-110081190D02*
X186866666Y-110057380D01*
X186866666Y-110057380D02*
X186842857Y-110033571D01*
X186842857Y-110033571D02*
X186819047Y-109985952D01*
X186819047Y-109985952D02*
X186819047Y-109938333D01*
X186819047Y-109938333D02*
X186842857Y-109890714D01*
X186842857Y-109890714D02*
X186866666Y-109866904D01*
X186866666Y-109866904D02*
X186914285Y-109843095D01*
X186914285Y-109843095D02*
X187009523Y-109819285D01*
X187009523Y-109819285D02*
X187057142Y-109795476D01*
X187057142Y-109795476D02*
X187080952Y-109771666D01*
X187080952Y-109771666D02*
X187104761Y-109724047D01*
X187104761Y-109724047D02*
X187104761Y-109676428D01*
X187104761Y-109676428D02*
X187080952Y-109628809D01*
X187080952Y-109628809D02*
X187057142Y-109605000D01*
X187057142Y-109605000D02*
X187009523Y-109581190D01*
X187009523Y-109581190D02*
X186890476Y-109581190D01*
X186890476Y-109581190D02*
X186819047Y-109605000D01*
X186533333Y-110081190D02*
X186580952Y-110057380D01*
X186580952Y-110057380D02*
X186604762Y-110033571D01*
X186604762Y-110033571D02*
X186628571Y-109985952D01*
X186628571Y-109985952D02*
X186628571Y-109843095D01*
X186628571Y-109843095D02*
X186604762Y-109795476D01*
X186604762Y-109795476D02*
X186580952Y-109771666D01*
X186580952Y-109771666D02*
X186533333Y-109747857D01*
X186533333Y-109747857D02*
X186461905Y-109747857D01*
X186461905Y-109747857D02*
X186414286Y-109771666D01*
X186414286Y-109771666D02*
X186390476Y-109795476D01*
X186390476Y-109795476D02*
X186366667Y-109843095D01*
X186366667Y-109843095D02*
X186366667Y-109985952D01*
X186366667Y-109985952D02*
X186390476Y-110033571D01*
X186390476Y-110033571D02*
X186414286Y-110057380D01*
X186414286Y-110057380D02*
X186461905Y-110081190D01*
X186461905Y-110081190D02*
X186533333Y-110081190D01*
X186080952Y-110081190D02*
X186128571Y-110057380D01*
X186128571Y-110057380D02*
X186152381Y-110009761D01*
X186152381Y-110009761D02*
X186152381Y-109581190D01*
X185676190Y-110081190D02*
X185676190Y-109581190D01*
X185676190Y-110057380D02*
X185723809Y-110081190D01*
X185723809Y-110081190D02*
X185819047Y-110081190D01*
X185819047Y-110081190D02*
X185866666Y-110057380D01*
X185866666Y-110057380D02*
X185890476Y-110033571D01*
X185890476Y-110033571D02*
X185914285Y-109985952D01*
X185914285Y-109985952D02*
X185914285Y-109843095D01*
X185914285Y-109843095D02*
X185890476Y-109795476D01*
X185890476Y-109795476D02*
X185866666Y-109771666D01*
X185866666Y-109771666D02*
X185819047Y-109747857D01*
X185819047Y-109747857D02*
X185723809Y-109747857D01*
X185723809Y-109747857D02*
X185676190Y-109771666D01*
X185247619Y-110057380D02*
X185295238Y-110081190D01*
X185295238Y-110081190D02*
X185390476Y-110081190D01*
X185390476Y-110081190D02*
X185438095Y-110057380D01*
X185438095Y-110057380D02*
X185461904Y-110009761D01*
X185461904Y-110009761D02*
X185461904Y-109819285D01*
X185461904Y-109819285D02*
X185438095Y-109771666D01*
X185438095Y-109771666D02*
X185390476Y-109747857D01*
X185390476Y-109747857D02*
X185295238Y-109747857D01*
X185295238Y-109747857D02*
X185247619Y-109771666D01*
X185247619Y-109771666D02*
X185223809Y-109819285D01*
X185223809Y-109819285D02*
X185223809Y-109866904D01*
X185223809Y-109866904D02*
X185461904Y-109914523D01*
X185009524Y-110081190D02*
X185009524Y-109747857D01*
X185009524Y-109843095D02*
X184985714Y-109795476D01*
X184985714Y-109795476D02*
X184961905Y-109771666D01*
X184961905Y-109771666D02*
X184914286Y-109747857D01*
X184914286Y-109747857D02*
X184866667Y-109747857D01*
X184257143Y-109581190D02*
X184257143Y-109938333D01*
X184257143Y-109938333D02*
X184280952Y-110009761D01*
X184280952Y-110009761D02*
X184328571Y-110057380D01*
X184328571Y-110057380D02*
X184400000Y-110081190D01*
X184400000Y-110081190D02*
X184447619Y-110081190D01*
X184019048Y-110081190D02*
X184019048Y-109581190D01*
X184019048Y-109581190D02*
X183828572Y-109581190D01*
X183828572Y-109581190D02*
X183780953Y-109605000D01*
X183780953Y-109605000D02*
X183757143Y-109628809D01*
X183757143Y-109628809D02*
X183733334Y-109676428D01*
X183733334Y-109676428D02*
X183733334Y-109747857D01*
X183733334Y-109747857D02*
X183757143Y-109795476D01*
X183757143Y-109795476D02*
X183780953Y-109819285D01*
X183780953Y-109819285D02*
X183828572Y-109843095D01*
X183828572Y-109843095D02*
X184019048Y-109843095D01*
X183257143Y-110081190D02*
X183542857Y-110081190D01*
X183400000Y-110081190D02*
X183400000Y-109581190D01*
X183400000Y-109581190D02*
X183447619Y-109652619D01*
X183447619Y-109652619D02*
X183495238Y-109700238D01*
X183495238Y-109700238D02*
X183542857Y-109724047D01*
X182338096Y-110081190D02*
X182361906Y-110081190D01*
X182361906Y-110081190D02*
X182409525Y-110057380D01*
X182409525Y-110057380D02*
X182480953Y-109985952D01*
X182480953Y-109985952D02*
X182600001Y-109843095D01*
X182600001Y-109843095D02*
X182647620Y-109771666D01*
X182647620Y-109771666D02*
X182671429Y-109700238D01*
X182671429Y-109700238D02*
X182671429Y-109652619D01*
X182671429Y-109652619D02*
X182647620Y-109605000D01*
X182647620Y-109605000D02*
X182600001Y-109581190D01*
X182600001Y-109581190D02*
X182576191Y-109581190D01*
X182576191Y-109581190D02*
X182528572Y-109605000D01*
X182528572Y-109605000D02*
X182504763Y-109652619D01*
X182504763Y-109652619D02*
X182504763Y-109676428D01*
X182504763Y-109676428D02*
X182528572Y-109724047D01*
X182528572Y-109724047D02*
X182552382Y-109747857D01*
X182552382Y-109747857D02*
X182695239Y-109843095D01*
X182695239Y-109843095D02*
X182719048Y-109866904D01*
X182719048Y-109866904D02*
X182742858Y-109914523D01*
X182742858Y-109914523D02*
X182742858Y-109985952D01*
X182742858Y-109985952D02*
X182719048Y-110033571D01*
X182719048Y-110033571D02*
X182695239Y-110057380D01*
X182695239Y-110057380D02*
X182647620Y-110081190D01*
X182647620Y-110081190D02*
X182576191Y-110081190D01*
X182576191Y-110081190D02*
X182528572Y-110057380D01*
X182528572Y-110057380D02*
X182504763Y-110033571D01*
X182504763Y-110033571D02*
X182433334Y-109938333D01*
X182433334Y-109938333D02*
X182409525Y-109866904D01*
X182409525Y-109866904D02*
X182409525Y-109819285D01*
X181680953Y-109581190D02*
X181680953Y-109938333D01*
X181680953Y-109938333D02*
X181704762Y-110009761D01*
X181704762Y-110009761D02*
X181752381Y-110057380D01*
X181752381Y-110057380D02*
X181823810Y-110081190D01*
X181823810Y-110081190D02*
X181871429Y-110081190D01*
X181442858Y-110081190D02*
X181442858Y-109581190D01*
X181442858Y-109581190D02*
X181252382Y-109581190D01*
X181252382Y-109581190D02*
X181204763Y-109605000D01*
X181204763Y-109605000D02*
X181180953Y-109628809D01*
X181180953Y-109628809D02*
X181157144Y-109676428D01*
X181157144Y-109676428D02*
X181157144Y-109747857D01*
X181157144Y-109747857D02*
X181180953Y-109795476D01*
X181180953Y-109795476D02*
X181204763Y-109819285D01*
X181204763Y-109819285D02*
X181252382Y-109843095D01*
X181252382Y-109843095D02*
X181442858Y-109843095D01*
X180966667Y-109628809D02*
X180942858Y-109605000D01*
X180942858Y-109605000D02*
X180895239Y-109581190D01*
X180895239Y-109581190D02*
X180776191Y-109581190D01*
X180776191Y-109581190D02*
X180728572Y-109605000D01*
X180728572Y-109605000D02*
X180704763Y-109628809D01*
X180704763Y-109628809D02*
X180680953Y-109676428D01*
X180680953Y-109676428D02*
X180680953Y-109724047D01*
X180680953Y-109724047D02*
X180704763Y-109795476D01*
X180704763Y-109795476D02*
X180990477Y-110081190D01*
X180990477Y-110081190D02*
X180680953Y-110081190D01*
X186914285Y-110629285D02*
X187080952Y-110629285D01*
X187080952Y-110891190D02*
X187080952Y-110391190D01*
X187080952Y-110391190D02*
X186842857Y-110391190D01*
X186580952Y-110891190D02*
X186628571Y-110867380D01*
X186628571Y-110867380D02*
X186652381Y-110843571D01*
X186652381Y-110843571D02*
X186676190Y-110795952D01*
X186676190Y-110795952D02*
X186676190Y-110653095D01*
X186676190Y-110653095D02*
X186652381Y-110605476D01*
X186652381Y-110605476D02*
X186628571Y-110581666D01*
X186628571Y-110581666D02*
X186580952Y-110557857D01*
X186580952Y-110557857D02*
X186509524Y-110557857D01*
X186509524Y-110557857D02*
X186461905Y-110581666D01*
X186461905Y-110581666D02*
X186438095Y-110605476D01*
X186438095Y-110605476D02*
X186414286Y-110653095D01*
X186414286Y-110653095D02*
X186414286Y-110795952D01*
X186414286Y-110795952D02*
X186438095Y-110843571D01*
X186438095Y-110843571D02*
X186461905Y-110867380D01*
X186461905Y-110867380D02*
X186509524Y-110891190D01*
X186509524Y-110891190D02*
X186580952Y-110891190D01*
X186200000Y-110891190D02*
X186200000Y-110557857D01*
X186200000Y-110653095D02*
X186176190Y-110605476D01*
X186176190Y-110605476D02*
X186152381Y-110581666D01*
X186152381Y-110581666D02*
X186104762Y-110557857D01*
X186104762Y-110557857D02*
X186057143Y-110557857D01*
X185590476Y-110891190D02*
X185590476Y-110391190D01*
X185590476Y-110391190D02*
X185423809Y-110748333D01*
X185423809Y-110748333D02*
X185257143Y-110391190D01*
X185257143Y-110391190D02*
X185257143Y-110891190D01*
X185019047Y-110891190D02*
X185019047Y-110557857D01*
X185019047Y-110391190D02*
X185042856Y-110415000D01*
X185042856Y-110415000D02*
X185019047Y-110438809D01*
X185019047Y-110438809D02*
X184995237Y-110415000D01*
X184995237Y-110415000D02*
X185019047Y-110391190D01*
X185019047Y-110391190D02*
X185019047Y-110438809D01*
X184566666Y-110891190D02*
X184566666Y-110391190D01*
X184566666Y-110867380D02*
X184614285Y-110891190D01*
X184614285Y-110891190D02*
X184709523Y-110891190D01*
X184709523Y-110891190D02*
X184757142Y-110867380D01*
X184757142Y-110867380D02*
X184780952Y-110843571D01*
X184780952Y-110843571D02*
X184804761Y-110795952D01*
X184804761Y-110795952D02*
X184804761Y-110653095D01*
X184804761Y-110653095D02*
X184780952Y-110605476D01*
X184780952Y-110605476D02*
X184757142Y-110581666D01*
X184757142Y-110581666D02*
X184709523Y-110557857D01*
X184709523Y-110557857D02*
X184614285Y-110557857D01*
X184614285Y-110557857D02*
X184566666Y-110581666D01*
X184328571Y-110891190D02*
X184328571Y-110557857D01*
X184328571Y-110391190D02*
X184352380Y-110415000D01*
X184352380Y-110415000D02*
X184328571Y-110438809D01*
X184328571Y-110438809D02*
X184304761Y-110415000D01*
X184304761Y-110415000D02*
X184328571Y-110391190D01*
X184328571Y-110391190D02*
X184328571Y-110438809D01*
X183790476Y-110891190D02*
X183790476Y-110391190D01*
X183552381Y-110557857D02*
X183552381Y-110891190D01*
X183552381Y-110605476D02*
X183528571Y-110581666D01*
X183528571Y-110581666D02*
X183480952Y-110557857D01*
X183480952Y-110557857D02*
X183409524Y-110557857D01*
X183409524Y-110557857D02*
X183361905Y-110581666D01*
X183361905Y-110581666D02*
X183338095Y-110629285D01*
X183338095Y-110629285D02*
X183338095Y-110891190D01*
X180500714Y-137076190D02*
X180500714Y-137457143D01*
X180691190Y-137266666D02*
X180310238Y-137266666D01*
X180691190Y-137957143D02*
X180691190Y-137671429D01*
X180691190Y-137814286D02*
X180191190Y-137814286D01*
X180191190Y-137814286D02*
X180262619Y-137766667D01*
X180262619Y-137766667D02*
X180310238Y-137719048D01*
X180310238Y-137719048D02*
X180334047Y-137671429D01*
X180238809Y-138147619D02*
X180215000Y-138171428D01*
X180215000Y-138171428D02*
X180191190Y-138219047D01*
X180191190Y-138219047D02*
X180191190Y-138338095D01*
X180191190Y-138338095D02*
X180215000Y-138385714D01*
X180215000Y-138385714D02*
X180238809Y-138409523D01*
X180238809Y-138409523D02*
X180286428Y-138433333D01*
X180286428Y-138433333D02*
X180334047Y-138433333D01*
X180334047Y-138433333D02*
X180405476Y-138409523D01*
X180405476Y-138409523D02*
X180691190Y-138123809D01*
X180691190Y-138123809D02*
X180691190Y-138433333D01*
X180191190Y-138576190D02*
X180691190Y-138742856D01*
X180691190Y-138742856D02*
X180191190Y-138909523D01*
X181700714Y-139919047D02*
X181700714Y-140300000D01*
X181891190Y-140109523D02*
X181510238Y-140109523D01*
X181391190Y-140490476D02*
X181391190Y-140800000D01*
X181391190Y-140800000D02*
X181581666Y-140633333D01*
X181581666Y-140633333D02*
X181581666Y-140704762D01*
X181581666Y-140704762D02*
X181605476Y-140752381D01*
X181605476Y-140752381D02*
X181629285Y-140776190D01*
X181629285Y-140776190D02*
X181676904Y-140800000D01*
X181676904Y-140800000D02*
X181795952Y-140800000D01*
X181795952Y-140800000D02*
X181843571Y-140776190D01*
X181843571Y-140776190D02*
X181867380Y-140752381D01*
X181867380Y-140752381D02*
X181891190Y-140704762D01*
X181891190Y-140704762D02*
X181891190Y-140561905D01*
X181891190Y-140561905D02*
X181867380Y-140514286D01*
X181867380Y-140514286D02*
X181843571Y-140490476D01*
X181843571Y-141014285D02*
X181867380Y-141038095D01*
X181867380Y-141038095D02*
X181891190Y-141014285D01*
X181891190Y-141014285D02*
X181867380Y-140990476D01*
X181867380Y-140990476D02*
X181843571Y-141014285D01*
X181843571Y-141014285D02*
X181891190Y-141014285D01*
X181391190Y-141204761D02*
X181391190Y-141514285D01*
X181391190Y-141514285D02*
X181581666Y-141347618D01*
X181581666Y-141347618D02*
X181581666Y-141419047D01*
X181581666Y-141419047D02*
X181605476Y-141466666D01*
X181605476Y-141466666D02*
X181629285Y-141490475D01*
X181629285Y-141490475D02*
X181676904Y-141514285D01*
X181676904Y-141514285D02*
X181795952Y-141514285D01*
X181795952Y-141514285D02*
X181843571Y-141490475D01*
X181843571Y-141490475D02*
X181867380Y-141466666D01*
X181867380Y-141466666D02*
X181891190Y-141419047D01*
X181891190Y-141419047D02*
X181891190Y-141276190D01*
X181891190Y-141276190D02*
X181867380Y-141228571D01*
X181867380Y-141228571D02*
X181843571Y-141204761D01*
X181391190Y-141657142D02*
X181891190Y-141823808D01*
X181891190Y-141823808D02*
X181391190Y-141990475D01*
X180691190Y-132276190D02*
X180191190Y-132276190D01*
X180191190Y-132276190D02*
X180548333Y-132442857D01*
X180548333Y-132442857D02*
X180191190Y-132609523D01*
X180191190Y-132609523D02*
X180691190Y-132609523D01*
X180691190Y-132847619D02*
X180191190Y-132847619D01*
X180691190Y-133085714D02*
X180191190Y-133085714D01*
X180191190Y-133085714D02*
X180191190Y-133204762D01*
X180191190Y-133204762D02*
X180215000Y-133276190D01*
X180215000Y-133276190D02*
X180262619Y-133323809D01*
X180262619Y-133323809D02*
X180310238Y-133347619D01*
X180310238Y-133347619D02*
X180405476Y-133371428D01*
X180405476Y-133371428D02*
X180476904Y-133371428D01*
X180476904Y-133371428D02*
X180572142Y-133347619D01*
X180572142Y-133347619D02*
X180619761Y-133323809D01*
X180619761Y-133323809D02*
X180667380Y-133276190D01*
X180667380Y-133276190D02*
X180691190Y-133204762D01*
X180691190Y-133204762D02*
X180691190Y-133085714D01*
X180691190Y-133585714D02*
X180191190Y-133585714D01*
X180738809Y-133704762D02*
X180738809Y-134085714D01*
X180691190Y-134276190D02*
X180667380Y-134228571D01*
X180667380Y-134228571D02*
X180643571Y-134204761D01*
X180643571Y-134204761D02*
X180595952Y-134180952D01*
X180595952Y-134180952D02*
X180453095Y-134180952D01*
X180453095Y-134180952D02*
X180405476Y-134204761D01*
X180405476Y-134204761D02*
X180381666Y-134228571D01*
X180381666Y-134228571D02*
X180357857Y-134276190D01*
X180357857Y-134276190D02*
X180357857Y-134347618D01*
X180357857Y-134347618D02*
X180381666Y-134395237D01*
X180381666Y-134395237D02*
X180405476Y-134419047D01*
X180405476Y-134419047D02*
X180453095Y-134442856D01*
X180453095Y-134442856D02*
X180595952Y-134442856D01*
X180595952Y-134442856D02*
X180643571Y-134419047D01*
X180643571Y-134419047D02*
X180667380Y-134395237D01*
X180667380Y-134395237D02*
X180691190Y-134347618D01*
X180691190Y-134347618D02*
X180691190Y-134276190D01*
X181891190Y-129535713D02*
X181391190Y-129535713D01*
X181391190Y-129535713D02*
X181748333Y-129702380D01*
X181748333Y-129702380D02*
X181391190Y-129869046D01*
X181391190Y-129869046D02*
X181891190Y-129869046D01*
X181891190Y-130107142D02*
X181391190Y-130107142D01*
X181891190Y-130345237D02*
X181391190Y-130345237D01*
X181391190Y-130345237D02*
X181391190Y-130464285D01*
X181391190Y-130464285D02*
X181415000Y-130535713D01*
X181415000Y-130535713D02*
X181462619Y-130583332D01*
X181462619Y-130583332D02*
X181510238Y-130607142D01*
X181510238Y-130607142D02*
X181605476Y-130630951D01*
X181605476Y-130630951D02*
X181676904Y-130630951D01*
X181676904Y-130630951D02*
X181772142Y-130607142D01*
X181772142Y-130607142D02*
X181819761Y-130583332D01*
X181819761Y-130583332D02*
X181867380Y-130535713D01*
X181867380Y-130535713D02*
X181891190Y-130464285D01*
X181891190Y-130464285D02*
X181891190Y-130345237D01*
X181891190Y-130845237D02*
X181391190Y-130845237D01*
X181938809Y-130964285D02*
X181938809Y-131345237D01*
X181891190Y-131464284D02*
X181557857Y-131464284D01*
X181391190Y-131464284D02*
X181415000Y-131440475D01*
X181415000Y-131440475D02*
X181438809Y-131464284D01*
X181438809Y-131464284D02*
X181415000Y-131488094D01*
X181415000Y-131488094D02*
X181391190Y-131464284D01*
X181391190Y-131464284D02*
X181438809Y-131464284D01*
X180500714Y-140276190D02*
X180500714Y-140657143D01*
X180691190Y-140466666D02*
X180310238Y-140466666D01*
X180191190Y-141133333D02*
X180191190Y-140895238D01*
X180191190Y-140895238D02*
X180429285Y-140871429D01*
X180429285Y-140871429D02*
X180405476Y-140895238D01*
X180405476Y-140895238D02*
X180381666Y-140942857D01*
X180381666Y-140942857D02*
X180381666Y-141061905D01*
X180381666Y-141061905D02*
X180405476Y-141109524D01*
X180405476Y-141109524D02*
X180429285Y-141133333D01*
X180429285Y-141133333D02*
X180476904Y-141157143D01*
X180476904Y-141157143D02*
X180595952Y-141157143D01*
X180595952Y-141157143D02*
X180643571Y-141133333D01*
X180643571Y-141133333D02*
X180667380Y-141109524D01*
X180667380Y-141109524D02*
X180691190Y-141061905D01*
X180691190Y-141061905D02*
X180691190Y-140942857D01*
X180691190Y-140942857D02*
X180667380Y-140895238D01*
X180667380Y-140895238D02*
X180643571Y-140871429D01*
X180191190Y-141300000D02*
X180691190Y-141466666D01*
X180691190Y-141466666D02*
X180191190Y-141633333D01*
X181700714Y-137076190D02*
X181700714Y-137457143D01*
X181891190Y-137957143D02*
X181891190Y-137671429D01*
X181891190Y-137814286D02*
X181391190Y-137814286D01*
X181391190Y-137814286D02*
X181462619Y-137766667D01*
X181462619Y-137766667D02*
X181510238Y-137719048D01*
X181510238Y-137719048D02*
X181534047Y-137671429D01*
X181438809Y-138147619D02*
X181415000Y-138171428D01*
X181415000Y-138171428D02*
X181391190Y-138219047D01*
X181391190Y-138219047D02*
X181391190Y-138338095D01*
X181391190Y-138338095D02*
X181415000Y-138385714D01*
X181415000Y-138385714D02*
X181438809Y-138409523D01*
X181438809Y-138409523D02*
X181486428Y-138433333D01*
X181486428Y-138433333D02*
X181534047Y-138433333D01*
X181534047Y-138433333D02*
X181605476Y-138409523D01*
X181605476Y-138409523D02*
X181891190Y-138123809D01*
X181891190Y-138123809D02*
X181891190Y-138433333D01*
X181391190Y-138576190D02*
X181891190Y-138742856D01*
X181891190Y-138742856D02*
X181391190Y-138909523D01*
X180215000Y-129738095D02*
X180191190Y-129690476D01*
X180191190Y-129690476D02*
X180191190Y-129619047D01*
X180191190Y-129619047D02*
X180215000Y-129547619D01*
X180215000Y-129547619D02*
X180262619Y-129500000D01*
X180262619Y-129500000D02*
X180310238Y-129476190D01*
X180310238Y-129476190D02*
X180405476Y-129452381D01*
X180405476Y-129452381D02*
X180476904Y-129452381D01*
X180476904Y-129452381D02*
X180572142Y-129476190D01*
X180572142Y-129476190D02*
X180619761Y-129500000D01*
X180619761Y-129500000D02*
X180667380Y-129547619D01*
X180667380Y-129547619D02*
X180691190Y-129619047D01*
X180691190Y-129619047D02*
X180691190Y-129666666D01*
X180691190Y-129666666D02*
X180667380Y-129738095D01*
X180667380Y-129738095D02*
X180643571Y-129761904D01*
X180643571Y-129761904D02*
X180476904Y-129761904D01*
X180476904Y-129761904D02*
X180476904Y-129666666D01*
X180691190Y-130190476D02*
X180429285Y-130190476D01*
X180429285Y-130190476D02*
X180381666Y-130166666D01*
X180381666Y-130166666D02*
X180357857Y-130119047D01*
X180357857Y-130119047D02*
X180357857Y-130023809D01*
X180357857Y-130023809D02*
X180381666Y-129976190D01*
X180667380Y-130190476D02*
X180691190Y-130142857D01*
X180691190Y-130142857D02*
X180691190Y-130023809D01*
X180691190Y-130023809D02*
X180667380Y-129976190D01*
X180667380Y-129976190D02*
X180619761Y-129952381D01*
X180619761Y-129952381D02*
X180572142Y-129952381D01*
X180572142Y-129952381D02*
X180524523Y-129976190D01*
X180524523Y-129976190D02*
X180500714Y-130023809D01*
X180500714Y-130023809D02*
X180500714Y-130142857D01*
X180500714Y-130142857D02*
X180476904Y-130190476D01*
X180357857Y-130357143D02*
X180357857Y-130547619D01*
X180191190Y-130428571D02*
X180619761Y-130428571D01*
X180619761Y-130428571D02*
X180667380Y-130452381D01*
X180667380Y-130452381D02*
X180691190Y-130500000D01*
X180691190Y-130500000D02*
X180691190Y-130547619D01*
X180667380Y-130904761D02*
X180691190Y-130857142D01*
X180691190Y-130857142D02*
X180691190Y-130761904D01*
X180691190Y-130761904D02*
X180667380Y-130714285D01*
X180667380Y-130714285D02*
X180619761Y-130690476D01*
X180619761Y-130690476D02*
X180429285Y-130690476D01*
X180429285Y-130690476D02*
X180381666Y-130714285D01*
X180381666Y-130714285D02*
X180357857Y-130761904D01*
X180357857Y-130761904D02*
X180357857Y-130857142D01*
X180357857Y-130857142D02*
X180381666Y-130904761D01*
X180381666Y-130904761D02*
X180429285Y-130928571D01*
X180429285Y-130928571D02*
X180476904Y-130928571D01*
X180476904Y-130928571D02*
X180524523Y-130690476D01*
X180738809Y-131023809D02*
X180738809Y-131404761D01*
X180691190Y-131523808D02*
X180357857Y-131523808D01*
X180191190Y-131523808D02*
X180215000Y-131499999D01*
X180215000Y-131499999D02*
X180238809Y-131523808D01*
X180238809Y-131523808D02*
X180215000Y-131547618D01*
X180215000Y-131547618D02*
X180191190Y-131523808D01*
X180191190Y-131523808D02*
X180238809Y-131523808D01*
D13*
X192446426Y-64682678D02*
X192196426Y-64682678D01*
X192089283Y-65075535D02*
X192446426Y-65075535D01*
X192446426Y-65075535D02*
X192446426Y-64325535D01*
X192446426Y-64325535D02*
X192089283Y-64325535D01*
X191767855Y-64325535D02*
X191767855Y-64932678D01*
X191767855Y-64932678D02*
X191732141Y-65004107D01*
X191732141Y-65004107D02*
X191696427Y-65039821D01*
X191696427Y-65039821D02*
X191624998Y-65075535D01*
X191624998Y-65075535D02*
X191482141Y-65075535D01*
X191482141Y-65075535D02*
X191410712Y-65039821D01*
X191410712Y-65039821D02*
X191374998Y-65004107D01*
X191374998Y-65004107D02*
X191339284Y-64932678D01*
X191339284Y-64932678D02*
X191339284Y-64325535D01*
X190553570Y-65075535D02*
X190803570Y-64718392D01*
X190982141Y-65075535D02*
X190982141Y-64325535D01*
X190982141Y-64325535D02*
X190696427Y-64325535D01*
X190696427Y-64325535D02*
X190624998Y-64361250D01*
X190624998Y-64361250D02*
X190589284Y-64396964D01*
X190589284Y-64396964D02*
X190553570Y-64468392D01*
X190553570Y-64468392D02*
X190553570Y-64575535D01*
X190553570Y-64575535D02*
X190589284Y-64646964D01*
X190589284Y-64646964D02*
X190624998Y-64682678D01*
X190624998Y-64682678D02*
X190696427Y-64718392D01*
X190696427Y-64718392D02*
X190982141Y-64718392D01*
X190089284Y-64325535D02*
X189946427Y-64325535D01*
X189946427Y-64325535D02*
X189874998Y-64361250D01*
X189874998Y-64361250D02*
X189803570Y-64432678D01*
X189803570Y-64432678D02*
X189767855Y-64575535D01*
X189767855Y-64575535D02*
X189767855Y-64825535D01*
X189767855Y-64825535D02*
X189803570Y-64968392D01*
X189803570Y-64968392D02*
X189874998Y-65039821D01*
X189874998Y-65039821D02*
X189946427Y-65075535D01*
X189946427Y-65075535D02*
X190089284Y-65075535D01*
X190089284Y-65075535D02*
X190160713Y-65039821D01*
X190160713Y-65039821D02*
X190232141Y-64968392D01*
X190232141Y-64968392D02*
X190267855Y-64825535D01*
X190267855Y-64825535D02*
X190267855Y-64575535D01*
X190267855Y-64575535D02*
X190232141Y-64432678D01*
X190232141Y-64432678D02*
X190160713Y-64361250D01*
X190160713Y-64361250D02*
X190089284Y-64325535D01*
X189017856Y-65075535D02*
X189267856Y-64718392D01*
X189446427Y-65075535D02*
X189446427Y-64325535D01*
X189446427Y-64325535D02*
X189160713Y-64325535D01*
X189160713Y-64325535D02*
X189089284Y-64361250D01*
X189089284Y-64361250D02*
X189053570Y-64396964D01*
X189053570Y-64396964D02*
X189017856Y-64468392D01*
X189017856Y-64468392D02*
X189017856Y-64575535D01*
X189017856Y-64575535D02*
X189053570Y-64646964D01*
X189053570Y-64646964D02*
X189089284Y-64682678D01*
X189089284Y-64682678D02*
X189160713Y-64718392D01*
X189160713Y-64718392D02*
X189446427Y-64718392D01*
X188732141Y-64861250D02*
X188374999Y-64861250D01*
X188803570Y-65075535D02*
X188553570Y-64325535D01*
X188553570Y-64325535D02*
X188303570Y-65075535D01*
X187624999Y-65004107D02*
X187660713Y-65039821D01*
X187660713Y-65039821D02*
X187767856Y-65075535D01*
X187767856Y-65075535D02*
X187839284Y-65075535D01*
X187839284Y-65075535D02*
X187946427Y-65039821D01*
X187946427Y-65039821D02*
X188017856Y-64968392D01*
X188017856Y-64968392D02*
X188053570Y-64896964D01*
X188053570Y-64896964D02*
X188089284Y-64754107D01*
X188089284Y-64754107D02*
X188089284Y-64646964D01*
X188089284Y-64646964D02*
X188053570Y-64504107D01*
X188053570Y-64504107D02*
X188017856Y-64432678D01*
X188017856Y-64432678D02*
X187946427Y-64361250D01*
X187946427Y-64361250D02*
X187839284Y-64325535D01*
X187839284Y-64325535D02*
X187767856Y-64325535D01*
X187767856Y-64325535D02*
X187660713Y-64361250D01*
X187660713Y-64361250D02*
X187624999Y-64396964D01*
X187303570Y-65075535D02*
X187303570Y-64325535D01*
X186874999Y-65075535D02*
X187196427Y-64646964D01*
X186874999Y-64325535D02*
X187303570Y-64754107D01*
X186103570Y-65075535D02*
X186103570Y-64325535D01*
X186103570Y-64325535D02*
X185817856Y-64325535D01*
X185817856Y-64325535D02*
X185746427Y-64361250D01*
X185746427Y-64361250D02*
X185710713Y-64396964D01*
X185710713Y-64396964D02*
X185674999Y-64468392D01*
X185674999Y-64468392D02*
X185674999Y-64575535D01*
X185674999Y-64575535D02*
X185710713Y-64646964D01*
X185710713Y-64646964D02*
X185746427Y-64682678D01*
X185746427Y-64682678D02*
X185817856Y-64718392D01*
X185817856Y-64718392D02*
X186103570Y-64718392D01*
X185246427Y-65075535D02*
X185317856Y-65039821D01*
X185317856Y-65039821D02*
X185353570Y-65004107D01*
X185353570Y-65004107D02*
X185389284Y-64932678D01*
X185389284Y-64932678D02*
X185389284Y-64718392D01*
X185389284Y-64718392D02*
X185353570Y-64646964D01*
X185353570Y-64646964D02*
X185317856Y-64611250D01*
X185317856Y-64611250D02*
X185246427Y-64575535D01*
X185246427Y-64575535D02*
X185139284Y-64575535D01*
X185139284Y-64575535D02*
X185067856Y-64611250D01*
X185067856Y-64611250D02*
X185032142Y-64646964D01*
X185032142Y-64646964D02*
X184996427Y-64718392D01*
X184996427Y-64718392D02*
X184996427Y-64932678D01*
X184996427Y-64932678D02*
X185032142Y-65004107D01*
X185032142Y-65004107D02*
X185067856Y-65039821D01*
X185067856Y-65039821D02*
X185139284Y-65075535D01*
X185139284Y-65075535D02*
X185246427Y-65075535D01*
X184746428Y-64575535D02*
X184603571Y-65075535D01*
X184603571Y-65075535D02*
X184460713Y-64718392D01*
X184460713Y-64718392D02*
X184317856Y-65075535D01*
X184317856Y-65075535D02*
X184174999Y-64575535D01*
X183603571Y-65039821D02*
X183674999Y-65075535D01*
X183674999Y-65075535D02*
X183817857Y-65075535D01*
X183817857Y-65075535D02*
X183889285Y-65039821D01*
X183889285Y-65039821D02*
X183924999Y-64968392D01*
X183924999Y-64968392D02*
X183924999Y-64682678D01*
X183924999Y-64682678D02*
X183889285Y-64611250D01*
X183889285Y-64611250D02*
X183817857Y-64575535D01*
X183817857Y-64575535D02*
X183674999Y-64575535D01*
X183674999Y-64575535D02*
X183603571Y-64611250D01*
X183603571Y-64611250D02*
X183567857Y-64682678D01*
X183567857Y-64682678D02*
X183567857Y-64754107D01*
X183567857Y-64754107D02*
X183924999Y-64825535D01*
X183246428Y-65075535D02*
X183246428Y-64575535D01*
X183246428Y-64718392D02*
X183210714Y-64646964D01*
X183210714Y-64646964D02*
X183175000Y-64611250D01*
X183175000Y-64611250D02*
X183103571Y-64575535D01*
X183103571Y-64575535D02*
X183032142Y-64575535D01*
X182010714Y-65039821D02*
X182082142Y-65075535D01*
X182082142Y-65075535D02*
X182224999Y-65075535D01*
X182224999Y-65075535D02*
X182296428Y-65039821D01*
X182296428Y-65039821D02*
X182332142Y-65004107D01*
X182332142Y-65004107D02*
X182367856Y-64932678D01*
X182367856Y-64932678D02*
X182367856Y-64718392D01*
X182367856Y-64718392D02*
X182332142Y-64646964D01*
X182332142Y-64646964D02*
X182296428Y-64611250D01*
X182296428Y-64611250D02*
X182224999Y-64575535D01*
X182224999Y-64575535D02*
X182082142Y-64575535D01*
X182082142Y-64575535D02*
X182010714Y-64611250D01*
X181582142Y-65075535D02*
X181653571Y-65039821D01*
X181653571Y-65039821D02*
X181689285Y-65004107D01*
X181689285Y-65004107D02*
X181724999Y-64932678D01*
X181724999Y-64932678D02*
X181724999Y-64718392D01*
X181724999Y-64718392D02*
X181689285Y-64646964D01*
X181689285Y-64646964D02*
X181653571Y-64611250D01*
X181653571Y-64611250D02*
X181582142Y-64575535D01*
X181582142Y-64575535D02*
X181474999Y-64575535D01*
X181474999Y-64575535D02*
X181403571Y-64611250D01*
X181403571Y-64611250D02*
X181367857Y-64646964D01*
X181367857Y-64646964D02*
X181332142Y-64718392D01*
X181332142Y-64718392D02*
X181332142Y-64932678D01*
X181332142Y-64932678D02*
X181367857Y-65004107D01*
X181367857Y-65004107D02*
X181403571Y-65039821D01*
X181403571Y-65039821D02*
X181474999Y-65075535D01*
X181474999Y-65075535D02*
X181582142Y-65075535D01*
X181010714Y-64575535D02*
X181010714Y-65075535D01*
X181010714Y-64646964D02*
X180975000Y-64611250D01*
X180975000Y-64611250D02*
X180903571Y-64575535D01*
X180903571Y-64575535D02*
X180796428Y-64575535D01*
X180796428Y-64575535D02*
X180725000Y-64611250D01*
X180725000Y-64611250D02*
X180689286Y-64682678D01*
X180689286Y-64682678D02*
X180689286Y-65075535D01*
X180332143Y-64575535D02*
X180332143Y-65075535D01*
X180332143Y-64646964D02*
X180296429Y-64611250D01*
X180296429Y-64611250D02*
X180225000Y-64575535D01*
X180225000Y-64575535D02*
X180117857Y-64575535D01*
X180117857Y-64575535D02*
X180046429Y-64611250D01*
X180046429Y-64611250D02*
X180010715Y-64682678D01*
X180010715Y-64682678D02*
X180010715Y-65075535D01*
X179367858Y-65039821D02*
X179439286Y-65075535D01*
X179439286Y-65075535D02*
X179582144Y-65075535D01*
X179582144Y-65075535D02*
X179653572Y-65039821D01*
X179653572Y-65039821D02*
X179689286Y-64968392D01*
X179689286Y-64968392D02*
X179689286Y-64682678D01*
X179689286Y-64682678D02*
X179653572Y-64611250D01*
X179653572Y-64611250D02*
X179582144Y-64575535D01*
X179582144Y-64575535D02*
X179439286Y-64575535D01*
X179439286Y-64575535D02*
X179367858Y-64611250D01*
X179367858Y-64611250D02*
X179332144Y-64682678D01*
X179332144Y-64682678D02*
X179332144Y-64754107D01*
X179332144Y-64754107D02*
X179689286Y-64825535D01*
X178689287Y-65039821D02*
X178760715Y-65075535D01*
X178760715Y-65075535D02*
X178903572Y-65075535D01*
X178903572Y-65075535D02*
X178975001Y-65039821D01*
X178975001Y-65039821D02*
X179010715Y-65004107D01*
X179010715Y-65004107D02*
X179046429Y-64932678D01*
X179046429Y-64932678D02*
X179046429Y-64718392D01*
X179046429Y-64718392D02*
X179010715Y-64646964D01*
X179010715Y-64646964D02*
X178975001Y-64611250D01*
X178975001Y-64611250D02*
X178903572Y-64575535D01*
X178903572Y-64575535D02*
X178760715Y-64575535D01*
X178760715Y-64575535D02*
X178689287Y-64611250D01*
X178475001Y-64575535D02*
X178189287Y-64575535D01*
X178367858Y-64325535D02*
X178367858Y-64968392D01*
X178367858Y-64968392D02*
X178332144Y-65039821D01*
X178332144Y-65039821D02*
X178260715Y-65075535D01*
X178260715Y-65075535D02*
X178189287Y-65075535D01*
X177832144Y-65075535D02*
X177903573Y-65039821D01*
X177903573Y-65039821D02*
X177939287Y-65004107D01*
X177939287Y-65004107D02*
X177975001Y-64932678D01*
X177975001Y-64932678D02*
X177975001Y-64718392D01*
X177975001Y-64718392D02*
X177939287Y-64646964D01*
X177939287Y-64646964D02*
X177903573Y-64611250D01*
X177903573Y-64611250D02*
X177832144Y-64575535D01*
X177832144Y-64575535D02*
X177725001Y-64575535D01*
X177725001Y-64575535D02*
X177653573Y-64611250D01*
X177653573Y-64611250D02*
X177617859Y-64646964D01*
X177617859Y-64646964D02*
X177582144Y-64718392D01*
X177582144Y-64718392D02*
X177582144Y-64932678D01*
X177582144Y-64932678D02*
X177617859Y-65004107D01*
X177617859Y-65004107D02*
X177653573Y-65039821D01*
X177653573Y-65039821D02*
X177725001Y-65075535D01*
X177725001Y-65075535D02*
X177832144Y-65075535D01*
X177260716Y-65075535D02*
X177260716Y-64575535D01*
X177260716Y-64718392D02*
X177225002Y-64646964D01*
X177225002Y-64646964D02*
X177189288Y-64611250D01*
X177189288Y-64611250D02*
X177117859Y-64575535D01*
X177117859Y-64575535D02*
X177046430Y-64575535D01*
D10*
%TO.C,FB2*%
X192443571Y-54716666D02*
X192443571Y-54383333D01*
X192967380Y-54383333D02*
X191967380Y-54383333D01*
X191967380Y-54383333D02*
X191967380Y-54859523D01*
X192443571Y-55573809D02*
X192491190Y-55716666D01*
X192491190Y-55716666D02*
X192538809Y-55764285D01*
X192538809Y-55764285D02*
X192634047Y-55811904D01*
X192634047Y-55811904D02*
X192776904Y-55811904D01*
X192776904Y-55811904D02*
X192872142Y-55764285D01*
X192872142Y-55764285D02*
X192919761Y-55716666D01*
X192919761Y-55716666D02*
X192967380Y-55621428D01*
X192967380Y-55621428D02*
X192967380Y-55240476D01*
X192967380Y-55240476D02*
X191967380Y-55240476D01*
X191967380Y-55240476D02*
X191967380Y-55573809D01*
X191967380Y-55573809D02*
X192015000Y-55669047D01*
X192015000Y-55669047D02*
X192062619Y-55716666D01*
X192062619Y-55716666D02*
X192157857Y-55764285D01*
X192157857Y-55764285D02*
X192253095Y-55764285D01*
X192253095Y-55764285D02*
X192348333Y-55716666D01*
X192348333Y-55716666D02*
X192395952Y-55669047D01*
X192395952Y-55669047D02*
X192443571Y-55573809D01*
X192443571Y-55573809D02*
X192443571Y-55240476D01*
X192062619Y-56192857D02*
X192015000Y-56240476D01*
X192015000Y-56240476D02*
X191967380Y-56335714D01*
X191967380Y-56335714D02*
X191967380Y-56573809D01*
X191967380Y-56573809D02*
X192015000Y-56669047D01*
X192015000Y-56669047D02*
X192062619Y-56716666D01*
X192062619Y-56716666D02*
X192157857Y-56764285D01*
X192157857Y-56764285D02*
X192253095Y-56764285D01*
X192253095Y-56764285D02*
X192395952Y-56716666D01*
X192395952Y-56716666D02*
X192967380Y-56145238D01*
X192967380Y-56145238D02*
X192967380Y-56764285D01*
%TO.C,R9*%
X176217380Y-122170833D02*
X175741190Y-121837500D01*
X176217380Y-121599405D02*
X175217380Y-121599405D01*
X175217380Y-121599405D02*
X175217380Y-121980357D01*
X175217380Y-121980357D02*
X175265000Y-122075595D01*
X175265000Y-122075595D02*
X175312619Y-122123214D01*
X175312619Y-122123214D02*
X175407857Y-122170833D01*
X175407857Y-122170833D02*
X175550714Y-122170833D01*
X175550714Y-122170833D02*
X175645952Y-122123214D01*
X175645952Y-122123214D02*
X175693571Y-122075595D01*
X175693571Y-122075595D02*
X175741190Y-121980357D01*
X175741190Y-121980357D02*
X175741190Y-121599405D01*
X176217380Y-122647024D02*
X176217380Y-122837500D01*
X176217380Y-122837500D02*
X176169761Y-122932738D01*
X176169761Y-122932738D02*
X176122142Y-122980357D01*
X176122142Y-122980357D02*
X175979285Y-123075595D01*
X175979285Y-123075595D02*
X175788809Y-123123214D01*
X175788809Y-123123214D02*
X175407857Y-123123214D01*
X175407857Y-123123214D02*
X175312619Y-123075595D01*
X175312619Y-123075595D02*
X175265000Y-123027976D01*
X175265000Y-123027976D02*
X175217380Y-122932738D01*
X175217380Y-122932738D02*
X175217380Y-122742262D01*
X175217380Y-122742262D02*
X175265000Y-122647024D01*
X175265000Y-122647024D02*
X175312619Y-122599405D01*
X175312619Y-122599405D02*
X175407857Y-122551786D01*
X175407857Y-122551786D02*
X175645952Y-122551786D01*
X175645952Y-122551786D02*
X175741190Y-122599405D01*
X175741190Y-122599405D02*
X175788809Y-122647024D01*
X175788809Y-122647024D02*
X175836428Y-122742262D01*
X175836428Y-122742262D02*
X175836428Y-122932738D01*
X175836428Y-122932738D02*
X175788809Y-123027976D01*
X175788809Y-123027976D02*
X175741190Y-123075595D01*
X175741190Y-123075595D02*
X175645952Y-123123214D01*
%TO.C,D3*%
X178567380Y-112861905D02*
X177567380Y-112861905D01*
X177567380Y-112861905D02*
X177567380Y-113100000D01*
X177567380Y-113100000D02*
X177615000Y-113242857D01*
X177615000Y-113242857D02*
X177710238Y-113338095D01*
X177710238Y-113338095D02*
X177805476Y-113385714D01*
X177805476Y-113385714D02*
X177995952Y-113433333D01*
X177995952Y-113433333D02*
X178138809Y-113433333D01*
X178138809Y-113433333D02*
X178329285Y-113385714D01*
X178329285Y-113385714D02*
X178424523Y-113338095D01*
X178424523Y-113338095D02*
X178519761Y-113242857D01*
X178519761Y-113242857D02*
X178567380Y-113100000D01*
X178567380Y-113100000D02*
X178567380Y-112861905D01*
X177567380Y-113766667D02*
X177567380Y-114385714D01*
X177567380Y-114385714D02*
X177948333Y-114052381D01*
X177948333Y-114052381D02*
X177948333Y-114195238D01*
X177948333Y-114195238D02*
X177995952Y-114290476D01*
X177995952Y-114290476D02*
X178043571Y-114338095D01*
X178043571Y-114338095D02*
X178138809Y-114385714D01*
X178138809Y-114385714D02*
X178376904Y-114385714D01*
X178376904Y-114385714D02*
X178472142Y-114338095D01*
X178472142Y-114338095D02*
X178519761Y-114290476D01*
X178519761Y-114290476D02*
X178567380Y-114195238D01*
X178567380Y-114195238D02*
X178567380Y-113909524D01*
X178567380Y-113909524D02*
X178519761Y-113814286D01*
X178519761Y-113814286D02*
X178472142Y-113766667D01*
%TO.C,JP1*%
X175967380Y-105966666D02*
X176681666Y-105966666D01*
X176681666Y-105966666D02*
X176824523Y-105919047D01*
X176824523Y-105919047D02*
X176919761Y-105823809D01*
X176919761Y-105823809D02*
X176967380Y-105680952D01*
X176967380Y-105680952D02*
X176967380Y-105585714D01*
X176967380Y-106442857D02*
X175967380Y-106442857D01*
X175967380Y-106442857D02*
X175967380Y-106823809D01*
X175967380Y-106823809D02*
X176015000Y-106919047D01*
X176015000Y-106919047D02*
X176062619Y-106966666D01*
X176062619Y-106966666D02*
X176157857Y-107014285D01*
X176157857Y-107014285D02*
X176300714Y-107014285D01*
X176300714Y-107014285D02*
X176395952Y-106966666D01*
X176395952Y-106966666D02*
X176443571Y-106919047D01*
X176443571Y-106919047D02*
X176491190Y-106823809D01*
X176491190Y-106823809D02*
X176491190Y-106442857D01*
X176967380Y-107966666D02*
X176967380Y-107395238D01*
X176967380Y-107680952D02*
X175967380Y-107680952D01*
X175967380Y-107680952D02*
X176110238Y-107585714D01*
X176110238Y-107585714D02*
X176205476Y-107490476D01*
X176205476Y-107490476D02*
X176253095Y-107395238D01*
%TO.C,R5*%
X176367380Y-114033333D02*
X175891190Y-113700000D01*
X176367380Y-113461905D02*
X175367380Y-113461905D01*
X175367380Y-113461905D02*
X175367380Y-113842857D01*
X175367380Y-113842857D02*
X175415000Y-113938095D01*
X175415000Y-113938095D02*
X175462619Y-113985714D01*
X175462619Y-113985714D02*
X175557857Y-114033333D01*
X175557857Y-114033333D02*
X175700714Y-114033333D01*
X175700714Y-114033333D02*
X175795952Y-113985714D01*
X175795952Y-113985714D02*
X175843571Y-113938095D01*
X175843571Y-113938095D02*
X175891190Y-113842857D01*
X175891190Y-113842857D02*
X175891190Y-113461905D01*
X175367380Y-114938095D02*
X175367380Y-114461905D01*
X175367380Y-114461905D02*
X175843571Y-114414286D01*
X175843571Y-114414286D02*
X175795952Y-114461905D01*
X175795952Y-114461905D02*
X175748333Y-114557143D01*
X175748333Y-114557143D02*
X175748333Y-114795238D01*
X175748333Y-114795238D02*
X175795952Y-114890476D01*
X175795952Y-114890476D02*
X175843571Y-114938095D01*
X175843571Y-114938095D02*
X175938809Y-114985714D01*
X175938809Y-114985714D02*
X176176904Y-114985714D01*
X176176904Y-114985714D02*
X176272142Y-114938095D01*
X176272142Y-114938095D02*
X176319761Y-114890476D01*
X176319761Y-114890476D02*
X176367380Y-114795238D01*
X176367380Y-114795238D02*
X176367380Y-114557143D01*
X176367380Y-114557143D02*
X176319761Y-114461905D01*
X176319761Y-114461905D02*
X176272142Y-114414286D01*
%TO.C,U3*%
X182361904Y-79567380D02*
X182361904Y-80376904D01*
X182361904Y-80376904D02*
X182314285Y-80472142D01*
X182314285Y-80472142D02*
X182266666Y-80519761D01*
X182266666Y-80519761D02*
X182171428Y-80567380D01*
X182171428Y-80567380D02*
X181980952Y-80567380D01*
X181980952Y-80567380D02*
X181885714Y-80519761D01*
X181885714Y-80519761D02*
X181838095Y-80472142D01*
X181838095Y-80472142D02*
X181790476Y-80376904D01*
X181790476Y-80376904D02*
X181790476Y-79567380D01*
X181409523Y-79567380D02*
X180790476Y-79567380D01*
X180790476Y-79567380D02*
X181123809Y-79948333D01*
X181123809Y-79948333D02*
X180980952Y-79948333D01*
X180980952Y-79948333D02*
X180885714Y-79995952D01*
X180885714Y-79995952D02*
X180838095Y-80043571D01*
X180838095Y-80043571D02*
X180790476Y-80138809D01*
X180790476Y-80138809D02*
X180790476Y-80376904D01*
X180790476Y-80376904D02*
X180838095Y-80472142D01*
X180838095Y-80472142D02*
X180885714Y-80519761D01*
X180885714Y-80519761D02*
X180980952Y-80567380D01*
X180980952Y-80567380D02*
X181266666Y-80567380D01*
X181266666Y-80567380D02*
X181361904Y-80519761D01*
X181361904Y-80519761D02*
X181409523Y-80472142D01*
%TO.C,D1*%
X184138094Y-49517380D02*
X184138094Y-48517380D01*
X184138094Y-48517380D02*
X183899999Y-48517380D01*
X183899999Y-48517380D02*
X183757142Y-48565000D01*
X183757142Y-48565000D02*
X183661904Y-48660238D01*
X183661904Y-48660238D02*
X183614285Y-48755476D01*
X183614285Y-48755476D02*
X183566666Y-48945952D01*
X183566666Y-48945952D02*
X183566666Y-49088809D01*
X183566666Y-49088809D02*
X183614285Y-49279285D01*
X183614285Y-49279285D02*
X183661904Y-49374523D01*
X183661904Y-49374523D02*
X183757142Y-49469761D01*
X183757142Y-49469761D02*
X183899999Y-49517380D01*
X183899999Y-49517380D02*
X184138094Y-49517380D01*
X182614285Y-49517380D02*
X183185713Y-49517380D01*
X182899999Y-49517380D02*
X182899999Y-48517380D01*
X182899999Y-48517380D02*
X182995237Y-48660238D01*
X182995237Y-48660238D02*
X183090475Y-48755476D01*
X183090475Y-48755476D02*
X183185713Y-48803095D01*
%TO.C,R8*%
X187166666Y-126367380D02*
X187499999Y-125891190D01*
X187738094Y-126367380D02*
X187738094Y-125367380D01*
X187738094Y-125367380D02*
X187357142Y-125367380D01*
X187357142Y-125367380D02*
X187261904Y-125415000D01*
X187261904Y-125415000D02*
X187214285Y-125462619D01*
X187214285Y-125462619D02*
X187166666Y-125557857D01*
X187166666Y-125557857D02*
X187166666Y-125700714D01*
X187166666Y-125700714D02*
X187214285Y-125795952D01*
X187214285Y-125795952D02*
X187261904Y-125843571D01*
X187261904Y-125843571D02*
X187357142Y-125891190D01*
X187357142Y-125891190D02*
X187738094Y-125891190D01*
X186595237Y-125795952D02*
X186690475Y-125748333D01*
X186690475Y-125748333D02*
X186738094Y-125700714D01*
X186738094Y-125700714D02*
X186785713Y-125605476D01*
X186785713Y-125605476D02*
X186785713Y-125557857D01*
X186785713Y-125557857D02*
X186738094Y-125462619D01*
X186738094Y-125462619D02*
X186690475Y-125415000D01*
X186690475Y-125415000D02*
X186595237Y-125367380D01*
X186595237Y-125367380D02*
X186404761Y-125367380D01*
X186404761Y-125367380D02*
X186309523Y-125415000D01*
X186309523Y-125415000D02*
X186261904Y-125462619D01*
X186261904Y-125462619D02*
X186214285Y-125557857D01*
X186214285Y-125557857D02*
X186214285Y-125605476D01*
X186214285Y-125605476D02*
X186261904Y-125700714D01*
X186261904Y-125700714D02*
X186309523Y-125748333D01*
X186309523Y-125748333D02*
X186404761Y-125795952D01*
X186404761Y-125795952D02*
X186595237Y-125795952D01*
X186595237Y-125795952D02*
X186690475Y-125843571D01*
X186690475Y-125843571D02*
X186738094Y-125891190D01*
X186738094Y-125891190D02*
X186785713Y-125986428D01*
X186785713Y-125986428D02*
X186785713Y-126176904D01*
X186785713Y-126176904D02*
X186738094Y-126272142D01*
X186738094Y-126272142D02*
X186690475Y-126319761D01*
X186690475Y-126319761D02*
X186595237Y-126367380D01*
X186595237Y-126367380D02*
X186404761Y-126367380D01*
X186404761Y-126367380D02*
X186309523Y-126319761D01*
X186309523Y-126319761D02*
X186261904Y-126272142D01*
X186261904Y-126272142D02*
X186214285Y-126176904D01*
X186214285Y-126176904D02*
X186214285Y-125986428D01*
X186214285Y-125986428D02*
X186261904Y-125891190D01*
X186261904Y-125891190D02*
X186309523Y-125843571D01*
X186309523Y-125843571D02*
X186404761Y-125795952D01*
%TO.C,C7*%
X183166666Y-126272142D02*
X183214285Y-126319761D01*
X183214285Y-126319761D02*
X183357142Y-126367380D01*
X183357142Y-126367380D02*
X183452380Y-126367380D01*
X183452380Y-126367380D02*
X183595237Y-126319761D01*
X183595237Y-126319761D02*
X183690475Y-126224523D01*
X183690475Y-126224523D02*
X183738094Y-126129285D01*
X183738094Y-126129285D02*
X183785713Y-125938809D01*
X183785713Y-125938809D02*
X183785713Y-125795952D01*
X183785713Y-125795952D02*
X183738094Y-125605476D01*
X183738094Y-125605476D02*
X183690475Y-125510238D01*
X183690475Y-125510238D02*
X183595237Y-125415000D01*
X183595237Y-125415000D02*
X183452380Y-125367380D01*
X183452380Y-125367380D02*
X183357142Y-125367380D01*
X183357142Y-125367380D02*
X183214285Y-125415000D01*
X183214285Y-125415000D02*
X183166666Y-125462619D01*
X182833332Y-125367380D02*
X182166666Y-125367380D01*
X182166666Y-125367380D02*
X182595237Y-126367380D01*
%TO.C,C4*%
X192366666Y-40672142D02*
X192414285Y-40719761D01*
X192414285Y-40719761D02*
X192557142Y-40767380D01*
X192557142Y-40767380D02*
X192652380Y-40767380D01*
X192652380Y-40767380D02*
X192795237Y-40719761D01*
X192795237Y-40719761D02*
X192890475Y-40624523D01*
X192890475Y-40624523D02*
X192938094Y-40529285D01*
X192938094Y-40529285D02*
X192985713Y-40338809D01*
X192985713Y-40338809D02*
X192985713Y-40195952D01*
X192985713Y-40195952D02*
X192938094Y-40005476D01*
X192938094Y-40005476D02*
X192890475Y-39910238D01*
X192890475Y-39910238D02*
X192795237Y-39815000D01*
X192795237Y-39815000D02*
X192652380Y-39767380D01*
X192652380Y-39767380D02*
X192557142Y-39767380D01*
X192557142Y-39767380D02*
X192414285Y-39815000D01*
X192414285Y-39815000D02*
X192366666Y-39862619D01*
X191509523Y-40100714D02*
X191509523Y-40767380D01*
X191747618Y-39719761D02*
X191985713Y-40434047D01*
X191985713Y-40434047D02*
X191366666Y-40434047D01*
%TO.C,C9*%
X181566666Y-83872142D02*
X181614285Y-83919761D01*
X181614285Y-83919761D02*
X181757142Y-83967380D01*
X181757142Y-83967380D02*
X181852380Y-83967380D01*
X181852380Y-83967380D02*
X181995237Y-83919761D01*
X181995237Y-83919761D02*
X182090475Y-83824523D01*
X182090475Y-83824523D02*
X182138094Y-83729285D01*
X182138094Y-83729285D02*
X182185713Y-83538809D01*
X182185713Y-83538809D02*
X182185713Y-83395952D01*
X182185713Y-83395952D02*
X182138094Y-83205476D01*
X182138094Y-83205476D02*
X182090475Y-83110238D01*
X182090475Y-83110238D02*
X181995237Y-83015000D01*
X181995237Y-83015000D02*
X181852380Y-82967380D01*
X181852380Y-82967380D02*
X181757142Y-82967380D01*
X181757142Y-82967380D02*
X181614285Y-83015000D01*
X181614285Y-83015000D02*
X181566666Y-83062619D01*
X181090475Y-83967380D02*
X180899999Y-83967380D01*
X180899999Y-83967380D02*
X180804761Y-83919761D01*
X180804761Y-83919761D02*
X180757142Y-83872142D01*
X180757142Y-83872142D02*
X180661904Y-83729285D01*
X180661904Y-83729285D02*
X180614285Y-83538809D01*
X180614285Y-83538809D02*
X180614285Y-83157857D01*
X180614285Y-83157857D02*
X180661904Y-83062619D01*
X180661904Y-83062619D02*
X180709523Y-83015000D01*
X180709523Y-83015000D02*
X180804761Y-82967380D01*
X180804761Y-82967380D02*
X180995237Y-82967380D01*
X180995237Y-82967380D02*
X181090475Y-83015000D01*
X181090475Y-83015000D02*
X181138094Y-83062619D01*
X181138094Y-83062619D02*
X181185713Y-83157857D01*
X181185713Y-83157857D02*
X181185713Y-83395952D01*
X181185713Y-83395952D02*
X181138094Y-83491190D01*
X181138094Y-83491190D02*
X181090475Y-83538809D01*
X181090475Y-83538809D02*
X180995237Y-83586428D01*
X180995237Y-83586428D02*
X180804761Y-83586428D01*
X180804761Y-83586428D02*
X180709523Y-83538809D01*
X180709523Y-83538809D02*
X180661904Y-83491190D01*
X180661904Y-83491190D02*
X180614285Y-83395952D01*
%TO.C,C8*%
X181566666Y-77472142D02*
X181614285Y-77519761D01*
X181614285Y-77519761D02*
X181757142Y-77567380D01*
X181757142Y-77567380D02*
X181852380Y-77567380D01*
X181852380Y-77567380D02*
X181995237Y-77519761D01*
X181995237Y-77519761D02*
X182090475Y-77424523D01*
X182090475Y-77424523D02*
X182138094Y-77329285D01*
X182138094Y-77329285D02*
X182185713Y-77138809D01*
X182185713Y-77138809D02*
X182185713Y-76995952D01*
X182185713Y-76995952D02*
X182138094Y-76805476D01*
X182138094Y-76805476D02*
X182090475Y-76710238D01*
X182090475Y-76710238D02*
X181995237Y-76615000D01*
X181995237Y-76615000D02*
X181852380Y-76567380D01*
X181852380Y-76567380D02*
X181757142Y-76567380D01*
X181757142Y-76567380D02*
X181614285Y-76615000D01*
X181614285Y-76615000D02*
X181566666Y-76662619D01*
X180995237Y-76995952D02*
X181090475Y-76948333D01*
X181090475Y-76948333D02*
X181138094Y-76900714D01*
X181138094Y-76900714D02*
X181185713Y-76805476D01*
X181185713Y-76805476D02*
X181185713Y-76757857D01*
X181185713Y-76757857D02*
X181138094Y-76662619D01*
X181138094Y-76662619D02*
X181090475Y-76615000D01*
X181090475Y-76615000D02*
X180995237Y-76567380D01*
X180995237Y-76567380D02*
X180804761Y-76567380D01*
X180804761Y-76567380D02*
X180709523Y-76615000D01*
X180709523Y-76615000D02*
X180661904Y-76662619D01*
X180661904Y-76662619D02*
X180614285Y-76757857D01*
X180614285Y-76757857D02*
X180614285Y-76805476D01*
X180614285Y-76805476D02*
X180661904Y-76900714D01*
X180661904Y-76900714D02*
X180709523Y-76948333D01*
X180709523Y-76948333D02*
X180804761Y-76995952D01*
X180804761Y-76995952D02*
X180995237Y-76995952D01*
X180995237Y-76995952D02*
X181090475Y-77043571D01*
X181090475Y-77043571D02*
X181138094Y-77091190D01*
X181138094Y-77091190D02*
X181185713Y-77186428D01*
X181185713Y-77186428D02*
X181185713Y-77376904D01*
X181185713Y-77376904D02*
X181138094Y-77472142D01*
X181138094Y-77472142D02*
X181090475Y-77519761D01*
X181090475Y-77519761D02*
X180995237Y-77567380D01*
X180995237Y-77567380D02*
X180804761Y-77567380D01*
X180804761Y-77567380D02*
X180709523Y-77519761D01*
X180709523Y-77519761D02*
X180661904Y-77472142D01*
X180661904Y-77472142D02*
X180614285Y-77376904D01*
X180614285Y-77376904D02*
X180614285Y-77186428D01*
X180614285Y-77186428D02*
X180661904Y-77091190D01*
X180661904Y-77091190D02*
X180709523Y-77043571D01*
X180709523Y-77043571D02*
X180804761Y-76995952D01*
%TO.C,J2*%
X176733333Y-56167380D02*
X176733333Y-56881666D01*
X176733333Y-56881666D02*
X176780952Y-57024523D01*
X176780952Y-57024523D02*
X176876190Y-57119761D01*
X176876190Y-57119761D02*
X177019047Y-57167380D01*
X177019047Y-57167380D02*
X177114285Y-57167380D01*
X176304761Y-56262619D02*
X176257142Y-56215000D01*
X176257142Y-56215000D02*
X176161904Y-56167380D01*
X176161904Y-56167380D02*
X175923809Y-56167380D01*
X175923809Y-56167380D02*
X175828571Y-56215000D01*
X175828571Y-56215000D02*
X175780952Y-56262619D01*
X175780952Y-56262619D02*
X175733333Y-56357857D01*
X175733333Y-56357857D02*
X175733333Y-56453095D01*
X175733333Y-56453095D02*
X175780952Y-56595952D01*
X175780952Y-56595952D02*
X176352380Y-57167380D01*
X176352380Y-57167380D02*
X175733333Y-57167380D01*
%TO.C,JP2*%
X178567380Y-105966666D02*
X179281666Y-105966666D01*
X179281666Y-105966666D02*
X179424523Y-105919047D01*
X179424523Y-105919047D02*
X179519761Y-105823809D01*
X179519761Y-105823809D02*
X179567380Y-105680952D01*
X179567380Y-105680952D02*
X179567380Y-105585714D01*
X179567380Y-106442857D02*
X178567380Y-106442857D01*
X178567380Y-106442857D02*
X178567380Y-106823809D01*
X178567380Y-106823809D02*
X178615000Y-106919047D01*
X178615000Y-106919047D02*
X178662619Y-106966666D01*
X178662619Y-106966666D02*
X178757857Y-107014285D01*
X178757857Y-107014285D02*
X178900714Y-107014285D01*
X178900714Y-107014285D02*
X178995952Y-106966666D01*
X178995952Y-106966666D02*
X179043571Y-106919047D01*
X179043571Y-106919047D02*
X179091190Y-106823809D01*
X179091190Y-106823809D02*
X179091190Y-106442857D01*
X178662619Y-107395238D02*
X178615000Y-107442857D01*
X178615000Y-107442857D02*
X178567380Y-107538095D01*
X178567380Y-107538095D02*
X178567380Y-107776190D01*
X178567380Y-107776190D02*
X178615000Y-107871428D01*
X178615000Y-107871428D02*
X178662619Y-107919047D01*
X178662619Y-107919047D02*
X178757857Y-107966666D01*
X178757857Y-107966666D02*
X178853095Y-107966666D01*
X178853095Y-107966666D02*
X178995952Y-107919047D01*
X178995952Y-107919047D02*
X179567380Y-107347619D01*
X179567380Y-107347619D02*
X179567380Y-107966666D01*
%TO.C,C1*%
X178472142Y-51383333D02*
X178519761Y-51335714D01*
X178519761Y-51335714D02*
X178567380Y-51192857D01*
X178567380Y-51192857D02*
X178567380Y-51097619D01*
X178567380Y-51097619D02*
X178519761Y-50954762D01*
X178519761Y-50954762D02*
X178424523Y-50859524D01*
X178424523Y-50859524D02*
X178329285Y-50811905D01*
X178329285Y-50811905D02*
X178138809Y-50764286D01*
X178138809Y-50764286D02*
X177995952Y-50764286D01*
X177995952Y-50764286D02*
X177805476Y-50811905D01*
X177805476Y-50811905D02*
X177710238Y-50859524D01*
X177710238Y-50859524D02*
X177615000Y-50954762D01*
X177615000Y-50954762D02*
X177567380Y-51097619D01*
X177567380Y-51097619D02*
X177567380Y-51192857D01*
X177567380Y-51192857D02*
X177615000Y-51335714D01*
X177615000Y-51335714D02*
X177662619Y-51383333D01*
X178567380Y-52335714D02*
X178567380Y-51764286D01*
X178567380Y-52050000D02*
X177567380Y-52050000D01*
X177567380Y-52050000D02*
X177710238Y-51954762D01*
X177710238Y-51954762D02*
X177805476Y-51859524D01*
X177805476Y-51859524D02*
X177853095Y-51764286D01*
%TO.C,J5*%
X184843333Y-127767380D02*
X184843333Y-128481666D01*
X184843333Y-128481666D02*
X184890952Y-128624523D01*
X184890952Y-128624523D02*
X184986190Y-128719761D01*
X184986190Y-128719761D02*
X185129047Y-128767380D01*
X185129047Y-128767380D02*
X185224285Y-128767380D01*
X183890952Y-127767380D02*
X184367142Y-127767380D01*
X184367142Y-127767380D02*
X184414761Y-128243571D01*
X184414761Y-128243571D02*
X184367142Y-128195952D01*
X184367142Y-128195952D02*
X184271904Y-128148333D01*
X184271904Y-128148333D02*
X184033809Y-128148333D01*
X184033809Y-128148333D02*
X183938571Y-128195952D01*
X183938571Y-128195952D02*
X183890952Y-128243571D01*
X183890952Y-128243571D02*
X183843333Y-128338809D01*
X183843333Y-128338809D02*
X183843333Y-128576904D01*
X183843333Y-128576904D02*
X183890952Y-128672142D01*
X183890952Y-128672142D02*
X183938571Y-128719761D01*
X183938571Y-128719761D02*
X184033809Y-128767380D01*
X184033809Y-128767380D02*
X184271904Y-128767380D01*
X184271904Y-128767380D02*
X184367142Y-128719761D01*
X184367142Y-128719761D02*
X184414761Y-128672142D01*
%TO.C,C6*%
X191472142Y-73833333D02*
X191519761Y-73785714D01*
X191519761Y-73785714D02*
X191567380Y-73642857D01*
X191567380Y-73642857D02*
X191567380Y-73547619D01*
X191567380Y-73547619D02*
X191519761Y-73404762D01*
X191519761Y-73404762D02*
X191424523Y-73309524D01*
X191424523Y-73309524D02*
X191329285Y-73261905D01*
X191329285Y-73261905D02*
X191138809Y-73214286D01*
X191138809Y-73214286D02*
X190995952Y-73214286D01*
X190995952Y-73214286D02*
X190805476Y-73261905D01*
X190805476Y-73261905D02*
X190710238Y-73309524D01*
X190710238Y-73309524D02*
X190615000Y-73404762D01*
X190615000Y-73404762D02*
X190567380Y-73547619D01*
X190567380Y-73547619D02*
X190567380Y-73642857D01*
X190567380Y-73642857D02*
X190615000Y-73785714D01*
X190615000Y-73785714D02*
X190662619Y-73833333D01*
X190567380Y-74690476D02*
X190567380Y-74500000D01*
X190567380Y-74500000D02*
X190615000Y-74404762D01*
X190615000Y-74404762D02*
X190662619Y-74357143D01*
X190662619Y-74357143D02*
X190805476Y-74261905D01*
X190805476Y-74261905D02*
X190995952Y-74214286D01*
X190995952Y-74214286D02*
X191376904Y-74214286D01*
X191376904Y-74214286D02*
X191472142Y-74261905D01*
X191472142Y-74261905D02*
X191519761Y-74309524D01*
X191519761Y-74309524D02*
X191567380Y-74404762D01*
X191567380Y-74404762D02*
X191567380Y-74595238D01*
X191567380Y-74595238D02*
X191519761Y-74690476D01*
X191519761Y-74690476D02*
X191472142Y-74738095D01*
X191472142Y-74738095D02*
X191376904Y-74785714D01*
X191376904Y-74785714D02*
X191138809Y-74785714D01*
X191138809Y-74785714D02*
X191043571Y-74738095D01*
X191043571Y-74738095D02*
X190995952Y-74690476D01*
X190995952Y-74690476D02*
X190948333Y-74595238D01*
X190948333Y-74595238D02*
X190948333Y-74404762D01*
X190948333Y-74404762D02*
X190995952Y-74309524D01*
X190995952Y-74309524D02*
X191043571Y-74261905D01*
X191043571Y-74261905D02*
X191138809Y-74214286D01*
%TO.C,C2*%
X192272142Y-51783333D02*
X192319761Y-51735714D01*
X192319761Y-51735714D02*
X192367380Y-51592857D01*
X192367380Y-51592857D02*
X192367380Y-51497619D01*
X192367380Y-51497619D02*
X192319761Y-51354762D01*
X192319761Y-51354762D02*
X192224523Y-51259524D01*
X192224523Y-51259524D02*
X192129285Y-51211905D01*
X192129285Y-51211905D02*
X191938809Y-51164286D01*
X191938809Y-51164286D02*
X191795952Y-51164286D01*
X191795952Y-51164286D02*
X191605476Y-51211905D01*
X191605476Y-51211905D02*
X191510238Y-51259524D01*
X191510238Y-51259524D02*
X191415000Y-51354762D01*
X191415000Y-51354762D02*
X191367380Y-51497619D01*
X191367380Y-51497619D02*
X191367380Y-51592857D01*
X191367380Y-51592857D02*
X191415000Y-51735714D01*
X191415000Y-51735714D02*
X191462619Y-51783333D01*
X191462619Y-52164286D02*
X191415000Y-52211905D01*
X191415000Y-52211905D02*
X191367380Y-52307143D01*
X191367380Y-52307143D02*
X191367380Y-52545238D01*
X191367380Y-52545238D02*
X191415000Y-52640476D01*
X191415000Y-52640476D02*
X191462619Y-52688095D01*
X191462619Y-52688095D02*
X191557857Y-52735714D01*
X191557857Y-52735714D02*
X191653095Y-52735714D01*
X191653095Y-52735714D02*
X191795952Y-52688095D01*
X191795952Y-52688095D02*
X192367380Y-52116667D01*
X192367380Y-52116667D02*
X192367380Y-52735714D01*
%TO.C,FB1*%
X178243571Y-54516666D02*
X178243571Y-54183333D01*
X178767380Y-54183333D02*
X177767380Y-54183333D01*
X177767380Y-54183333D02*
X177767380Y-54659523D01*
X178243571Y-55373809D02*
X178291190Y-55516666D01*
X178291190Y-55516666D02*
X178338809Y-55564285D01*
X178338809Y-55564285D02*
X178434047Y-55611904D01*
X178434047Y-55611904D02*
X178576904Y-55611904D01*
X178576904Y-55611904D02*
X178672142Y-55564285D01*
X178672142Y-55564285D02*
X178719761Y-55516666D01*
X178719761Y-55516666D02*
X178767380Y-55421428D01*
X178767380Y-55421428D02*
X178767380Y-55040476D01*
X178767380Y-55040476D02*
X177767380Y-55040476D01*
X177767380Y-55040476D02*
X177767380Y-55373809D01*
X177767380Y-55373809D02*
X177815000Y-55469047D01*
X177815000Y-55469047D02*
X177862619Y-55516666D01*
X177862619Y-55516666D02*
X177957857Y-55564285D01*
X177957857Y-55564285D02*
X178053095Y-55564285D01*
X178053095Y-55564285D02*
X178148333Y-55516666D01*
X178148333Y-55516666D02*
X178195952Y-55469047D01*
X178195952Y-55469047D02*
X178243571Y-55373809D01*
X178243571Y-55373809D02*
X178243571Y-55040476D01*
X178767380Y-56564285D02*
X178767380Y-55992857D01*
X178767380Y-56278571D02*
X177767380Y-56278571D01*
X177767380Y-56278571D02*
X177910238Y-56183333D01*
X177910238Y-56183333D02*
X178005476Y-56088095D01*
X178005476Y-56088095D02*
X178053095Y-55992857D01*
%TO.C,C5*%
X194272142Y-76233333D02*
X194319761Y-76185714D01*
X194319761Y-76185714D02*
X194367380Y-76042857D01*
X194367380Y-76042857D02*
X194367380Y-75947619D01*
X194367380Y-75947619D02*
X194319761Y-75804762D01*
X194319761Y-75804762D02*
X194224523Y-75709524D01*
X194224523Y-75709524D02*
X194129285Y-75661905D01*
X194129285Y-75661905D02*
X193938809Y-75614286D01*
X193938809Y-75614286D02*
X193795952Y-75614286D01*
X193795952Y-75614286D02*
X193605476Y-75661905D01*
X193605476Y-75661905D02*
X193510238Y-75709524D01*
X193510238Y-75709524D02*
X193415000Y-75804762D01*
X193415000Y-75804762D02*
X193367380Y-75947619D01*
X193367380Y-75947619D02*
X193367380Y-76042857D01*
X193367380Y-76042857D02*
X193415000Y-76185714D01*
X193415000Y-76185714D02*
X193462619Y-76233333D01*
X193367380Y-77138095D02*
X193367380Y-76661905D01*
X193367380Y-76661905D02*
X193843571Y-76614286D01*
X193843571Y-76614286D02*
X193795952Y-76661905D01*
X193795952Y-76661905D02*
X193748333Y-76757143D01*
X193748333Y-76757143D02*
X193748333Y-76995238D01*
X193748333Y-76995238D02*
X193795952Y-77090476D01*
X193795952Y-77090476D02*
X193843571Y-77138095D01*
X193843571Y-77138095D02*
X193938809Y-77185714D01*
X193938809Y-77185714D02*
X194176904Y-77185714D01*
X194176904Y-77185714D02*
X194272142Y-77138095D01*
X194272142Y-77138095D02*
X194319761Y-77090476D01*
X194319761Y-77090476D02*
X194367380Y-76995238D01*
X194367380Y-76995238D02*
X194367380Y-76757143D01*
X194367380Y-76757143D02*
X194319761Y-76661905D01*
X194319761Y-76661905D02*
X194272142Y-76614286D01*
%TO.C,C3*%
X183966666Y-40672142D02*
X184014285Y-40719761D01*
X184014285Y-40719761D02*
X184157142Y-40767380D01*
X184157142Y-40767380D02*
X184252380Y-40767380D01*
X184252380Y-40767380D02*
X184395237Y-40719761D01*
X184395237Y-40719761D02*
X184490475Y-40624523D01*
X184490475Y-40624523D02*
X184538094Y-40529285D01*
X184538094Y-40529285D02*
X184585713Y-40338809D01*
X184585713Y-40338809D02*
X184585713Y-40195952D01*
X184585713Y-40195952D02*
X184538094Y-40005476D01*
X184538094Y-40005476D02*
X184490475Y-39910238D01*
X184490475Y-39910238D02*
X184395237Y-39815000D01*
X184395237Y-39815000D02*
X184252380Y-39767380D01*
X184252380Y-39767380D02*
X184157142Y-39767380D01*
X184157142Y-39767380D02*
X184014285Y-39815000D01*
X184014285Y-39815000D02*
X183966666Y-39862619D01*
X183633332Y-39767380D02*
X183014285Y-39767380D01*
X183014285Y-39767380D02*
X183347618Y-40148333D01*
X183347618Y-40148333D02*
X183204761Y-40148333D01*
X183204761Y-40148333D02*
X183109523Y-40195952D01*
X183109523Y-40195952D02*
X183061904Y-40243571D01*
X183061904Y-40243571D02*
X183014285Y-40338809D01*
X183014285Y-40338809D02*
X183014285Y-40576904D01*
X183014285Y-40576904D02*
X183061904Y-40672142D01*
X183061904Y-40672142D02*
X183109523Y-40719761D01*
X183109523Y-40719761D02*
X183204761Y-40767380D01*
X183204761Y-40767380D02*
X183490475Y-40767380D01*
X183490475Y-40767380D02*
X183585713Y-40719761D01*
X183585713Y-40719761D02*
X183633332Y-40672142D01*
%TO.C,D2*%
X187738094Y-49517380D02*
X187738094Y-48517380D01*
X187738094Y-48517380D02*
X187499999Y-48517380D01*
X187499999Y-48517380D02*
X187357142Y-48565000D01*
X187357142Y-48565000D02*
X187261904Y-48660238D01*
X187261904Y-48660238D02*
X187214285Y-48755476D01*
X187214285Y-48755476D02*
X187166666Y-48945952D01*
X187166666Y-48945952D02*
X187166666Y-49088809D01*
X187166666Y-49088809D02*
X187214285Y-49279285D01*
X187214285Y-49279285D02*
X187261904Y-49374523D01*
X187261904Y-49374523D02*
X187357142Y-49469761D01*
X187357142Y-49469761D02*
X187499999Y-49517380D01*
X187499999Y-49517380D02*
X187738094Y-49517380D01*
X186785713Y-48612619D02*
X186738094Y-48565000D01*
X186738094Y-48565000D02*
X186642856Y-48517380D01*
X186642856Y-48517380D02*
X186404761Y-48517380D01*
X186404761Y-48517380D02*
X186309523Y-48565000D01*
X186309523Y-48565000D02*
X186261904Y-48612619D01*
X186261904Y-48612619D02*
X186214285Y-48707857D01*
X186214285Y-48707857D02*
X186214285Y-48803095D01*
X186214285Y-48803095D02*
X186261904Y-48945952D01*
X186261904Y-48945952D02*
X186833332Y-49517380D01*
X186833332Y-49517380D02*
X186214285Y-49517380D01*
%TO.C,U2*%
X189361904Y-111167380D02*
X189361904Y-111976904D01*
X189361904Y-111976904D02*
X189314285Y-112072142D01*
X189314285Y-112072142D02*
X189266666Y-112119761D01*
X189266666Y-112119761D02*
X189171428Y-112167380D01*
X189171428Y-112167380D02*
X188980952Y-112167380D01*
X188980952Y-112167380D02*
X188885714Y-112119761D01*
X188885714Y-112119761D02*
X188838095Y-112072142D01*
X188838095Y-112072142D02*
X188790476Y-111976904D01*
X188790476Y-111976904D02*
X188790476Y-111167380D01*
X188361904Y-111262619D02*
X188314285Y-111215000D01*
X188314285Y-111215000D02*
X188219047Y-111167380D01*
X188219047Y-111167380D02*
X187980952Y-111167380D01*
X187980952Y-111167380D02*
X187885714Y-111215000D01*
X187885714Y-111215000D02*
X187838095Y-111262619D01*
X187838095Y-111262619D02*
X187790476Y-111357857D01*
X187790476Y-111357857D02*
X187790476Y-111453095D01*
X187790476Y-111453095D02*
X187838095Y-111595952D01*
X187838095Y-111595952D02*
X188409523Y-112167380D01*
X188409523Y-112167380D02*
X187790476Y-112167380D01*
%TO.C,R10*%
X193467380Y-118357142D02*
X192991190Y-118023809D01*
X193467380Y-117785714D02*
X192467380Y-117785714D01*
X192467380Y-117785714D02*
X192467380Y-118166666D01*
X192467380Y-118166666D02*
X192515000Y-118261904D01*
X192515000Y-118261904D02*
X192562619Y-118309523D01*
X192562619Y-118309523D02*
X192657857Y-118357142D01*
X192657857Y-118357142D02*
X192800714Y-118357142D01*
X192800714Y-118357142D02*
X192895952Y-118309523D01*
X192895952Y-118309523D02*
X192943571Y-118261904D01*
X192943571Y-118261904D02*
X192991190Y-118166666D01*
X192991190Y-118166666D02*
X192991190Y-117785714D01*
X193467380Y-119309523D02*
X193467380Y-118738095D01*
X193467380Y-119023809D02*
X192467380Y-119023809D01*
X192467380Y-119023809D02*
X192610238Y-118928571D01*
X192610238Y-118928571D02*
X192705476Y-118833333D01*
X192705476Y-118833333D02*
X192753095Y-118738095D01*
X192467380Y-119928571D02*
X192467380Y-120023809D01*
X192467380Y-120023809D02*
X192515000Y-120119047D01*
X192515000Y-120119047D02*
X192562619Y-120166666D01*
X192562619Y-120166666D02*
X192657857Y-120214285D01*
X192657857Y-120214285D02*
X192848333Y-120261904D01*
X192848333Y-120261904D02*
X193086428Y-120261904D01*
X193086428Y-120261904D02*
X193276904Y-120214285D01*
X193276904Y-120214285D02*
X193372142Y-120166666D01*
X193372142Y-120166666D02*
X193419761Y-120119047D01*
X193419761Y-120119047D02*
X193467380Y-120023809D01*
X193467380Y-120023809D02*
X193467380Y-119928571D01*
X193467380Y-119928571D02*
X193419761Y-119833333D01*
X193419761Y-119833333D02*
X193372142Y-119785714D01*
X193372142Y-119785714D02*
X193276904Y-119738095D01*
X193276904Y-119738095D02*
X193086428Y-119690476D01*
X193086428Y-119690476D02*
X192848333Y-119690476D01*
X192848333Y-119690476D02*
X192657857Y-119738095D01*
X192657857Y-119738095D02*
X192562619Y-119785714D01*
X192562619Y-119785714D02*
X192515000Y-119833333D01*
X192515000Y-119833333D02*
X192467380Y-119928571D01*
D14*
%TO.C,FB2*%
X189440000Y-55549622D02*
X189440000Y-54750378D01*
X190560000Y-55549622D02*
X190560000Y-54750378D01*
%TO.C,R9*%
X178235000Y-122110436D02*
X178235000Y-122564564D01*
X176765000Y-122110436D02*
X176765000Y-122564564D01*
%TO.C,D3*%
X177000000Y-119610000D02*
X177000000Y-115600000D01*
X179000000Y-119610000D02*
X177000000Y-119610000D01*
X179000000Y-119610000D02*
X179000000Y-115600000D01*
%TO.C,JP1*%
X177350000Y-108600000D02*
X175350000Y-108600000D01*
X175350000Y-108600000D02*
X175350000Y-111400000D01*
X177350000Y-111400000D02*
X177350000Y-108600000D01*
X175350000Y-111400000D02*
X177350000Y-111400000D01*
%TO.C,R5*%
X175477500Y-117487258D02*
X175477500Y-117012742D01*
X176522500Y-117487258D02*
X176522500Y-117012742D01*
%TO.C,U3*%
X178500000Y-78552500D02*
X177700000Y-78552500D01*
X178500000Y-78552500D02*
X179300000Y-78552500D01*
X178500000Y-81672500D02*
X176700000Y-81672500D01*
X178500000Y-81672500D02*
X179300000Y-81672500D01*
%TO.C,D1*%
X184650000Y-49890000D02*
X184650000Y-55400000D01*
X181350000Y-49890000D02*
X184650000Y-49890000D01*
X181350000Y-49890000D02*
X181350000Y-55400000D01*
%TO.C,R8*%
X187062258Y-124522500D02*
X186587742Y-124522500D01*
X187062258Y-123477500D02*
X186587742Y-123477500D01*
%TO.C,C7*%
X183190580Y-124510000D02*
X182909420Y-124510000D01*
X183190580Y-123490000D02*
X182909420Y-123490000D01*
%TO.C,C4*%
X191347500Y-49187500D02*
X191347500Y-48400000D01*
X191741250Y-48793750D02*
X190953750Y-48793750D01*
X187154437Y-48160000D02*
X188440000Y-48160000D01*
X187154437Y-48160000D02*
X186090000Y-47095563D01*
X191845563Y-48160000D02*
X190560000Y-48160000D01*
X191845563Y-48160000D02*
X192910000Y-47095563D01*
X186090000Y-47095563D02*
X186090000Y-41340000D01*
X192910000Y-47095563D02*
X192910000Y-41340000D01*
X186090000Y-41340000D02*
X188440000Y-41340000D01*
X192910000Y-41340000D02*
X190560000Y-41340000D01*
%TO.C,C9*%
X178848752Y-83897500D02*
X178326248Y-83897500D01*
X178848752Y-82427500D02*
X178326248Y-82427500D01*
%TO.C,C8*%
X178238748Y-76265000D02*
X178761252Y-76265000D01*
X178238748Y-77735000D02*
X178761252Y-77735000D01*
%TO.C,J2*%
X178510000Y-63580000D02*
X178510000Y-58380000D01*
X188730000Y-63580000D02*
X178510000Y-63580000D01*
X188730000Y-63580000D02*
X188730000Y-60980000D01*
X190000000Y-63580000D02*
X191330000Y-63580000D01*
X191330000Y-63580000D02*
X191330000Y-62250000D01*
X188730000Y-60980000D02*
X191330000Y-60980000D01*
X191330000Y-60980000D02*
X191330000Y-58380000D01*
X191330000Y-58380000D02*
X178510000Y-58380000D01*
%TO.C,JP2*%
X180250000Y-108600000D02*
X178250000Y-108600000D01*
X178250000Y-108600000D02*
X178250000Y-111400000D01*
X180250000Y-111400000D02*
X180250000Y-108600000D01*
X178250000Y-111400000D02*
X180250000Y-111400000D01*
%TO.C,C1*%
X180510000Y-51509420D02*
X180510000Y-51790580D01*
X179490000Y-51509420D02*
X179490000Y-51790580D01*
%TO.C,J5*%
X182590000Y-140825000D02*
X182590000Y-142095000D01*
X182590000Y-142095000D02*
X183860000Y-142095000D01*
X184902929Y-130285000D02*
X185357071Y-130285000D01*
X184902929Y-131045000D02*
X185357071Y-131045000D01*
X184902929Y-132825000D02*
X185357071Y-132825000D01*
X184902929Y-133585000D02*
X185357071Y-133585000D01*
X184902929Y-135365000D02*
X185357071Y-135365000D01*
X184902929Y-136125000D02*
X185357071Y-136125000D01*
X184902929Y-137905000D02*
X185357071Y-137905000D01*
X184902929Y-138665000D02*
X185357071Y-138665000D01*
X184970000Y-140445000D02*
X185357071Y-140445000D01*
X184970000Y-141205000D02*
X185357071Y-141205000D01*
X187442929Y-130285000D02*
X187840000Y-130285000D01*
X187442929Y-131045000D02*
X187840000Y-131045000D01*
X187442929Y-132825000D02*
X187840000Y-132825000D01*
X187442929Y-133585000D02*
X187840000Y-133585000D01*
X187442929Y-135365000D02*
X187840000Y-135365000D01*
X187442929Y-136125000D02*
X187840000Y-136125000D01*
X187442929Y-137905000D02*
X187840000Y-137905000D01*
X187442929Y-138665000D02*
X187840000Y-138665000D01*
X187442929Y-140445000D02*
X187840000Y-140445000D01*
X187442929Y-141205000D02*
X187840000Y-141205000D01*
X187840000Y-129335000D02*
X190500000Y-129335000D01*
X187840000Y-131935000D02*
X190500000Y-131935000D01*
X187840000Y-134475000D02*
X190500000Y-134475000D01*
X187840000Y-137015000D02*
X190500000Y-137015000D01*
X187840000Y-139555000D02*
X190500000Y-139555000D01*
X187840000Y-142155000D02*
X187840000Y-129335000D01*
X190500000Y-129335000D02*
X190500000Y-142155000D01*
X190500000Y-131045000D02*
X196500000Y-131045000D01*
X190500000Y-133585000D02*
X196500000Y-133585000D01*
X190500000Y-136125000D02*
X196500000Y-136125000D01*
X190500000Y-138665000D02*
X196500000Y-138665000D01*
X190500000Y-140545000D02*
X196500000Y-140545000D01*
X190500000Y-140665000D02*
X196500000Y-140665000D01*
X190500000Y-140785000D02*
X196500000Y-140785000D01*
X190500000Y-140905000D02*
X196500000Y-140905000D01*
X190500000Y-141025000D02*
X196500000Y-141025000D01*
X190500000Y-141145000D02*
X196500000Y-141145000D01*
X190500000Y-141205000D02*
X196500000Y-141205000D01*
X190500000Y-142155000D02*
X187840000Y-142155000D01*
X196500000Y-130285000D02*
X190500000Y-130285000D01*
X196500000Y-131045000D02*
X196500000Y-130285000D01*
X196500000Y-132825000D02*
X190500000Y-132825000D01*
X196500000Y-133585000D02*
X196500000Y-132825000D01*
X196500000Y-135365000D02*
X190500000Y-135365000D01*
X196500000Y-136125000D02*
X196500000Y-135365000D01*
X196500000Y-137905000D02*
X190500000Y-137905000D01*
X196500000Y-138665000D02*
X196500000Y-137905000D01*
X196500000Y-140445000D02*
X190500000Y-140445000D01*
X196500000Y-141205000D02*
X196500000Y-140445000D01*
%TO.C,C6*%
X187402500Y-74562500D02*
X187402500Y-75350000D01*
X187008750Y-74956250D02*
X187796250Y-74956250D01*
X191595563Y-75590000D02*
X190310000Y-75590000D01*
X191595563Y-75590000D02*
X192660000Y-76654437D01*
X186904437Y-75590000D02*
X188190000Y-75590000D01*
X186904437Y-75590000D02*
X185840000Y-76654437D01*
X192660000Y-76654437D02*
X192660000Y-82410000D01*
X185840000Y-76654437D02*
X185840000Y-82410000D01*
X192660000Y-82410000D02*
X190310000Y-82410000D01*
X185840000Y-82410000D02*
X188190000Y-82410000D01*
%TO.C,C2*%
X190510000Y-51509420D02*
X190510000Y-51790580D01*
X189490000Y-51509420D02*
X189490000Y-51790580D01*
%TO.C,FB1*%
X179440000Y-55549622D02*
X179440000Y-54750378D01*
X180560000Y-55549622D02*
X180560000Y-54750378D01*
%TO.C,C5*%
X194510000Y-79159420D02*
X194510000Y-79440580D01*
X193490000Y-79159420D02*
X193490000Y-79440580D01*
%TO.C,C3*%
X183097500Y-49187500D02*
X183097500Y-48400000D01*
X183491250Y-48793750D02*
X182703750Y-48793750D01*
X178904437Y-48160000D02*
X180190000Y-48160000D01*
X178904437Y-48160000D02*
X177840000Y-47095563D01*
X183595563Y-48160000D02*
X182310000Y-48160000D01*
X183595563Y-48160000D02*
X184660000Y-47095563D01*
X177840000Y-47095563D02*
X177840000Y-41340000D01*
X184660000Y-47095563D02*
X184660000Y-41340000D01*
X177840000Y-41340000D02*
X180190000Y-41340000D01*
X184660000Y-41340000D02*
X182310000Y-41340000D01*
%TO.C,D2*%
X185350000Y-56910000D02*
X185350000Y-51400000D01*
X188650000Y-56910000D02*
X185350000Y-56910000D01*
X188650000Y-56910000D02*
X188650000Y-51400000D01*
%TO.C,U2*%
X182280000Y-112360000D02*
X188750000Y-112360000D01*
X182280000Y-122640000D02*
X182280000Y-112360000D01*
X184515000Y-122640000D02*
X182280000Y-122640000D01*
X188750000Y-112360000D02*
X188750000Y-122640000D01*
X188750000Y-122640000D02*
X186515000Y-122640000D01*
X186515000Y-122640000D02*
G75*
G03*
X184515000Y-122640000I-1000000J0D01*
G01*
%TO.C,R10*%
X193535000Y-122110436D02*
X193535000Y-122564564D01*
X192065000Y-122110436D02*
X192065000Y-122564564D01*
%TD*%
M02*
