%TF.GenerationSoftware,KiCad,Pcbnew,(7.0.0)*%
%TF.CreationDate,2023-04-30T16:43:56+02:00*%
%TF.ProjectId,midi-sync-module,6d696469-2d73-4796-9e63-2d6d6f64756c,rev?*%
%TF.SameCoordinates,Original*%
%TF.FileFunction,Paste,Bot*%
%TF.FilePolarity,Positive*%
%FSLAX46Y46*%
G04 Gerber Fmt 4.6, Leading zero omitted, Abs format (unit mm)*
G04 Created by KiCad (PCBNEW (7.0.0)) date 2023-04-30 16:43:56*
%MOMM*%
%LPD*%
G01*
G04 APERTURE LIST*
G04 Aperture macros list*
%AMRoundRect*
0 Rectangle with rounded corners*
0 $1 Rounding radius*
0 $2 $3 $4 $5 $6 $7 $8 $9 X,Y pos of 4 corners*
0 Add a 4 corners polygon primitive as box body*
4,1,4,$2,$3,$4,$5,$6,$7,$8,$9,$2,$3,0*
0 Add four circle primitives for the rounded corners*
1,1,$1+$1,$2,$3*
1,1,$1+$1,$4,$5*
1,1,$1+$1,$6,$7*
1,1,$1+$1,$8,$9*
0 Add four rect primitives between the rounded corners*
20,1,$1+$1,$2,$3,$4,$5,0*
20,1,$1+$1,$4,$5,$6,$7,0*
20,1,$1+$1,$6,$7,$8,$9,0*
20,1,$1+$1,$8,$9,$2,$3,0*%
G04 Aperture macros list end*
%ADD10RoundRect,0.218750X0.381250X-0.218750X0.381250X0.218750X-0.381250X0.218750X-0.381250X-0.218750X0*%
%ADD11RoundRect,0.250000X-0.450000X0.262500X-0.450000X-0.262500X0.450000X-0.262500X0.450000X0.262500X0*%
%ADD12RoundRect,0.225000X0.375000X-0.225000X0.375000X0.225000X-0.375000X0.225000X-0.375000X-0.225000X0*%
%ADD13RoundRect,0.200000X0.275000X-0.200000X0.275000X0.200000X-0.275000X0.200000X-0.275000X-0.200000X0*%
%ADD14RoundRect,0.150000X-0.512500X-0.150000X0.512500X-0.150000X0.512500X0.150000X-0.512500X0.150000X0*%
%ADD15RoundRect,0.250000X-0.650000X1.000000X-0.650000X-1.000000X0.650000X-1.000000X0.650000X1.000000X0*%
%ADD16RoundRect,0.200000X0.200000X0.275000X-0.200000X0.275000X-0.200000X-0.275000X0.200000X-0.275000X0*%
%ADD17RoundRect,0.225000X0.225000X0.250000X-0.225000X0.250000X-0.225000X-0.250000X0.225000X-0.250000X0*%
%ADD18RoundRect,0.250000X0.550000X-1.500000X0.550000X1.500000X-0.550000X1.500000X-0.550000X-1.500000X0*%
%ADD19RoundRect,0.250000X0.250000X0.475000X-0.250000X0.475000X-0.250000X-0.475000X0.250000X-0.475000X0*%
%ADD20RoundRect,0.250000X-0.250000X-0.475000X0.250000X-0.475000X0.250000X0.475000X-0.250000X0.475000X0*%
%ADD21RoundRect,0.225000X-0.250000X0.225000X-0.250000X-0.225000X0.250000X-0.225000X0.250000X0.225000X0*%
%ADD22RoundRect,0.250000X-0.550000X1.500000X-0.550000X-1.500000X0.550000X-1.500000X0.550000X1.500000X0*%
%ADD23RoundRect,0.250000X0.650000X-1.000000X0.650000X1.000000X-0.650000X1.000000X-0.650000X-1.000000X0*%
%ADD24R,2.000000X1.780000*%
G04 APERTURE END LIST*
D10*
%TO.C,FB2*%
X190000000Y-56212500D03*
X190000000Y-54087500D03*
%TD*%
D11*
%TO.C,R9*%
X177500000Y-121425000D03*
X177500000Y-123250000D03*
%TD*%
D12*
%TO.C,D3*%
X178000000Y-118900000D03*
X178000000Y-115600000D03*
%TD*%
D13*
%TO.C,R5*%
X176000000Y-118075000D03*
X176000000Y-116425000D03*
%TD*%
D14*
%TO.C,U3*%
X177362500Y-81062500D03*
X177362500Y-80112500D03*
X177362500Y-79162500D03*
X179637500Y-79162500D03*
X179637500Y-81062500D03*
%TD*%
D15*
%TO.C,D1*%
X183000000Y-51400000D03*
X183000000Y-55400000D03*
%TD*%
D16*
%TO.C,R8*%
X187650000Y-124000000D03*
X186000000Y-124000000D03*
%TD*%
D17*
%TO.C,C7*%
X183825000Y-124000000D03*
X182275000Y-124000000D03*
%TD*%
D18*
%TO.C,C4*%
X189500000Y-47550000D03*
X189500000Y-41950000D03*
%TD*%
D19*
%TO.C,C9*%
X179537500Y-83162500D03*
X177637500Y-83162500D03*
%TD*%
D20*
%TO.C,C8*%
X177550000Y-77000000D03*
X179450000Y-77000000D03*
%TD*%
D21*
%TO.C,C1*%
X180000000Y-50875000D03*
X180000000Y-52425000D03*
%TD*%
D22*
%TO.C,C6*%
X189250000Y-76200000D03*
X189250000Y-81800000D03*
%TD*%
D21*
%TO.C,C2*%
X190000000Y-50875000D03*
X190000000Y-52425000D03*
%TD*%
D10*
%TO.C,FB1*%
X180000000Y-56212500D03*
X180000000Y-54087500D03*
%TD*%
D21*
%TO.C,C5*%
X194000000Y-78525000D03*
X194000000Y-80075000D03*
%TD*%
D18*
%TO.C,C3*%
X181250000Y-47550000D03*
X181250000Y-41950000D03*
%TD*%
D23*
%TO.C,D2*%
X187000000Y-55400000D03*
X187000000Y-51400000D03*
%TD*%
D24*
%TO.C,U2*%
X180749999Y-121309999D03*
X180749999Y-118769999D03*
X180749999Y-116229999D03*
X180749999Y-113689999D03*
X190279999Y-113689999D03*
X190279999Y-116229999D03*
X190279999Y-118769999D03*
X190279999Y-121309999D03*
%TD*%
D11*
%TO.C,R10*%
X192800000Y-121425000D03*
X192800000Y-123250000D03*
%TD*%
M02*
