M48
; DRILL file {KiCad (7.0.0)} date Sun May 21 11:17:05 2023
; FORMAT={-:-/ absolute / inch / decimal}
; #@! TF.CreationDate,2023-05-21T11:17:05+02:00
; #@! TF.GenerationSoftware,Kicad,Pcbnew,(7.0.0)
; #@! TF.FileFunction,Plated,1,2,PTH
FMAT,2
INCH
; #@! TA.AperFunction,Plated,PTH,ViaDrill
T1C0.0118
; #@! TA.AperFunction,Plated,PTH,ViaDrill
T2C0.0157
; #@! TA.AperFunction,Plated,PTH,ComponentDrill
T3C0.0197
; #@! TA.AperFunction,Plated,PTH,ComponentDrill
T4C0.0354
; #@! TA.AperFunction,Plated,PTH,ComponentDrill
T5C0.0394
; #@! TA.AperFunction,Plated,PTH,ComponentDrill
T6C0.0551
%
G90
G05
T1
X7.0787Y-5.5276
X7.3543Y-4.9213
T2
X6.9449Y-3.0315
X6.9921Y-4.7795
X7.0472Y-1.5059
X7.0472Y-3.3465
X7.0768Y-5.1575
X7.0787Y-5.0787
X7.2047Y-2.0236
X7.2047Y-4.6654
X7.2441Y-4.4488
X7.2736Y-4.7638
X7.2756Y-3.063
X7.2835Y-4.8976
X7.3327Y-3.2579
X7.3386Y-4.6614
X7.3386Y-5.0157
X7.3622Y-2.0236
X7.378Y-3.0315
X7.4331Y-4.8661
X7.4331Y-4.9606
X7.4803Y-3.4055
X7.5Y-1.5157
X7.5276Y-2.2047
X7.5276Y-2.2539
X7.5295Y-4.3307
X7.6014Y-1.9488
X7.6181Y-2.2047
X7.6476Y-2.2539
T4
X7.0079Y-4.933
X7.0079Y-5.033
X7.5591Y-4.9315
X7.5591Y-5.0315
T5
X7.0803Y-2.3508
X7.0803Y-2.4508
X7.1803Y-2.3508
X7.1803Y-2.4508
X7.2386Y-5.1443
X7.2386Y-5.2443
X7.2386Y-5.3443
X7.2386Y-5.4443
X7.2386Y-5.5443
X7.2803Y-2.3508
X7.2803Y-2.4508
X7.3386Y-5.1443
X7.3386Y-5.2443
X7.3386Y-5.3443
X7.3386Y-5.4443
X7.3386Y-5.5443
X7.3803Y-2.3508
X7.3803Y-2.4508
X7.4803Y-2.3508
X7.4803Y-2.4508
T6
X7.0669Y-4.0354
X7.1303Y-4.1886
X7.2835Y-3.8583
X7.2835Y-4.252
X7.4366Y-4.1886
X7.5Y-4.0354
T3
G00X7.3228Y-2.626
M15
G01X7.2441Y-2.626
M16
G05
G00X7.3228Y-2.9449
M15
G01X7.2441Y-2.9449
M16
G05
T5
G00X7.0984Y-2.7165
M15
G01X7.0984Y-2.748
M16
G05
G00X7.4685Y-2.7028
M15
G01X7.4685Y-2.7618
M16
G05
T0
M30
