%TF.GenerationSoftware,KiCad,Pcbnew,(7.0.0)*%
%TF.CreationDate,2023-05-21T11:17:06+02:00*%
%TF.ProjectId,midi-sync-module,6d696469-2d73-4796-9e63-2d6d6f64756c,rev?*%
%TF.SameCoordinates,Original*%
%TF.FileFunction,Drillmap*%
%TF.FilePolarity,Positive*%
%FSLAX45Y45*%
G04 Gerber Fmt 4.5, Leading zero omitted, Abs format (unit mm)*
G04 Created by KiCad (PCBNEW (7.0.0)) date 2023-05-21 11:17:06*
%MOMM*%
%LPD*%
G01*
G04 APERTURE LIST*
%ADD10C,0.100000*%
%ADD11C,0.200000*%
%ADD12C,0.320000*%
G04 APERTURE END LIST*
D10*
X17500000Y-3600000D02*
X19500000Y-3600000D01*
X19500000Y-3600000D02*
X19500000Y-14400000D01*
X19500000Y-14400000D02*
X17500000Y-14400000D01*
X17500000Y-14400000D02*
X17500000Y-3600000D01*
D11*
D12*
X18340000Y-8820000D02*
X18660000Y-9140000D01*
X18660000Y-8820000D02*
X18340000Y-9140000D01*
D11*
X17742619Y-14698476D02*
X17742619Y-14498476D01*
X17742619Y-14498476D02*
X17790238Y-14498476D01*
X17790238Y-14498476D02*
X17818810Y-14508000D01*
X17818810Y-14508000D02*
X17837857Y-14527048D01*
X17837857Y-14527048D02*
X17847381Y-14546095D01*
X17847381Y-14546095D02*
X17856905Y-14584190D01*
X17856905Y-14584190D02*
X17856905Y-14612762D01*
X17856905Y-14612762D02*
X17847381Y-14650857D01*
X17847381Y-14650857D02*
X17837857Y-14669905D01*
X17837857Y-14669905D02*
X17818810Y-14688952D01*
X17818810Y-14688952D02*
X17790238Y-14698476D01*
X17790238Y-14698476D02*
X17742619Y-14698476D01*
X17942619Y-14698476D02*
X17942619Y-14565143D01*
X17942619Y-14603238D02*
X17952143Y-14584190D01*
X17952143Y-14584190D02*
X17961667Y-14574667D01*
X17961667Y-14574667D02*
X17980714Y-14565143D01*
X17980714Y-14565143D02*
X17999762Y-14565143D01*
X18066429Y-14698476D02*
X18066429Y-14565143D01*
X18066429Y-14498476D02*
X18056905Y-14508000D01*
X18056905Y-14508000D02*
X18066429Y-14517524D01*
X18066429Y-14517524D02*
X18075952Y-14508000D01*
X18075952Y-14508000D02*
X18066429Y-14498476D01*
X18066429Y-14498476D02*
X18066429Y-14517524D01*
X18190238Y-14698476D02*
X18171190Y-14688952D01*
X18171190Y-14688952D02*
X18161667Y-14669905D01*
X18161667Y-14669905D02*
X18161667Y-14498476D01*
X18295000Y-14698476D02*
X18275952Y-14688952D01*
X18275952Y-14688952D02*
X18266429Y-14669905D01*
X18266429Y-14669905D02*
X18266429Y-14498476D01*
X18491190Y-14698476D02*
X18491190Y-14498476D01*
X18491190Y-14498476D02*
X18557857Y-14641333D01*
X18557857Y-14641333D02*
X18624524Y-14498476D01*
X18624524Y-14498476D02*
X18624524Y-14698476D01*
X18805476Y-14698476D02*
X18805476Y-14593714D01*
X18805476Y-14593714D02*
X18795952Y-14574667D01*
X18795952Y-14574667D02*
X18776905Y-14565143D01*
X18776905Y-14565143D02*
X18738809Y-14565143D01*
X18738809Y-14565143D02*
X18719762Y-14574667D01*
X18805476Y-14688952D02*
X18786429Y-14698476D01*
X18786429Y-14698476D02*
X18738809Y-14698476D01*
X18738809Y-14698476D02*
X18719762Y-14688952D01*
X18719762Y-14688952D02*
X18710238Y-14669905D01*
X18710238Y-14669905D02*
X18710238Y-14650857D01*
X18710238Y-14650857D02*
X18719762Y-14631809D01*
X18719762Y-14631809D02*
X18738809Y-14622286D01*
X18738809Y-14622286D02*
X18786429Y-14622286D01*
X18786429Y-14622286D02*
X18805476Y-14612762D01*
X18900714Y-14565143D02*
X18900714Y-14765143D01*
X18900714Y-14574667D02*
X18919762Y-14565143D01*
X18919762Y-14565143D02*
X18957857Y-14565143D01*
X18957857Y-14565143D02*
X18976905Y-14574667D01*
X18976905Y-14574667D02*
X18986429Y-14584190D01*
X18986429Y-14584190D02*
X18995952Y-14603238D01*
X18995952Y-14603238D02*
X18995952Y-14660381D01*
X18995952Y-14660381D02*
X18986429Y-14679428D01*
X18986429Y-14679428D02*
X18976905Y-14688952D01*
X18976905Y-14688952D02*
X18957857Y-14698476D01*
X18957857Y-14698476D02*
X18919762Y-14698476D01*
X18919762Y-14698476D02*
X18900714Y-14688952D01*
X19081667Y-14679428D02*
X19091190Y-14688952D01*
X19091190Y-14688952D02*
X19081667Y-14698476D01*
X19081667Y-14698476D02*
X19072143Y-14688952D01*
X19072143Y-14688952D02*
X19081667Y-14679428D01*
X19081667Y-14679428D02*
X19081667Y-14698476D01*
X19081667Y-14574667D02*
X19091190Y-14584190D01*
X19091190Y-14584190D02*
X19081667Y-14593714D01*
X19081667Y-14593714D02*
X19072143Y-14584190D01*
X19072143Y-14584190D02*
X19081667Y-14574667D01*
X19081667Y-14574667D02*
X19081667Y-14593714D01*
X17295000Y-14945000D02*
X17495000Y-15145000D01*
X17495000Y-14945000D02*
X17295000Y-15145000D01*
X17723571Y-14918476D02*
X17847381Y-14918476D01*
X17847381Y-14918476D02*
X17780714Y-14994667D01*
X17780714Y-14994667D02*
X17809286Y-14994667D01*
X17809286Y-14994667D02*
X17828333Y-15004190D01*
X17828333Y-15004190D02*
X17837857Y-15013714D01*
X17837857Y-15013714D02*
X17847381Y-15032762D01*
X17847381Y-15032762D02*
X17847381Y-15080381D01*
X17847381Y-15080381D02*
X17837857Y-15099428D01*
X17837857Y-15099428D02*
X17828333Y-15108952D01*
X17828333Y-15108952D02*
X17809286Y-15118476D01*
X17809286Y-15118476D02*
X17752143Y-15118476D01*
X17752143Y-15118476D02*
X17733095Y-15108952D01*
X17733095Y-15108952D02*
X17723571Y-15099428D01*
X17933095Y-15099428D02*
X17942619Y-15108952D01*
X17942619Y-15108952D02*
X17933095Y-15118476D01*
X17933095Y-15118476D02*
X17923571Y-15108952D01*
X17923571Y-15108952D02*
X17933095Y-15099428D01*
X17933095Y-15099428D02*
X17933095Y-15118476D01*
X18018810Y-14937524D02*
X18028333Y-14928000D01*
X18028333Y-14928000D02*
X18047381Y-14918476D01*
X18047381Y-14918476D02*
X18095000Y-14918476D01*
X18095000Y-14918476D02*
X18114048Y-14928000D01*
X18114048Y-14928000D02*
X18123571Y-14937524D01*
X18123571Y-14937524D02*
X18133095Y-14956571D01*
X18133095Y-14956571D02*
X18133095Y-14975619D01*
X18133095Y-14975619D02*
X18123571Y-15004190D01*
X18123571Y-15004190D02*
X18009286Y-15118476D01*
X18009286Y-15118476D02*
X18133095Y-15118476D01*
X18256905Y-14918476D02*
X18275952Y-14918476D01*
X18275952Y-14918476D02*
X18295000Y-14928000D01*
X18295000Y-14928000D02*
X18304524Y-14937524D01*
X18304524Y-14937524D02*
X18314048Y-14956571D01*
X18314048Y-14956571D02*
X18323571Y-14994667D01*
X18323571Y-14994667D02*
X18323571Y-15042286D01*
X18323571Y-15042286D02*
X18314048Y-15080381D01*
X18314048Y-15080381D02*
X18304524Y-15099428D01*
X18304524Y-15099428D02*
X18295000Y-15108952D01*
X18295000Y-15108952D02*
X18275952Y-15118476D01*
X18275952Y-15118476D02*
X18256905Y-15118476D01*
X18256905Y-15118476D02*
X18237857Y-15108952D01*
X18237857Y-15108952D02*
X18228333Y-15099428D01*
X18228333Y-15099428D02*
X18218810Y-15080381D01*
X18218810Y-15080381D02*
X18209286Y-15042286D01*
X18209286Y-15042286D02*
X18209286Y-14994667D01*
X18209286Y-14994667D02*
X18218810Y-14956571D01*
X18218810Y-14956571D02*
X18228333Y-14937524D01*
X18228333Y-14937524D02*
X18237857Y-14928000D01*
X18237857Y-14928000D02*
X18256905Y-14918476D01*
X18447381Y-14918476D02*
X18466429Y-14918476D01*
X18466429Y-14918476D02*
X18485476Y-14928000D01*
X18485476Y-14928000D02*
X18495000Y-14937524D01*
X18495000Y-14937524D02*
X18504524Y-14956571D01*
X18504524Y-14956571D02*
X18514048Y-14994667D01*
X18514048Y-14994667D02*
X18514048Y-15042286D01*
X18514048Y-15042286D02*
X18504524Y-15080381D01*
X18504524Y-15080381D02*
X18495000Y-15099428D01*
X18495000Y-15099428D02*
X18485476Y-15108952D01*
X18485476Y-15108952D02*
X18466429Y-15118476D01*
X18466429Y-15118476D02*
X18447381Y-15118476D01*
X18447381Y-15118476D02*
X18428333Y-15108952D01*
X18428333Y-15108952D02*
X18418810Y-15099428D01*
X18418810Y-15099428D02*
X18409286Y-15080381D01*
X18409286Y-15080381D02*
X18399762Y-15042286D01*
X18399762Y-15042286D02*
X18399762Y-14994667D01*
X18399762Y-14994667D02*
X18409286Y-14956571D01*
X18409286Y-14956571D02*
X18418810Y-14937524D01*
X18418810Y-14937524D02*
X18428333Y-14928000D01*
X18428333Y-14928000D02*
X18447381Y-14918476D01*
X18599762Y-15118476D02*
X18599762Y-14985143D01*
X18599762Y-15004190D02*
X18609286Y-14994667D01*
X18609286Y-14994667D02*
X18628333Y-14985143D01*
X18628333Y-14985143D02*
X18656905Y-14985143D01*
X18656905Y-14985143D02*
X18675952Y-14994667D01*
X18675952Y-14994667D02*
X18685476Y-15013714D01*
X18685476Y-15013714D02*
X18685476Y-15118476D01*
X18685476Y-15013714D02*
X18695000Y-14994667D01*
X18695000Y-14994667D02*
X18714048Y-14985143D01*
X18714048Y-14985143D02*
X18742619Y-14985143D01*
X18742619Y-14985143D02*
X18761667Y-14994667D01*
X18761667Y-14994667D02*
X18771191Y-15013714D01*
X18771191Y-15013714D02*
X18771191Y-15118476D01*
X18866429Y-15118476D02*
X18866429Y-14985143D01*
X18866429Y-15004190D02*
X18875952Y-14994667D01*
X18875952Y-14994667D02*
X18895000Y-14985143D01*
X18895000Y-14985143D02*
X18923572Y-14985143D01*
X18923572Y-14985143D02*
X18942619Y-14994667D01*
X18942619Y-14994667D02*
X18952143Y-15013714D01*
X18952143Y-15013714D02*
X18952143Y-15118476D01*
X18952143Y-15013714D02*
X18961667Y-14994667D01*
X18961667Y-14994667D02*
X18980714Y-14985143D01*
X18980714Y-14985143D02*
X19009286Y-14985143D01*
X19009286Y-14985143D02*
X19028333Y-14994667D01*
X19028333Y-14994667D02*
X19037857Y-15013714D01*
X19037857Y-15013714D02*
X19037857Y-15118476D01*
X19395952Y-14908952D02*
X19224524Y-15166095D01*
X19620714Y-14918476D02*
X19639762Y-14918476D01*
X19639762Y-14918476D02*
X19658810Y-14928000D01*
X19658810Y-14928000D02*
X19668333Y-14937524D01*
X19668333Y-14937524D02*
X19677857Y-14956571D01*
X19677857Y-14956571D02*
X19687381Y-14994667D01*
X19687381Y-14994667D02*
X19687381Y-15042286D01*
X19687381Y-15042286D02*
X19677857Y-15080381D01*
X19677857Y-15080381D02*
X19668333Y-15099428D01*
X19668333Y-15099428D02*
X19658810Y-15108952D01*
X19658810Y-15108952D02*
X19639762Y-15118476D01*
X19639762Y-15118476D02*
X19620714Y-15118476D01*
X19620714Y-15118476D02*
X19601667Y-15108952D01*
X19601667Y-15108952D02*
X19592143Y-15099428D01*
X19592143Y-15099428D02*
X19582619Y-15080381D01*
X19582619Y-15080381D02*
X19573095Y-15042286D01*
X19573095Y-15042286D02*
X19573095Y-14994667D01*
X19573095Y-14994667D02*
X19582619Y-14956571D01*
X19582619Y-14956571D02*
X19592143Y-14937524D01*
X19592143Y-14937524D02*
X19601667Y-14928000D01*
X19601667Y-14928000D02*
X19620714Y-14918476D01*
X19773095Y-15099428D02*
X19782619Y-15108952D01*
X19782619Y-15108952D02*
X19773095Y-15118476D01*
X19773095Y-15118476D02*
X19763572Y-15108952D01*
X19763572Y-15108952D02*
X19773095Y-15099428D01*
X19773095Y-15099428D02*
X19773095Y-15118476D01*
X19973095Y-15118476D02*
X19858810Y-15118476D01*
X19915952Y-15118476D02*
X19915952Y-14918476D01*
X19915952Y-14918476D02*
X19896905Y-14947048D01*
X19896905Y-14947048D02*
X19877857Y-14966095D01*
X19877857Y-14966095D02*
X19858810Y-14975619D01*
X20049286Y-14937524D02*
X20058810Y-14928000D01*
X20058810Y-14928000D02*
X20077857Y-14918476D01*
X20077857Y-14918476D02*
X20125476Y-14918476D01*
X20125476Y-14918476D02*
X20144524Y-14928000D01*
X20144524Y-14928000D02*
X20154048Y-14937524D01*
X20154048Y-14937524D02*
X20163572Y-14956571D01*
X20163572Y-14956571D02*
X20163572Y-14975619D01*
X20163572Y-14975619D02*
X20154048Y-15004190D01*
X20154048Y-15004190D02*
X20039762Y-15118476D01*
X20039762Y-15118476D02*
X20163572Y-15118476D01*
X20335000Y-14918476D02*
X20296905Y-14918476D01*
X20296905Y-14918476D02*
X20277857Y-14928000D01*
X20277857Y-14928000D02*
X20268333Y-14937524D01*
X20268333Y-14937524D02*
X20249286Y-14966095D01*
X20249286Y-14966095D02*
X20239762Y-15004190D01*
X20239762Y-15004190D02*
X20239762Y-15080381D01*
X20239762Y-15080381D02*
X20249286Y-15099428D01*
X20249286Y-15099428D02*
X20258810Y-15108952D01*
X20258810Y-15108952D02*
X20277857Y-15118476D01*
X20277857Y-15118476D02*
X20315953Y-15118476D01*
X20315953Y-15118476D02*
X20335000Y-15108952D01*
X20335000Y-15108952D02*
X20344524Y-15099428D01*
X20344524Y-15099428D02*
X20354048Y-15080381D01*
X20354048Y-15080381D02*
X20354048Y-15032762D01*
X20354048Y-15032762D02*
X20344524Y-15013714D01*
X20344524Y-15013714D02*
X20335000Y-15004190D01*
X20335000Y-15004190D02*
X20315953Y-14994667D01*
X20315953Y-14994667D02*
X20277857Y-14994667D01*
X20277857Y-14994667D02*
X20258810Y-15004190D01*
X20258810Y-15004190D02*
X20249286Y-15013714D01*
X20249286Y-15013714D02*
X20239762Y-15032762D01*
X20477857Y-14918476D02*
X20496905Y-14918476D01*
X20496905Y-14918476D02*
X20515953Y-14928000D01*
X20515953Y-14928000D02*
X20525476Y-14937524D01*
X20525476Y-14937524D02*
X20535000Y-14956571D01*
X20535000Y-14956571D02*
X20544524Y-14994667D01*
X20544524Y-14994667D02*
X20544524Y-15042286D01*
X20544524Y-15042286D02*
X20535000Y-15080381D01*
X20535000Y-15080381D02*
X20525476Y-15099428D01*
X20525476Y-15099428D02*
X20515953Y-15108952D01*
X20515953Y-15108952D02*
X20496905Y-15118476D01*
X20496905Y-15118476D02*
X20477857Y-15118476D01*
X20477857Y-15118476D02*
X20458810Y-15108952D01*
X20458810Y-15108952D02*
X20449286Y-15099428D01*
X20449286Y-15099428D02*
X20439762Y-15080381D01*
X20439762Y-15080381D02*
X20430238Y-15042286D01*
X20430238Y-15042286D02*
X20430238Y-14994667D01*
X20430238Y-14994667D02*
X20439762Y-14956571D01*
X20439762Y-14956571D02*
X20449286Y-14937524D01*
X20449286Y-14937524D02*
X20458810Y-14928000D01*
X20458810Y-14928000D02*
X20477857Y-14918476D01*
X20620714Y-14918476D02*
X20620714Y-14956571D01*
X20696905Y-14918476D02*
X20696905Y-14956571D01*
X20959762Y-15194667D02*
X20950238Y-15185143D01*
X20950238Y-15185143D02*
X20931191Y-15156571D01*
X20931191Y-15156571D02*
X20921667Y-15137524D01*
X20921667Y-15137524D02*
X20912143Y-15108952D01*
X20912143Y-15108952D02*
X20902619Y-15061333D01*
X20902619Y-15061333D02*
X20902619Y-15023238D01*
X20902619Y-15023238D02*
X20912143Y-14975619D01*
X20912143Y-14975619D02*
X20921667Y-14947048D01*
X20921667Y-14947048D02*
X20931191Y-14928000D01*
X20931191Y-14928000D02*
X20950238Y-14899428D01*
X20950238Y-14899428D02*
X20959762Y-14889905D01*
X21140714Y-15118476D02*
X21026429Y-15118476D01*
X21083572Y-15118476D02*
X21083572Y-14918476D01*
X21083572Y-14918476D02*
X21064524Y-14947048D01*
X21064524Y-14947048D02*
X21045476Y-14966095D01*
X21045476Y-14966095D02*
X21026429Y-14975619D01*
X21346429Y-15118476D02*
X21346429Y-14918476D01*
X21432143Y-15118476D02*
X21432143Y-15013714D01*
X21432143Y-15013714D02*
X21422619Y-14994667D01*
X21422619Y-14994667D02*
X21403572Y-14985143D01*
X21403572Y-14985143D02*
X21375000Y-14985143D01*
X21375000Y-14985143D02*
X21355953Y-14994667D01*
X21355953Y-14994667D02*
X21346429Y-15004190D01*
X21555953Y-15118476D02*
X21536905Y-15108952D01*
X21536905Y-15108952D02*
X21527381Y-15099428D01*
X21527381Y-15099428D02*
X21517857Y-15080381D01*
X21517857Y-15080381D02*
X21517857Y-15023238D01*
X21517857Y-15023238D02*
X21527381Y-15004190D01*
X21527381Y-15004190D02*
X21536905Y-14994667D01*
X21536905Y-14994667D02*
X21555953Y-14985143D01*
X21555953Y-14985143D02*
X21584524Y-14985143D01*
X21584524Y-14985143D02*
X21603572Y-14994667D01*
X21603572Y-14994667D02*
X21613095Y-15004190D01*
X21613095Y-15004190D02*
X21622619Y-15023238D01*
X21622619Y-15023238D02*
X21622619Y-15080381D01*
X21622619Y-15080381D02*
X21613095Y-15099428D01*
X21613095Y-15099428D02*
X21603572Y-15108952D01*
X21603572Y-15108952D02*
X21584524Y-15118476D01*
X21584524Y-15118476D02*
X21555953Y-15118476D01*
X21736905Y-15118476D02*
X21717857Y-15108952D01*
X21717857Y-15108952D02*
X21708334Y-15089905D01*
X21708334Y-15089905D02*
X21708334Y-14918476D01*
X21889286Y-15108952D02*
X21870238Y-15118476D01*
X21870238Y-15118476D02*
X21832143Y-15118476D01*
X21832143Y-15118476D02*
X21813095Y-15108952D01*
X21813095Y-15108952D02*
X21803572Y-15089905D01*
X21803572Y-15089905D02*
X21803572Y-15013714D01*
X21803572Y-15013714D02*
X21813095Y-14994667D01*
X21813095Y-14994667D02*
X21832143Y-14985143D01*
X21832143Y-14985143D02*
X21870238Y-14985143D01*
X21870238Y-14985143D02*
X21889286Y-14994667D01*
X21889286Y-14994667D02*
X21898810Y-15013714D01*
X21898810Y-15013714D02*
X21898810Y-15032762D01*
X21898810Y-15032762D02*
X21803572Y-15051809D01*
X21965476Y-15194667D02*
X21975000Y-15185143D01*
X21975000Y-15185143D02*
X21994048Y-15156571D01*
X21994048Y-15156571D02*
X22003572Y-15137524D01*
X22003572Y-15137524D02*
X22013095Y-15108952D01*
X22013095Y-15108952D02*
X22022619Y-15061333D01*
X22022619Y-15061333D02*
X22022619Y-15023238D01*
X22022619Y-15023238D02*
X22013095Y-14975619D01*
X22013095Y-14975619D02*
X22003572Y-14947048D01*
X22003572Y-14947048D02*
X21994048Y-14928000D01*
X21994048Y-14928000D02*
X21975000Y-14899428D01*
X21975000Y-14899428D02*
X21965476Y-14889905D01*
X22295000Y-15194667D02*
X22285476Y-15185143D01*
X22285476Y-15185143D02*
X22266429Y-15156571D01*
X22266429Y-15156571D02*
X22256905Y-15137524D01*
X22256905Y-15137524D02*
X22247381Y-15108952D01*
X22247381Y-15108952D02*
X22237857Y-15061333D01*
X22237857Y-15061333D02*
X22237857Y-15023238D01*
X22237857Y-15023238D02*
X22247381Y-14975619D01*
X22247381Y-14975619D02*
X22256905Y-14947048D01*
X22256905Y-14947048D02*
X22266429Y-14928000D01*
X22266429Y-14928000D02*
X22285476Y-14899428D01*
X22285476Y-14899428D02*
X22295000Y-14889905D01*
X22371191Y-14985143D02*
X22371191Y-15118476D01*
X22371191Y-15004190D02*
X22380714Y-14994667D01*
X22380714Y-14994667D02*
X22399762Y-14985143D01*
X22399762Y-14985143D02*
X22428333Y-14985143D01*
X22428333Y-14985143D02*
X22447381Y-14994667D01*
X22447381Y-14994667D02*
X22456905Y-15013714D01*
X22456905Y-15013714D02*
X22456905Y-15118476D01*
X22580714Y-15118476D02*
X22561667Y-15108952D01*
X22561667Y-15108952D02*
X22552143Y-15099428D01*
X22552143Y-15099428D02*
X22542619Y-15080381D01*
X22542619Y-15080381D02*
X22542619Y-15023238D01*
X22542619Y-15023238D02*
X22552143Y-15004190D01*
X22552143Y-15004190D02*
X22561667Y-14994667D01*
X22561667Y-14994667D02*
X22580714Y-14985143D01*
X22580714Y-14985143D02*
X22609286Y-14985143D01*
X22609286Y-14985143D02*
X22628333Y-14994667D01*
X22628333Y-14994667D02*
X22637857Y-15004190D01*
X22637857Y-15004190D02*
X22647381Y-15023238D01*
X22647381Y-15023238D02*
X22647381Y-15080381D01*
X22647381Y-15080381D02*
X22637857Y-15099428D01*
X22637857Y-15099428D02*
X22628333Y-15108952D01*
X22628333Y-15108952D02*
X22609286Y-15118476D01*
X22609286Y-15118476D02*
X22580714Y-15118476D01*
X22704524Y-14985143D02*
X22780714Y-14985143D01*
X22733095Y-14918476D02*
X22733095Y-15089905D01*
X22733095Y-15089905D02*
X22742619Y-15108952D01*
X22742619Y-15108952D02*
X22761667Y-15118476D01*
X22761667Y-15118476D02*
X22780714Y-15118476D01*
X22967381Y-14985143D02*
X22967381Y-15185143D01*
X22967381Y-14994667D02*
X22986429Y-14985143D01*
X22986429Y-14985143D02*
X23024524Y-14985143D01*
X23024524Y-14985143D02*
X23043572Y-14994667D01*
X23043572Y-14994667D02*
X23053095Y-15004190D01*
X23053095Y-15004190D02*
X23062619Y-15023238D01*
X23062619Y-15023238D02*
X23062619Y-15080381D01*
X23062619Y-15080381D02*
X23053095Y-15099428D01*
X23053095Y-15099428D02*
X23043572Y-15108952D01*
X23043572Y-15108952D02*
X23024524Y-15118476D01*
X23024524Y-15118476D02*
X22986429Y-15118476D01*
X22986429Y-15118476D02*
X22967381Y-15108952D01*
X23176905Y-15118476D02*
X23157857Y-15108952D01*
X23157857Y-15108952D02*
X23148333Y-15089905D01*
X23148333Y-15089905D02*
X23148333Y-14918476D01*
X23338810Y-15118476D02*
X23338810Y-15013714D01*
X23338810Y-15013714D02*
X23329286Y-14994667D01*
X23329286Y-14994667D02*
X23310238Y-14985143D01*
X23310238Y-14985143D02*
X23272143Y-14985143D01*
X23272143Y-14985143D02*
X23253095Y-14994667D01*
X23338810Y-15108952D02*
X23319762Y-15118476D01*
X23319762Y-15118476D02*
X23272143Y-15118476D01*
X23272143Y-15118476D02*
X23253095Y-15108952D01*
X23253095Y-15108952D02*
X23243572Y-15089905D01*
X23243572Y-15089905D02*
X23243572Y-15070857D01*
X23243572Y-15070857D02*
X23253095Y-15051809D01*
X23253095Y-15051809D02*
X23272143Y-15042286D01*
X23272143Y-15042286D02*
X23319762Y-15042286D01*
X23319762Y-15042286D02*
X23338810Y-15032762D01*
X23405476Y-14985143D02*
X23481667Y-14985143D01*
X23434048Y-14918476D02*
X23434048Y-15089905D01*
X23434048Y-15089905D02*
X23443572Y-15108952D01*
X23443572Y-15108952D02*
X23462619Y-15118476D01*
X23462619Y-15118476D02*
X23481667Y-15118476D01*
X23624524Y-15108952D02*
X23605476Y-15118476D01*
X23605476Y-15118476D02*
X23567381Y-15118476D01*
X23567381Y-15118476D02*
X23548333Y-15108952D01*
X23548333Y-15108952D02*
X23538810Y-15089905D01*
X23538810Y-15089905D02*
X23538810Y-15013714D01*
X23538810Y-15013714D02*
X23548333Y-14994667D01*
X23548333Y-14994667D02*
X23567381Y-14985143D01*
X23567381Y-14985143D02*
X23605476Y-14985143D01*
X23605476Y-14985143D02*
X23624524Y-14994667D01*
X23624524Y-14994667D02*
X23634048Y-15013714D01*
X23634048Y-15013714D02*
X23634048Y-15032762D01*
X23634048Y-15032762D02*
X23538810Y-15051809D01*
X23805476Y-15118476D02*
X23805476Y-14918476D01*
X23805476Y-15108952D02*
X23786429Y-15118476D01*
X23786429Y-15118476D02*
X23748333Y-15118476D01*
X23748333Y-15118476D02*
X23729286Y-15108952D01*
X23729286Y-15108952D02*
X23719762Y-15099428D01*
X23719762Y-15099428D02*
X23710238Y-15080381D01*
X23710238Y-15080381D02*
X23710238Y-15023238D01*
X23710238Y-15023238D02*
X23719762Y-15004190D01*
X23719762Y-15004190D02*
X23729286Y-14994667D01*
X23729286Y-14994667D02*
X23748333Y-14985143D01*
X23748333Y-14985143D02*
X23786429Y-14985143D01*
X23786429Y-14985143D02*
X23805476Y-14994667D01*
X23881667Y-15194667D02*
X23891191Y-15185143D01*
X23891191Y-15185143D02*
X23910238Y-15156571D01*
X23910238Y-15156571D02*
X23919762Y-15137524D01*
X23919762Y-15137524D02*
X23929286Y-15108952D01*
X23929286Y-15108952D02*
X23938810Y-15061333D01*
X23938810Y-15061333D02*
X23938810Y-15023238D01*
X23938810Y-15023238D02*
X23929286Y-14975619D01*
X23929286Y-14975619D02*
X23919762Y-14947048D01*
X23919762Y-14947048D02*
X23910238Y-14928000D01*
X23910238Y-14928000D02*
X23891191Y-14899428D01*
X23891191Y-14899428D02*
X23881667Y-14889905D01*
M02*
