%TF.GenerationSoftware,KiCad,Pcbnew,(7.0.0)*%
%TF.CreationDate,2023-05-21T11:17:02+02:00*%
%TF.ProjectId,midi-sync-module,6d696469-2d73-4796-9e63-2d6d6f64756c,rev?*%
%TF.SameCoordinates,Original*%
%TF.FileFunction,Copper,L2,Bot*%
%TF.FilePolarity,Positive*%
%FSLAX46Y46*%
G04 Gerber Fmt 4.6, Leading zero omitted, Abs format (unit mm)*
G04 Created by KiCad (PCBNEW (7.0.0)) date 2023-05-21 11:17:02*
%MOMM*%
%LPD*%
G01*
G04 APERTURE LIST*
G04 Aperture macros list*
%AMRoundRect*
0 Rectangle with rounded corners*
0 $1 Rounding radius*
0 $2 $3 $4 $5 $6 $7 $8 $9 X,Y pos of 4 corners*
0 Add a 4 corners polygon primitive as box body*
4,1,4,$2,$3,$4,$5,$6,$7,$8,$9,$2,$3,0*
0 Add four circle primitives for the rounded corners*
1,1,$1+$1,$2,$3*
1,1,$1+$1,$4,$5*
1,1,$1+$1,$6,$7*
1,1,$1+$1,$8,$9*
0 Add four rect primitives between the rounded corners*
20,1,$1+$1,$2,$3,$4,$5,0*
20,1,$1+$1,$4,$5,$6,$7,0*
20,1,$1+$1,$6,$7,$8,$9,0*
20,1,$1+$1,$8,$9,$2,$3,0*%
G04 Aperture macros list end*
%TA.AperFunction,SMDPad,CuDef*%
%ADD10RoundRect,0.250000X-0.550000X1.500000X-0.550000X-1.500000X0.550000X-1.500000X0.550000X1.500000X0*%
%TD*%
%TA.AperFunction,ComponentPad*%
%ADD11R,2.100000X2.100000*%
%TD*%
%TA.AperFunction,ComponentPad*%
%ADD12C,2.100000*%
%TD*%
%TA.AperFunction,ComponentPad*%
%ADD13R,1.800000X1.800000*%
%TD*%
%TA.AperFunction,ComponentPad*%
%ADD14C,1.800000*%
%TD*%
%TA.AperFunction,ComponentPad*%
%ADD15O,3.000000X4.500000*%
%TD*%
%TA.AperFunction,ComponentPad*%
%ADD16O,3.000000X3.800000*%
%TD*%
%TA.AperFunction,ComponentPad*%
%ADD17O,4.000000X2.000000*%
%TD*%
%TA.AperFunction,SMDPad,CuDef*%
%ADD18RoundRect,0.218750X0.381250X-0.218750X0.381250X0.218750X-0.381250X0.218750X-0.381250X-0.218750X0*%
%TD*%
%TA.AperFunction,SMDPad,CuDef*%
%ADD19RoundRect,0.250000X-0.450000X0.262500X-0.450000X-0.262500X0.450000X-0.262500X0.450000X0.262500X0*%
%TD*%
%TA.AperFunction,SMDPad,CuDef*%
%ADD20RoundRect,0.225000X0.375000X-0.225000X0.375000X0.225000X-0.375000X0.225000X-0.375000X-0.225000X0*%
%TD*%
%TA.AperFunction,SMDPad,CuDef*%
%ADD21R,1.500000X1.000000*%
%TD*%
%TA.AperFunction,SMDPad,CuDef*%
%ADD22RoundRect,0.200000X0.275000X-0.200000X0.275000X0.200000X-0.275000X0.200000X-0.275000X-0.200000X0*%
%TD*%
%TA.AperFunction,SMDPad,CuDef*%
%ADD23RoundRect,0.150000X-0.512500X-0.150000X0.512500X-0.150000X0.512500X0.150000X-0.512500X0.150000X0*%
%TD*%
%TA.AperFunction,SMDPad,CuDef*%
%ADD24RoundRect,0.250000X-0.650000X1.000000X-0.650000X-1.000000X0.650000X-1.000000X0.650000X1.000000X0*%
%TD*%
%TA.AperFunction,SMDPad,CuDef*%
%ADD25RoundRect,0.200000X0.200000X0.275000X-0.200000X0.275000X-0.200000X-0.275000X0.200000X-0.275000X0*%
%TD*%
%TA.AperFunction,SMDPad,CuDef*%
%ADD26RoundRect,0.225000X0.225000X0.250000X-0.225000X0.250000X-0.225000X-0.250000X0.225000X-0.250000X0*%
%TD*%
%TA.AperFunction,SMDPad,CuDef*%
%ADD27RoundRect,0.250000X0.250000X0.475000X-0.250000X0.475000X-0.250000X-0.475000X0.250000X-0.475000X0*%
%TD*%
%TA.AperFunction,SMDPad,CuDef*%
%ADD28RoundRect,0.250000X-0.250000X-0.475000X0.250000X-0.475000X0.250000X0.475000X-0.250000X0.475000X0*%
%TD*%
%TA.AperFunction,ComponentPad*%
%ADD29R,1.700000X1.700000*%
%TD*%
%TA.AperFunction,ComponentPad*%
%ADD30O,1.700000X1.700000*%
%TD*%
%TA.AperFunction,SMDPad,CuDef*%
%ADD31RoundRect,0.225000X-0.250000X0.225000X-0.250000X-0.225000X0.250000X-0.225000X0.250000X0.225000X0*%
%TD*%
%TA.AperFunction,SMDPad,CuDef*%
%ADD32RoundRect,0.250000X0.550000X-1.500000X0.550000X1.500000X-0.550000X1.500000X-0.550000X-1.500000X0*%
%TD*%
%TA.AperFunction,SMDPad,CuDef*%
%ADD33RoundRect,0.250000X0.650000X-1.000000X0.650000X1.000000X-0.650000X1.000000X-0.650000X-1.000000X0*%
%TD*%
%TA.AperFunction,SMDPad,CuDef*%
%ADD34R,2.000000X1.780000*%
%TD*%
%TA.AperFunction,ViaPad*%
%ADD35C,0.800000*%
%TD*%
%TA.AperFunction,ViaPad*%
%ADD36C,0.500000*%
%TD*%
%TA.AperFunction,Conductor*%
%ADD37C,0.700000*%
%TD*%
%TA.AperFunction,Conductor*%
%ADD38C,0.250000*%
%TD*%
G04 APERTURE END LIST*
D10*
%TO.P,C4,1*%
%TO.N,GND*%
X189500000Y-41950000D03*
%TO.P,C4,2*%
%TO.N,-12V*%
X189500000Y-47550000D03*
%TD*%
D11*
%TO.P,J3,1*%
%TO.N,unconnected-(J3-Pad1)*%
X190499999Y-102499999D03*
D12*
%TO.P,J3,2*%
%TO.N,DIN5-2*%
X185000000Y-108000000D03*
%TO.P,J3,3*%
%TO.N,unconnected-(J3-Pad3)*%
X179500000Y-102500000D03*
%TO.P,J3,4*%
%TO.N,DIN5-4*%
X188890000Y-106390000D03*
%TO.P,J3,5*%
%TO.N,DIN5-5*%
X181110000Y-106390000D03*
%TO.P,J3,S*%
%TO.N,N/C*%
X185000000Y-98000000D03*
%TD*%
D13*
%TO.P,D4,1,K*%
%TO.N,GND*%
X177999999Y-127837499D03*
D14*
%TO.P,D4,2,A*%
%TO.N,Net-(D4-A)*%
X178000000Y-125297500D03*
%TD*%
D13*
%TO.P,D5,1,K*%
%TO.N,GND*%
X191999999Y-127799999D03*
D14*
%TO.P,D5,2,A*%
%TO.N,Net-(D5-A)*%
X192000000Y-125260000D03*
%TD*%
D15*
%TO.P,J1,S*%
%TO.N,GND*%
X189699999Y-69399999D03*
D16*
X180299999Y-69399999D03*
D17*
%TO.P,J1,T*%
%TO.N,Net-(J1-PadT)*%
X184999999Y-74799999D03*
%TO.P,J1,TN*%
%TO.N,unconnected-(J1-PadTN)*%
X184999999Y-66699999D03*
%TD*%
D18*
%TO.P,FB2,1*%
%TO.N,/-12V_euro*%
X190000000Y-56212500D03*
%TO.P,FB2,2*%
%TO.N,Net-(D2-K)*%
X190000000Y-54087500D03*
%TD*%
D19*
%TO.P,R9,1*%
%TO.N,+5V*%
X177500000Y-121425000D03*
%TO.P,R9,2*%
%TO.N,Net-(D4-A)*%
X177500000Y-123250000D03*
%TD*%
D20*
%TO.P,D3,1,K*%
%TO.N,Net-(D3-K)*%
X178000000Y-118900000D03*
%TO.P,D3,2,A*%
%TO.N,Net-(D3-A)*%
X178000000Y-115600000D03*
%TD*%
D21*
%TO.P,JP1,1,A*%
%TO.N,DIN5-4*%
X176349999Y-109349999D03*
%TO.P,JP1,2,B*%
%TO.N,Net-(JP1-B)*%
X176349999Y-110649999D03*
%TD*%
D22*
%TO.P,R5,1*%
%TO.N,Net-(D3-K)*%
X176000000Y-118075000D03*
%TO.P,R5,2*%
%TO.N,Net-(JP1-B)*%
X176000000Y-116425000D03*
%TD*%
D23*
%TO.P,U3,1,VIN*%
%TO.N,+5V*%
X177362500Y-81062500D03*
%TO.P,U3,2,GND*%
%TO.N,GND*%
X177362500Y-80112500D03*
%TO.P,U3,3,EN*%
%TO.N,+5V*%
X177362500Y-79162500D03*
%TO.P,U3,4,SENSE/ADJ*%
%TO.N,+3V3*%
X179637500Y-79162500D03*
%TO.P,U3,5,VOUT*%
X179637500Y-81062500D03*
%TD*%
D24*
%TO.P,D1,1,K*%
%TO.N,+12V*%
X183000000Y-51400000D03*
%TO.P,D1,2,A*%
%TO.N,Net-(D1-A)*%
X183000000Y-55400000D03*
%TD*%
D25*
%TO.P,R8,1*%
%TO.N,midi_in*%
X187650000Y-124000000D03*
%TO.P,R8,2*%
%TO.N,+3V3*%
X186000000Y-124000000D03*
%TD*%
D26*
%TO.P,C7,1*%
%TO.N,+3V3*%
X183825000Y-124000000D03*
%TO.P,C7,2*%
%TO.N,GND*%
X182275000Y-124000000D03*
%TD*%
D27*
%TO.P,C9,1*%
%TO.N,+3V3*%
X179537500Y-83162500D03*
%TO.P,C9,2*%
%TO.N,GND*%
X177637500Y-83162500D03*
%TD*%
D28*
%TO.P,C8,1*%
%TO.N,+5V*%
X177550000Y-77000000D03*
%TO.P,C8,2*%
%TO.N,GND*%
X179450000Y-77000000D03*
%TD*%
D29*
%TO.P,J2,1,Pin_1*%
%TO.N,/-12V_euro*%
X189999999Y-62249999D03*
D30*
%TO.P,J2,2,Pin_2*%
X189999999Y-59709999D03*
%TO.P,J2,3,Pin_3*%
%TO.N,GND*%
X187459999Y-62249999D03*
%TO.P,J2,4,Pin_4*%
X187459999Y-59709999D03*
%TO.P,J2,5,Pin_5*%
X184919999Y-62249999D03*
%TO.P,J2,6,Pin_6*%
X184919999Y-59709999D03*
%TO.P,J2,7,Pin_7*%
X182379999Y-62249999D03*
%TO.P,J2,8,Pin_8*%
X182379999Y-59709999D03*
%TO.P,J2,9,Pin_9*%
%TO.N,/+12V_euro*%
X179839999Y-62249999D03*
%TO.P,J2,10,Pin_10*%
X179839999Y-59709999D03*
%TD*%
D21*
%TO.P,JP2,1,A*%
%TO.N,DIN5-5*%
X179249999Y-109349999D03*
%TO.P,JP2,2,B*%
%TO.N,Net-(D3-A)*%
X179249999Y-110649999D03*
%TD*%
D31*
%TO.P,C1,1*%
%TO.N,+12V*%
X180000000Y-50875000D03*
%TO.P,C1,2*%
%TO.N,GND*%
X180000000Y-52425000D03*
%TD*%
D29*
%TO.P,J5,1,Pin_1*%
%TO.N,+5V*%
X183859999Y-140824999D03*
D30*
%TO.P,J5,2,Pin_2*%
%TO.N,+3V3*%
X186399999Y-140824999D03*
%TO.P,J5,3,Pin_3*%
%TO.N,+12V*%
X183859999Y-138284999D03*
%TO.P,J5,4,Pin_4*%
%TO.N,-12V*%
X186399999Y-138284999D03*
%TO.P,J5,5,Pin_5*%
%TO.N,GND*%
X183859999Y-135744999D03*
%TO.P,J5,6,Pin_6*%
X186399999Y-135744999D03*
%TO.P,J5,7,Pin_7*%
%TO.N,midi_out*%
X183859999Y-133204999D03*
%TO.P,J5,8,Pin_8*%
%TO.N,GND*%
X186399999Y-133204999D03*
%TO.P,J5,9,Pin_9*%
%TO.N,gate_in*%
X183859999Y-130664999D03*
%TO.P,J5,10,Pin_10*%
%TO.N,midi_in*%
X186399999Y-130664999D03*
%TD*%
D10*
%TO.P,C6,1*%
%TO.N,+5V*%
X189250000Y-76200000D03*
%TO.P,C6,2*%
%TO.N,GND*%
X189250000Y-81800000D03*
%TD*%
D31*
%TO.P,C2,1*%
%TO.N,-12V*%
X190000000Y-50875000D03*
%TO.P,C2,2*%
%TO.N,GND*%
X190000000Y-52425000D03*
%TD*%
D18*
%TO.P,FB1,1*%
%TO.N,/+12V_euro*%
X180000000Y-56212500D03*
%TO.P,FB1,2*%
%TO.N,Net-(D1-A)*%
X180000000Y-54087500D03*
%TD*%
D31*
%TO.P,C5,1*%
%TO.N,+5V*%
X194000000Y-78525000D03*
%TO.P,C5,2*%
%TO.N,GND*%
X194000000Y-80075000D03*
%TD*%
D32*
%TO.P,C3,1*%
%TO.N,+12V*%
X181250000Y-47550000D03*
%TO.P,C3,2*%
%TO.N,GND*%
X181250000Y-41950000D03*
%TD*%
D33*
%TO.P,D2,1,K*%
%TO.N,Net-(D2-K)*%
X187000000Y-55400000D03*
%TO.P,D2,2,A*%
%TO.N,-12V*%
X187000000Y-51400000D03*
%TD*%
D34*
%TO.P,U2,1,NC*%
%TO.N,unconnected-(U2-NC-Pad1)*%
X180749999Y-121309999D03*
%TO.P,U2,2,A*%
%TO.N,Net-(D3-K)*%
X180749999Y-118769999D03*
%TO.P,U2,3,C*%
%TO.N,Net-(D3-A)*%
X180749999Y-116229999D03*
%TO.P,U2,4*%
%TO.N,N/C*%
X180749999Y-113689999D03*
%TO.P,U2,5,GND*%
%TO.N,GND*%
X190279999Y-113689999D03*
%TO.P,U2,6,VO*%
%TO.N,midi_in*%
X190279999Y-116229999D03*
%TO.P,U2,7,EN*%
%TO.N,unconnected-(U2-EN-Pad7)*%
X190279999Y-118769999D03*
%TO.P,U2,8,VCC*%
%TO.N,+3V3*%
X190279999Y-121309999D03*
%TD*%
D19*
%TO.P,R10,1*%
%TO.N,+3V3*%
X192800000Y-121425000D03*
%TO.P,R10,2*%
%TO.N,Net-(D5-A)*%
X192800000Y-123250000D03*
%TD*%
D35*
%TO.N,+12V*%
X191200000Y-57250000D03*
X190500000Y-38500000D03*
X183000000Y-51400000D03*
X194250000Y-57250000D03*
%TO.N,GND*%
X184000000Y-113000000D03*
X188800000Y-126000000D03*
X179000000Y-38250000D03*
X193075000Y-49500000D03*
X190000000Y-86500000D03*
X188800000Y-123600000D03*
X186250000Y-82750000D03*
%TO.N,+3V3*%
X186400000Y-118400000D03*
X185000000Y-124400000D03*
X191250000Y-110000000D03*
X179000000Y-85000000D03*
%TO.N,-12V*%
X186400000Y-127400000D03*
X191200000Y-56000000D03*
X193500000Y-56000000D03*
X187000000Y-51400000D03*
X184750000Y-121000000D03*
%TO.N,+5V*%
X176400000Y-77000000D03*
D36*
X179800000Y-140400000D03*
D35*
X187400000Y-77000000D03*
X179750000Y-131000000D03*
X177600000Y-121400000D03*
X183000000Y-118500000D03*
X179800000Y-129000000D03*
D36*
%TO.N,midi_in*%
X186800000Y-125000000D03*
D35*
%TO.N,Net-(J1-PadT)*%
X184800000Y-77800000D03*
%TD*%
D37*
%TO.N,+12V*%
X186000000Y-38500000D02*
X190500000Y-38500000D01*
X183700000Y-47550000D02*
X185500000Y-45750000D01*
X183000000Y-51400000D02*
X180525000Y-51400000D01*
X180000000Y-48800000D02*
X181250000Y-47550000D01*
X191200000Y-57250000D02*
X194250000Y-57250000D01*
X185500000Y-39000000D02*
X186000000Y-38500000D01*
X181250000Y-47550000D02*
X183700000Y-47550000D01*
X185500000Y-45750000D02*
X185500000Y-39000000D01*
X180525000Y-51400000D02*
X180000000Y-50875000D01*
X180000000Y-50875000D02*
X180000000Y-48800000D01*
D38*
%TO.N,+3V3*%
X193200000Y-111950000D02*
X191250000Y-110000000D01*
X184600000Y-124000000D02*
X185000000Y-124400000D01*
X193200000Y-121025000D02*
X193200000Y-111950000D01*
X179637500Y-79162500D02*
X179637500Y-81062500D01*
X179537500Y-83162500D02*
X179537500Y-84462500D01*
X179537500Y-81162500D02*
X179637500Y-81062500D01*
X190280000Y-121310000D02*
X192685000Y-121310000D01*
X183825000Y-124000000D02*
X184600000Y-124000000D01*
X186000000Y-124000000D02*
X185400000Y-124000000D01*
X186000000Y-124000000D02*
X186000000Y-118800000D01*
X179537500Y-84462500D02*
X179000000Y-85000000D01*
X192800000Y-121425000D02*
X193200000Y-121025000D01*
X185400000Y-124000000D02*
X185000000Y-124400000D01*
X186000000Y-118800000D02*
X186400000Y-118400000D01*
X190395000Y-121425000D02*
X190280000Y-121310000D01*
X191250000Y-110000000D02*
X191500000Y-110000000D01*
X179537500Y-83162500D02*
X179537500Y-81162500D01*
X192825000Y-121425000D02*
X192500000Y-121425000D01*
X192685000Y-121310000D02*
X192800000Y-121425000D01*
X192800000Y-121425000D02*
X192825000Y-121425000D01*
X192349695Y-121425000D02*
X192800000Y-121425000D01*
D37*
%TO.N,-12V*%
X191200000Y-56000000D02*
X193500000Y-56000000D01*
X181600000Y-122800000D02*
X182950000Y-122800000D01*
X186400000Y-127400000D02*
X181800000Y-127400000D01*
X187000000Y-51400000D02*
X189475000Y-51400000D01*
X180200000Y-124200000D02*
X181600000Y-122800000D01*
X181800000Y-127400000D02*
X180200000Y-125800000D01*
X180200000Y-125800000D02*
X180200000Y-124200000D01*
X182950000Y-122800000D02*
X184750000Y-121000000D01*
X190000000Y-50875000D02*
X190000000Y-48050000D01*
D38*
X190000000Y-48050000D02*
X189500000Y-47550000D01*
D37*
X189475000Y-51400000D02*
X190000000Y-50875000D01*
D38*
%TO.N,+5V*%
X183000000Y-119500000D02*
X183000000Y-118500000D01*
X178940000Y-119985000D02*
X182515000Y-119985000D01*
X189250000Y-76200000D02*
X191675000Y-76200000D01*
X179800000Y-129000000D02*
X179750000Y-129050000D01*
X179750000Y-129050000D02*
X179750000Y-131000000D01*
X176400000Y-77000000D02*
X176400000Y-78200000D01*
X176400000Y-78200000D02*
X177362500Y-79162500D01*
X179800000Y-140400000D02*
X180225000Y-140825000D01*
X182515000Y-119985000D02*
X183000000Y-119500000D01*
X178500000Y-80309251D02*
X177746751Y-81062500D01*
X178500000Y-79915749D02*
X178500000Y-80309251D01*
X177746751Y-79162500D02*
X178500000Y-79915749D01*
X176400000Y-77000000D02*
X177550000Y-77000000D01*
X177362500Y-79162500D02*
X177746751Y-79162500D01*
X180225000Y-140825000D02*
X183860000Y-140825000D01*
X188200000Y-76200000D02*
X189250000Y-76200000D01*
X191675000Y-76200000D02*
X194000000Y-78525000D01*
X177500000Y-121425000D02*
X178940000Y-119985000D01*
X187400000Y-77000000D02*
X188200000Y-76200000D01*
X177746751Y-81062500D02*
X177362500Y-81062500D01*
D37*
%TO.N,Net-(D1-A)*%
X180000000Y-54087500D02*
X181312500Y-55400000D01*
X181312500Y-55400000D02*
X183000000Y-55400000D01*
%TO.N,Net-(D2-K)*%
X188687500Y-55400000D02*
X187000000Y-55400000D01*
X190000000Y-54087500D02*
X188687500Y-55400000D01*
D38*
%TO.N,Net-(D3-K)*%
X178000000Y-118900000D02*
X178130000Y-118770000D01*
X178130000Y-118770000D02*
X180750000Y-118770000D01*
X177175000Y-118075000D02*
X178000000Y-118900000D01*
X176000000Y-118075000D02*
X177175000Y-118075000D01*
%TO.N,Net-(D3-A)*%
X178000000Y-115600000D02*
X178630000Y-116230000D01*
X178250000Y-112000000D02*
X178250000Y-115350000D01*
X179250000Y-111000000D02*
X178250000Y-112000000D01*
X178630000Y-116230000D02*
X180750000Y-116230000D01*
X179250000Y-110650000D02*
X179250000Y-111000000D01*
X178250000Y-115350000D02*
X178000000Y-115600000D01*
D37*
%TO.N,/+12V_euro*%
X179840000Y-59710000D02*
X179840000Y-62250000D01*
D38*
X179840000Y-56372500D02*
X180000000Y-56212500D01*
D37*
X179840000Y-59710000D02*
X179840000Y-56372500D01*
%TO.N,/-12V_euro*%
X190000000Y-59710000D02*
X190000000Y-62250000D01*
X190000000Y-59710000D02*
X190000000Y-56212500D01*
D38*
%TO.N,Net-(JP1-B)*%
X176000000Y-111000000D02*
X176350000Y-110650000D01*
X176000000Y-116425000D02*
X176000000Y-111000000D01*
%TO.N,DIN5-4*%
X176350000Y-109350000D02*
X176350000Y-108150000D01*
X187500000Y-105000000D02*
X188890000Y-106390000D01*
X179500000Y-105000000D02*
X187500000Y-105000000D01*
X176350000Y-108150000D02*
X179500000Y-105000000D01*
%TO.N,DIN5-5*%
X179250000Y-108250000D02*
X181110000Y-106390000D01*
X179250000Y-109350000D02*
X179250000Y-108250000D01*
%TO.N,midi_in*%
X187400000Y-125000000D02*
X187650000Y-124750000D01*
X187650000Y-124000000D02*
X187650000Y-122100000D01*
X188500000Y-117000000D02*
X189270000Y-116230000D01*
X189270000Y-116230000D02*
X190280000Y-116230000D01*
X186800000Y-125000000D02*
X187400000Y-125000000D01*
X187650000Y-124750000D02*
X187650000Y-124000000D01*
X187650000Y-122100000D02*
X188500000Y-121250000D01*
X188500000Y-121250000D02*
X188500000Y-117000000D01*
%TO.N,Net-(J1-PadT)*%
X185000000Y-77600000D02*
X184800000Y-77800000D01*
X185000000Y-74800000D02*
X185000000Y-77600000D01*
%TO.N,Net-(D4-A)*%
X177500000Y-123250000D02*
X177500000Y-125297500D01*
%TO.N,Net-(D5-A)*%
X192500000Y-123250000D02*
X192500000Y-125297500D01*
%TD*%
%TA.AperFunction,Conductor*%
%TO.N,GND*%
G36*
X194937500Y-36017113D02*
G01*
X194982887Y-36062500D01*
X194999500Y-36124500D01*
X194999500Y-56438101D01*
X194981227Y-56502891D01*
X194931795Y-56548586D01*
X194865771Y-56561719D01*
X194802615Y-56538419D01*
X194707988Y-56469669D01*
X194707987Y-56469668D01*
X194702730Y-56465849D01*
X194674188Y-56453141D01*
X194535745Y-56391501D01*
X194535740Y-56391499D01*
X194529803Y-56388856D01*
X194523444Y-56387504D01*
X194523440Y-56387503D01*
X194468723Y-56375873D01*
X194408366Y-56343780D01*
X194374187Y-56284580D01*
X194376574Y-56216262D01*
X194385674Y-56188256D01*
X194405460Y-56000000D01*
X194385674Y-55811744D01*
X194327179Y-55631716D01*
X194232533Y-55467784D01*
X194199258Y-55430829D01*
X194110220Y-55331942D01*
X194110219Y-55331941D01*
X194105871Y-55327112D01*
X194100613Y-55323292D01*
X194100611Y-55323290D01*
X193957988Y-55219669D01*
X193957987Y-55219668D01*
X193952730Y-55215849D01*
X193946792Y-55213205D01*
X193785745Y-55141501D01*
X193785740Y-55141499D01*
X193779803Y-55138856D01*
X193773444Y-55137504D01*
X193773440Y-55137503D01*
X193601008Y-55100852D01*
X193601005Y-55100851D01*
X193594646Y-55099500D01*
X193405354Y-55099500D01*
X193398995Y-55100851D01*
X193398991Y-55100852D01*
X193226557Y-55137503D01*
X193226546Y-55137506D01*
X193220197Y-55138856D01*
X193214261Y-55141498D01*
X193208312Y-55143432D01*
X193169996Y-55149500D01*
X191530004Y-55149500D01*
X191491688Y-55143432D01*
X191485739Y-55141498D01*
X191479803Y-55138856D01*
X191473450Y-55137505D01*
X191473442Y-55137503D01*
X191301008Y-55100852D01*
X191301005Y-55100851D01*
X191294646Y-55099500D01*
X191105354Y-55099500D01*
X191098995Y-55100851D01*
X191098991Y-55100852D01*
X190926559Y-55137503D01*
X190926552Y-55137505D01*
X190920197Y-55138856D01*
X190914262Y-55141498D01*
X190914254Y-55141501D01*
X190753208Y-55213205D01*
X190747270Y-55215849D01*
X190742017Y-55219664D01*
X190742009Y-55219670D01*
X190665016Y-55275608D01*
X190611173Y-55297818D01*
X190553128Y-55292995D01*
X190534113Y-55286694D01*
X190534112Y-55286693D01*
X190527685Y-55284564D01*
X190520952Y-55283876D01*
X190520947Y-55283875D01*
X190432305Y-55274819D01*
X190432288Y-55274818D01*
X190429174Y-55274500D01*
X190426025Y-55274500D01*
X190315151Y-55274500D01*
X190258856Y-55260985D01*
X190214833Y-55223385D01*
X190192678Y-55169898D01*
X190197220Y-55112182D01*
X190227470Y-55062819D01*
X190228470Y-55061819D01*
X190268698Y-55034939D01*
X190316151Y-55025500D01*
X190426025Y-55025500D01*
X190429174Y-55025500D01*
X190527685Y-55015436D01*
X190687287Y-54962549D01*
X190830391Y-54874281D01*
X190949281Y-54755391D01*
X191037549Y-54612287D01*
X191090436Y-54452685D01*
X191100500Y-54354174D01*
X191100500Y-53820826D01*
X191090436Y-53722315D01*
X191037549Y-53562713D01*
X190949281Y-53419609D01*
X190830391Y-53300719D01*
X190824251Y-53296931D01*
X190824159Y-53296859D01*
X190784142Y-53240868D01*
X190780144Y-53172164D01*
X190813396Y-53111909D01*
X190817466Y-53107838D01*
X190826364Y-53096584D01*
X190907753Y-52964633D01*
X190913819Y-52951625D01*
X190962727Y-52804030D01*
X190965543Y-52790874D01*
X190974680Y-52701444D01*
X190975000Y-52695168D01*
X190975000Y-52691326D01*
X190971549Y-52678450D01*
X190958674Y-52675000D01*
X189041327Y-52675000D01*
X189028451Y-52678450D01*
X189025001Y-52691326D01*
X189025001Y-52695165D01*
X189025321Y-52701447D01*
X189034455Y-52790867D01*
X189037274Y-52804036D01*
X189086180Y-52951625D01*
X189092246Y-52964633D01*
X189173632Y-53096580D01*
X189182537Y-53107842D01*
X189186609Y-53111914D01*
X189219857Y-53172168D01*
X189215857Y-53240870D01*
X189175841Y-53296859D01*
X189175748Y-53296931D01*
X189169609Y-53300719D01*
X189164508Y-53305819D01*
X189164504Y-53305823D01*
X189055829Y-53414498D01*
X189055825Y-53414502D01*
X189050719Y-53419609D01*
X189046928Y-53425754D01*
X189046924Y-53425760D01*
X188966243Y-53556564D01*
X188966240Y-53556569D01*
X188962451Y-53562713D01*
X188960180Y-53569564D01*
X188960179Y-53569568D01*
X188929507Y-53662130D01*
X188909564Y-53722315D01*
X188908876Y-53729045D01*
X188908875Y-53729052D01*
X188899819Y-53817694D01*
X188899818Y-53817712D01*
X188899500Y-53820826D01*
X188899500Y-53823975D01*
X188899500Y-53933850D01*
X188890061Y-53981303D01*
X188863183Y-54021528D01*
X188665219Y-54219491D01*
X188593754Y-54290957D01*
X188539905Y-54322570D01*
X188477477Y-54323933D01*
X188422300Y-54294697D01*
X188388367Y-54242279D01*
X188387868Y-54240774D01*
X188334814Y-54080666D01*
X188242712Y-53931344D01*
X188118656Y-53807288D01*
X188112515Y-53803500D01*
X188112511Y-53803497D01*
X187975480Y-53718977D01*
X187969334Y-53715186D01*
X187802797Y-53660001D01*
X187796064Y-53659313D01*
X187796059Y-53659312D01*
X187703140Y-53649819D01*
X187703123Y-53649818D01*
X187700009Y-53649500D01*
X187696860Y-53649500D01*
X186303140Y-53649500D01*
X186303120Y-53649500D01*
X186299992Y-53649501D01*
X186296860Y-53649820D01*
X186296858Y-53649821D01*
X186203938Y-53659312D01*
X186203928Y-53659313D01*
X186197203Y-53660001D01*
X186190781Y-53662128D01*
X186190776Y-53662130D01*
X186037521Y-53712914D01*
X186037517Y-53712915D01*
X186030666Y-53715186D01*
X186024522Y-53718975D01*
X186024519Y-53718977D01*
X185887488Y-53803497D01*
X185887480Y-53803503D01*
X185881344Y-53807288D01*
X185876242Y-53812389D01*
X185876238Y-53812393D01*
X185762393Y-53926238D01*
X185762389Y-53926242D01*
X185757288Y-53931344D01*
X185753503Y-53937480D01*
X185753497Y-53937488D01*
X185668977Y-54074519D01*
X185665186Y-54080666D01*
X185662915Y-54087517D01*
X185662915Y-54087520D01*
X185610001Y-54247203D01*
X185609313Y-54253933D01*
X185609312Y-54253940D01*
X185599819Y-54346859D01*
X185599818Y-54346877D01*
X185599500Y-54349991D01*
X185599500Y-54353138D01*
X185599500Y-54353139D01*
X185599500Y-56446859D01*
X185599500Y-56446878D01*
X185599501Y-56450008D01*
X185599820Y-56453140D01*
X185599821Y-56453141D01*
X185609312Y-56546061D01*
X185609313Y-56546069D01*
X185610001Y-56552797D01*
X185665186Y-56719334D01*
X185668977Y-56725480D01*
X185753497Y-56862511D01*
X185753500Y-56862515D01*
X185757288Y-56868656D01*
X185881344Y-56992712D01*
X185887485Y-56996500D01*
X185887488Y-56996502D01*
X185891994Y-56999281D01*
X186030666Y-57084814D01*
X186197203Y-57139999D01*
X186299991Y-57150500D01*
X187700008Y-57150499D01*
X187802797Y-57139999D01*
X187969334Y-57084814D01*
X188118656Y-56992712D01*
X188242712Y-56868656D01*
X188334814Y-56719334D01*
X188389999Y-56552797D01*
X188400500Y-56450009D01*
X188400500Y-56374500D01*
X188417113Y-56312500D01*
X188462500Y-56267113D01*
X188524500Y-56250500D01*
X188647894Y-56250500D01*
X188657957Y-56250908D01*
X188710667Y-56255201D01*
X188758759Y-56248648D01*
X188827565Y-56258973D01*
X188879980Y-56304730D01*
X188899500Y-56371513D01*
X188899500Y-56479174D01*
X188899818Y-56482288D01*
X188899819Y-56482305D01*
X188908875Y-56570947D01*
X188908876Y-56570952D01*
X188909564Y-56577685D01*
X188911693Y-56584112D01*
X188911694Y-56584113D01*
X188958538Y-56725480D01*
X188962451Y-56737287D01*
X188966242Y-56743433D01*
X188966243Y-56743435D01*
X189046629Y-56873761D01*
X189050719Y-56880391D01*
X189055828Y-56885500D01*
X189055829Y-56885501D01*
X189113181Y-56942853D01*
X189140061Y-56983081D01*
X189149500Y-57030534D01*
X189149500Y-58599242D01*
X189140061Y-58646695D01*
X189113181Y-58686923D01*
X188965334Y-58834769D01*
X188965328Y-58834775D01*
X188961505Y-58838599D01*
X188958403Y-58843028D01*
X188958403Y-58843029D01*
X188831269Y-59024596D01*
X188786951Y-59063461D01*
X188729694Y-59077472D01*
X188672437Y-59063461D01*
X188628119Y-59024595D01*
X188501215Y-58843357D01*
X188494280Y-58835092D01*
X188334909Y-58675721D01*
X188326643Y-58668784D01*
X188142008Y-58539501D01*
X188132676Y-58534113D01*
X187928397Y-58438856D01*
X187918263Y-58435168D01*
X187723780Y-58383056D01*
X187712551Y-58382688D01*
X187710000Y-58393631D01*
X187710000Y-63566369D01*
X187712551Y-63577311D01*
X187723780Y-63576943D01*
X187918263Y-63524831D01*
X187928397Y-63521143D01*
X188132676Y-63425886D01*
X188142008Y-63420498D01*
X188326643Y-63291215D01*
X188334902Y-63284284D01*
X188453133Y-63166053D01*
X188505880Y-63134757D01*
X188567173Y-63132568D01*
X188622018Y-63160021D01*
X188656997Y-63210401D01*
X188706204Y-63342331D01*
X188711518Y-63349430D01*
X188711519Y-63349431D01*
X188767367Y-63424035D01*
X188792454Y-63457546D01*
X188907669Y-63543796D01*
X189042517Y-63594091D01*
X189102127Y-63600500D01*
X190897872Y-63600499D01*
X190957483Y-63594091D01*
X191092331Y-63543796D01*
X191207546Y-63457546D01*
X191293796Y-63342331D01*
X191344091Y-63207483D01*
X191350500Y-63147873D01*
X191350499Y-61352128D01*
X191344091Y-61292517D01*
X191293796Y-61157669D01*
X191207546Y-61042454D01*
X191092331Y-60956204D01*
X191022359Y-60930106D01*
X190960916Y-60907189D01*
X190910537Y-60872210D01*
X190883084Y-60817365D01*
X190885273Y-60756072D01*
X190916566Y-60703329D01*
X191038495Y-60581401D01*
X191174035Y-60387830D01*
X191273903Y-60173663D01*
X191335063Y-59945408D01*
X191355659Y-59710000D01*
X191335063Y-59474592D01*
X191273903Y-59246337D01*
X191174035Y-59032171D01*
X191038495Y-58838599D01*
X190886819Y-58686922D01*
X190859939Y-58646695D01*
X190850500Y-58599242D01*
X190850500Y-58249456D01*
X190862579Y-58196073D01*
X190896464Y-58153090D01*
X190945553Y-58128882D01*
X191000279Y-58128166D01*
X191105354Y-58150500D01*
X191288143Y-58150500D01*
X191294646Y-58150500D01*
X191479803Y-58111144D01*
X191485741Y-58108499D01*
X191491688Y-58106568D01*
X191530004Y-58100500D01*
X193919996Y-58100500D01*
X193958312Y-58106568D01*
X193964258Y-58108500D01*
X193970197Y-58111144D01*
X193976555Y-58112495D01*
X193976557Y-58112496D01*
X194015861Y-58120850D01*
X194155354Y-58150500D01*
X194338143Y-58150500D01*
X194344646Y-58150500D01*
X194529803Y-58111144D01*
X194702730Y-58034151D01*
X194772074Y-57983769D01*
X194802615Y-57961581D01*
X194865771Y-57938281D01*
X194931795Y-57951414D01*
X194981227Y-57997109D01*
X194999500Y-58061899D01*
X194999500Y-77724126D01*
X194985985Y-77780421D01*
X194948385Y-77824444D01*
X194894898Y-77846599D01*
X194837182Y-77842057D01*
X194787819Y-77811807D01*
X194708154Y-77732142D01*
X194708154Y-77732141D01*
X194703044Y-77727032D01*
X194696894Y-77723238D01*
X194696892Y-77723237D01*
X194564845Y-77641789D01*
X194564843Y-77641788D01*
X194558697Y-77637997D01*
X194551842Y-77635725D01*
X194551841Y-77635725D01*
X194404136Y-77586781D01*
X194404135Y-77586780D01*
X194397708Y-77584651D01*
X194390975Y-77583963D01*
X194390970Y-77583962D01*
X194301476Y-77574819D01*
X194301459Y-77574818D01*
X194298345Y-77574500D01*
X194295196Y-77574500D01*
X193985452Y-77574500D01*
X193937999Y-77565061D01*
X193897771Y-77538181D01*
X192172286Y-75812695D01*
X192164842Y-75804514D01*
X192160786Y-75798123D01*
X192111775Y-75752098D01*
X192108978Y-75749387D01*
X192092227Y-75732636D01*
X192089471Y-75729880D01*
X192086290Y-75727412D01*
X192077414Y-75719830D01*
X192051269Y-75695278D01*
X192051267Y-75695276D01*
X192045582Y-75689938D01*
X192038749Y-75686182D01*
X192038743Y-75686177D01*
X192028025Y-75680285D01*
X192011766Y-75669606D01*
X192002095Y-75662104D01*
X192002092Y-75662102D01*
X191995936Y-75657327D01*
X191988779Y-75654229D01*
X191988776Y-75654228D01*
X191955849Y-75639978D01*
X191945363Y-75634841D01*
X191913932Y-75617562D01*
X191913923Y-75617558D01*
X191907092Y-75613803D01*
X191899535Y-75611862D01*
X191899531Y-75611861D01*
X191887688Y-75608820D01*
X191869284Y-75602519D01*
X191858057Y-75597660D01*
X191858050Y-75597658D01*
X191850896Y-75594562D01*
X191843192Y-75593341D01*
X191843190Y-75593341D01*
X191807759Y-75587729D01*
X191796324Y-75585361D01*
X191761571Y-75576438D01*
X191761563Y-75576437D01*
X191754019Y-75574500D01*
X191746223Y-75574500D01*
X191733983Y-75574500D01*
X191714597Y-75572974D01*
X191694804Y-75569840D01*
X191687038Y-75570574D01*
X191687035Y-75570574D01*
X191651324Y-75573950D01*
X191639655Y-75574500D01*
X190674499Y-75574500D01*
X190612499Y-75557887D01*
X190567112Y-75512500D01*
X190550499Y-75450500D01*
X190550499Y-74653141D01*
X190550499Y-74653140D01*
X190550499Y-74649992D01*
X190539999Y-74547203D01*
X190484814Y-74380666D01*
X190392712Y-74231344D01*
X190268656Y-74107288D01*
X190262515Y-74103500D01*
X190262511Y-74103497D01*
X190125480Y-74018977D01*
X190119334Y-74015186D01*
X190002560Y-73976491D01*
X189959225Y-73962131D01*
X189959224Y-73962130D01*
X189952797Y-73960001D01*
X189946064Y-73959313D01*
X189946059Y-73959312D01*
X189853140Y-73949819D01*
X189853123Y-73949818D01*
X189850009Y-73949500D01*
X189846860Y-73949500D01*
X188653140Y-73949500D01*
X188653120Y-73949500D01*
X188649992Y-73949501D01*
X188646860Y-73949820D01*
X188646858Y-73949821D01*
X188553938Y-73959312D01*
X188553928Y-73959313D01*
X188547203Y-73960001D01*
X188540781Y-73962128D01*
X188540776Y-73962130D01*
X188387521Y-74012914D01*
X188387517Y-74012915D01*
X188380666Y-74015186D01*
X188374522Y-74018975D01*
X188374519Y-74018977D01*
X188237488Y-74103497D01*
X188237480Y-74103503D01*
X188231344Y-74107288D01*
X188226242Y-74112389D01*
X188226238Y-74112393D01*
X188112393Y-74226238D01*
X188112389Y-74226242D01*
X188107288Y-74231344D01*
X188103503Y-74237480D01*
X188103497Y-74237488D01*
X188018977Y-74374519D01*
X188015186Y-74380666D01*
X188012915Y-74387517D01*
X188012914Y-74387521D01*
X187962131Y-74540774D01*
X187960001Y-74547203D01*
X187959313Y-74553933D01*
X187959312Y-74553940D01*
X187949819Y-74646859D01*
X187949818Y-74646877D01*
X187949500Y-74649991D01*
X187949500Y-74653140D01*
X187949500Y-75546032D01*
X187932229Y-75609159D01*
X187894768Y-75645454D01*
X187896266Y-75647515D01*
X187860932Y-75673185D01*
X187851174Y-75679595D01*
X187820296Y-75697857D01*
X187820290Y-75697861D01*
X187813580Y-75701830D01*
X187808067Y-75707341D01*
X187808060Y-75707348D01*
X187799410Y-75715998D01*
X187784627Y-75728624D01*
X187774726Y-75735817D01*
X187774716Y-75735826D01*
X187768413Y-75740406D01*
X187763444Y-75746411D01*
X187763441Y-75746415D01*
X187740572Y-75774059D01*
X187732711Y-75782697D01*
X187452226Y-76063183D01*
X187412001Y-76090061D01*
X187364548Y-76099500D01*
X187305354Y-76099500D01*
X187298995Y-76100851D01*
X187298991Y-76100852D01*
X187126559Y-76137503D01*
X187126552Y-76137505D01*
X187120197Y-76138856D01*
X187114256Y-76141500D01*
X187108080Y-76143508D01*
X187107622Y-76142100D01*
X187047006Y-76150468D01*
X186984244Y-76121980D01*
X186946388Y-76064381D01*
X186945136Y-75995467D01*
X186980873Y-75936531D01*
X187107738Y-75819744D01*
X187260474Y-75623509D01*
X187378828Y-75404810D01*
X187459571Y-75169614D01*
X187500500Y-74924335D01*
X187500500Y-74675665D01*
X187459571Y-74430386D01*
X187378828Y-74195190D01*
X187260474Y-73976491D01*
X187107738Y-73780256D01*
X187103970Y-73776787D01*
X187103967Y-73776784D01*
X186928560Y-73615311D01*
X186928559Y-73615310D01*
X186924785Y-73611836D01*
X186916885Y-73606675D01*
X186720900Y-73478631D01*
X186720893Y-73478627D01*
X186716607Y-73475827D01*
X186711916Y-73473769D01*
X186711910Y-73473766D01*
X186493577Y-73377997D01*
X186493578Y-73377997D01*
X186488881Y-73375937D01*
X186483911Y-73374678D01*
X186483910Y-73374678D01*
X186252795Y-73316151D01*
X186252788Y-73316149D01*
X186247821Y-73314892D01*
X186242709Y-73314468D01*
X186242701Y-73314467D01*
X186064633Y-73299712D01*
X186064617Y-73299711D01*
X186062067Y-73299500D01*
X183937933Y-73299500D01*
X183935383Y-73299711D01*
X183935366Y-73299712D01*
X183757298Y-73314467D01*
X183757288Y-73314468D01*
X183752179Y-73314892D01*
X183747213Y-73316149D01*
X183747204Y-73316151D01*
X183516089Y-73374678D01*
X183516084Y-73374679D01*
X183511119Y-73375937D01*
X183506425Y-73377995D01*
X183506422Y-73377997D01*
X183288089Y-73473766D01*
X183288077Y-73473772D01*
X183283393Y-73475827D01*
X183279111Y-73478624D01*
X183279099Y-73478631D01*
X183079512Y-73609028D01*
X183079506Y-73609031D01*
X183075215Y-73611836D01*
X183071446Y-73615305D01*
X183071439Y-73615311D01*
X182896032Y-73776784D01*
X182896023Y-73776793D01*
X182892262Y-73780256D01*
X182889113Y-73784301D01*
X182889111Y-73784304D01*
X182742678Y-73972440D01*
X182742672Y-73972448D01*
X182739526Y-73976491D01*
X182737088Y-73980995D01*
X182737084Y-73981002D01*
X182623610Y-74190683D01*
X182623605Y-74190693D01*
X182621172Y-74195190D01*
X182619511Y-74200026D01*
X182619507Y-74200037D01*
X182542094Y-74425534D01*
X182542092Y-74425541D01*
X182540429Y-74430386D01*
X182539585Y-74435441D01*
X182539585Y-74435443D01*
X182500344Y-74670601D01*
X182500343Y-74670613D01*
X182499500Y-74675665D01*
X182499500Y-74924335D01*
X182500343Y-74929387D01*
X182500344Y-74929398D01*
X182538952Y-75160768D01*
X182540429Y-75169614D01*
X182542093Y-75174461D01*
X182542094Y-75174465D01*
X182619507Y-75399962D01*
X182619510Y-75399969D01*
X182621172Y-75404810D01*
X182623607Y-75409310D01*
X182623610Y-75409316D01*
X182737084Y-75618997D01*
X182739526Y-75623509D01*
X182742676Y-75627557D01*
X182742678Y-75627559D01*
X182791230Y-75689938D01*
X182892262Y-75819744D01*
X182896029Y-75823211D01*
X182896032Y-75823215D01*
X183071439Y-75984688D01*
X183075215Y-75988164D01*
X183171750Y-76051233D01*
X183279099Y-76121368D01*
X183279102Y-76121369D01*
X183283393Y-76124173D01*
X183511119Y-76224063D01*
X183752179Y-76285108D01*
X183937933Y-76300500D01*
X184250500Y-76300500D01*
X184312500Y-76317113D01*
X184357887Y-76362500D01*
X184374500Y-76424500D01*
X184374500Y-76932884D01*
X184360985Y-76989179D01*
X184323385Y-77033202D01*
X184199388Y-77123290D01*
X184199381Y-77123295D01*
X184194129Y-77127112D01*
X184189784Y-77131937D01*
X184189779Y-77131942D01*
X184071813Y-77262956D01*
X184071808Y-77262962D01*
X184067467Y-77267784D01*
X184064222Y-77273404D01*
X184064218Y-77273410D01*
X183976069Y-77426089D01*
X183976066Y-77426094D01*
X183972821Y-77431716D01*
X183970815Y-77437888D01*
X183970813Y-77437894D01*
X183916333Y-77605564D01*
X183916331Y-77605573D01*
X183914326Y-77611744D01*
X183913648Y-77618194D01*
X183913646Y-77618204D01*
X183905188Y-77698687D01*
X183894540Y-77800000D01*
X183895219Y-77806460D01*
X183913646Y-77981795D01*
X183913647Y-77981803D01*
X183914326Y-77988256D01*
X183916331Y-77994428D01*
X183916333Y-77994435D01*
X183970806Y-78162084D01*
X183972821Y-78168284D01*
X183976068Y-78173908D01*
X183976069Y-78173910D01*
X184059179Y-78317862D01*
X184067467Y-78332216D01*
X184071811Y-78337041D01*
X184071813Y-78337043D01*
X184173970Y-78450499D01*
X184194129Y-78472888D01*
X184199387Y-78476708D01*
X184199388Y-78476709D01*
X184223764Y-78494419D01*
X184347270Y-78584151D01*
X184520197Y-78661144D01*
X184705354Y-78700500D01*
X184888143Y-78700500D01*
X184894646Y-78700500D01*
X185079803Y-78661144D01*
X185252730Y-78584151D01*
X185405871Y-78472888D01*
X185532533Y-78332216D01*
X185627179Y-78168284D01*
X185685674Y-77988256D01*
X185705460Y-77800000D01*
X185685674Y-77611744D01*
X185631568Y-77445226D01*
X185625500Y-77406909D01*
X185625500Y-76424500D01*
X185642113Y-76362500D01*
X185687500Y-76317113D01*
X185749500Y-76300500D01*
X186059497Y-76300500D01*
X186062067Y-76300500D01*
X186247821Y-76285108D01*
X186488881Y-76224063D01*
X186619650Y-76166702D01*
X186685539Y-76157306D01*
X186746799Y-76183336D01*
X186785774Y-76237292D01*
X186791234Y-76303628D01*
X186761606Y-76363231D01*
X186671814Y-76462955D01*
X186671809Y-76462961D01*
X186667467Y-76467784D01*
X186664222Y-76473404D01*
X186664218Y-76473410D01*
X186576069Y-76626089D01*
X186576066Y-76626094D01*
X186572821Y-76631716D01*
X186570815Y-76637888D01*
X186570813Y-76637894D01*
X186516333Y-76805564D01*
X186516331Y-76805573D01*
X186514326Y-76811744D01*
X186513648Y-76818194D01*
X186513646Y-76818204D01*
X186495962Y-76986464D01*
X186494540Y-77000000D01*
X186495219Y-77006460D01*
X186513646Y-77181795D01*
X186513647Y-77181803D01*
X186514326Y-77188256D01*
X186516331Y-77194428D01*
X186516333Y-77194435D01*
X186540166Y-77267784D01*
X186572821Y-77368284D01*
X186576068Y-77373908D01*
X186576069Y-77373910D01*
X186606194Y-77426089D01*
X186667467Y-77532216D01*
X186671811Y-77537041D01*
X186671813Y-77537043D01*
X186760667Y-77635725D01*
X186794129Y-77672888D01*
X186947270Y-77784151D01*
X187120197Y-77861144D01*
X187305354Y-77900500D01*
X187488143Y-77900500D01*
X187494646Y-77900500D01*
X187679803Y-77861144D01*
X187801313Y-77807043D01*
X187868764Y-77797496D01*
X187931082Y-77825024D01*
X187969452Y-77881319D01*
X188015186Y-78019334D01*
X188018977Y-78025480D01*
X188103497Y-78162511D01*
X188103500Y-78162515D01*
X188107288Y-78168656D01*
X188231344Y-78292712D01*
X188237485Y-78296500D01*
X188237488Y-78296502D01*
X188270121Y-78316630D01*
X188380666Y-78384814D01*
X188547203Y-78439999D01*
X188649991Y-78450500D01*
X189850008Y-78450499D01*
X189952797Y-78439999D01*
X190119334Y-78384814D01*
X190268656Y-78292712D01*
X190392712Y-78168656D01*
X190484814Y-78019334D01*
X190539999Y-77852797D01*
X190550500Y-77750009D01*
X190550500Y-76949500D01*
X190567113Y-76887500D01*
X190612500Y-76842113D01*
X190674500Y-76825500D01*
X191364548Y-76825500D01*
X191412001Y-76834939D01*
X191452229Y-76861819D01*
X192988181Y-78397771D01*
X193015061Y-78437999D01*
X193024500Y-78485452D01*
X193024500Y-78795194D01*
X193024500Y-78795213D01*
X193024501Y-78798344D01*
X193024820Y-78801476D01*
X193024821Y-78801477D01*
X193033962Y-78890972D01*
X193033963Y-78890980D01*
X193034651Y-78897708D01*
X193036779Y-78904131D01*
X193036780Y-78904134D01*
X193085725Y-79051841D01*
X193087997Y-79058697D01*
X193177032Y-79203044D01*
X193182142Y-79208154D01*
X193186659Y-79212671D01*
X193218752Y-79268254D01*
X193218755Y-79332437D01*
X193186669Y-79388024D01*
X193182536Y-79392157D01*
X193173634Y-79403416D01*
X193092246Y-79535366D01*
X193086180Y-79548374D01*
X193037272Y-79695969D01*
X193034456Y-79709125D01*
X193025319Y-79798555D01*
X193025000Y-79804832D01*
X193025000Y-79808674D01*
X193028450Y-79821549D01*
X193041326Y-79825000D01*
X194126000Y-79825000D01*
X194188000Y-79841613D01*
X194233387Y-79887000D01*
X194250000Y-79949000D01*
X194250000Y-81008673D01*
X194253450Y-81021548D01*
X194266326Y-81024999D01*
X194295165Y-81024999D01*
X194301447Y-81024678D01*
X194390867Y-81015544D01*
X194404036Y-81012725D01*
X194551625Y-80963819D01*
X194564633Y-80957753D01*
X194696580Y-80876367D01*
X194707842Y-80867462D01*
X194787819Y-80787486D01*
X194837182Y-80757236D01*
X194894898Y-80752694D01*
X194948385Y-80774849D01*
X194985985Y-80818872D01*
X194999500Y-80875167D01*
X194999500Y-143875500D01*
X194982887Y-143937500D01*
X194937500Y-143982887D01*
X194875500Y-143999500D01*
X175124500Y-143999500D01*
X175062500Y-143982887D01*
X175017113Y-143937500D01*
X175000500Y-143875500D01*
X175000500Y-140400000D01*
X179044751Y-140400000D01*
X179045531Y-140406923D01*
X179062906Y-140561135D01*
X179062907Y-140561142D01*
X179063687Y-140568059D01*
X179065986Y-140574630D01*
X179065987Y-140574633D01*
X179073107Y-140594982D01*
X179119544Y-140727690D01*
X179209523Y-140870890D01*
X179329110Y-140990477D01*
X179472310Y-141080456D01*
X179631940Y-141136312D01*
X179631941Y-141136313D01*
X179631200Y-141138427D01*
X179681798Y-141166388D01*
X179727707Y-141212297D01*
X179735156Y-141220483D01*
X179739214Y-141226877D01*
X179744899Y-141232215D01*
X179744901Y-141232218D01*
X179788239Y-141272915D01*
X179791035Y-141275625D01*
X179810530Y-141295120D01*
X179813615Y-141297513D01*
X179813701Y-141297580D01*
X179822573Y-141305158D01*
X179854418Y-141335062D01*
X179861248Y-141338817D01*
X179861251Y-141338819D01*
X179871971Y-141344712D01*
X179888222Y-141355386D01*
X179904064Y-141367674D01*
X179911221Y-141370771D01*
X179911223Y-141370772D01*
X179944155Y-141385022D01*
X179954650Y-141390164D01*
X179992908Y-141411197D01*
X180012312Y-141416179D01*
X180030714Y-141422480D01*
X180041941Y-141427338D01*
X180049105Y-141430438D01*
X180086697Y-141436391D01*
X180092239Y-141437269D01*
X180103682Y-141439639D01*
X180138425Y-141448560D01*
X180138426Y-141448560D01*
X180145981Y-141450500D01*
X180166017Y-141450500D01*
X180185402Y-141452025D01*
X180205196Y-141455160D01*
X180243276Y-141451560D01*
X180248676Y-141451050D01*
X180260345Y-141450500D01*
X182385501Y-141450500D01*
X182447501Y-141467113D01*
X182492888Y-141512500D01*
X182509501Y-141574500D01*
X182509501Y-141722872D01*
X182509853Y-141726150D01*
X182509854Y-141726161D01*
X182515079Y-141774768D01*
X182515080Y-141774773D01*
X182515909Y-141782483D01*
X182518619Y-141789749D01*
X182518620Y-141789753D01*
X182544695Y-141859663D01*
X182566204Y-141917331D01*
X182571518Y-141924430D01*
X182571519Y-141924431D01*
X182627367Y-141999035D01*
X182652454Y-142032546D01*
X182767669Y-142118796D01*
X182902517Y-142169091D01*
X182962127Y-142175500D01*
X184757872Y-142175499D01*
X184817483Y-142169091D01*
X184952331Y-142118796D01*
X185067546Y-142032546D01*
X185153796Y-141917331D01*
X185202810Y-141785916D01*
X185237789Y-141735537D01*
X185292634Y-141708084D01*
X185353927Y-141710273D01*
X185406673Y-141741569D01*
X185528599Y-141863495D01*
X185533031Y-141866598D01*
X185533033Y-141866600D01*
X185677260Y-141967589D01*
X185722170Y-141999035D01*
X185936337Y-142098903D01*
X186164592Y-142160063D01*
X186400000Y-142180659D01*
X186635408Y-142160063D01*
X186863663Y-142098903D01*
X187077830Y-141999035D01*
X187271401Y-141863495D01*
X187438495Y-141696401D01*
X187574035Y-141502830D01*
X187673903Y-141288663D01*
X187735063Y-141060408D01*
X187755659Y-140825000D01*
X187735063Y-140589592D01*
X187673903Y-140361337D01*
X187574035Y-140147171D01*
X187438495Y-139953599D01*
X187271401Y-139786505D01*
X187266968Y-139783401D01*
X187266961Y-139783395D01*
X187085842Y-139656575D01*
X187046976Y-139612257D01*
X187032965Y-139555000D01*
X187046976Y-139497743D01*
X187085842Y-139453425D01*
X187266961Y-139326604D01*
X187266961Y-139326603D01*
X187271401Y-139323495D01*
X187438495Y-139156401D01*
X187574035Y-138962830D01*
X187673903Y-138748663D01*
X187735063Y-138520408D01*
X187755659Y-138285000D01*
X187735063Y-138049592D01*
X187673903Y-137821337D01*
X187574035Y-137607171D01*
X187438495Y-137413599D01*
X187271401Y-137246505D01*
X187266970Y-137243402D01*
X187266966Y-137243399D01*
X187085405Y-137116269D01*
X187046540Y-137071951D01*
X187032529Y-137014694D01*
X187046540Y-136957437D01*
X187085406Y-136913119D01*
X187266638Y-136786219D01*
X187274909Y-136779278D01*
X187434278Y-136619909D01*
X187441215Y-136611643D01*
X187570498Y-136427008D01*
X187575886Y-136417676D01*
X187671143Y-136213397D01*
X187674831Y-136203263D01*
X187726943Y-136008780D01*
X187727311Y-135997551D01*
X187716369Y-135995000D01*
X182543631Y-135995000D01*
X182532688Y-135997551D01*
X182533056Y-136008780D01*
X182585168Y-136203263D01*
X182588856Y-136213397D01*
X182684113Y-136417676D01*
X182689501Y-136427008D01*
X182818784Y-136611643D01*
X182825721Y-136619909D01*
X182985090Y-136779278D01*
X182993356Y-136786215D01*
X183174595Y-136913120D01*
X183213460Y-136957438D01*
X183227471Y-137014695D01*
X183213460Y-137071952D01*
X183174594Y-137116270D01*
X182993034Y-137243399D01*
X182993029Y-137243402D01*
X182988599Y-137246505D01*
X182984775Y-137250328D01*
X182984769Y-137250334D01*
X182825334Y-137409769D01*
X182825328Y-137409775D01*
X182821505Y-137413599D01*
X182818402Y-137418029D01*
X182818399Y-137418034D01*
X182689073Y-137602731D01*
X182689068Y-137602738D01*
X182685965Y-137607171D01*
X182683677Y-137612077D01*
X182683675Y-137612081D01*
X182588386Y-137816427D01*
X182588383Y-137816432D01*
X182586097Y-137821337D01*
X182584698Y-137826557D01*
X182584694Y-137826569D01*
X182526337Y-138044365D01*
X182526335Y-138044371D01*
X182524937Y-138049592D01*
X182504341Y-138285000D01*
X182524937Y-138520408D01*
X182526336Y-138525630D01*
X182526337Y-138525634D01*
X182584694Y-138743430D01*
X182584697Y-138743438D01*
X182586097Y-138748663D01*
X182588385Y-138753570D01*
X182588386Y-138753572D01*
X182683678Y-138957927D01*
X182683681Y-138957933D01*
X182685965Y-138962830D01*
X182689064Y-138967257D01*
X182689066Y-138967259D01*
X182818399Y-139151966D01*
X182818402Y-139151970D01*
X182821505Y-139156401D01*
X182825336Y-139160232D01*
X182943430Y-139278326D01*
X182974726Y-139331072D01*
X182976915Y-139392365D01*
X182949462Y-139447210D01*
X182899083Y-139482189D01*
X182783702Y-139525223D01*
X182767669Y-139531204D01*
X182760572Y-139536516D01*
X182760568Y-139536519D01*
X182659550Y-139612141D01*
X182659546Y-139612144D01*
X182652454Y-139617454D01*
X182647144Y-139624546D01*
X182647141Y-139624550D01*
X182571519Y-139725568D01*
X182571516Y-139725572D01*
X182566204Y-139732669D01*
X182563104Y-139740978D01*
X182563104Y-139740980D01*
X182518620Y-139860247D01*
X182518619Y-139860250D01*
X182515909Y-139867517D01*
X182515079Y-139875227D01*
X182515079Y-139875232D01*
X182509855Y-139923819D01*
X182509854Y-139923831D01*
X182509500Y-139927127D01*
X182509500Y-139930449D01*
X182509500Y-140075500D01*
X182492887Y-140137500D01*
X182447500Y-140182887D01*
X182385500Y-140199500D01*
X180612944Y-140199500D01*
X180563357Y-140189154D01*
X180522045Y-140159841D01*
X180495902Y-140116453D01*
X180482755Y-140078880D01*
X180482754Y-140078878D01*
X180480456Y-140072310D01*
X180390477Y-139929110D01*
X180270890Y-139809523D01*
X180127690Y-139719544D01*
X180121124Y-139717246D01*
X180121121Y-139717245D01*
X179974633Y-139665987D01*
X179974630Y-139665986D01*
X179968059Y-139663687D01*
X179961142Y-139662907D01*
X179961135Y-139662906D01*
X179806923Y-139645531D01*
X179800000Y-139644751D01*
X179793077Y-139645531D01*
X179638864Y-139662906D01*
X179638855Y-139662907D01*
X179631941Y-139663687D01*
X179625371Y-139665985D01*
X179625366Y-139665987D01*
X179478878Y-139717245D01*
X179478872Y-139717247D01*
X179472310Y-139719544D01*
X179466419Y-139723245D01*
X179466418Y-139723246D01*
X179335010Y-139805815D01*
X179335005Y-139805818D01*
X179329110Y-139809523D01*
X179324185Y-139814447D01*
X179324181Y-139814451D01*
X179214451Y-139924181D01*
X179214447Y-139924185D01*
X179209523Y-139929110D01*
X179205818Y-139935005D01*
X179205815Y-139935010D01*
X179123246Y-140066418D01*
X179119544Y-140072310D01*
X179117247Y-140078872D01*
X179117245Y-140078878D01*
X179065987Y-140225366D01*
X179065985Y-140225371D01*
X179063687Y-140231941D01*
X179062907Y-140238855D01*
X179062906Y-140238864D01*
X179049107Y-140361337D01*
X179044751Y-140400000D01*
X175000500Y-140400000D01*
X175000500Y-133205000D01*
X182504341Y-133205000D01*
X182524937Y-133440408D01*
X182526336Y-133445630D01*
X182526337Y-133445634D01*
X182584694Y-133663430D01*
X182584697Y-133663438D01*
X182586097Y-133668663D01*
X182588385Y-133673570D01*
X182588386Y-133673572D01*
X182683678Y-133877927D01*
X182683681Y-133877933D01*
X182685965Y-133882830D01*
X182689064Y-133887257D01*
X182689066Y-133887259D01*
X182818399Y-134071966D01*
X182818402Y-134071970D01*
X182821505Y-134076401D01*
X182988599Y-134243495D01*
X182993031Y-134246598D01*
X182993033Y-134246600D01*
X183174595Y-134373731D01*
X183213460Y-134418049D01*
X183227471Y-134475306D01*
X183213460Y-134532563D01*
X183174595Y-134576881D01*
X182993352Y-134703788D01*
X182985092Y-134710719D01*
X182825719Y-134870092D01*
X182818784Y-134878357D01*
X182689508Y-135062982D01*
X182684110Y-135072332D01*
X182588856Y-135276602D01*
X182585168Y-135286736D01*
X182533056Y-135481219D01*
X182532688Y-135492448D01*
X182543631Y-135495000D01*
X186133674Y-135495000D01*
X186146549Y-135491549D01*
X186150000Y-135478674D01*
X186650000Y-135478674D01*
X186653450Y-135491549D01*
X186666326Y-135495000D01*
X187716369Y-135495000D01*
X187727311Y-135492448D01*
X187726943Y-135481219D01*
X187674831Y-135286736D01*
X187671143Y-135276602D01*
X187575889Y-135072332D01*
X187570491Y-135062982D01*
X187441215Y-134878357D01*
X187434280Y-134870092D01*
X187274909Y-134710721D01*
X187266643Y-134703784D01*
X187084969Y-134576575D01*
X187046104Y-134532257D01*
X187032093Y-134475000D01*
X187046104Y-134417743D01*
X187084969Y-134373425D01*
X187266643Y-134246215D01*
X187274909Y-134239278D01*
X187434278Y-134079909D01*
X187441215Y-134071643D01*
X187570498Y-133887008D01*
X187575886Y-133877676D01*
X187671143Y-133673397D01*
X187674831Y-133663263D01*
X187726943Y-133468780D01*
X187727311Y-133457551D01*
X187716369Y-133455000D01*
X186666326Y-133455000D01*
X186653450Y-133458450D01*
X186650000Y-133471326D01*
X186650000Y-135478674D01*
X186150000Y-135478674D01*
X186150000Y-133079000D01*
X186166613Y-133017000D01*
X186212000Y-132971613D01*
X186274000Y-132955000D01*
X187716369Y-132955000D01*
X187727311Y-132952448D01*
X187726943Y-132941219D01*
X187674831Y-132746736D01*
X187671143Y-132736602D01*
X187575889Y-132532332D01*
X187570491Y-132522982D01*
X187441215Y-132338357D01*
X187434280Y-132330092D01*
X187274909Y-132170721D01*
X187266643Y-132163784D01*
X187085405Y-132036880D01*
X187046540Y-131992562D01*
X187032529Y-131935305D01*
X187046540Y-131878048D01*
X187085406Y-131833730D01*
X187266961Y-131706604D01*
X187266961Y-131706603D01*
X187271401Y-131703495D01*
X187438495Y-131536401D01*
X187574035Y-131342830D01*
X187673903Y-131128663D01*
X187735063Y-130900408D01*
X187755659Y-130665000D01*
X187735063Y-130429592D01*
X187673903Y-130201337D01*
X187574035Y-129987171D01*
X187438495Y-129793599D01*
X187271401Y-129626505D01*
X187266970Y-129623402D01*
X187266966Y-129623399D01*
X187082259Y-129494066D01*
X187082257Y-129494064D01*
X187077830Y-129490965D01*
X187072933Y-129488681D01*
X187072927Y-129488678D01*
X186868572Y-129393386D01*
X186868570Y-129393385D01*
X186863663Y-129391097D01*
X186858438Y-129389697D01*
X186858430Y-129389694D01*
X186640634Y-129331337D01*
X186640630Y-129331336D01*
X186635408Y-129329937D01*
X186630020Y-129329465D01*
X186630017Y-129329465D01*
X186405395Y-129309813D01*
X186400000Y-129309341D01*
X186394605Y-129309813D01*
X186169982Y-129329465D01*
X186169977Y-129329465D01*
X186164592Y-129329937D01*
X186159371Y-129331335D01*
X186159365Y-129331337D01*
X185941569Y-129389694D01*
X185941557Y-129389698D01*
X185936337Y-129391097D01*
X185931432Y-129393383D01*
X185931427Y-129393386D01*
X185727081Y-129488675D01*
X185727077Y-129488677D01*
X185722171Y-129490965D01*
X185717738Y-129494068D01*
X185717731Y-129494073D01*
X185533034Y-129623399D01*
X185533029Y-129623402D01*
X185528599Y-129626505D01*
X185524775Y-129630328D01*
X185524769Y-129630334D01*
X185365334Y-129789769D01*
X185365328Y-129789775D01*
X185361505Y-129793599D01*
X185358402Y-129798029D01*
X185358399Y-129798034D01*
X185231575Y-129979159D01*
X185187257Y-130018025D01*
X185130000Y-130032036D01*
X185072743Y-130018025D01*
X185028425Y-129979159D01*
X184901600Y-129798034D01*
X184898495Y-129793599D01*
X184731401Y-129626505D01*
X184726970Y-129623402D01*
X184726966Y-129623399D01*
X184542259Y-129494066D01*
X184542257Y-129494064D01*
X184537830Y-129490965D01*
X184532933Y-129488681D01*
X184532927Y-129488678D01*
X184328572Y-129393386D01*
X184328570Y-129393385D01*
X184323663Y-129391097D01*
X184318438Y-129389697D01*
X184318430Y-129389694D01*
X184100634Y-129331337D01*
X184100630Y-129331336D01*
X184095408Y-129329937D01*
X184090020Y-129329465D01*
X184090017Y-129329465D01*
X183865395Y-129309813D01*
X183860000Y-129309341D01*
X183854605Y-129309813D01*
X183629982Y-129329465D01*
X183629977Y-129329465D01*
X183624592Y-129329937D01*
X183619371Y-129331335D01*
X183619365Y-129331337D01*
X183401569Y-129389694D01*
X183401557Y-129389698D01*
X183396337Y-129391097D01*
X183391432Y-129393383D01*
X183391427Y-129393386D01*
X183187081Y-129488675D01*
X183187077Y-129488677D01*
X183182171Y-129490965D01*
X183177738Y-129494068D01*
X183177731Y-129494073D01*
X182993034Y-129623399D01*
X182993029Y-129623402D01*
X182988599Y-129626505D01*
X182984775Y-129630328D01*
X182984769Y-129630334D01*
X182825334Y-129789769D01*
X182825328Y-129789775D01*
X182821505Y-129793599D01*
X182818402Y-129798029D01*
X182818399Y-129798034D01*
X182689073Y-129982731D01*
X182689068Y-129982738D01*
X182685965Y-129987171D01*
X182683677Y-129992077D01*
X182683675Y-129992081D01*
X182588386Y-130196427D01*
X182588383Y-130196432D01*
X182586097Y-130201337D01*
X182584698Y-130206557D01*
X182584694Y-130206569D01*
X182526337Y-130424365D01*
X182526335Y-130424371D01*
X182524937Y-130429592D01*
X182524465Y-130434977D01*
X182524465Y-130434982D01*
X182504813Y-130659605D01*
X182504341Y-130665000D01*
X182524937Y-130900408D01*
X182526336Y-130905630D01*
X182526337Y-130905634D01*
X182584694Y-131123430D01*
X182584697Y-131123438D01*
X182586097Y-131128663D01*
X182588385Y-131133570D01*
X182588386Y-131133572D01*
X182683678Y-131337927D01*
X182683681Y-131337933D01*
X182685965Y-131342830D01*
X182689064Y-131347257D01*
X182689066Y-131347259D01*
X182818399Y-131531966D01*
X182818402Y-131531970D01*
X182821505Y-131536401D01*
X182988599Y-131703495D01*
X182993032Y-131706599D01*
X182993038Y-131706604D01*
X183174158Y-131833425D01*
X183213024Y-131877743D01*
X183227035Y-131935000D01*
X183213024Y-131992257D01*
X183174159Y-132036575D01*
X182993041Y-132163395D01*
X182988599Y-132166505D01*
X182984775Y-132170328D01*
X182984769Y-132170334D01*
X182825334Y-132329769D01*
X182825328Y-132329775D01*
X182821505Y-132333599D01*
X182818402Y-132338029D01*
X182818399Y-132338034D01*
X182689073Y-132522731D01*
X182689068Y-132522738D01*
X182685965Y-132527171D01*
X182683677Y-132532077D01*
X182683675Y-132532081D01*
X182588386Y-132736427D01*
X182588383Y-132736432D01*
X182586097Y-132741337D01*
X182584698Y-132746557D01*
X182584694Y-132746569D01*
X182526337Y-132964365D01*
X182526335Y-132964371D01*
X182524937Y-132969592D01*
X182504341Y-133205000D01*
X175000500Y-133205000D01*
X175000500Y-128782018D01*
X176600000Y-128782018D01*
X176600353Y-128788614D01*
X176605573Y-128837167D01*
X176609111Y-128852141D01*
X176653547Y-128971277D01*
X176661962Y-128986689D01*
X176737498Y-129087592D01*
X176749907Y-129100001D01*
X176850810Y-129175537D01*
X176866222Y-129183952D01*
X176985358Y-129228388D01*
X177000332Y-129231926D01*
X177048885Y-129237146D01*
X177055482Y-129237500D01*
X177733674Y-129237500D01*
X177746549Y-129234049D01*
X177750000Y-129221174D01*
X178250000Y-129221174D01*
X178253450Y-129234049D01*
X178266326Y-129237500D01*
X178840235Y-129237500D01*
X178890670Y-129248220D01*
X178932385Y-129278528D01*
X178958166Y-129323182D01*
X178970811Y-129362101D01*
X178970813Y-129362105D01*
X178972821Y-129368284D01*
X178976068Y-129373909D01*
X178976070Y-129373912D01*
X179042330Y-129488678D01*
X179067467Y-129532216D01*
X179071809Y-129537039D01*
X179071817Y-129537049D01*
X179092649Y-129560184D01*
X179116264Y-129598719D01*
X179124500Y-129643157D01*
X179124500Y-130301313D01*
X179116264Y-130345751D01*
X179092650Y-130384285D01*
X179021813Y-130462956D01*
X179021808Y-130462962D01*
X179017467Y-130467784D01*
X179014222Y-130473404D01*
X179014218Y-130473410D01*
X178926069Y-130626089D01*
X178926066Y-130626094D01*
X178922821Y-130631716D01*
X178920815Y-130637888D01*
X178920813Y-130637894D01*
X178866333Y-130805564D01*
X178866331Y-130805573D01*
X178864326Y-130811744D01*
X178863648Y-130818194D01*
X178863646Y-130818204D01*
X178855007Y-130900408D01*
X178844540Y-131000000D01*
X178845219Y-131006460D01*
X178863646Y-131181795D01*
X178863647Y-131181803D01*
X178864326Y-131188256D01*
X178866331Y-131194428D01*
X178866333Y-131194435D01*
X178920813Y-131362105D01*
X178922821Y-131368284D01*
X179017467Y-131532216D01*
X179021811Y-131537041D01*
X179021813Y-131537043D01*
X179139779Y-131668057D01*
X179144129Y-131672888D01*
X179297270Y-131784151D01*
X179470197Y-131861144D01*
X179655354Y-131900500D01*
X179838143Y-131900500D01*
X179844646Y-131900500D01*
X180029803Y-131861144D01*
X180202730Y-131784151D01*
X180355871Y-131672888D01*
X180482533Y-131532216D01*
X180577179Y-131368284D01*
X180635674Y-131188256D01*
X180655460Y-131000000D01*
X180635674Y-130811744D01*
X180577179Y-130631716D01*
X180482533Y-130467784D01*
X180407349Y-130384284D01*
X180383736Y-130345751D01*
X180375500Y-130301313D01*
X180375500Y-129754217D01*
X180383736Y-129709779D01*
X180407350Y-129671245D01*
X180444185Y-129630336D01*
X180532533Y-129532216D01*
X180627179Y-129368284D01*
X180685674Y-129188256D01*
X180705460Y-129000000D01*
X180685674Y-128811744D01*
X180663831Y-128744518D01*
X190600000Y-128744518D01*
X190600353Y-128751114D01*
X190605573Y-128799667D01*
X190609111Y-128814641D01*
X190653547Y-128933777D01*
X190661962Y-128949189D01*
X190737498Y-129050092D01*
X190749907Y-129062501D01*
X190850810Y-129138037D01*
X190866222Y-129146452D01*
X190985358Y-129190888D01*
X191000332Y-129194426D01*
X191048885Y-129199646D01*
X191055482Y-129200000D01*
X191733674Y-129200000D01*
X191746549Y-129196549D01*
X191750000Y-129183674D01*
X192250000Y-129183674D01*
X192253450Y-129196549D01*
X192266326Y-129200000D01*
X192944518Y-129200000D01*
X192951114Y-129199646D01*
X192999667Y-129194426D01*
X193014641Y-129190888D01*
X193133777Y-129146452D01*
X193149189Y-129138037D01*
X193250092Y-129062501D01*
X193262501Y-129050092D01*
X193338037Y-128949189D01*
X193346452Y-128933777D01*
X193390888Y-128814641D01*
X193394426Y-128799667D01*
X193399646Y-128751114D01*
X193400000Y-128744518D01*
X193400000Y-128066326D01*
X193396549Y-128053450D01*
X193383674Y-128050000D01*
X192266326Y-128050000D01*
X192253450Y-128053450D01*
X192250000Y-128066326D01*
X192250000Y-129183674D01*
X191750000Y-129183674D01*
X191750000Y-128066326D01*
X191746549Y-128053450D01*
X191733674Y-128050000D01*
X190616326Y-128050000D01*
X190603450Y-128053450D01*
X190600000Y-128066326D01*
X190600000Y-128744518D01*
X180663831Y-128744518D01*
X180627179Y-128631716D01*
X180532533Y-128467784D01*
X180405871Y-128327112D01*
X180400613Y-128323292D01*
X180400611Y-128323290D01*
X180257988Y-128219669D01*
X180257987Y-128219668D01*
X180252730Y-128215849D01*
X180244483Y-128212177D01*
X180085745Y-128141501D01*
X180085740Y-128141499D01*
X180079803Y-128138856D01*
X180073444Y-128137504D01*
X180073440Y-128137503D01*
X179901008Y-128100852D01*
X179901005Y-128100851D01*
X179894646Y-128099500D01*
X179705354Y-128099500D01*
X179698995Y-128100851D01*
X179698991Y-128100852D01*
X179524351Y-128137973D01*
X179463352Y-128135577D01*
X179410889Y-128104364D01*
X179397813Y-128091288D01*
X179383674Y-128087500D01*
X178266326Y-128087500D01*
X178253450Y-128090950D01*
X178250000Y-128103826D01*
X178250000Y-129221174D01*
X177750000Y-129221174D01*
X177750000Y-128103826D01*
X177746549Y-128090950D01*
X177733674Y-128087500D01*
X176616326Y-128087500D01*
X176603450Y-128090950D01*
X176600000Y-128103826D01*
X176600000Y-128782018D01*
X175000500Y-128782018D01*
X175000500Y-118840519D01*
X175014015Y-118784224D01*
X175051615Y-118740201D01*
X175105102Y-118718046D01*
X175162818Y-118722588D01*
X175212181Y-118752838D01*
X175289815Y-118830472D01*
X175435394Y-118918478D01*
X175554859Y-118955704D01*
X175591542Y-118967135D01*
X175591544Y-118967135D01*
X175597804Y-118969086D01*
X175668384Y-118975500D01*
X176328797Y-118975500D01*
X176331616Y-118975500D01*
X176402196Y-118969086D01*
X176564606Y-118918478D01*
X176710185Y-118830472D01*
X176711682Y-118832949D01*
X176762351Y-118812374D01*
X176829745Y-118824169D01*
X176880625Y-118869911D01*
X176899500Y-118935674D01*
X176899500Y-119170194D01*
X176899500Y-119170213D01*
X176899501Y-119173344D01*
X176899820Y-119176476D01*
X176899821Y-119176477D01*
X176908962Y-119265972D01*
X176908963Y-119265980D01*
X176909651Y-119272708D01*
X176911779Y-119279131D01*
X176911780Y-119279134D01*
X176938411Y-119359500D01*
X176962997Y-119433697D01*
X176966788Y-119439843D01*
X176966789Y-119439845D01*
X177028310Y-119539586D01*
X177052032Y-119578044D01*
X177171956Y-119697968D01*
X177316303Y-119787003D01*
X177477292Y-119840349D01*
X177576655Y-119850500D01*
X177890549Y-119850499D01*
X177946842Y-119864014D01*
X177990865Y-119901613D01*
X178013020Y-119955101D01*
X178008478Y-120012817D01*
X177978228Y-120062180D01*
X177664727Y-120375681D01*
X177624499Y-120402561D01*
X177577046Y-120412000D01*
X177003141Y-120412000D01*
X177003121Y-120412000D01*
X176999992Y-120412001D01*
X176996860Y-120412320D01*
X176996858Y-120412321D01*
X176903938Y-120421812D01*
X176903928Y-120421813D01*
X176897203Y-120422501D01*
X176890781Y-120424628D01*
X176890776Y-120424630D01*
X176737521Y-120475414D01*
X176737517Y-120475415D01*
X176730666Y-120477686D01*
X176724522Y-120481475D01*
X176724519Y-120481477D01*
X176587488Y-120565997D01*
X176587480Y-120566003D01*
X176581344Y-120569788D01*
X176576242Y-120574889D01*
X176576238Y-120574893D01*
X176462393Y-120688738D01*
X176462389Y-120688742D01*
X176457288Y-120693844D01*
X176453503Y-120699980D01*
X176453497Y-120699988D01*
X176389864Y-120803156D01*
X176365186Y-120843166D01*
X176362915Y-120850017D01*
X176362914Y-120850021D01*
X176316228Y-120990910D01*
X176310001Y-121009703D01*
X176309313Y-121016433D01*
X176309312Y-121016440D01*
X176299819Y-121109359D01*
X176299818Y-121109377D01*
X176299500Y-121112491D01*
X176299500Y-121115638D01*
X176299500Y-121115639D01*
X176299500Y-121734358D01*
X176299500Y-121734377D01*
X176299501Y-121737508D01*
X176299820Y-121740640D01*
X176299821Y-121740641D01*
X176309312Y-121833561D01*
X176309313Y-121833569D01*
X176310001Y-121840297D01*
X176312129Y-121846719D01*
X176312130Y-121846723D01*
X176346187Y-121949500D01*
X176365186Y-122006834D01*
X176380694Y-122031977D01*
X176453497Y-122150011D01*
X176453500Y-122150015D01*
X176457288Y-122156156D01*
X176462393Y-122161260D01*
X176462393Y-122161261D01*
X176550951Y-122249819D01*
X176583045Y-122305406D01*
X176583045Y-122369594D01*
X176550951Y-122425181D01*
X176462393Y-122513738D01*
X176462389Y-122513742D01*
X176457288Y-122518844D01*
X176453503Y-122524980D01*
X176453497Y-122524988D01*
X176368977Y-122662019D01*
X176365186Y-122668166D01*
X176362915Y-122675017D01*
X176362914Y-122675021D01*
X176313163Y-122825161D01*
X176310001Y-122834703D01*
X176309313Y-122841433D01*
X176309312Y-122841440D01*
X176299819Y-122934359D01*
X176299818Y-122934377D01*
X176299500Y-122937491D01*
X176299500Y-122940638D01*
X176299500Y-122940639D01*
X176299500Y-123559358D01*
X176299500Y-123559377D01*
X176299501Y-123562508D01*
X176299820Y-123565640D01*
X176299821Y-123565641D01*
X176309312Y-123658561D01*
X176309313Y-123658569D01*
X176310001Y-123665297D01*
X176312129Y-123671719D01*
X176312130Y-123671723D01*
X176362914Y-123824978D01*
X176365186Y-123831834D01*
X176368977Y-123837980D01*
X176453497Y-123975011D01*
X176453500Y-123975015D01*
X176457288Y-123981156D01*
X176581344Y-124105212D01*
X176587485Y-124109000D01*
X176587488Y-124109002D01*
X176644558Y-124144202D01*
X176730666Y-124197314D01*
X176789504Y-124216811D01*
X176833829Y-124242690D01*
X176863877Y-124284302D01*
X176874500Y-124334517D01*
X176874500Y-124422718D01*
X176869345Y-124458100D01*
X176854311Y-124490535D01*
X176809779Y-124558697D01*
X176780409Y-124603652D01*
X176764076Y-124628651D01*
X176762020Y-124633335D01*
X176762015Y-124633347D01*
X176672903Y-124836503D01*
X176670843Y-124841200D01*
X176669585Y-124846165D01*
X176669584Y-124846170D01*
X176615125Y-125061220D01*
X176615123Y-125061229D01*
X176613866Y-125066195D01*
X176613442Y-125071302D01*
X176613441Y-125071313D01*
X176599512Y-125239427D01*
X176594700Y-125297500D01*
X176595124Y-125302617D01*
X176613441Y-125523686D01*
X176613442Y-125523695D01*
X176613866Y-125528805D01*
X176615123Y-125533772D01*
X176615125Y-125533779D01*
X176666612Y-125737093D01*
X176670843Y-125753800D01*
X176672903Y-125758496D01*
X176762016Y-125961654D01*
X176762019Y-125961659D01*
X176764076Y-125966349D01*
X176804541Y-126028285D01*
X176888219Y-126156365D01*
X176888222Y-126156369D01*
X176891021Y-126160653D01*
X176894486Y-126164417D01*
X176894490Y-126164422D01*
X176914152Y-126185780D01*
X176971754Y-126248353D01*
X176986167Y-126264009D01*
X177014940Y-126316762D01*
X177015533Y-126376848D01*
X176987806Y-126430158D01*
X176938271Y-126464173D01*
X176866226Y-126491044D01*
X176850810Y-126499462D01*
X176749907Y-126574998D01*
X176737498Y-126587407D01*
X176661962Y-126688310D01*
X176653547Y-126703722D01*
X176609111Y-126822858D01*
X176605573Y-126837832D01*
X176600353Y-126886385D01*
X176600000Y-126892982D01*
X176600000Y-127571174D01*
X176603450Y-127584049D01*
X176616326Y-127587500D01*
X179383674Y-127587500D01*
X179396549Y-127584049D01*
X179400000Y-127571174D01*
X179400000Y-126892982D01*
X179399646Y-126886385D01*
X179394426Y-126837832D01*
X179390888Y-126822858D01*
X179346452Y-126703722D01*
X179338037Y-126688310D01*
X179262501Y-126587407D01*
X179250092Y-126574998D01*
X179149189Y-126499462D01*
X179133779Y-126491048D01*
X179061728Y-126464174D01*
X179012193Y-126430158D01*
X178984466Y-126376848D01*
X178985059Y-126316761D01*
X179013833Y-126264009D01*
X179028246Y-126248353D01*
X179108979Y-126160653D01*
X179133479Y-126123153D01*
X179177099Y-126056388D01*
X179228921Y-126011633D01*
X179296596Y-126001205D01*
X179359486Y-126028285D01*
X179398417Y-126084614D01*
X179423556Y-126159221D01*
X179427019Y-126164977D01*
X179429092Y-126169458D01*
X179431251Y-126173812D01*
X179433568Y-126180116D01*
X179437186Y-126185777D01*
X179437188Y-126185780D01*
X179476267Y-126246919D01*
X179478036Y-126249771D01*
X179515462Y-126311974D01*
X179515467Y-126311981D01*
X179518930Y-126317736D01*
X179523551Y-126322614D01*
X179526498Y-126326491D01*
X179529576Y-126330321D01*
X179533200Y-126335989D01*
X179537958Y-126340746D01*
X179537958Y-126340747D01*
X179589266Y-126392055D01*
X179591608Y-126394461D01*
X179646151Y-126452041D01*
X179651714Y-126455813D01*
X179656565Y-126459933D01*
X179663972Y-126466761D01*
X181170593Y-127973381D01*
X181177420Y-127980786D01*
X181211663Y-128021100D01*
X181274807Y-128069101D01*
X181277428Y-128071150D01*
X181339247Y-128120842D01*
X181345273Y-128123830D01*
X181349381Y-128126456D01*
X181353581Y-128128983D01*
X181358936Y-128133054D01*
X181421130Y-128161827D01*
X181430920Y-128166357D01*
X181433949Y-128167809D01*
X181504979Y-128203037D01*
X181511511Y-128204661D01*
X181516142Y-128206362D01*
X181520727Y-128207906D01*
X181526833Y-128210732D01*
X181600000Y-128226837D01*
X181604253Y-128227773D01*
X181607525Y-128228540D01*
X181677976Y-128246061D01*
X181677984Y-128246062D01*
X181684506Y-128247684D01*
X181691225Y-128247865D01*
X181696020Y-128248519D01*
X181700930Y-128249053D01*
X181707503Y-128250500D01*
X181786773Y-128250500D01*
X181790130Y-128250545D01*
X181869432Y-128252693D01*
X181876042Y-128251424D01*
X181882375Y-128250909D01*
X181892443Y-128250500D01*
X186069996Y-128250500D01*
X186108312Y-128256568D01*
X186114258Y-128258500D01*
X186120197Y-128261144D01*
X186126555Y-128262495D01*
X186126557Y-128262496D01*
X186165861Y-128270850D01*
X186305354Y-128300500D01*
X186488143Y-128300500D01*
X186494646Y-128300500D01*
X186679803Y-128261144D01*
X186852730Y-128184151D01*
X187005871Y-128072888D01*
X187132533Y-127932216D01*
X187227179Y-127768284D01*
X187285674Y-127588256D01*
X187305460Y-127400000D01*
X187285674Y-127211744D01*
X187227179Y-127031716D01*
X187132533Y-126867784D01*
X187005871Y-126727112D01*
X187000613Y-126723292D01*
X187000611Y-126723290D01*
X186857988Y-126619669D01*
X186857987Y-126619668D01*
X186852730Y-126615849D01*
X186846792Y-126613205D01*
X186685745Y-126541501D01*
X186685740Y-126541499D01*
X186679803Y-126538856D01*
X186673444Y-126537504D01*
X186673440Y-126537503D01*
X186501008Y-126500852D01*
X186501005Y-126500851D01*
X186494646Y-126499500D01*
X186305354Y-126499500D01*
X186298995Y-126500851D01*
X186298991Y-126500852D01*
X186126557Y-126537503D01*
X186126546Y-126537506D01*
X186120197Y-126538856D01*
X186114261Y-126541498D01*
X186108312Y-126543432D01*
X186069996Y-126549500D01*
X182203651Y-126549500D01*
X182156198Y-126540061D01*
X182115970Y-126513181D01*
X181086819Y-125484030D01*
X181059939Y-125443802D01*
X181050500Y-125396349D01*
X181050500Y-124603652D01*
X181059939Y-124556200D01*
X181086818Y-124515972D01*
X181126856Y-124475932D01*
X181160646Y-124442142D01*
X181214493Y-124410529D01*
X181276922Y-124409166D01*
X181332099Y-124438401D01*
X181366032Y-124490821D01*
X181386180Y-124551625D01*
X181392246Y-124564633D01*
X181473632Y-124696580D01*
X181482537Y-124707842D01*
X181592157Y-124817462D01*
X181603419Y-124826367D01*
X181735366Y-124907753D01*
X181748374Y-124913819D01*
X181895969Y-124962727D01*
X181909125Y-124965543D01*
X181998555Y-124974680D01*
X182004832Y-124975000D01*
X182008674Y-124975000D01*
X182021549Y-124971549D01*
X182025000Y-124958674D01*
X182025000Y-123874000D01*
X182041613Y-123812000D01*
X182087000Y-123766613D01*
X182149000Y-123750000D01*
X182401000Y-123750000D01*
X182463000Y-123766613D01*
X182508387Y-123812000D01*
X182525000Y-123874000D01*
X182525000Y-124958673D01*
X182528450Y-124971548D01*
X182541326Y-124974999D01*
X182545165Y-124974999D01*
X182551447Y-124974678D01*
X182640867Y-124965544D01*
X182654036Y-124962725D01*
X182801625Y-124913819D01*
X182814633Y-124907753D01*
X182946584Y-124826364D01*
X182957831Y-124817472D01*
X182961955Y-124813348D01*
X183017544Y-124781248D01*
X183081735Y-124781244D01*
X183137327Y-124813339D01*
X183146956Y-124822968D01*
X183291303Y-124912003D01*
X183452292Y-124965349D01*
X183551655Y-124975500D01*
X184098344Y-124975499D01*
X184197708Y-124965349D01*
X184204139Y-124963217D01*
X184210510Y-124961854D01*
X184274701Y-124965147D01*
X184328620Y-125000134D01*
X184389777Y-125068056D01*
X184389783Y-125068061D01*
X184394129Y-125072888D01*
X184547270Y-125184151D01*
X184720197Y-125261144D01*
X184905354Y-125300500D01*
X185088143Y-125300500D01*
X185094646Y-125300500D01*
X185279803Y-125261144D01*
X185452730Y-125184151D01*
X185605871Y-125072888D01*
X185656617Y-125016527D01*
X185698331Y-124986221D01*
X185748767Y-124975500D01*
X185931178Y-124975500D01*
X185989119Y-124989870D01*
X186033632Y-125029648D01*
X186054398Y-125085617D01*
X186062906Y-125161134D01*
X186062907Y-125161140D01*
X186063687Y-125168059D01*
X186065986Y-125174630D01*
X186065987Y-125174633D01*
X186110770Y-125302617D01*
X186119544Y-125327690D01*
X186209523Y-125470890D01*
X186329110Y-125590477D01*
X186472310Y-125680456D01*
X186631941Y-125736313D01*
X186800000Y-125755249D01*
X186968059Y-125736313D01*
X187127690Y-125680456D01*
X187184904Y-125644505D01*
X187250876Y-125625500D01*
X187322225Y-125625500D01*
X187333280Y-125626021D01*
X187340667Y-125627673D01*
X187407872Y-125625561D01*
X187411768Y-125625500D01*
X187435448Y-125625500D01*
X187439350Y-125625500D01*
X187443313Y-125624999D01*
X187454963Y-125624080D01*
X187498627Y-125622709D01*
X187517861Y-125617119D01*
X187536917Y-125613174D01*
X187556792Y-125610664D01*
X187597395Y-125594587D01*
X187608450Y-125590802D01*
X187650390Y-125578618D01*
X187667629Y-125568422D01*
X187685103Y-125559862D01*
X187696474Y-125555360D01*
X187696476Y-125555358D01*
X187703732Y-125552486D01*
X187739069Y-125526811D01*
X187748824Y-125520403D01*
X187786420Y-125498170D01*
X187800584Y-125484005D01*
X187815379Y-125471368D01*
X187831587Y-125459594D01*
X187859437Y-125425927D01*
X187867278Y-125417310D01*
X188037306Y-125247283D01*
X188045481Y-125239844D01*
X188051877Y-125235786D01*
X188097904Y-125186771D01*
X188100551Y-125184038D01*
X188120120Y-125164471D01*
X188122585Y-125161292D01*
X188130167Y-125152416D01*
X188160062Y-125120582D01*
X188169713Y-125103023D01*
X188180390Y-125086770D01*
X188192673Y-125070936D01*
X188210018Y-125030852D01*
X188215151Y-125020371D01*
X188236197Y-124982092D01*
X188241179Y-124962684D01*
X188247482Y-124944276D01*
X188255437Y-124925896D01*
X188261494Y-124887649D01*
X188273481Y-124850758D01*
X188296279Y-124819377D01*
X188405472Y-124710185D01*
X188493478Y-124564606D01*
X188544086Y-124402196D01*
X188550500Y-124331616D01*
X188550500Y-123668384D01*
X188544086Y-123597804D01*
X188537735Y-123577424D01*
X188530704Y-123554859D01*
X188493478Y-123435394D01*
X188405472Y-123289815D01*
X188311819Y-123196162D01*
X188284939Y-123155934D01*
X188275500Y-123108481D01*
X188275500Y-122410452D01*
X188284939Y-122362999D01*
X188311816Y-122322773D01*
X188567824Y-122066765D01*
X188617181Y-122036519D01*
X188674897Y-122031977D01*
X188728385Y-122054131D01*
X188765984Y-122098154D01*
X188779500Y-122154449D01*
X188779500Y-122244559D01*
X188779500Y-122244577D01*
X188779501Y-122247872D01*
X188779853Y-122251150D01*
X188779854Y-122251161D01*
X188785079Y-122299768D01*
X188785080Y-122299773D01*
X188785909Y-122307483D01*
X188788619Y-122314749D01*
X188788620Y-122314753D01*
X188805157Y-122359090D01*
X188836204Y-122442331D01*
X188922454Y-122557546D01*
X189037669Y-122643796D01*
X189172517Y-122694091D01*
X189232127Y-122700500D01*
X191327872Y-122700499D01*
X191387483Y-122694091D01*
X191452123Y-122669981D01*
X191520688Y-122664759D01*
X191581495Y-122696872D01*
X191615841Y-122756447D01*
X191613300Y-122821603D01*
X191613548Y-122821656D01*
X191613243Y-122823080D01*
X191613162Y-122825161D01*
X191612132Y-122828268D01*
X191612129Y-122828279D01*
X191610001Y-122834703D01*
X191609313Y-122841433D01*
X191609312Y-122841440D01*
X191599819Y-122934359D01*
X191599818Y-122934377D01*
X191599500Y-122937491D01*
X191599500Y-122940638D01*
X191599500Y-122940639D01*
X191599500Y-123559358D01*
X191599500Y-123559377D01*
X191599501Y-123562508D01*
X191599820Y-123565640D01*
X191599821Y-123565641D01*
X191609312Y-123658561D01*
X191609313Y-123658569D01*
X191610001Y-123665297D01*
X191612130Y-123671722D01*
X191612131Y-123671726D01*
X191645156Y-123771390D01*
X191648977Y-123835034D01*
X191620668Y-123892164D01*
X191567713Y-123927674D01*
X191440345Y-123971399D01*
X191440337Y-123971402D01*
X191435497Y-123973064D01*
X191431001Y-123975496D01*
X191430992Y-123975501D01*
X191235882Y-124081090D01*
X191235878Y-124081092D01*
X191231374Y-124083530D01*
X191227334Y-124086674D01*
X191227327Y-124086679D01*
X191052263Y-124222936D01*
X191052255Y-124222943D01*
X191048216Y-124226087D01*
X191044746Y-124229855D01*
X191044742Y-124229860D01*
X190894491Y-124393077D01*
X190894488Y-124393080D01*
X190891021Y-124396847D01*
X190888226Y-124401124D01*
X190888219Y-124401134D01*
X190766881Y-124586857D01*
X190764076Y-124591151D01*
X190762021Y-124595835D01*
X190762016Y-124595845D01*
X190680693Y-124781244D01*
X190670843Y-124803700D01*
X190669585Y-124808665D01*
X190669584Y-124808670D01*
X190615125Y-125023720D01*
X190615123Y-125023729D01*
X190613866Y-125028695D01*
X190613442Y-125033802D01*
X190613441Y-125033813D01*
X190600985Y-125184151D01*
X190594700Y-125260000D01*
X190595124Y-125265117D01*
X190613441Y-125486186D01*
X190613442Y-125486195D01*
X190613866Y-125491305D01*
X190615123Y-125496272D01*
X190615125Y-125496279D01*
X190648337Y-125627428D01*
X190670843Y-125716300D01*
X190672903Y-125720996D01*
X190762016Y-125924154D01*
X190762019Y-125924159D01*
X190764076Y-125928849D01*
X190827548Y-126026001D01*
X190888219Y-126118865D01*
X190888222Y-126118869D01*
X190891021Y-126123153D01*
X190894486Y-126126917D01*
X190894490Y-126126922D01*
X190986167Y-126226509D01*
X191014940Y-126279262D01*
X191015533Y-126339348D01*
X190987806Y-126392658D01*
X190938271Y-126426673D01*
X190866226Y-126453544D01*
X190850810Y-126461962D01*
X190749907Y-126537498D01*
X190737498Y-126549907D01*
X190661962Y-126650810D01*
X190653547Y-126666222D01*
X190609111Y-126785358D01*
X190605573Y-126800332D01*
X190600353Y-126848885D01*
X190600000Y-126855482D01*
X190600000Y-127533674D01*
X190603450Y-127546549D01*
X190616326Y-127550000D01*
X193383674Y-127550000D01*
X193396549Y-127546549D01*
X193400000Y-127533674D01*
X193400000Y-126855482D01*
X193399646Y-126848885D01*
X193394426Y-126800332D01*
X193390888Y-126785358D01*
X193346452Y-126666222D01*
X193338037Y-126650810D01*
X193262501Y-126549907D01*
X193250092Y-126537498D01*
X193149189Y-126461962D01*
X193133779Y-126453548D01*
X193061728Y-126426674D01*
X193012193Y-126392658D01*
X192984466Y-126339348D01*
X192985059Y-126279261D01*
X193013833Y-126226509D01*
X193105503Y-126126929D01*
X193105503Y-126126928D01*
X193108979Y-126123153D01*
X193235924Y-125928849D01*
X193329157Y-125716300D01*
X193386134Y-125491305D01*
X193405300Y-125260000D01*
X193386134Y-125028695D01*
X193329157Y-124803700D01*
X193250492Y-124624363D01*
X193237984Y-124595847D01*
X193237983Y-124595845D01*
X193235924Y-124591151D01*
X193222772Y-124571021D01*
X193146855Y-124454820D01*
X193126770Y-124392123D01*
X193141609Y-124327981D01*
X193187190Y-124280476D01*
X193250664Y-124262999D01*
X193296859Y-124262999D01*
X193300008Y-124262999D01*
X193402797Y-124252499D01*
X193569334Y-124197314D01*
X193718656Y-124105212D01*
X193842712Y-123981156D01*
X193934814Y-123831834D01*
X193989999Y-123665297D01*
X194000500Y-123562509D01*
X194000499Y-122937492D01*
X193989999Y-122834703D01*
X193934814Y-122668166D01*
X193869860Y-122562858D01*
X193846502Y-122524988D01*
X193846500Y-122524985D01*
X193842712Y-122518844D01*
X193749049Y-122425181D01*
X193716955Y-122369594D01*
X193716955Y-122305406D01*
X193749049Y-122249819D01*
X193754309Y-122244559D01*
X193842712Y-122156156D01*
X193934814Y-122006834D01*
X193989999Y-121840297D01*
X194000500Y-121737509D01*
X194000499Y-121112492D01*
X193989999Y-121009703D01*
X193934814Y-120843166D01*
X193843960Y-120695868D01*
X193825500Y-120630773D01*
X193825500Y-112027771D01*
X193826020Y-112016718D01*
X193827672Y-112009332D01*
X193825561Y-111942144D01*
X193825500Y-111938250D01*
X193825500Y-111914545D01*
X193825500Y-111910650D01*
X193824998Y-111906681D01*
X193824080Y-111895024D01*
X193823207Y-111867241D01*
X193822709Y-111851372D01*
X193817120Y-111832139D01*
X193813174Y-111813082D01*
X193811641Y-111800946D01*
X193810664Y-111793208D01*
X193794581Y-111752587D01*
X193790799Y-111741540D01*
X193778617Y-111699610D01*
X193770698Y-111686219D01*
X193768422Y-111682370D01*
X193759860Y-111664892D01*
X193755360Y-111653527D01*
X193755359Y-111653526D01*
X193752486Y-111646268D01*
X193745210Y-111636254D01*
X193726813Y-111610932D01*
X193720409Y-111601184D01*
X193698170Y-111563579D01*
X193684005Y-111549414D01*
X193671368Y-111534618D01*
X193664184Y-111524729D01*
X193664178Y-111524723D01*
X193659594Y-111518413D01*
X193650113Y-111510570D01*
X193625946Y-111490577D01*
X193617305Y-111482714D01*
X192188961Y-110054370D01*
X192164721Y-110020072D01*
X192153321Y-109979650D01*
X192136353Y-109818204D01*
X192136352Y-109818203D01*
X192135674Y-109811744D01*
X192077179Y-109631716D01*
X191982533Y-109467784D01*
X191855871Y-109327112D01*
X191850613Y-109323292D01*
X191850611Y-109323290D01*
X191707988Y-109219669D01*
X191707987Y-109219668D01*
X191702730Y-109215849D01*
X191696792Y-109213205D01*
X191535745Y-109141501D01*
X191535740Y-109141499D01*
X191529803Y-109138856D01*
X191523444Y-109137504D01*
X191523440Y-109137503D01*
X191351008Y-109100852D01*
X191351005Y-109100851D01*
X191344646Y-109099500D01*
X191155354Y-109099500D01*
X191148995Y-109100851D01*
X191148991Y-109100852D01*
X190976559Y-109137503D01*
X190976552Y-109137505D01*
X190970197Y-109138856D01*
X190964262Y-109141498D01*
X190964254Y-109141501D01*
X190803207Y-109213205D01*
X190803202Y-109213207D01*
X190797270Y-109215849D01*
X190792016Y-109219665D01*
X190792011Y-109219669D01*
X190649388Y-109323290D01*
X190649381Y-109323295D01*
X190644129Y-109327112D01*
X190639784Y-109331937D01*
X190639779Y-109331942D01*
X190521813Y-109462956D01*
X190521808Y-109462962D01*
X190517467Y-109467784D01*
X190514222Y-109473404D01*
X190514218Y-109473410D01*
X190426069Y-109626089D01*
X190426066Y-109626094D01*
X190422821Y-109631716D01*
X190420815Y-109637888D01*
X190420813Y-109637894D01*
X190366333Y-109805564D01*
X190366331Y-109805573D01*
X190364326Y-109811744D01*
X190363648Y-109818194D01*
X190363646Y-109818204D01*
X190347537Y-109971484D01*
X190344540Y-110000000D01*
X190345219Y-110006460D01*
X190363646Y-110181795D01*
X190363647Y-110181803D01*
X190364326Y-110188256D01*
X190366331Y-110194428D01*
X190366333Y-110194435D01*
X190420813Y-110362105D01*
X190422821Y-110368284D01*
X190517467Y-110532216D01*
X190644129Y-110672888D01*
X190797270Y-110784151D01*
X190970197Y-110861144D01*
X191155354Y-110900500D01*
X191214548Y-110900500D01*
X191262001Y-110909939D01*
X191302229Y-110936819D01*
X192538181Y-112172772D01*
X192565061Y-112213000D01*
X192574500Y-112260453D01*
X192574500Y-120288001D01*
X192557887Y-120350001D01*
X192512500Y-120395388D01*
X192450500Y-120412001D01*
X192299992Y-120412001D01*
X192296860Y-120412320D01*
X192296858Y-120412321D01*
X192203938Y-120421812D01*
X192203928Y-120421813D01*
X192197203Y-120422501D01*
X192190781Y-120424628D01*
X192190776Y-120424630D01*
X192037521Y-120475414D01*
X192037517Y-120475415D01*
X192030666Y-120477686D01*
X191969593Y-120515355D01*
X191907204Y-120533786D01*
X191844067Y-120518093D01*
X191797566Y-120472595D01*
X191780499Y-120409816D01*
X191780499Y-120375439D01*
X191780499Y-120372128D01*
X191774091Y-120312517D01*
X191723796Y-120177669D01*
X191718480Y-120170567D01*
X191718478Y-120170564D01*
X191676366Y-120114309D01*
X191654467Y-120066357D01*
X191654467Y-120013640D01*
X191676365Y-119965689D01*
X191723796Y-119902331D01*
X191774091Y-119767483D01*
X191780500Y-119707873D01*
X191780499Y-117832128D01*
X191774091Y-117772517D01*
X191723796Y-117637669D01*
X191676365Y-117574310D01*
X191654467Y-117526358D01*
X191654467Y-117473642D01*
X191676366Y-117425689D01*
X191723796Y-117362331D01*
X191774091Y-117227483D01*
X191780500Y-117167873D01*
X191780499Y-115292128D01*
X191774091Y-115232517D01*
X191723796Y-115097669D01*
X191676053Y-115033893D01*
X191654155Y-114985941D01*
X191654155Y-114933225D01*
X191676054Y-114885272D01*
X191718037Y-114829189D01*
X191726452Y-114813777D01*
X191770888Y-114694641D01*
X191774426Y-114679667D01*
X191779646Y-114631114D01*
X191780000Y-114624518D01*
X191780000Y-113956326D01*
X191776549Y-113943450D01*
X191763674Y-113940000D01*
X188796326Y-113940000D01*
X188783450Y-113943450D01*
X188780000Y-113956326D01*
X188780000Y-114624518D01*
X188780353Y-114631114D01*
X188785573Y-114679667D01*
X188789111Y-114694641D01*
X188833547Y-114813777D01*
X188841964Y-114829193D01*
X188883945Y-114885273D01*
X188905844Y-114933225D01*
X188905844Y-114985941D01*
X188883945Y-115033893D01*
X188841521Y-115090564D01*
X188841516Y-115090572D01*
X188836204Y-115097669D01*
X188833104Y-115105978D01*
X188833104Y-115105980D01*
X188788620Y-115225247D01*
X188788619Y-115225250D01*
X188785909Y-115232517D01*
X188785079Y-115240227D01*
X188785079Y-115240232D01*
X188779855Y-115288819D01*
X188779854Y-115288831D01*
X188779500Y-115292127D01*
X188779500Y-115295449D01*
X188779500Y-115784546D01*
X188770061Y-115831999D01*
X188743181Y-115872227D01*
X188112696Y-116502711D01*
X188104511Y-116510159D01*
X188098123Y-116514214D01*
X188092788Y-116519894D01*
X188092783Y-116519899D01*
X188052096Y-116563225D01*
X188049392Y-116566016D01*
X188032628Y-116582780D01*
X188032621Y-116582787D01*
X188029880Y-116585529D01*
X188027500Y-116588596D01*
X188027489Y-116588609D01*
X188027400Y-116588725D01*
X188019842Y-116597570D01*
X187995280Y-116623727D01*
X187995273Y-116623736D01*
X187989938Y-116629418D01*
X187986182Y-116636249D01*
X187986179Y-116636254D01*
X187980285Y-116646975D01*
X187969609Y-116663227D01*
X187962109Y-116672896D01*
X187962101Y-116672907D01*
X187957327Y-116679064D01*
X187954234Y-116686208D01*
X187954229Y-116686219D01*
X187939974Y-116719160D01*
X187934838Y-116729643D01*
X187917932Y-116760397D01*
X187913803Y-116767908D01*
X187911864Y-116775456D01*
X187911863Y-116775461D01*
X187908822Y-116787307D01*
X187902521Y-116805711D01*
X187897658Y-116816948D01*
X187897656Y-116816952D01*
X187894562Y-116824104D01*
X187893342Y-116831803D01*
X187893342Y-116831805D01*
X187887729Y-116867241D01*
X187885361Y-116878676D01*
X187876438Y-116913428D01*
X187876436Y-116913436D01*
X187874500Y-116920981D01*
X187874500Y-116928777D01*
X187874500Y-116941017D01*
X187872974Y-116960402D01*
X187869840Y-116980196D01*
X187870574Y-116987961D01*
X187870574Y-116987964D01*
X187873950Y-117023676D01*
X187874500Y-117035345D01*
X187874500Y-120939548D01*
X187865061Y-120987001D01*
X187838181Y-121027229D01*
X187262696Y-121602711D01*
X187254511Y-121610159D01*
X187248123Y-121614214D01*
X187242788Y-121619894D01*
X187242783Y-121619899D01*
X187202096Y-121663225D01*
X187199392Y-121666016D01*
X187182628Y-121682780D01*
X187182621Y-121682787D01*
X187179880Y-121685529D01*
X187177500Y-121688596D01*
X187177489Y-121688609D01*
X187177400Y-121688725D01*
X187169842Y-121697570D01*
X187145280Y-121723727D01*
X187145273Y-121723736D01*
X187139938Y-121729418D01*
X187136182Y-121736249D01*
X187136179Y-121736254D01*
X187130285Y-121746975D01*
X187119609Y-121763227D01*
X187112109Y-121772896D01*
X187112101Y-121772907D01*
X187107327Y-121779064D01*
X187104234Y-121786208D01*
X187104229Y-121786219D01*
X187089974Y-121819160D01*
X187084838Y-121829643D01*
X187075449Y-121846723D01*
X187063803Y-121867908D01*
X187061864Y-121875456D01*
X187061863Y-121875461D01*
X187058822Y-121887307D01*
X187052521Y-121905711D01*
X187047658Y-121916948D01*
X187047656Y-121916952D01*
X187044562Y-121924104D01*
X187043342Y-121931803D01*
X187043342Y-121931805D01*
X187037729Y-121967241D01*
X187035361Y-121978676D01*
X187026438Y-122013428D01*
X187026436Y-122013436D01*
X187024500Y-122020981D01*
X187024500Y-122028777D01*
X187024500Y-122041017D01*
X187022974Y-122060402D01*
X187019840Y-122080196D01*
X187020574Y-122087961D01*
X187020574Y-122087964D01*
X187023950Y-122123676D01*
X187024500Y-122135345D01*
X187024500Y-123108481D01*
X187015061Y-123155934D01*
X186988181Y-123196162D01*
X186912681Y-123271662D01*
X186857094Y-123303756D01*
X186792906Y-123303756D01*
X186737319Y-123271662D01*
X186661819Y-123196162D01*
X186634939Y-123155934D01*
X186625500Y-123108481D01*
X186625500Y-119365847D01*
X186634529Y-119319396D01*
X186660302Y-119279710D01*
X186699058Y-119252570D01*
X186852730Y-119184151D01*
X187005871Y-119072888D01*
X187132533Y-118932216D01*
X187227179Y-118768284D01*
X187285674Y-118588256D01*
X187305460Y-118400000D01*
X187285674Y-118211744D01*
X187227179Y-118031716D01*
X187132533Y-117867784D01*
X187067398Y-117795445D01*
X187010220Y-117731942D01*
X187010219Y-117731941D01*
X187005871Y-117727112D01*
X187000613Y-117723292D01*
X187000611Y-117723290D01*
X186857988Y-117619669D01*
X186857987Y-117619668D01*
X186852730Y-117615849D01*
X186822726Y-117602490D01*
X186685745Y-117541501D01*
X186685740Y-117541499D01*
X186679803Y-117538856D01*
X186673444Y-117537504D01*
X186673440Y-117537503D01*
X186501008Y-117500852D01*
X186501005Y-117500851D01*
X186494646Y-117499500D01*
X186305354Y-117499500D01*
X186298995Y-117500851D01*
X186298991Y-117500852D01*
X186126559Y-117537503D01*
X186126552Y-117537505D01*
X186120197Y-117538856D01*
X186114262Y-117541498D01*
X186114254Y-117541501D01*
X185953207Y-117613205D01*
X185953202Y-117613207D01*
X185947270Y-117615849D01*
X185942016Y-117619665D01*
X185942011Y-117619669D01*
X185799388Y-117723290D01*
X185799381Y-117723295D01*
X185794129Y-117727112D01*
X185789784Y-117731937D01*
X185789779Y-117731942D01*
X185671813Y-117862956D01*
X185671808Y-117862962D01*
X185667467Y-117867784D01*
X185664222Y-117873404D01*
X185664218Y-117873410D01*
X185576069Y-118026089D01*
X185576066Y-118026094D01*
X185572821Y-118031716D01*
X185570815Y-118037888D01*
X185570813Y-118037894D01*
X185516333Y-118205564D01*
X185516331Y-118205573D01*
X185514326Y-118211744D01*
X185513648Y-118218194D01*
X185513646Y-118218204D01*
X185494540Y-118400000D01*
X185493204Y-118399859D01*
X185488534Y-118427923D01*
X185469199Y-118463757D01*
X185462107Y-118472899D01*
X185462100Y-118472909D01*
X185457327Y-118479064D01*
X185454234Y-118486208D01*
X185454229Y-118486219D01*
X185439974Y-118519160D01*
X185434838Y-118529643D01*
X185413803Y-118567908D01*
X185411864Y-118575456D01*
X185411863Y-118575461D01*
X185408822Y-118587307D01*
X185402521Y-118605711D01*
X185397658Y-118616948D01*
X185397656Y-118616952D01*
X185394562Y-118624104D01*
X185393342Y-118631803D01*
X185393342Y-118631805D01*
X185387729Y-118667241D01*
X185385361Y-118678676D01*
X185376438Y-118713428D01*
X185376436Y-118713436D01*
X185374500Y-118720981D01*
X185374500Y-118728777D01*
X185374500Y-118741017D01*
X185372974Y-118760402D01*
X185369840Y-118780196D01*
X185370574Y-118787961D01*
X185370574Y-118787964D01*
X185373950Y-118823676D01*
X185374500Y-118835345D01*
X185374500Y-120101383D01*
X185359473Y-120160551D01*
X185318035Y-120205378D01*
X185260229Y-120225001D01*
X185200064Y-120214662D01*
X185035745Y-120141501D01*
X185035740Y-120141499D01*
X185029803Y-120138856D01*
X185023444Y-120137504D01*
X185023440Y-120137503D01*
X184851008Y-120100852D01*
X184851005Y-120100851D01*
X184844646Y-120099500D01*
X184655354Y-120099500D01*
X184648995Y-120100851D01*
X184648991Y-120100852D01*
X184476559Y-120137503D01*
X184476552Y-120137505D01*
X184470197Y-120138856D01*
X184464262Y-120141498D01*
X184464254Y-120141501D01*
X184303207Y-120213205D01*
X184303202Y-120213207D01*
X184297270Y-120215849D01*
X184292016Y-120219665D01*
X184292011Y-120219669D01*
X184149388Y-120323290D01*
X184149381Y-120323295D01*
X184144129Y-120327112D01*
X184139784Y-120331937D01*
X184139779Y-120331942D01*
X184021813Y-120462956D01*
X184021808Y-120462962D01*
X184017467Y-120467784D01*
X184014221Y-120473405D01*
X184014221Y-120473406D01*
X183940989Y-120600247D01*
X183921283Y-120625927D01*
X182634030Y-121913181D01*
X182593802Y-121940061D01*
X182546349Y-121949500D01*
X182374500Y-121949500D01*
X182312500Y-121932887D01*
X182267113Y-121887500D01*
X182250500Y-121825500D01*
X182250499Y-120734500D01*
X182267112Y-120672500D01*
X182312499Y-120627113D01*
X182374499Y-120610500D01*
X182437225Y-120610500D01*
X182448280Y-120611021D01*
X182455667Y-120612673D01*
X182522872Y-120610561D01*
X182526768Y-120610500D01*
X182550448Y-120610500D01*
X182554350Y-120610500D01*
X182558313Y-120609999D01*
X182569963Y-120609080D01*
X182613627Y-120607709D01*
X182632861Y-120602119D01*
X182651917Y-120598174D01*
X182671792Y-120595664D01*
X182712395Y-120579587D01*
X182723450Y-120575802D01*
X182765390Y-120563618D01*
X182782629Y-120553422D01*
X182800103Y-120544862D01*
X182811474Y-120540360D01*
X182811476Y-120540358D01*
X182818732Y-120537486D01*
X182854069Y-120511811D01*
X182863824Y-120505403D01*
X182901420Y-120483170D01*
X182915584Y-120469005D01*
X182930379Y-120456368D01*
X182946587Y-120444594D01*
X182974428Y-120410938D01*
X182982279Y-120402309D01*
X183387306Y-119997282D01*
X183395482Y-119989843D01*
X183401877Y-119985786D01*
X183447933Y-119936740D01*
X183450550Y-119934038D01*
X183470120Y-119914470D01*
X183472565Y-119911316D01*
X183480155Y-119902428D01*
X183510062Y-119870582D01*
X183519709Y-119853032D01*
X183530393Y-119836766D01*
X183542674Y-119820936D01*
X183560018Y-119780851D01*
X183565160Y-119770356D01*
X183586197Y-119732092D01*
X183591179Y-119712689D01*
X183597480Y-119694283D01*
X183605438Y-119675895D01*
X183612269Y-119632756D01*
X183614639Y-119621315D01*
X183623560Y-119586574D01*
X183623559Y-119586574D01*
X183625500Y-119579019D01*
X183625500Y-119558983D01*
X183627025Y-119539597D01*
X183630160Y-119519804D01*
X183626050Y-119476324D01*
X183625500Y-119464655D01*
X183625500Y-119198687D01*
X183633736Y-119154249D01*
X183657350Y-119115715D01*
X183692471Y-119076709D01*
X183732533Y-119032216D01*
X183827179Y-118868284D01*
X183885674Y-118688256D01*
X183905460Y-118500000D01*
X183885674Y-118311744D01*
X183827179Y-118131716D01*
X183732533Y-117967784D01*
X183605871Y-117827112D01*
X183600613Y-117823292D01*
X183600611Y-117823290D01*
X183457988Y-117719669D01*
X183457987Y-117719668D01*
X183452730Y-117715849D01*
X183446792Y-117713205D01*
X183285745Y-117641501D01*
X183285740Y-117641499D01*
X183279803Y-117638856D01*
X183273444Y-117637504D01*
X183273440Y-117637503D01*
X183101008Y-117600852D01*
X183101005Y-117600851D01*
X183094646Y-117599500D01*
X182905354Y-117599500D01*
X182898995Y-117600851D01*
X182898991Y-117600852D01*
X182726559Y-117637503D01*
X182726552Y-117637505D01*
X182720197Y-117638856D01*
X182714262Y-117641498D01*
X182714254Y-117641501D01*
X182553207Y-117713205D01*
X182553202Y-117713207D01*
X182547270Y-117715849D01*
X182542016Y-117719665D01*
X182542011Y-117719669D01*
X182424135Y-117805311D01*
X182371958Y-117827252D01*
X182315466Y-117823717D01*
X182266430Y-117795445D01*
X182235068Y-117748326D01*
X182193796Y-117637669D01*
X182146365Y-117574310D01*
X182124467Y-117526358D01*
X182124467Y-117473642D01*
X182146366Y-117425689D01*
X182193796Y-117362331D01*
X182244091Y-117227483D01*
X182250500Y-117167873D01*
X182250499Y-115292128D01*
X182244091Y-115232517D01*
X182193796Y-115097669D01*
X182146365Y-115034310D01*
X182124467Y-114986358D01*
X182124467Y-114933642D01*
X182146366Y-114885689D01*
X182193796Y-114822331D01*
X182244091Y-114687483D01*
X182250500Y-114627873D01*
X182250499Y-113423674D01*
X188780000Y-113423674D01*
X188783450Y-113436549D01*
X188796326Y-113440000D01*
X190013674Y-113440000D01*
X190026549Y-113436549D01*
X190030000Y-113423674D01*
X190530000Y-113423674D01*
X190533450Y-113436549D01*
X190546326Y-113440000D01*
X191763674Y-113440000D01*
X191776549Y-113436549D01*
X191780000Y-113423674D01*
X191780000Y-112755482D01*
X191779646Y-112748885D01*
X191774426Y-112700332D01*
X191770888Y-112685358D01*
X191726452Y-112566222D01*
X191718037Y-112550810D01*
X191642501Y-112449907D01*
X191630092Y-112437498D01*
X191529189Y-112361962D01*
X191513777Y-112353547D01*
X191394641Y-112309111D01*
X191379667Y-112305573D01*
X191331114Y-112300353D01*
X191324518Y-112300000D01*
X190546326Y-112300000D01*
X190533450Y-112303450D01*
X190530000Y-112316326D01*
X190530000Y-113423674D01*
X190030000Y-113423674D01*
X190030000Y-112316326D01*
X190026549Y-112303450D01*
X190013674Y-112300000D01*
X189235482Y-112300000D01*
X189228885Y-112300353D01*
X189180332Y-112305573D01*
X189165358Y-112309111D01*
X189046222Y-112353547D01*
X189030810Y-112361962D01*
X188929907Y-112437498D01*
X188917498Y-112449907D01*
X188841962Y-112550810D01*
X188833547Y-112566222D01*
X188789111Y-112685358D01*
X188785573Y-112700332D01*
X188780353Y-112748885D01*
X188780000Y-112755482D01*
X188780000Y-113423674D01*
X182250499Y-113423674D01*
X182250499Y-112752128D01*
X182244091Y-112692517D01*
X182193796Y-112557669D01*
X182107546Y-112442454D01*
X181992331Y-112356204D01*
X181921965Y-112329959D01*
X181864752Y-112308620D01*
X181864750Y-112308619D01*
X181857483Y-112305909D01*
X181849770Y-112305079D01*
X181849767Y-112305079D01*
X181801180Y-112299855D01*
X181801169Y-112299854D01*
X181797873Y-112299500D01*
X181794550Y-112299500D01*
X179705439Y-112299500D01*
X179705420Y-112299500D01*
X179702128Y-112299501D01*
X179698850Y-112299853D01*
X179698838Y-112299854D01*
X179650231Y-112305079D01*
X179650225Y-112305080D01*
X179642517Y-112305909D01*
X179635252Y-112308618D01*
X179635246Y-112308620D01*
X179515980Y-112353104D01*
X179515978Y-112353104D01*
X179507669Y-112356204D01*
X179500572Y-112361516D01*
X179500568Y-112361519D01*
X179399550Y-112437141D01*
X179399546Y-112437144D01*
X179392454Y-112442454D01*
X179387144Y-112449546D01*
X179387141Y-112449550D01*
X179311519Y-112550568D01*
X179311516Y-112550572D01*
X179306204Y-112557669D01*
X179303104Y-112565978D01*
X179303104Y-112565980D01*
X179258620Y-112685247D01*
X179258619Y-112685250D01*
X179255909Y-112692517D01*
X179255079Y-112700227D01*
X179255079Y-112700232D01*
X179249855Y-112748819D01*
X179249854Y-112748831D01*
X179249500Y-112752127D01*
X179249500Y-112755448D01*
X179249500Y-112755449D01*
X179249500Y-114624560D01*
X179249500Y-114624578D01*
X179249501Y-114627872D01*
X179249853Y-114631150D01*
X179249854Y-114631161D01*
X179255079Y-114679768D01*
X179255080Y-114679773D01*
X179255909Y-114687483D01*
X179258619Y-114694749D01*
X179258620Y-114694753D01*
X179265425Y-114712997D01*
X179306204Y-114822331D01*
X179311518Y-114829429D01*
X179311521Y-114829435D01*
X179353633Y-114885690D01*
X179375532Y-114933642D01*
X179375532Y-114986358D01*
X179353633Y-115034310D01*
X179311521Y-115090564D01*
X179311516Y-115090572D01*
X179306204Y-115097669D01*
X179303106Y-115105973D01*
X179303102Y-115105982D01*
X179292247Y-115135087D01*
X179257910Y-115184905D01*
X179204087Y-115212545D01*
X179143591Y-115211424D01*
X179090828Y-115181811D01*
X179058360Y-115130755D01*
X179050151Y-115105982D01*
X179037003Y-115066303D01*
X178947968Y-114921956D01*
X178911819Y-114885807D01*
X178884939Y-114845579D01*
X178875500Y-114798126D01*
X178875500Y-112310452D01*
X178884939Y-112262999D01*
X178911819Y-112222771D01*
X179447771Y-111686818D01*
X179487999Y-111659938D01*
X179535452Y-111650499D01*
X180044561Y-111650499D01*
X180047872Y-111650499D01*
X180107483Y-111644091D01*
X180242331Y-111593796D01*
X180357546Y-111507546D01*
X180443796Y-111392331D01*
X180494091Y-111257483D01*
X180500500Y-111197873D01*
X180500499Y-110102128D01*
X180494091Y-110042517D01*
X180491380Y-110035251D01*
X180489789Y-110028514D01*
X180489789Y-109971484D01*
X180491379Y-109964753D01*
X180494091Y-109957483D01*
X180500500Y-109897873D01*
X180500499Y-108802128D01*
X180494091Y-108742517D01*
X180443796Y-108607669D01*
X180357546Y-108492454D01*
X180242331Y-108406204D01*
X180234020Y-108403104D01*
X180234018Y-108403103D01*
X180230865Y-108401927D01*
X180227187Y-108399373D01*
X180226238Y-108398855D01*
X180226293Y-108398752D01*
X180180488Y-108366946D01*
X180153037Y-108312102D01*
X180155227Y-108250811D01*
X180186521Y-108198068D01*
X180384589Y-108000000D01*
X183444706Y-108000000D01*
X183445088Y-108004854D01*
X183462822Y-108230196D01*
X183463854Y-108243302D01*
X183464988Y-108248026D01*
X183464989Y-108248031D01*
X183502964Y-108406204D01*
X183520828Y-108480612D01*
X183522693Y-108485116D01*
X183522694Y-108485117D01*
X183612357Y-108701586D01*
X183612361Y-108701594D01*
X183614223Y-108706089D01*
X183741741Y-108914179D01*
X183744905Y-108917884D01*
X183744909Y-108917889D01*
X183897074Y-109096051D01*
X183900241Y-109099759D01*
X183903948Y-109102925D01*
X184082110Y-109255090D01*
X184082113Y-109255092D01*
X184085821Y-109258259D01*
X184293911Y-109385777D01*
X184298410Y-109387640D01*
X184298413Y-109387642D01*
X184359600Y-109412986D01*
X184519388Y-109479172D01*
X184756698Y-109536146D01*
X185000000Y-109555294D01*
X185243302Y-109536146D01*
X185480612Y-109479172D01*
X185706089Y-109385777D01*
X185914179Y-109258259D01*
X186099759Y-109099759D01*
X186258259Y-108914179D01*
X186385777Y-108706089D01*
X186479172Y-108480612D01*
X186536146Y-108243302D01*
X186555294Y-108000000D01*
X186536146Y-107756698D01*
X186479172Y-107519388D01*
X186390030Y-107304179D01*
X186387642Y-107298413D01*
X186387640Y-107298410D01*
X186385777Y-107293911D01*
X186258259Y-107085821D01*
X186099759Y-106900241D01*
X186059519Y-106865873D01*
X185917889Y-106744909D01*
X185917884Y-106744905D01*
X185914179Y-106741741D01*
X185910023Y-106739194D01*
X185910020Y-106739192D01*
X185737223Y-106633302D01*
X185706089Y-106614223D01*
X185701594Y-106612361D01*
X185701586Y-106612357D01*
X185485117Y-106522694D01*
X185485116Y-106522693D01*
X185480612Y-106520828D01*
X185475875Y-106519690D01*
X185475873Y-106519690D01*
X185248031Y-106464989D01*
X185248026Y-106464988D01*
X185243302Y-106463854D01*
X185238455Y-106463472D01*
X185238452Y-106463472D01*
X185004854Y-106445088D01*
X185000000Y-106444706D01*
X184995146Y-106445088D01*
X184761547Y-106463472D01*
X184761542Y-106463472D01*
X184756698Y-106463854D01*
X184751975Y-106464987D01*
X184751968Y-106464989D01*
X184524126Y-106519690D01*
X184524120Y-106519691D01*
X184519388Y-106520828D01*
X184514886Y-106522692D01*
X184514882Y-106522694D01*
X184298413Y-106612357D01*
X184298400Y-106612363D01*
X184293911Y-106614223D01*
X184289757Y-106616768D01*
X184289756Y-106616769D01*
X184089979Y-106739192D01*
X184089970Y-106739198D01*
X184085821Y-106741741D01*
X184082121Y-106744900D01*
X184082110Y-106744909D01*
X183903948Y-106897074D01*
X183903941Y-106897080D01*
X183900241Y-106900241D01*
X183897080Y-106903941D01*
X183897074Y-106903948D01*
X183744909Y-107082110D01*
X183744900Y-107082121D01*
X183741741Y-107085821D01*
X183739198Y-107089970D01*
X183739192Y-107089979D01*
X183616769Y-107289756D01*
X183614223Y-107293911D01*
X183612363Y-107298400D01*
X183612357Y-107298413D01*
X183531789Y-107492925D01*
X183520828Y-107519388D01*
X183519691Y-107524120D01*
X183519690Y-107524126D01*
X183464989Y-107751968D01*
X183464987Y-107751975D01*
X183463854Y-107756698D01*
X183463472Y-107761542D01*
X183463472Y-107761547D01*
X183447307Y-107966948D01*
X183444706Y-108000000D01*
X180384589Y-108000000D01*
X180490215Y-107894374D01*
X180530446Y-107867494D01*
X180577906Y-107858058D01*
X180620046Y-107866445D01*
X180620255Y-107865803D01*
X180624891Y-107867309D01*
X180629388Y-107869172D01*
X180866698Y-107926146D01*
X181110000Y-107945294D01*
X181353302Y-107926146D01*
X181590612Y-107869172D01*
X181816089Y-107775777D01*
X182024179Y-107648259D01*
X182209759Y-107489759D01*
X182368259Y-107304179D01*
X182495777Y-107096089D01*
X182589172Y-106870612D01*
X182646146Y-106633302D01*
X182665294Y-106390000D01*
X182646146Y-106146698D01*
X182589172Y-105909388D01*
X182542600Y-105796952D01*
X182533758Y-105737346D01*
X182554059Y-105680609D01*
X182598708Y-105640142D01*
X182657161Y-105625500D01*
X187189548Y-105625500D01*
X187237001Y-105634939D01*
X187277226Y-105661816D01*
X187385623Y-105770214D01*
X187412498Y-105810432D01*
X187421940Y-105857874D01*
X187413559Y-105900047D01*
X187414197Y-105900255D01*
X187412689Y-105904894D01*
X187410828Y-105909388D01*
X187409694Y-105914109D01*
X187409691Y-105914120D01*
X187354989Y-106141968D01*
X187354987Y-106141975D01*
X187353854Y-106146698D01*
X187334706Y-106390000D01*
X187335088Y-106394854D01*
X187352205Y-106612357D01*
X187353854Y-106633302D01*
X187410828Y-106870612D01*
X187412693Y-106875116D01*
X187412694Y-106875117D01*
X187502357Y-107091586D01*
X187502361Y-107091594D01*
X187504223Y-107096089D01*
X187506769Y-107100243D01*
X187628207Y-107298413D01*
X187631741Y-107304179D01*
X187634905Y-107307884D01*
X187634909Y-107307889D01*
X187787074Y-107486051D01*
X187790241Y-107489759D01*
X187793948Y-107492925D01*
X187972110Y-107645090D01*
X187972113Y-107645092D01*
X187975821Y-107648259D01*
X188183911Y-107775777D01*
X188188410Y-107777640D01*
X188188413Y-107777642D01*
X188192701Y-107779418D01*
X188409388Y-107869172D01*
X188646698Y-107926146D01*
X188890000Y-107945294D01*
X189133302Y-107926146D01*
X189370612Y-107869172D01*
X189596089Y-107775777D01*
X189804179Y-107648259D01*
X189989759Y-107489759D01*
X190148259Y-107304179D01*
X190275777Y-107096089D01*
X190369172Y-106870612D01*
X190426146Y-106633302D01*
X190445294Y-106390000D01*
X190426146Y-106146698D01*
X190369172Y-105909388D01*
X190275777Y-105683911D01*
X190148259Y-105475821D01*
X189989759Y-105290241D01*
X189986051Y-105287074D01*
X189807889Y-105134909D01*
X189807884Y-105134905D01*
X189804179Y-105131741D01*
X189800023Y-105129194D01*
X189800020Y-105129192D01*
X189708374Y-105073031D01*
X189596089Y-105004223D01*
X189591594Y-105002361D01*
X189591586Y-105002357D01*
X189375117Y-104912694D01*
X189375116Y-104912693D01*
X189370612Y-104910828D01*
X189365875Y-104909690D01*
X189365873Y-104909690D01*
X189138031Y-104854989D01*
X189138026Y-104854988D01*
X189133302Y-104853854D01*
X189128455Y-104853472D01*
X189128452Y-104853472D01*
X188894854Y-104835088D01*
X188890000Y-104834706D01*
X188885146Y-104835088D01*
X188651547Y-104853472D01*
X188651542Y-104853472D01*
X188646698Y-104853854D01*
X188641975Y-104854987D01*
X188641968Y-104854989D01*
X188414120Y-104909691D01*
X188414109Y-104909694D01*
X188409388Y-104910828D01*
X188404894Y-104912689D01*
X188400255Y-104914197D01*
X188400047Y-104913559D01*
X188357874Y-104921940D01*
X188310432Y-104912497D01*
X188270212Y-104885621D01*
X187997286Y-104612695D01*
X187989842Y-104604514D01*
X187985786Y-104598123D01*
X187936775Y-104552098D01*
X187933978Y-104549387D01*
X187917227Y-104532636D01*
X187917226Y-104532635D01*
X187914471Y-104529880D01*
X187911290Y-104527412D01*
X187902414Y-104519830D01*
X187876269Y-104495278D01*
X187876267Y-104495276D01*
X187870582Y-104489938D01*
X187863749Y-104486182D01*
X187863743Y-104486177D01*
X187853025Y-104480285D01*
X187836766Y-104469606D01*
X187827095Y-104462104D01*
X187827092Y-104462102D01*
X187820936Y-104457327D01*
X187813779Y-104454229D01*
X187813776Y-104454228D01*
X187780849Y-104439978D01*
X187770363Y-104434841D01*
X187738932Y-104417562D01*
X187738923Y-104417558D01*
X187732092Y-104413803D01*
X187724535Y-104411862D01*
X187724531Y-104411861D01*
X187712688Y-104408820D01*
X187694284Y-104402519D01*
X187683057Y-104397660D01*
X187683050Y-104397658D01*
X187675896Y-104394562D01*
X187668192Y-104393341D01*
X187668190Y-104393341D01*
X187632759Y-104387729D01*
X187621324Y-104385361D01*
X187586571Y-104376438D01*
X187586563Y-104376437D01*
X187579019Y-104374500D01*
X187571223Y-104374500D01*
X187558983Y-104374500D01*
X187539597Y-104372974D01*
X187519804Y-104369840D01*
X187512038Y-104370574D01*
X187512035Y-104370574D01*
X187476324Y-104373950D01*
X187464655Y-104374500D01*
X179577775Y-104374500D01*
X179566719Y-104373978D01*
X179559333Y-104372327D01*
X179551545Y-104372571D01*
X179551538Y-104372571D01*
X179492113Y-104374439D01*
X179488219Y-104374500D01*
X179460650Y-104374500D01*
X179456794Y-104374986D01*
X179456791Y-104374987D01*
X179456735Y-104374994D01*
X179456662Y-104375003D01*
X179445044Y-104375917D01*
X179409165Y-104377045D01*
X179409164Y-104377045D01*
X179401373Y-104377290D01*
X179393888Y-104379464D01*
X179393884Y-104379465D01*
X179382125Y-104382881D01*
X179363087Y-104386823D01*
X179350949Y-104388357D01*
X179350941Y-104388358D01*
X179343208Y-104389336D01*
X179335960Y-104392205D01*
X179335954Y-104392207D01*
X179302597Y-104405413D01*
X179291554Y-104409194D01*
X179257100Y-104419205D01*
X179257094Y-104419207D01*
X179249610Y-104421382D01*
X179242898Y-104425351D01*
X179242896Y-104425352D01*
X179232364Y-104431580D01*
X179214904Y-104440134D01*
X179203519Y-104444642D01*
X179203513Y-104444644D01*
X179196268Y-104447514D01*
X179189963Y-104452094D01*
X179189955Y-104452099D01*
X179160932Y-104473185D01*
X179151174Y-104479595D01*
X179120296Y-104497857D01*
X179120290Y-104497861D01*
X179113580Y-104501830D01*
X179108067Y-104507341D01*
X179108060Y-104507348D01*
X179099410Y-104515998D01*
X179084627Y-104528624D01*
X179074726Y-104535817D01*
X179074716Y-104535826D01*
X179068413Y-104540406D01*
X179063444Y-104546411D01*
X179063441Y-104546415D01*
X179040572Y-104574059D01*
X179032711Y-104582697D01*
X175962696Y-107652711D01*
X175954511Y-107660159D01*
X175948123Y-107664214D01*
X175942788Y-107669894D01*
X175942783Y-107669899D01*
X175902096Y-107713225D01*
X175899392Y-107716016D01*
X175882628Y-107732780D01*
X175882621Y-107732787D01*
X175879880Y-107735529D01*
X175877500Y-107738596D01*
X175877489Y-107738609D01*
X175877400Y-107738725D01*
X175869842Y-107747570D01*
X175845280Y-107773727D01*
X175845273Y-107773736D01*
X175839938Y-107779418D01*
X175836182Y-107786249D01*
X175836179Y-107786254D01*
X175830285Y-107796975D01*
X175819609Y-107813227D01*
X175812109Y-107822896D01*
X175812101Y-107822907D01*
X175807327Y-107829064D01*
X175804234Y-107836208D01*
X175804229Y-107836219D01*
X175789974Y-107869160D01*
X175784838Y-107879643D01*
X175770610Y-107905525D01*
X175763803Y-107917908D01*
X175761864Y-107925456D01*
X175761863Y-107925461D01*
X175758822Y-107937307D01*
X175752521Y-107955711D01*
X175747658Y-107966948D01*
X175747656Y-107966952D01*
X175744562Y-107974104D01*
X175743342Y-107981803D01*
X175743342Y-107981805D01*
X175737729Y-108017241D01*
X175735361Y-108028676D01*
X175726438Y-108063428D01*
X175726436Y-108063436D01*
X175724500Y-108070981D01*
X175724500Y-108078777D01*
X175724500Y-108091017D01*
X175722974Y-108110402D01*
X175719840Y-108130196D01*
X175720574Y-108137961D01*
X175720574Y-108137964D01*
X175723950Y-108173676D01*
X175724500Y-108185345D01*
X175724500Y-108225501D01*
X175707887Y-108287501D01*
X175662500Y-108332888D01*
X175600500Y-108349501D01*
X175552128Y-108349501D01*
X175548850Y-108349853D01*
X175548838Y-108349854D01*
X175500231Y-108355079D01*
X175500225Y-108355080D01*
X175492517Y-108355909D01*
X175485252Y-108358618D01*
X175485246Y-108358620D01*
X175365980Y-108403104D01*
X175365978Y-108403104D01*
X175357669Y-108406204D01*
X175350572Y-108411516D01*
X175350568Y-108411519D01*
X175249550Y-108487141D01*
X175249546Y-108487144D01*
X175242454Y-108492454D01*
X175237144Y-108499546D01*
X175237139Y-108499552D01*
X175223767Y-108517416D01*
X175176012Y-108555900D01*
X175115654Y-108566790D01*
X175057461Y-108547421D01*
X175015668Y-108502533D01*
X175000500Y-108443106D01*
X175000500Y-102500000D01*
X177944706Y-102500000D01*
X177963854Y-102743302D01*
X178020828Y-102980612D01*
X178022693Y-102985116D01*
X178022694Y-102985117D01*
X178112357Y-103201586D01*
X178112361Y-103201594D01*
X178114223Y-103206089D01*
X178241741Y-103414179D01*
X178244905Y-103417884D01*
X178244909Y-103417889D01*
X178395792Y-103594550D01*
X178400241Y-103599759D01*
X178403948Y-103602925D01*
X178582110Y-103755090D01*
X178582113Y-103755092D01*
X178585821Y-103758259D01*
X178793911Y-103885777D01*
X178798410Y-103887640D01*
X178798413Y-103887642D01*
X178846466Y-103907546D01*
X179019388Y-103979172D01*
X179256698Y-104036146D01*
X179500000Y-104055294D01*
X179743302Y-104036146D01*
X179980612Y-103979172D01*
X180206089Y-103885777D01*
X180414179Y-103758259D01*
X180599759Y-103599759D01*
X180604184Y-103594578D01*
X188949500Y-103594578D01*
X188949501Y-103597872D01*
X188949853Y-103601150D01*
X188949854Y-103601161D01*
X188955079Y-103649768D01*
X188955080Y-103649773D01*
X188955909Y-103657483D01*
X188958619Y-103664749D01*
X188958620Y-103664753D01*
X188992217Y-103754831D01*
X189006204Y-103792331D01*
X189092454Y-103907546D01*
X189207669Y-103993796D01*
X189342517Y-104044091D01*
X189402127Y-104050500D01*
X191597872Y-104050499D01*
X191657483Y-104044091D01*
X191792331Y-103993796D01*
X191907546Y-103907546D01*
X191993796Y-103792331D01*
X192044091Y-103657483D01*
X192050500Y-103597873D01*
X192050499Y-101402128D01*
X192044091Y-101342517D01*
X191993796Y-101207669D01*
X191907546Y-101092454D01*
X191792331Y-101006204D01*
X191678785Y-100963854D01*
X191664752Y-100958620D01*
X191664750Y-100958619D01*
X191657483Y-100955909D01*
X191649770Y-100955079D01*
X191649767Y-100955079D01*
X191601180Y-100949855D01*
X191601169Y-100949854D01*
X191597873Y-100949500D01*
X191594550Y-100949500D01*
X189405439Y-100949500D01*
X189405420Y-100949500D01*
X189402128Y-100949501D01*
X189398850Y-100949853D01*
X189398838Y-100949854D01*
X189350231Y-100955079D01*
X189350225Y-100955080D01*
X189342517Y-100955909D01*
X189335252Y-100958618D01*
X189335246Y-100958620D01*
X189215980Y-101003104D01*
X189215978Y-101003104D01*
X189207669Y-101006204D01*
X189200572Y-101011516D01*
X189200568Y-101011519D01*
X189099550Y-101087141D01*
X189099546Y-101087144D01*
X189092454Y-101092454D01*
X189087144Y-101099546D01*
X189087141Y-101099550D01*
X189011519Y-101200568D01*
X189011516Y-101200572D01*
X189006204Y-101207669D01*
X189003104Y-101215978D01*
X189003104Y-101215980D01*
X188958620Y-101335247D01*
X188958619Y-101335250D01*
X188955909Y-101342517D01*
X188955079Y-101350227D01*
X188955079Y-101350232D01*
X188949855Y-101398819D01*
X188949854Y-101398831D01*
X188949500Y-101402127D01*
X188949500Y-101405448D01*
X188949500Y-101405449D01*
X188949500Y-103594560D01*
X188949500Y-103594578D01*
X180604184Y-103594578D01*
X180758259Y-103414179D01*
X180885777Y-103206089D01*
X180979172Y-102980612D01*
X181036146Y-102743302D01*
X181055294Y-102500000D01*
X181036146Y-102256698D01*
X180979172Y-102019388D01*
X180885777Y-101793911D01*
X180758259Y-101585821D01*
X180599759Y-101400241D01*
X180523661Y-101335247D01*
X180417889Y-101244909D01*
X180417884Y-101244905D01*
X180414179Y-101241741D01*
X180410023Y-101239194D01*
X180410020Y-101239192D01*
X180318374Y-101183031D01*
X180206089Y-101114223D01*
X180201594Y-101112361D01*
X180201586Y-101112357D01*
X179985117Y-101022694D01*
X179985116Y-101022693D01*
X179980612Y-101020828D01*
X179975875Y-101019690D01*
X179975873Y-101019690D01*
X179748031Y-100964989D01*
X179748026Y-100964988D01*
X179743302Y-100963854D01*
X179738455Y-100963472D01*
X179738452Y-100963472D01*
X179504854Y-100945088D01*
X179500000Y-100944706D01*
X179495146Y-100945088D01*
X179261547Y-100963472D01*
X179261542Y-100963472D01*
X179256698Y-100963854D01*
X179251975Y-100964987D01*
X179251968Y-100964989D01*
X179024126Y-101019690D01*
X179024120Y-101019691D01*
X179019388Y-101020828D01*
X179014886Y-101022692D01*
X179014882Y-101022694D01*
X178798413Y-101112357D01*
X178798400Y-101112363D01*
X178793911Y-101114223D01*
X178789757Y-101116768D01*
X178789756Y-101116769D01*
X178589979Y-101239192D01*
X178589970Y-101239198D01*
X178585821Y-101241741D01*
X178582121Y-101244900D01*
X178582110Y-101244909D01*
X178403948Y-101397074D01*
X178403941Y-101397080D01*
X178400241Y-101400241D01*
X178397080Y-101403941D01*
X178397074Y-101403948D01*
X178244909Y-101582110D01*
X178244900Y-101582121D01*
X178241741Y-101585821D01*
X178239198Y-101589970D01*
X178239192Y-101589979D01*
X178116769Y-101789756D01*
X178114223Y-101793911D01*
X178112363Y-101798400D01*
X178112357Y-101798413D01*
X178022694Y-102014882D01*
X178020828Y-102019388D01*
X178019691Y-102024120D01*
X178019690Y-102024126D01*
X177964989Y-102251968D01*
X177964987Y-102251975D01*
X177963854Y-102256698D01*
X177944706Y-102500000D01*
X175000500Y-102500000D01*
X175000500Y-98000000D01*
X183444706Y-98000000D01*
X183463854Y-98243302D01*
X183520828Y-98480612D01*
X183522693Y-98485116D01*
X183522694Y-98485117D01*
X183612357Y-98701586D01*
X183612361Y-98701594D01*
X183614223Y-98706089D01*
X183741741Y-98914179D01*
X183744905Y-98917884D01*
X183744909Y-98917889D01*
X183897074Y-99096051D01*
X183900241Y-99099759D01*
X183903948Y-99102925D01*
X184082110Y-99255090D01*
X184082113Y-99255092D01*
X184085821Y-99258259D01*
X184293911Y-99385777D01*
X184298410Y-99387640D01*
X184298413Y-99387642D01*
X184359600Y-99412986D01*
X184519388Y-99479172D01*
X184756698Y-99536146D01*
X185000000Y-99555294D01*
X185243302Y-99536146D01*
X185480612Y-99479172D01*
X185706089Y-99385777D01*
X185914179Y-99258259D01*
X186099759Y-99099759D01*
X186258259Y-98914179D01*
X186385777Y-98706089D01*
X186479172Y-98480612D01*
X186536146Y-98243302D01*
X186555294Y-98000000D01*
X186536146Y-97756698D01*
X186479172Y-97519388D01*
X186385777Y-97293911D01*
X186258259Y-97085821D01*
X186099759Y-96900241D01*
X186096051Y-96897074D01*
X185917889Y-96744909D01*
X185917884Y-96744905D01*
X185914179Y-96741741D01*
X185910023Y-96739194D01*
X185910020Y-96739192D01*
X185818374Y-96683031D01*
X185706089Y-96614223D01*
X185701594Y-96612361D01*
X185701586Y-96612357D01*
X185485117Y-96522694D01*
X185485116Y-96522693D01*
X185480612Y-96520828D01*
X185475875Y-96519690D01*
X185475873Y-96519690D01*
X185248031Y-96464989D01*
X185248026Y-96464988D01*
X185243302Y-96463854D01*
X185238455Y-96463472D01*
X185238452Y-96463472D01*
X185004854Y-96445088D01*
X185000000Y-96444706D01*
X184995146Y-96445088D01*
X184761547Y-96463472D01*
X184761542Y-96463472D01*
X184756698Y-96463854D01*
X184751975Y-96464987D01*
X184751968Y-96464989D01*
X184524126Y-96519690D01*
X184524120Y-96519691D01*
X184519388Y-96520828D01*
X184514886Y-96522692D01*
X184514882Y-96522694D01*
X184298413Y-96612357D01*
X184298400Y-96612363D01*
X184293911Y-96614223D01*
X184289757Y-96616768D01*
X184289756Y-96616769D01*
X184089979Y-96739192D01*
X184089970Y-96739198D01*
X184085821Y-96741741D01*
X184082121Y-96744900D01*
X184082110Y-96744909D01*
X183903948Y-96897074D01*
X183903941Y-96897080D01*
X183900241Y-96900241D01*
X183897080Y-96903941D01*
X183897074Y-96903948D01*
X183744909Y-97082110D01*
X183744900Y-97082121D01*
X183741741Y-97085821D01*
X183739198Y-97089970D01*
X183739192Y-97089979D01*
X183616769Y-97289756D01*
X183614223Y-97293911D01*
X183612363Y-97298400D01*
X183612357Y-97298413D01*
X183522694Y-97514882D01*
X183520828Y-97519388D01*
X183519691Y-97524120D01*
X183519690Y-97524126D01*
X183464989Y-97751968D01*
X183464987Y-97751975D01*
X183463854Y-97756698D01*
X183444706Y-98000000D01*
X175000500Y-98000000D01*
X175000500Y-89867765D01*
X183145788Y-89867765D01*
X183146282Y-89872262D01*
X183146283Y-89872267D01*
X183174917Y-90132506D01*
X183174918Y-90132513D01*
X183175414Y-90137018D01*
X183176559Y-90141398D01*
X183176561Y-90141408D01*
X183208830Y-90264838D01*
X183243928Y-90399088D01*
X183245693Y-90403242D01*
X183245696Y-90403250D01*
X183348099Y-90644223D01*
X183349870Y-90648390D01*
X183352226Y-90652251D01*
X183352229Y-90652256D01*
X183488618Y-90875737D01*
X183490982Y-90879610D01*
X183664255Y-91087820D01*
X183667630Y-91090844D01*
X183667631Y-91090845D01*
X183772330Y-91184656D01*
X183865998Y-91268582D01*
X184091910Y-91418044D01*
X184337176Y-91533020D01*
X184596569Y-91611060D01*
X184864561Y-91650500D01*
X185065369Y-91650500D01*
X185067631Y-91650500D01*
X185270156Y-91635677D01*
X185534553Y-91576780D01*
X185787558Y-91480014D01*
X186023777Y-91347441D01*
X186238177Y-91181888D01*
X186426186Y-90986881D01*
X186583799Y-90766579D01*
X186707656Y-90525675D01*
X186795118Y-90269305D01*
X186844319Y-90002933D01*
X186854212Y-89732235D01*
X186824586Y-89462982D01*
X186756072Y-89200912D01*
X186650130Y-88951610D01*
X186509018Y-88720390D01*
X186335745Y-88512180D01*
X186230759Y-88418112D01*
X186137382Y-88334446D01*
X186137378Y-88334442D01*
X186134002Y-88331418D01*
X185908090Y-88181956D01*
X185903996Y-88180036D01*
X185903991Y-88180034D01*
X185666929Y-88068904D01*
X185666925Y-88068902D01*
X185662824Y-88066980D01*
X185658477Y-88065672D01*
X185658474Y-88065671D01*
X185407772Y-87990246D01*
X185407771Y-87990245D01*
X185403431Y-87988940D01*
X185398957Y-87988281D01*
X185398950Y-87988280D01*
X185139913Y-87950158D01*
X185139907Y-87950157D01*
X185135439Y-87949500D01*
X184932369Y-87949500D01*
X184930120Y-87949664D01*
X184930109Y-87949665D01*
X184734363Y-87963992D01*
X184734359Y-87963992D01*
X184729844Y-87964323D01*
X184725426Y-87965307D01*
X184725420Y-87965308D01*
X184469877Y-88022232D01*
X184469861Y-88022236D01*
X184465447Y-88023220D01*
X184461216Y-88024838D01*
X184461210Y-88024840D01*
X184216673Y-88118367D01*
X184216663Y-88118371D01*
X184212442Y-88119986D01*
X184208494Y-88122201D01*
X184208489Y-88122204D01*
X183980176Y-88250340D01*
X183980171Y-88250343D01*
X183976223Y-88252559D01*
X183972639Y-88255325D01*
X183972635Y-88255329D01*
X183765407Y-88415343D01*
X183765394Y-88415354D01*
X183761823Y-88418112D01*
X183758685Y-88421366D01*
X183758678Y-88421373D01*
X183576958Y-88609857D01*
X183576952Y-88609864D01*
X183573814Y-88613119D01*
X183571189Y-88616787D01*
X183571179Y-88616800D01*
X183418834Y-88829740D01*
X183418830Y-88829745D01*
X183416201Y-88833421D01*
X183414132Y-88837444D01*
X183414129Y-88837450D01*
X183294416Y-89070293D01*
X183294411Y-89070304D01*
X183292344Y-89074325D01*
X183290884Y-89078602D01*
X183290879Y-89078616D01*
X183206348Y-89326395D01*
X183206344Y-89326407D01*
X183204882Y-89330695D01*
X183204057Y-89335159D01*
X183204057Y-89335161D01*
X183156504Y-89592606D01*
X183156502Y-89592619D01*
X183155681Y-89597067D01*
X183155515Y-89601593D01*
X183155515Y-89601599D01*
X183150576Y-89736762D01*
X183145788Y-89867765D01*
X175000500Y-89867765D01*
X175000500Y-83684329D01*
X176637501Y-83684329D01*
X176637821Y-83690611D01*
X176647305Y-83783459D01*
X176650123Y-83796622D01*
X176700870Y-83949767D01*
X176706932Y-83962766D01*
X176791390Y-84099694D01*
X176800294Y-84110955D01*
X176914044Y-84224705D01*
X176925305Y-84233609D01*
X177062233Y-84318067D01*
X177075232Y-84324129D01*
X177228374Y-84374875D01*
X177241541Y-84377694D01*
X177334390Y-84387180D01*
X177340668Y-84387500D01*
X177371174Y-84387500D01*
X177384049Y-84384049D01*
X177387500Y-84371174D01*
X177387500Y-83428826D01*
X177384049Y-83415950D01*
X177371174Y-83412500D01*
X176653827Y-83412500D01*
X176640951Y-83415950D01*
X176637501Y-83428826D01*
X176637501Y-83684329D01*
X175000500Y-83684329D01*
X175000500Y-77000000D01*
X175494540Y-77000000D01*
X175495219Y-77006460D01*
X175513646Y-77181795D01*
X175513647Y-77181803D01*
X175514326Y-77188256D01*
X175516331Y-77194428D01*
X175516333Y-77194435D01*
X175540166Y-77267784D01*
X175572821Y-77368284D01*
X175576068Y-77373908D01*
X175576069Y-77373910D01*
X175606194Y-77426089D01*
X175667467Y-77532216D01*
X175671811Y-77537041D01*
X175671813Y-77537043D01*
X175742650Y-77615715D01*
X175766264Y-77654249D01*
X175774500Y-77698687D01*
X175774500Y-78122225D01*
X175773978Y-78133280D01*
X175772327Y-78140667D01*
X175772571Y-78148453D01*
X175772571Y-78148461D01*
X175774439Y-78207873D01*
X175774500Y-78211768D01*
X175774500Y-78239350D01*
X175774988Y-78243219D01*
X175774989Y-78243225D01*
X175775004Y-78243343D01*
X175775918Y-78254966D01*
X175777045Y-78290830D01*
X175777046Y-78290837D01*
X175777291Y-78298627D01*
X175779467Y-78306119D01*
X175779468Y-78306121D01*
X175782879Y-78317862D01*
X175786825Y-78336915D01*
X175789336Y-78356792D01*
X175792206Y-78364042D01*
X175792208Y-78364048D01*
X175805414Y-78397404D01*
X175809197Y-78408451D01*
X175809867Y-78410756D01*
X175821382Y-78450390D01*
X175825353Y-78457105D01*
X175825354Y-78457107D01*
X175831581Y-78467637D01*
X175840136Y-78485099D01*
X175844642Y-78496480D01*
X175844643Y-78496483D01*
X175847514Y-78503732D01*
X175869440Y-78533912D01*
X175873181Y-78539060D01*
X175879593Y-78548822D01*
X175897856Y-78579702D01*
X175897859Y-78579707D01*
X175901830Y-78586420D01*
X175907345Y-78591935D01*
X175915990Y-78600580D01*
X175928626Y-78615374D01*
X175935819Y-78625275D01*
X175935823Y-78625279D01*
X175940406Y-78631587D01*
X175946415Y-78636558D01*
X175946416Y-78636559D01*
X175974058Y-78659426D01*
X175982699Y-78667289D01*
X176163653Y-78848243D01*
X176192294Y-78892968D01*
X176199088Y-78941914D01*
X176199787Y-78941942D01*
X176199691Y-78944371D01*
X176199500Y-78946806D01*
X176199500Y-79378194D01*
X176199690Y-79380614D01*
X176199691Y-79380628D01*
X176201904Y-79408751D01*
X176201905Y-79408758D01*
X176202402Y-79415069D01*
X176204168Y-79421150D01*
X176204170Y-79421157D01*
X176219959Y-79475500D01*
X176248256Y-79572898D01*
X176252227Y-79579612D01*
X176255326Y-79586774D01*
X176252964Y-79587795D01*
X176266689Y-79637969D01*
X176253210Y-79687309D01*
X176255788Y-79688425D01*
X176246541Y-79709794D01*
X176205307Y-79851723D01*
X176206713Y-79858793D01*
X176219856Y-79862500D01*
X176468185Y-79862500D01*
X176531306Y-79879768D01*
X176589602Y-79914244D01*
X176747431Y-79960098D01*
X176784306Y-79963000D01*
X177488500Y-79963000D01*
X177550500Y-79979613D01*
X177595887Y-80025000D01*
X177612500Y-80087000D01*
X177612500Y-80138000D01*
X177595887Y-80200000D01*
X177550500Y-80245387D01*
X177488500Y-80262000D01*
X176784306Y-80262000D01*
X176781886Y-80262190D01*
X176781871Y-80262191D01*
X176753748Y-80264404D01*
X176753739Y-80264405D01*
X176747431Y-80264902D01*
X176741351Y-80266668D01*
X176741342Y-80266670D01*
X176597094Y-80308579D01*
X176597091Y-80308580D01*
X176589602Y-80310756D01*
X176582891Y-80314724D01*
X176582886Y-80314727D01*
X176531306Y-80345232D01*
X176468185Y-80362500D01*
X176219856Y-80362500D01*
X176206713Y-80366206D01*
X176205307Y-80373276D01*
X176246541Y-80515205D01*
X176255788Y-80536574D01*
X176253208Y-80537690D01*
X176266689Y-80587019D01*
X176252966Y-80637204D01*
X176255326Y-80638225D01*
X176252225Y-80645389D01*
X176248256Y-80652102D01*
X176246080Y-80659591D01*
X176246079Y-80659594D01*
X176204170Y-80803842D01*
X176204168Y-80803851D01*
X176202402Y-80809931D01*
X176201905Y-80816239D01*
X176201904Y-80816248D01*
X176199691Y-80844371D01*
X176199690Y-80844386D01*
X176199500Y-80846806D01*
X176199500Y-81278194D01*
X176199690Y-81280614D01*
X176199691Y-81280628D01*
X176201904Y-81308751D01*
X176201905Y-81308758D01*
X176202402Y-81315069D01*
X176204168Y-81321150D01*
X176204170Y-81321157D01*
X176225000Y-81392851D01*
X176248256Y-81472898D01*
X176252226Y-81479611D01*
X176252227Y-81479613D01*
X176327946Y-81607648D01*
X176327948Y-81607651D01*
X176331919Y-81614365D01*
X176448135Y-81730581D01*
X176589602Y-81814244D01*
X176747431Y-81860098D01*
X176784306Y-81863000D01*
X176786751Y-81863000D01*
X176858346Y-81863000D01*
X176919721Y-81879255D01*
X176965006Y-81923757D01*
X176982327Y-81984839D01*
X176967145Y-82046488D01*
X176929976Y-82085651D01*
X176930971Y-82086910D01*
X176914044Y-82100294D01*
X176800294Y-82214044D01*
X176791390Y-82225305D01*
X176706932Y-82362233D01*
X176700870Y-82375232D01*
X176650124Y-82528374D01*
X176647305Y-82541541D01*
X176637819Y-82634390D01*
X176637500Y-82640668D01*
X176637500Y-82896174D01*
X176640950Y-82909049D01*
X176653826Y-82912500D01*
X177763500Y-82912500D01*
X177825500Y-82929113D01*
X177870887Y-82974500D01*
X177887500Y-83036500D01*
X177887500Y-84371173D01*
X177890950Y-84384048D01*
X177903826Y-84387499D01*
X177934329Y-84387499D01*
X177940611Y-84387178D01*
X178033459Y-84377694D01*
X178046624Y-84374876D01*
X178076719Y-84364903D01*
X178135833Y-84360249D01*
X178190348Y-84383576D01*
X178227800Y-84429549D01*
X178239622Y-84487655D01*
X178223113Y-84544607D01*
X178176068Y-84626092D01*
X178172821Y-84631716D01*
X178170815Y-84637888D01*
X178170813Y-84637894D01*
X178116333Y-84805564D01*
X178116331Y-84805573D01*
X178114326Y-84811744D01*
X178113648Y-84818194D01*
X178113646Y-84818204D01*
X178105276Y-84897848D01*
X178094540Y-85000000D01*
X178095219Y-85006460D01*
X178113646Y-85181795D01*
X178113647Y-85181803D01*
X178114326Y-85188256D01*
X178116331Y-85194428D01*
X178116333Y-85194435D01*
X178170813Y-85362105D01*
X178172821Y-85368284D01*
X178267467Y-85532216D01*
X178394129Y-85672888D01*
X178547270Y-85784151D01*
X178720197Y-85861144D01*
X178905354Y-85900500D01*
X179088143Y-85900500D01*
X179094646Y-85900500D01*
X179279803Y-85861144D01*
X179452730Y-85784151D01*
X179605871Y-85672888D01*
X179732533Y-85532216D01*
X179827179Y-85368284D01*
X179885674Y-85188256D01*
X179903040Y-85023022D01*
X179917084Y-84977381D01*
X179940240Y-84949098D01*
X179939376Y-84948287D01*
X179939377Y-84948286D01*
X179985433Y-84899240D01*
X179988050Y-84896538D01*
X180007620Y-84876970D01*
X180010065Y-84873816D01*
X180017655Y-84864928D01*
X180047562Y-84833082D01*
X180057213Y-84815523D01*
X180067890Y-84799270D01*
X180080173Y-84783436D01*
X180097522Y-84743341D01*
X180102657Y-84732862D01*
X180123697Y-84694592D01*
X180128678Y-84675187D01*
X180134983Y-84656777D01*
X180139839Y-84645556D01*
X180139839Y-84645555D01*
X180142938Y-84638395D01*
X180149769Y-84595256D01*
X180152139Y-84583815D01*
X180161060Y-84549074D01*
X180161059Y-84549074D01*
X180163000Y-84541519D01*
X180163000Y-84521483D01*
X180164525Y-84502097D01*
X180167660Y-84482304D01*
X180163550Y-84438824D01*
X180163000Y-84427155D01*
X180163000Y-84356878D01*
X180178723Y-84296446D01*
X180221904Y-84251339D01*
X180250003Y-84234007D01*
X180250001Y-84234007D01*
X180256156Y-84230212D01*
X180380212Y-84106156D01*
X180472314Y-83956834D01*
X180527499Y-83790297D01*
X180538000Y-83687509D01*
X180538000Y-83346829D01*
X187950001Y-83346829D01*
X187950321Y-83353111D01*
X187959805Y-83445959D01*
X187962623Y-83459122D01*
X188013370Y-83612267D01*
X188019432Y-83625266D01*
X188103890Y-83762194D01*
X188112794Y-83773455D01*
X188226544Y-83887205D01*
X188237805Y-83896109D01*
X188374733Y-83980567D01*
X188387732Y-83986629D01*
X188540874Y-84037375D01*
X188554041Y-84040194D01*
X188646890Y-84049680D01*
X188653168Y-84050000D01*
X188983674Y-84050000D01*
X188996549Y-84046549D01*
X189000000Y-84033674D01*
X189000000Y-84033673D01*
X189500000Y-84033673D01*
X189503450Y-84046548D01*
X189516326Y-84049999D01*
X189846829Y-84049999D01*
X189853111Y-84049678D01*
X189945959Y-84040194D01*
X189959122Y-84037376D01*
X190112267Y-83986629D01*
X190125266Y-83980567D01*
X190262194Y-83896109D01*
X190273455Y-83887205D01*
X190387205Y-83773455D01*
X190396109Y-83762194D01*
X190480567Y-83625266D01*
X190486629Y-83612267D01*
X190537375Y-83459125D01*
X190540194Y-83445958D01*
X190549680Y-83353109D01*
X190550000Y-83346832D01*
X190550000Y-82066326D01*
X190546549Y-82053450D01*
X190533674Y-82050000D01*
X189516326Y-82050000D01*
X189503450Y-82053450D01*
X189500000Y-82066326D01*
X189500000Y-84033673D01*
X189000000Y-84033673D01*
X189000000Y-82066326D01*
X188996549Y-82053450D01*
X188983674Y-82050000D01*
X187966327Y-82050000D01*
X187953451Y-82053450D01*
X187950001Y-82066326D01*
X187950001Y-83346829D01*
X180538000Y-83346829D01*
X180537999Y-82637492D01*
X180527499Y-82534703D01*
X180472314Y-82368166D01*
X180387692Y-82230971D01*
X180384002Y-82224988D01*
X180384000Y-82224985D01*
X180380212Y-82218844D01*
X180256156Y-82094788D01*
X180234135Y-82081205D01*
X180193968Y-82041206D01*
X180175800Y-81987509D01*
X180183428Y-81931337D01*
X180215258Y-81884430D01*
X180264635Y-81856592D01*
X180410398Y-81814244D01*
X180551865Y-81730581D01*
X180668081Y-81614365D01*
X180715801Y-81533674D01*
X187950000Y-81533674D01*
X187953450Y-81546549D01*
X187966326Y-81550000D01*
X188983674Y-81550000D01*
X188996549Y-81546549D01*
X189000000Y-81533674D01*
X189500000Y-81533674D01*
X189503450Y-81546549D01*
X189516326Y-81550000D01*
X190533673Y-81550000D01*
X190546548Y-81546549D01*
X190549999Y-81533674D01*
X190549999Y-80345165D01*
X193025001Y-80345165D01*
X193025321Y-80351447D01*
X193034455Y-80440867D01*
X193037274Y-80454036D01*
X193086180Y-80601625D01*
X193092246Y-80614633D01*
X193173632Y-80746580D01*
X193182537Y-80757842D01*
X193292157Y-80867462D01*
X193303419Y-80876367D01*
X193435366Y-80957753D01*
X193448374Y-80963819D01*
X193595969Y-81012727D01*
X193609125Y-81015543D01*
X193698555Y-81024680D01*
X193704832Y-81025000D01*
X193733674Y-81025000D01*
X193746549Y-81021549D01*
X193750000Y-81008674D01*
X193750000Y-80341326D01*
X193746549Y-80328450D01*
X193733674Y-80325000D01*
X193041327Y-80325000D01*
X193028451Y-80328450D01*
X193025001Y-80341326D01*
X193025001Y-80345165D01*
X190549999Y-80345165D01*
X190549999Y-80253171D01*
X190549678Y-80246888D01*
X190540194Y-80154040D01*
X190537376Y-80140877D01*
X190486629Y-79987732D01*
X190480567Y-79974733D01*
X190396109Y-79837805D01*
X190387205Y-79826544D01*
X190273455Y-79712794D01*
X190262194Y-79703890D01*
X190125266Y-79619432D01*
X190112267Y-79613370D01*
X189959125Y-79562624D01*
X189945958Y-79559805D01*
X189853109Y-79550319D01*
X189846832Y-79550000D01*
X189516326Y-79550000D01*
X189503450Y-79553450D01*
X189500000Y-79566326D01*
X189500000Y-81533674D01*
X189000000Y-81533674D01*
X189000000Y-79566327D01*
X188996549Y-79553451D01*
X188983674Y-79550001D01*
X188653171Y-79550001D01*
X188646888Y-79550321D01*
X188554040Y-79559805D01*
X188540877Y-79562623D01*
X188387732Y-79613370D01*
X188374733Y-79619432D01*
X188237805Y-79703890D01*
X188226544Y-79712794D01*
X188112794Y-79826544D01*
X188103890Y-79837805D01*
X188019432Y-79974733D01*
X188013370Y-79987732D01*
X187962624Y-80140874D01*
X187959805Y-80154041D01*
X187950319Y-80246890D01*
X187950000Y-80253168D01*
X187950000Y-81533674D01*
X180715801Y-81533674D01*
X180751744Y-81472898D01*
X180797598Y-81315069D01*
X180800500Y-81278194D01*
X180800500Y-80846806D01*
X180797598Y-80809931D01*
X180751744Y-80652102D01*
X180668081Y-80510635D01*
X180551865Y-80394419D01*
X180545151Y-80390448D01*
X180545148Y-80390446D01*
X180417113Y-80314727D01*
X180417111Y-80314726D01*
X180410398Y-80310756D01*
X180352401Y-80293906D01*
X180305976Y-80268700D01*
X180274255Y-80226451D01*
X180263000Y-80174832D01*
X180263000Y-80050168D01*
X180274255Y-79998549D01*
X180305976Y-79956300D01*
X180352401Y-79931093D01*
X180410398Y-79914244D01*
X180551865Y-79830581D01*
X180668081Y-79714365D01*
X180751744Y-79572898D01*
X180797598Y-79415069D01*
X180800500Y-79378194D01*
X180800500Y-78946806D01*
X180797598Y-78909931D01*
X180751744Y-78752102D01*
X180668081Y-78610635D01*
X180551865Y-78494419D01*
X180545151Y-78490448D01*
X180545148Y-78490446D01*
X180417113Y-78414727D01*
X180417111Y-78414726D01*
X180410398Y-78410756D01*
X180402905Y-78408579D01*
X180258657Y-78366670D01*
X180258650Y-78366668D01*
X180252569Y-78364902D01*
X180246258Y-78364405D01*
X180246251Y-78364404D01*
X180218128Y-78362191D01*
X180218114Y-78362190D01*
X180215694Y-78362000D01*
X180127826Y-78362000D01*
X180066452Y-78345746D01*
X180021167Y-78301245D01*
X180003845Y-78240164D01*
X180019025Y-78178515D01*
X180062729Y-78132461D01*
X180162194Y-78071109D01*
X180173455Y-78062205D01*
X180287205Y-77948455D01*
X180296109Y-77937194D01*
X180380567Y-77800266D01*
X180386629Y-77787267D01*
X180437375Y-77634125D01*
X180440194Y-77620958D01*
X180449680Y-77528109D01*
X180450000Y-77521832D01*
X180450000Y-77266326D01*
X180446549Y-77253450D01*
X180433674Y-77250000D01*
X179324000Y-77250000D01*
X179262000Y-77233387D01*
X179216613Y-77188000D01*
X179200000Y-77126000D01*
X179200000Y-76733674D01*
X179700000Y-76733674D01*
X179703450Y-76746549D01*
X179716326Y-76750000D01*
X180433673Y-76750000D01*
X180446548Y-76746549D01*
X180449999Y-76733674D01*
X180449999Y-76478171D01*
X180449678Y-76471888D01*
X180440194Y-76379040D01*
X180437376Y-76365877D01*
X180386629Y-76212732D01*
X180380567Y-76199733D01*
X180296109Y-76062805D01*
X180287205Y-76051544D01*
X180173455Y-75937794D01*
X180162194Y-75928890D01*
X180025266Y-75844432D01*
X180012267Y-75838370D01*
X179859125Y-75787624D01*
X179845958Y-75784805D01*
X179753109Y-75775319D01*
X179746832Y-75775000D01*
X179716326Y-75775000D01*
X179703450Y-75778450D01*
X179700000Y-75791326D01*
X179700000Y-76733674D01*
X179200000Y-76733674D01*
X179200000Y-75791327D01*
X179196549Y-75778451D01*
X179183674Y-75775001D01*
X179153171Y-75775001D01*
X179146888Y-75775321D01*
X179054040Y-75784805D01*
X179040877Y-75787623D01*
X178887732Y-75838370D01*
X178874733Y-75844432D01*
X178737805Y-75928890D01*
X178726544Y-75937794D01*
X178612794Y-76051544D01*
X178599410Y-76068471D01*
X178597886Y-76067266D01*
X178560712Y-76102844D01*
X178500281Y-76118559D01*
X178439853Y-76102832D01*
X178402436Y-76067008D01*
X178400984Y-76068157D01*
X178396502Y-76062488D01*
X178392712Y-76056344D01*
X178268656Y-75932288D01*
X178262515Y-75928500D01*
X178262511Y-75928497D01*
X178125480Y-75843977D01*
X178119334Y-75840186D01*
X178057644Y-75819744D01*
X177959225Y-75787131D01*
X177959224Y-75787130D01*
X177952797Y-75785001D01*
X177946064Y-75784313D01*
X177946059Y-75784312D01*
X177853140Y-75774819D01*
X177853123Y-75774818D01*
X177850009Y-75774500D01*
X177846860Y-75774500D01*
X177253141Y-75774500D01*
X177253121Y-75774500D01*
X177249992Y-75774501D01*
X177246860Y-75774820D01*
X177246858Y-75774821D01*
X177153938Y-75784312D01*
X177153928Y-75784313D01*
X177147203Y-75785001D01*
X177140781Y-75787128D01*
X177140776Y-75787130D01*
X176987521Y-75837914D01*
X176987517Y-75837915D01*
X176980666Y-75840186D01*
X176974522Y-75843975D01*
X176974519Y-75843977D01*
X176837488Y-75928497D01*
X176837480Y-75928503D01*
X176831344Y-75932288D01*
X176826242Y-75937389D01*
X176826238Y-75937393D01*
X176712398Y-76051233D01*
X176712394Y-76051237D01*
X176707288Y-76056344D01*
X176703494Y-76062493D01*
X176699018Y-76068156D01*
X176698067Y-76067404D01*
X176670356Y-76096718D01*
X176624035Y-76116538D01*
X176573652Y-76116293D01*
X176501008Y-76100852D01*
X176501005Y-76100851D01*
X176494646Y-76099500D01*
X176305354Y-76099500D01*
X176298995Y-76100851D01*
X176298991Y-76100852D01*
X176126559Y-76137503D01*
X176126552Y-76137505D01*
X176120197Y-76138856D01*
X176114262Y-76141498D01*
X176114254Y-76141501D01*
X175953207Y-76213205D01*
X175953202Y-76213207D01*
X175947270Y-76215849D01*
X175942016Y-76219665D01*
X175942011Y-76219669D01*
X175799388Y-76323290D01*
X175799381Y-76323295D01*
X175794129Y-76327112D01*
X175789784Y-76331937D01*
X175789779Y-76331942D01*
X175671813Y-76462956D01*
X175671808Y-76462962D01*
X175667467Y-76467784D01*
X175664222Y-76473404D01*
X175664218Y-76473410D01*
X175576069Y-76626089D01*
X175576066Y-76626094D01*
X175572821Y-76631716D01*
X175570815Y-76637888D01*
X175570813Y-76637894D01*
X175516333Y-76805564D01*
X175516331Y-76805573D01*
X175514326Y-76811744D01*
X175513648Y-76818194D01*
X175513646Y-76818204D01*
X175495962Y-76986464D01*
X175494540Y-77000000D01*
X175000500Y-77000000D01*
X175000500Y-69869219D01*
X178300000Y-69869219D01*
X178300158Y-69873644D01*
X178314983Y-70080934D01*
X178316242Y-70089690D01*
X178375171Y-70360578D01*
X178377657Y-70369047D01*
X178474541Y-70628803D01*
X178478212Y-70636841D01*
X178611068Y-70880150D01*
X178615852Y-70887593D01*
X178781987Y-71109524D01*
X178787772Y-71116199D01*
X178983800Y-71312227D01*
X178990475Y-71318012D01*
X179212406Y-71484147D01*
X179219849Y-71488931D01*
X179463158Y-71621787D01*
X179471196Y-71625458D01*
X179730952Y-71722342D01*
X179739421Y-71724828D01*
X180010307Y-71783756D01*
X180019066Y-71785016D01*
X180032965Y-71786010D01*
X180046316Y-71783272D01*
X180050000Y-71770154D01*
X180550000Y-71770154D01*
X180553683Y-71783272D01*
X180567034Y-71786010D01*
X180580933Y-71785016D01*
X180589692Y-71783756D01*
X180860578Y-71724828D01*
X180869047Y-71722342D01*
X181128803Y-71625458D01*
X181136841Y-71621787D01*
X181380150Y-71488931D01*
X181387593Y-71484147D01*
X181609524Y-71318012D01*
X181616199Y-71312227D01*
X181812227Y-71116199D01*
X181818012Y-71109524D01*
X181984147Y-70887593D01*
X181988931Y-70880150D01*
X182121787Y-70636841D01*
X182125458Y-70628803D01*
X182222342Y-70369047D01*
X182224828Y-70360578D01*
X182255579Y-70219219D01*
X187700000Y-70219219D01*
X187700158Y-70223644D01*
X187714983Y-70430934D01*
X187716242Y-70439690D01*
X187775171Y-70710578D01*
X187777657Y-70719047D01*
X187874541Y-70978803D01*
X187878212Y-70986841D01*
X188011068Y-71230150D01*
X188015852Y-71237593D01*
X188181987Y-71459524D01*
X188187772Y-71466199D01*
X188383800Y-71662227D01*
X188390475Y-71668012D01*
X188612406Y-71834147D01*
X188619849Y-71838931D01*
X188863158Y-71971787D01*
X188871196Y-71975458D01*
X189130952Y-72072342D01*
X189139421Y-72074828D01*
X189410307Y-72133756D01*
X189419066Y-72135016D01*
X189432965Y-72136010D01*
X189446316Y-72133272D01*
X189450000Y-72120154D01*
X189950000Y-72120154D01*
X189953683Y-72133272D01*
X189967034Y-72136010D01*
X189980933Y-72135016D01*
X189989692Y-72133756D01*
X190260578Y-72074828D01*
X190269047Y-72072342D01*
X190528803Y-71975458D01*
X190536841Y-71971787D01*
X190780150Y-71838931D01*
X190787593Y-71834147D01*
X191009524Y-71668012D01*
X191016199Y-71662227D01*
X191212227Y-71466199D01*
X191218012Y-71459524D01*
X191384147Y-71237593D01*
X191388931Y-71230150D01*
X191521787Y-70986841D01*
X191525458Y-70978803D01*
X191622342Y-70719047D01*
X191624828Y-70710578D01*
X191683757Y-70439690D01*
X191685016Y-70430934D01*
X191699841Y-70223644D01*
X191700000Y-70219219D01*
X191700000Y-69666326D01*
X191696549Y-69653450D01*
X191683674Y-69650000D01*
X189966326Y-69650000D01*
X189953450Y-69653450D01*
X189950000Y-69666326D01*
X189950000Y-72120154D01*
X189450000Y-72120154D01*
X189450000Y-69666326D01*
X189446549Y-69653450D01*
X189433674Y-69650000D01*
X187716326Y-69650000D01*
X187703450Y-69653450D01*
X187700000Y-69666326D01*
X187700000Y-70219219D01*
X182255579Y-70219219D01*
X182283757Y-70089690D01*
X182285016Y-70080934D01*
X182299841Y-69873644D01*
X182300000Y-69869219D01*
X182300000Y-69666326D01*
X182296549Y-69653450D01*
X182283674Y-69650000D01*
X180566326Y-69650000D01*
X180553450Y-69653450D01*
X180550000Y-69666326D01*
X180550000Y-71770154D01*
X180050000Y-71770154D01*
X180050000Y-69666326D01*
X180046549Y-69653450D01*
X180033674Y-69650000D01*
X178316326Y-69650000D01*
X178303450Y-69653450D01*
X178300000Y-69666326D01*
X178300000Y-69869219D01*
X175000500Y-69869219D01*
X175000500Y-69133674D01*
X178300000Y-69133674D01*
X178303450Y-69146549D01*
X178316326Y-69150000D01*
X180033674Y-69150000D01*
X180046549Y-69146549D01*
X180050000Y-69133674D01*
X180550000Y-69133674D01*
X180553450Y-69146549D01*
X180566326Y-69150000D01*
X182283674Y-69150000D01*
X182296549Y-69146549D01*
X182300000Y-69133674D01*
X187700000Y-69133674D01*
X187703450Y-69146549D01*
X187716326Y-69150000D01*
X189433674Y-69150000D01*
X189446549Y-69146549D01*
X189450000Y-69133674D01*
X189950000Y-69133674D01*
X189953450Y-69146549D01*
X189966326Y-69150000D01*
X191683674Y-69150000D01*
X191696549Y-69146549D01*
X191700000Y-69133674D01*
X191700000Y-68580782D01*
X191699841Y-68576355D01*
X191685016Y-68369065D01*
X191683757Y-68360309D01*
X191624828Y-68089421D01*
X191622342Y-68080952D01*
X191525458Y-67821196D01*
X191521787Y-67813158D01*
X191388931Y-67569849D01*
X191384147Y-67562406D01*
X191218012Y-67340475D01*
X191212227Y-67333800D01*
X191016199Y-67137772D01*
X191009524Y-67131987D01*
X190787593Y-66965852D01*
X190780150Y-66961068D01*
X190536841Y-66828212D01*
X190528803Y-66824541D01*
X190269047Y-66727657D01*
X190260578Y-66725171D01*
X189989692Y-66666243D01*
X189980933Y-66664983D01*
X189967034Y-66663989D01*
X189953683Y-66666727D01*
X189950000Y-66679846D01*
X189950000Y-69133674D01*
X189450000Y-69133674D01*
X189450000Y-66679846D01*
X189446316Y-66666727D01*
X189432965Y-66663989D01*
X189419066Y-66664983D01*
X189410307Y-66666243D01*
X189139421Y-66725171D01*
X189130952Y-66727657D01*
X188871196Y-66824541D01*
X188863158Y-66828212D01*
X188619849Y-66961068D01*
X188612406Y-66965852D01*
X188390475Y-67131987D01*
X188383800Y-67137772D01*
X188187772Y-67333800D01*
X188181987Y-67340475D01*
X188015852Y-67562406D01*
X188011068Y-67569849D01*
X187878212Y-67813158D01*
X187874541Y-67821196D01*
X187777657Y-68080952D01*
X187775171Y-68089421D01*
X187716242Y-68360309D01*
X187714983Y-68369065D01*
X187700158Y-68576355D01*
X187700000Y-68580782D01*
X187700000Y-69133674D01*
X182300000Y-69133674D01*
X182300000Y-68930782D01*
X182299841Y-68926355D01*
X182285016Y-68719065D01*
X182283757Y-68710309D01*
X182224828Y-68439421D01*
X182222342Y-68430952D01*
X182125458Y-68171196D01*
X182121787Y-68163158D01*
X181988931Y-67919849D01*
X181984147Y-67912406D01*
X181818012Y-67690475D01*
X181812227Y-67683800D01*
X181616199Y-67487772D01*
X181609524Y-67481987D01*
X181387593Y-67315852D01*
X181380150Y-67311068D01*
X181136841Y-67178212D01*
X181128803Y-67174541D01*
X180869047Y-67077657D01*
X180860578Y-67075171D01*
X180589692Y-67016243D01*
X180580933Y-67014983D01*
X180567034Y-67013989D01*
X180553683Y-67016727D01*
X180550000Y-67029846D01*
X180550000Y-69133674D01*
X180050000Y-69133674D01*
X180050000Y-67029846D01*
X180046316Y-67016727D01*
X180032965Y-67013989D01*
X180019066Y-67014983D01*
X180010307Y-67016243D01*
X179739421Y-67075171D01*
X179730952Y-67077657D01*
X179471196Y-67174541D01*
X179463158Y-67178212D01*
X179219849Y-67311068D01*
X179212406Y-67315852D01*
X178990475Y-67481987D01*
X178983800Y-67487772D01*
X178787772Y-67683800D01*
X178781987Y-67690475D01*
X178615852Y-67912406D01*
X178611068Y-67919849D01*
X178478212Y-68163158D01*
X178474541Y-68171196D01*
X178377657Y-68430952D01*
X178375171Y-68439421D01*
X178316242Y-68710309D01*
X178314983Y-68719065D01*
X178300158Y-68926355D01*
X178300000Y-68930782D01*
X178300000Y-69133674D01*
X175000500Y-69133674D01*
X175000500Y-66824335D01*
X182499500Y-66824335D01*
X182500343Y-66829387D01*
X182500344Y-66829398D01*
X182531147Y-67013989D01*
X182540429Y-67069614D01*
X182542093Y-67074461D01*
X182542094Y-67074465D01*
X182619507Y-67299962D01*
X182619510Y-67299969D01*
X182621172Y-67304810D01*
X182623607Y-67309310D01*
X182623610Y-67309316D01*
X182717055Y-67481987D01*
X182739526Y-67523509D01*
X182892262Y-67719744D01*
X182896029Y-67723211D01*
X182896032Y-67723215D01*
X183002468Y-67821196D01*
X183075215Y-67888164D01*
X183123713Y-67919849D01*
X183279099Y-68021368D01*
X183279102Y-68021369D01*
X183283393Y-68024173D01*
X183511119Y-68124063D01*
X183752179Y-68185108D01*
X183937933Y-68200500D01*
X186059497Y-68200500D01*
X186062067Y-68200500D01*
X186247821Y-68185108D01*
X186488881Y-68124063D01*
X186716607Y-68024173D01*
X186924785Y-67888164D01*
X187107738Y-67719744D01*
X187260474Y-67523509D01*
X187378828Y-67304810D01*
X187459571Y-67069614D01*
X187500500Y-66824335D01*
X187500500Y-66575665D01*
X187459571Y-66330386D01*
X187378828Y-66095190D01*
X187260474Y-65876491D01*
X187107738Y-65680256D01*
X187103970Y-65676787D01*
X187103967Y-65676784D01*
X186928560Y-65515311D01*
X186928559Y-65515310D01*
X186924785Y-65511836D01*
X186916885Y-65506675D01*
X186720900Y-65378631D01*
X186720893Y-65378627D01*
X186716607Y-65375827D01*
X186711916Y-65373769D01*
X186711910Y-65373766D01*
X186493577Y-65277997D01*
X186493578Y-65277997D01*
X186488881Y-65275937D01*
X186483911Y-65274678D01*
X186483910Y-65274678D01*
X186252795Y-65216151D01*
X186252788Y-65216149D01*
X186247821Y-65214892D01*
X186242709Y-65214468D01*
X186242701Y-65214467D01*
X186064633Y-65199712D01*
X186064617Y-65199711D01*
X186062067Y-65199500D01*
X183937933Y-65199500D01*
X183935383Y-65199711D01*
X183935366Y-65199712D01*
X183757298Y-65214467D01*
X183757288Y-65214468D01*
X183752179Y-65214892D01*
X183747213Y-65216149D01*
X183747204Y-65216151D01*
X183516089Y-65274678D01*
X183516084Y-65274679D01*
X183511119Y-65275937D01*
X183506425Y-65277995D01*
X183506422Y-65277997D01*
X183288089Y-65373766D01*
X183288077Y-65373772D01*
X183283393Y-65375827D01*
X183279111Y-65378624D01*
X183279099Y-65378631D01*
X183079512Y-65509028D01*
X183079506Y-65509031D01*
X183075215Y-65511836D01*
X183071446Y-65515305D01*
X183071439Y-65515311D01*
X182896032Y-65676784D01*
X182896023Y-65676793D01*
X182892262Y-65680256D01*
X182889113Y-65684301D01*
X182889111Y-65684304D01*
X182742678Y-65872440D01*
X182742672Y-65872448D01*
X182739526Y-65876491D01*
X182737088Y-65880995D01*
X182737084Y-65881002D01*
X182623610Y-66090683D01*
X182623605Y-66090693D01*
X182621172Y-66095190D01*
X182619511Y-66100026D01*
X182619507Y-66100037D01*
X182542094Y-66325534D01*
X182542092Y-66325541D01*
X182540429Y-66330386D01*
X182539585Y-66335441D01*
X182539585Y-66335443D01*
X182500344Y-66570601D01*
X182500343Y-66570613D01*
X182499500Y-66575665D01*
X182499500Y-66824335D01*
X175000500Y-66824335D01*
X175000500Y-62250000D01*
X178484341Y-62250000D01*
X178504937Y-62485408D01*
X178506336Y-62490630D01*
X178506337Y-62490634D01*
X178564694Y-62708430D01*
X178564697Y-62708438D01*
X178566097Y-62713663D01*
X178568385Y-62718570D01*
X178568386Y-62718572D01*
X178663678Y-62922927D01*
X178663681Y-62922933D01*
X178665965Y-62927830D01*
X178669064Y-62932257D01*
X178669066Y-62932259D01*
X178798399Y-63116966D01*
X178798402Y-63116970D01*
X178801505Y-63121401D01*
X178968599Y-63288495D01*
X178973031Y-63291598D01*
X178973033Y-63291600D01*
X179117260Y-63392589D01*
X179162170Y-63424035D01*
X179376337Y-63523903D01*
X179604592Y-63585063D01*
X179840000Y-63605659D01*
X180075408Y-63585063D01*
X180303663Y-63523903D01*
X180517830Y-63424035D01*
X180711401Y-63288495D01*
X180878495Y-63121401D01*
X181008730Y-62935405D01*
X181053048Y-62896540D01*
X181110305Y-62882529D01*
X181167562Y-62896540D01*
X181211880Y-62935405D01*
X181338784Y-63116643D01*
X181345721Y-63124909D01*
X181505090Y-63284278D01*
X181513356Y-63291215D01*
X181697991Y-63420498D01*
X181707323Y-63425886D01*
X181911602Y-63521143D01*
X181921736Y-63524831D01*
X182116219Y-63576943D01*
X182127448Y-63577311D01*
X182130000Y-63566369D01*
X182630000Y-63566369D01*
X182632551Y-63577311D01*
X182643780Y-63576943D01*
X182838263Y-63524831D01*
X182848397Y-63521143D01*
X183052676Y-63425886D01*
X183062008Y-63420498D01*
X183246643Y-63291215D01*
X183254909Y-63284278D01*
X183414278Y-63124909D01*
X183421215Y-63116643D01*
X183548425Y-62934969D01*
X183592743Y-62896104D01*
X183650000Y-62882093D01*
X183707257Y-62896104D01*
X183751575Y-62934969D01*
X183878784Y-63116643D01*
X183885721Y-63124909D01*
X184045090Y-63284278D01*
X184053356Y-63291215D01*
X184237991Y-63420498D01*
X184247323Y-63425886D01*
X184451602Y-63521143D01*
X184461736Y-63524831D01*
X184656219Y-63576943D01*
X184667448Y-63577311D01*
X184670000Y-63566369D01*
X185170000Y-63566369D01*
X185172551Y-63577311D01*
X185183780Y-63576943D01*
X185378263Y-63524831D01*
X185388397Y-63521143D01*
X185592676Y-63425886D01*
X185602008Y-63420498D01*
X185786643Y-63291215D01*
X185794909Y-63284278D01*
X185954278Y-63124909D01*
X185961215Y-63116643D01*
X186088425Y-62934969D01*
X186132743Y-62896104D01*
X186190000Y-62882093D01*
X186247257Y-62896104D01*
X186291575Y-62934969D01*
X186418784Y-63116643D01*
X186425721Y-63124909D01*
X186585090Y-63284278D01*
X186593356Y-63291215D01*
X186777991Y-63420498D01*
X186787323Y-63425886D01*
X186991602Y-63521143D01*
X187001736Y-63524831D01*
X187196219Y-63576943D01*
X187207448Y-63577311D01*
X187210000Y-63566369D01*
X187210000Y-62516326D01*
X187206549Y-62503450D01*
X187193674Y-62500000D01*
X185186326Y-62500000D01*
X185173450Y-62503450D01*
X185170000Y-62516326D01*
X185170000Y-63566369D01*
X184670000Y-63566369D01*
X184670000Y-62516326D01*
X184666549Y-62503450D01*
X184653674Y-62500000D01*
X182646326Y-62500000D01*
X182633450Y-62503450D01*
X182630000Y-62516326D01*
X182630000Y-63566369D01*
X182130000Y-63566369D01*
X182130000Y-61983674D01*
X182630000Y-61983674D01*
X182633450Y-61996549D01*
X182646326Y-62000000D01*
X184653674Y-62000000D01*
X184666549Y-61996549D01*
X184670000Y-61983674D01*
X185170000Y-61983674D01*
X185173450Y-61996549D01*
X185186326Y-62000000D01*
X187193674Y-62000000D01*
X187206549Y-61996549D01*
X187210000Y-61983674D01*
X187210000Y-59976326D01*
X187206549Y-59963450D01*
X187193674Y-59960000D01*
X185186326Y-59960000D01*
X185173450Y-59963450D01*
X185170000Y-59976326D01*
X185170000Y-61983674D01*
X184670000Y-61983674D01*
X184670000Y-59976326D01*
X184666549Y-59963450D01*
X184653674Y-59960000D01*
X182646326Y-59960000D01*
X182633450Y-59963450D01*
X182630000Y-59976326D01*
X182630000Y-61983674D01*
X182130000Y-61983674D01*
X182130000Y-59443674D01*
X182630000Y-59443674D01*
X182633450Y-59456549D01*
X182646326Y-59460000D01*
X184653674Y-59460000D01*
X184666549Y-59456549D01*
X184670000Y-59443674D01*
X185170000Y-59443674D01*
X185173450Y-59456549D01*
X185186326Y-59460000D01*
X187193674Y-59460000D01*
X187206549Y-59456549D01*
X187210000Y-59443674D01*
X187210000Y-58393631D01*
X187207448Y-58382688D01*
X187196219Y-58383056D01*
X187001736Y-58435168D01*
X186991602Y-58438856D01*
X186787332Y-58534110D01*
X186777982Y-58539508D01*
X186593357Y-58668784D01*
X186585092Y-58675719D01*
X186425719Y-58835092D01*
X186418788Y-58843352D01*
X186291575Y-59025032D01*
X186247257Y-59063897D01*
X186190000Y-59077908D01*
X186132743Y-59063897D01*
X186088425Y-59025032D01*
X185961211Y-58843352D01*
X185954280Y-58835092D01*
X185794909Y-58675721D01*
X185786643Y-58668784D01*
X185602008Y-58539501D01*
X185592676Y-58534113D01*
X185388397Y-58438856D01*
X185378263Y-58435168D01*
X185183780Y-58383056D01*
X185172551Y-58382688D01*
X185170000Y-58393631D01*
X185170000Y-59443674D01*
X184670000Y-59443674D01*
X184670000Y-58393631D01*
X184667448Y-58382688D01*
X184656219Y-58383056D01*
X184461736Y-58435168D01*
X184451602Y-58438856D01*
X184247332Y-58534110D01*
X184237982Y-58539508D01*
X184053357Y-58668784D01*
X184045092Y-58675719D01*
X183885719Y-58835092D01*
X183878788Y-58843352D01*
X183751575Y-59025032D01*
X183707257Y-59063897D01*
X183650000Y-59077908D01*
X183592743Y-59063897D01*
X183548425Y-59025032D01*
X183421211Y-58843352D01*
X183414280Y-58835092D01*
X183254909Y-58675721D01*
X183246643Y-58668784D01*
X183062008Y-58539501D01*
X183052676Y-58534113D01*
X182848397Y-58438856D01*
X182838263Y-58435168D01*
X182643780Y-58383056D01*
X182632551Y-58382688D01*
X182630000Y-58393631D01*
X182630000Y-59443674D01*
X182130000Y-59443674D01*
X182130000Y-58393631D01*
X182127448Y-58382688D01*
X182116219Y-58383056D01*
X181921736Y-58435168D01*
X181911602Y-58438856D01*
X181707332Y-58534110D01*
X181697982Y-58539508D01*
X181513357Y-58668784D01*
X181505092Y-58675719D01*
X181345719Y-58835092D01*
X181338788Y-58843352D01*
X181211880Y-59024596D01*
X181167562Y-59063461D01*
X181110305Y-59077472D01*
X181053048Y-59063461D01*
X181008730Y-59024595D01*
X180878495Y-58838599D01*
X180726819Y-58686922D01*
X180699939Y-58646695D01*
X180690500Y-58599242D01*
X180690500Y-57154773D01*
X180706223Y-57094341D01*
X180749400Y-57049236D01*
X180830391Y-56999281D01*
X180949281Y-56880391D01*
X181037549Y-56737287D01*
X181090436Y-56577685D01*
X181100500Y-56479174D01*
X181100500Y-56374500D01*
X181117113Y-56312500D01*
X181162500Y-56267113D01*
X181224500Y-56250500D01*
X181299273Y-56250500D01*
X181302630Y-56250545D01*
X181381932Y-56252693D01*
X181388542Y-56251424D01*
X181394875Y-56250909D01*
X181404943Y-56250500D01*
X181475501Y-56250500D01*
X181537501Y-56267113D01*
X181582888Y-56312500D01*
X181599501Y-56374500D01*
X181599501Y-56450008D01*
X181599820Y-56453140D01*
X181599821Y-56453141D01*
X181609312Y-56546061D01*
X181609313Y-56546069D01*
X181610001Y-56552797D01*
X181665186Y-56719334D01*
X181668977Y-56725480D01*
X181753497Y-56862511D01*
X181753500Y-56862515D01*
X181757288Y-56868656D01*
X181881344Y-56992712D01*
X181887485Y-56996500D01*
X181887488Y-56996502D01*
X181891994Y-56999281D01*
X182030666Y-57084814D01*
X182197203Y-57139999D01*
X182299991Y-57150500D01*
X183700008Y-57150499D01*
X183802797Y-57139999D01*
X183969334Y-57084814D01*
X184118656Y-56992712D01*
X184242712Y-56868656D01*
X184334814Y-56719334D01*
X184389999Y-56552797D01*
X184400500Y-56450009D01*
X184400499Y-54349992D01*
X184389999Y-54247203D01*
X184334814Y-54080666D01*
X184242712Y-53931344D01*
X184118656Y-53807288D01*
X184112515Y-53803500D01*
X184112511Y-53803497D01*
X183975480Y-53718977D01*
X183969334Y-53715186D01*
X183802797Y-53660001D01*
X183796064Y-53659313D01*
X183796059Y-53659312D01*
X183703140Y-53649819D01*
X183703123Y-53649818D01*
X183700009Y-53649500D01*
X183696860Y-53649500D01*
X182303140Y-53649500D01*
X182303120Y-53649500D01*
X182299992Y-53649501D01*
X182296860Y-53649820D01*
X182296858Y-53649821D01*
X182203938Y-53659312D01*
X182203928Y-53659313D01*
X182197203Y-53660001D01*
X182190781Y-53662128D01*
X182190776Y-53662130D01*
X182037521Y-53712914D01*
X182037517Y-53712915D01*
X182030666Y-53715186D01*
X182024522Y-53718975D01*
X182024519Y-53718977D01*
X181887488Y-53803497D01*
X181887480Y-53803503D01*
X181881344Y-53807288D01*
X181876242Y-53812389D01*
X181876238Y-53812393D01*
X181762393Y-53926238D01*
X181762389Y-53926242D01*
X181757288Y-53931344D01*
X181753503Y-53937480D01*
X181753497Y-53937488D01*
X181668977Y-54074519D01*
X181665186Y-54080666D01*
X181662915Y-54087517D01*
X181662914Y-54087521D01*
X181611632Y-54242279D01*
X181577699Y-54294698D01*
X181522522Y-54323933D01*
X181460094Y-54322570D01*
X181406245Y-54290956D01*
X181136819Y-54021530D01*
X181109939Y-53981302D01*
X181100500Y-53933849D01*
X181100500Y-53823975D01*
X181100500Y-53820826D01*
X181090436Y-53722315D01*
X181037549Y-53562713D01*
X180949281Y-53419609D01*
X180830391Y-53300719D01*
X180824251Y-53296931D01*
X180824159Y-53296859D01*
X180784142Y-53240868D01*
X180780144Y-53172164D01*
X180813396Y-53111909D01*
X180817466Y-53107838D01*
X180826364Y-53096584D01*
X180907753Y-52964633D01*
X180913819Y-52951625D01*
X180962727Y-52804030D01*
X180965543Y-52790874D01*
X180974680Y-52701444D01*
X180975000Y-52695168D01*
X180975000Y-52691326D01*
X180971549Y-52678450D01*
X180958674Y-52675000D01*
X179041327Y-52675000D01*
X179028451Y-52678450D01*
X179025001Y-52691326D01*
X179025001Y-52695165D01*
X179025321Y-52701447D01*
X179034455Y-52790867D01*
X179037274Y-52804036D01*
X179086180Y-52951625D01*
X179092246Y-52964633D01*
X179173632Y-53096580D01*
X179182537Y-53107842D01*
X179186609Y-53111914D01*
X179219857Y-53172168D01*
X179215857Y-53240870D01*
X179175841Y-53296859D01*
X179175748Y-53296931D01*
X179169609Y-53300719D01*
X179164508Y-53305819D01*
X179164504Y-53305823D01*
X179055829Y-53414498D01*
X179055825Y-53414502D01*
X179050719Y-53419609D01*
X179046928Y-53425754D01*
X179046924Y-53425760D01*
X178966243Y-53556564D01*
X178966240Y-53556569D01*
X178962451Y-53562713D01*
X178960180Y-53569564D01*
X178960179Y-53569568D01*
X178929507Y-53662130D01*
X178909564Y-53722315D01*
X178908876Y-53729045D01*
X178908875Y-53729052D01*
X178899819Y-53817694D01*
X178899818Y-53817712D01*
X178899500Y-53820826D01*
X178899500Y-54354174D01*
X178899818Y-54357288D01*
X178899819Y-54357305D01*
X178908875Y-54445947D01*
X178908876Y-54445952D01*
X178909564Y-54452685D01*
X178962451Y-54612287D01*
X179050719Y-54755391D01*
X179169609Y-54874281D01*
X179312713Y-54962549D01*
X179472315Y-55015436D01*
X179570826Y-55025500D01*
X179683849Y-55025500D01*
X179731302Y-55034939D01*
X179771530Y-55061819D01*
X179772530Y-55062819D01*
X179802780Y-55112182D01*
X179807322Y-55169898D01*
X179785167Y-55223385D01*
X179741144Y-55260985D01*
X179684849Y-55274500D01*
X179570826Y-55274500D01*
X179567712Y-55274818D01*
X179567694Y-55274819D01*
X179479052Y-55283875D01*
X179479045Y-55283876D01*
X179472315Y-55284564D01*
X179465889Y-55286693D01*
X179465886Y-55286694D01*
X179319568Y-55335179D01*
X179319564Y-55335180D01*
X179312713Y-55337451D01*
X179306569Y-55341240D01*
X179306564Y-55341243D01*
X179175760Y-55421924D01*
X179175754Y-55421928D01*
X179169609Y-55425719D01*
X179164502Y-55430825D01*
X179164498Y-55430829D01*
X179055829Y-55539498D01*
X179055825Y-55539502D01*
X179050719Y-55544609D01*
X179046928Y-55550754D01*
X179046924Y-55550760D01*
X178966243Y-55681564D01*
X178966240Y-55681569D01*
X178962451Y-55687713D01*
X178909564Y-55847315D01*
X178908876Y-55854045D01*
X178908875Y-55854052D01*
X178899819Y-55942694D01*
X178899818Y-55942712D01*
X178899500Y-55945826D01*
X178899500Y-56479174D01*
X178899818Y-56482288D01*
X178899819Y-56482305D01*
X178908875Y-56570947D01*
X178908876Y-56570952D01*
X178909564Y-56577685D01*
X178911693Y-56584112D01*
X178911694Y-56584113D01*
X178958538Y-56725480D01*
X178962451Y-56737287D01*
X178969616Y-56748904D01*
X178971039Y-56751210D01*
X178989500Y-56816306D01*
X178989500Y-58599242D01*
X178980061Y-58646695D01*
X178953181Y-58686923D01*
X178805334Y-58834769D01*
X178805328Y-58834775D01*
X178801505Y-58838599D01*
X178798402Y-58843029D01*
X178798399Y-58843034D01*
X178669073Y-59027731D01*
X178669068Y-59027738D01*
X178665965Y-59032171D01*
X178663677Y-59037077D01*
X178663675Y-59037081D01*
X178568386Y-59241427D01*
X178568383Y-59241432D01*
X178566097Y-59246337D01*
X178564698Y-59251557D01*
X178564694Y-59251569D01*
X178506337Y-59469365D01*
X178506335Y-59469371D01*
X178504937Y-59474592D01*
X178484341Y-59710000D01*
X178504937Y-59945408D01*
X178506336Y-59950630D01*
X178506337Y-59950634D01*
X178564694Y-60168430D01*
X178564697Y-60168438D01*
X178566097Y-60173663D01*
X178568385Y-60178570D01*
X178568386Y-60178572D01*
X178663678Y-60382927D01*
X178663681Y-60382933D01*
X178665965Y-60387830D01*
X178669064Y-60392257D01*
X178669066Y-60392259D01*
X178798399Y-60576966D01*
X178798402Y-60576970D01*
X178801505Y-60581401D01*
X178805336Y-60585232D01*
X178953181Y-60733077D01*
X178980061Y-60773305D01*
X178989500Y-60820758D01*
X178989500Y-61139242D01*
X178980061Y-61186695D01*
X178953181Y-61226923D01*
X178805334Y-61374769D01*
X178805328Y-61374775D01*
X178801505Y-61378599D01*
X178798402Y-61383029D01*
X178798399Y-61383034D01*
X178669073Y-61567731D01*
X178669068Y-61567738D01*
X178665965Y-61572171D01*
X178663677Y-61577077D01*
X178663675Y-61577081D01*
X178568386Y-61781427D01*
X178568383Y-61781432D01*
X178566097Y-61786337D01*
X178564698Y-61791557D01*
X178564694Y-61791569D01*
X178506337Y-62009365D01*
X178506335Y-62009371D01*
X178504937Y-62014592D01*
X178484341Y-62250000D01*
X175000500Y-62250000D01*
X175000500Y-51145213D01*
X179024500Y-51145213D01*
X179024501Y-51148344D01*
X179024820Y-51151476D01*
X179024821Y-51151477D01*
X179033962Y-51240972D01*
X179033963Y-51240980D01*
X179034651Y-51247708D01*
X179087997Y-51408697D01*
X179177032Y-51553044D01*
X179182142Y-51558154D01*
X179186659Y-51562671D01*
X179218752Y-51618254D01*
X179218755Y-51682437D01*
X179186669Y-51738024D01*
X179182536Y-51742157D01*
X179173634Y-51753416D01*
X179092246Y-51885366D01*
X179086180Y-51898374D01*
X179037272Y-52045969D01*
X179034456Y-52059125D01*
X179025319Y-52148555D01*
X179025000Y-52154832D01*
X179025000Y-52158674D01*
X179028450Y-52171549D01*
X179041326Y-52175000D01*
X180144390Y-52175000D01*
X180199483Y-52187911D01*
X180229979Y-52203036D01*
X180236516Y-52204661D01*
X180241176Y-52206373D01*
X180245725Y-52207905D01*
X180251833Y-52210732D01*
X180329292Y-52227781D01*
X180332545Y-52228543D01*
X180409505Y-52247684D01*
X180416236Y-52247866D01*
X180421041Y-52248521D01*
X180425928Y-52249052D01*
X180432503Y-52250500D01*
X180511773Y-52250500D01*
X180515130Y-52250545D01*
X180594432Y-52252693D01*
X180601042Y-52251424D01*
X180607375Y-52250909D01*
X180617443Y-52250500D01*
X181475501Y-52250500D01*
X181537501Y-52267113D01*
X181582888Y-52312500D01*
X181599501Y-52374500D01*
X181599501Y-52450008D01*
X181599820Y-52453140D01*
X181599821Y-52453141D01*
X181609312Y-52546061D01*
X181609313Y-52546069D01*
X181610001Y-52552797D01*
X181665186Y-52719334D01*
X181668977Y-52725480D01*
X181753497Y-52862511D01*
X181753500Y-52862515D01*
X181757288Y-52868656D01*
X181881344Y-52992712D01*
X181887485Y-52996500D01*
X181887488Y-52996502D01*
X181944558Y-53031702D01*
X182030666Y-53084814D01*
X182197203Y-53139999D01*
X182299991Y-53150500D01*
X183700008Y-53150499D01*
X183802797Y-53139999D01*
X183969334Y-53084814D01*
X184118656Y-52992712D01*
X184242712Y-52868656D01*
X184334814Y-52719334D01*
X184389999Y-52552797D01*
X184400500Y-52450009D01*
X184400500Y-52446878D01*
X185599500Y-52446878D01*
X185599501Y-52450008D01*
X185599820Y-52453140D01*
X185599821Y-52453141D01*
X185609312Y-52546061D01*
X185609313Y-52546069D01*
X185610001Y-52552797D01*
X185665186Y-52719334D01*
X185668977Y-52725480D01*
X185753497Y-52862511D01*
X185753500Y-52862515D01*
X185757288Y-52868656D01*
X185881344Y-52992712D01*
X185887485Y-52996500D01*
X185887488Y-52996502D01*
X185944558Y-53031702D01*
X186030666Y-53084814D01*
X186197203Y-53139999D01*
X186299991Y-53150500D01*
X187700008Y-53150499D01*
X187802797Y-53139999D01*
X187969334Y-53084814D01*
X188118656Y-52992712D01*
X188242712Y-52868656D01*
X188334814Y-52719334D01*
X188389999Y-52552797D01*
X188400500Y-52450009D01*
X188400500Y-52374500D01*
X188417113Y-52312500D01*
X188462500Y-52267113D01*
X188524500Y-52250500D01*
X189435394Y-52250500D01*
X189445457Y-52250908D01*
X189498167Y-52255201D01*
X189576748Y-52244493D01*
X189580084Y-52244086D01*
X189658910Y-52235514D01*
X189665287Y-52233364D01*
X189670019Y-52232323D01*
X189674793Y-52231135D01*
X189681468Y-52230227D01*
X189730599Y-52212177D01*
X189755922Y-52202874D01*
X189759076Y-52201762D01*
X189819242Y-52181490D01*
X189858835Y-52175000D01*
X190958673Y-52175000D01*
X190971548Y-52171549D01*
X190974999Y-52158674D01*
X190974999Y-52154835D01*
X190974678Y-52148552D01*
X190965544Y-52059132D01*
X190962725Y-52045963D01*
X190913819Y-51898374D01*
X190907753Y-51885366D01*
X190826367Y-51753419D01*
X190817462Y-51742157D01*
X190813339Y-51738034D01*
X190781244Y-51682442D01*
X190781247Y-51618251D01*
X190813346Y-51562665D01*
X190822968Y-51553044D01*
X190912003Y-51408697D01*
X190965349Y-51247708D01*
X190975500Y-51148345D01*
X190975499Y-50601656D01*
X190965349Y-50502292D01*
X190912003Y-50341303D01*
X190868962Y-50271523D01*
X190850500Y-50206426D01*
X190850500Y-48007246D01*
X190850500Y-48003887D01*
X190835514Y-47866090D01*
X190806990Y-47781436D01*
X190800499Y-47741842D01*
X190800499Y-46003141D01*
X190800499Y-46003139D01*
X190800499Y-45999992D01*
X190789999Y-45897203D01*
X190734814Y-45730666D01*
X190642712Y-45581344D01*
X190518656Y-45457288D01*
X190512515Y-45453500D01*
X190512511Y-45453497D01*
X190375480Y-45368977D01*
X190369334Y-45365186D01*
X190202797Y-45310001D01*
X190196064Y-45309313D01*
X190196059Y-45309312D01*
X190103140Y-45299819D01*
X190103123Y-45299818D01*
X190100009Y-45299500D01*
X190096860Y-45299500D01*
X188903140Y-45299500D01*
X188903120Y-45299500D01*
X188899992Y-45299501D01*
X188896860Y-45299820D01*
X188896858Y-45299821D01*
X188803938Y-45309312D01*
X188803928Y-45309313D01*
X188797203Y-45310001D01*
X188790781Y-45312128D01*
X188790776Y-45312130D01*
X188637521Y-45362914D01*
X188637517Y-45362915D01*
X188630666Y-45365186D01*
X188624522Y-45368975D01*
X188624519Y-45368977D01*
X188487488Y-45453497D01*
X188487480Y-45453503D01*
X188481344Y-45457288D01*
X188476242Y-45462389D01*
X188476238Y-45462393D01*
X188362393Y-45576238D01*
X188362389Y-45576242D01*
X188357288Y-45581344D01*
X188353503Y-45587480D01*
X188353497Y-45587488D01*
X188268977Y-45724519D01*
X188265186Y-45730666D01*
X188262915Y-45737517D01*
X188262914Y-45737521D01*
X188224364Y-45853858D01*
X188210001Y-45897203D01*
X188209313Y-45903933D01*
X188209312Y-45903940D01*
X188199819Y-45996859D01*
X188199818Y-45996877D01*
X188199500Y-45999991D01*
X188199500Y-46003138D01*
X188199500Y-46003139D01*
X188199500Y-49096859D01*
X188199500Y-49096878D01*
X188199501Y-49100008D01*
X188199820Y-49103140D01*
X188199821Y-49103141D01*
X188209312Y-49196061D01*
X188209313Y-49196069D01*
X188210001Y-49202797D01*
X188265186Y-49369334D01*
X188268977Y-49375480D01*
X188353497Y-49512511D01*
X188353500Y-49512515D01*
X188357288Y-49518656D01*
X188481344Y-49642712D01*
X188487485Y-49646500D01*
X188487488Y-49646502D01*
X188512827Y-49662131D01*
X188630666Y-49734814D01*
X188797203Y-49789999D01*
X188899991Y-49800500D01*
X189025500Y-49800500D01*
X189087500Y-49817113D01*
X189132887Y-49862500D01*
X189149500Y-49924500D01*
X189149500Y-50206426D01*
X189131038Y-50271523D01*
X189091789Y-50335154D01*
X189091786Y-50335159D01*
X189087997Y-50341303D01*
X189085726Y-50348153D01*
X189085724Y-50348160D01*
X189047173Y-50464503D01*
X189021295Y-50508829D01*
X188979683Y-50538877D01*
X188929467Y-50549500D01*
X188524499Y-50549500D01*
X188462499Y-50532887D01*
X188417112Y-50487500D01*
X188400499Y-50425500D01*
X188400499Y-50353141D01*
X188400499Y-50353139D01*
X188400499Y-50349992D01*
X188389999Y-50247203D01*
X188334814Y-50080666D01*
X188242712Y-49931344D01*
X188118656Y-49807288D01*
X188112515Y-49803500D01*
X188112511Y-49803497D01*
X187975480Y-49718977D01*
X187969334Y-49715186D01*
X187802797Y-49660001D01*
X187796064Y-49659313D01*
X187796059Y-49659312D01*
X187703140Y-49649819D01*
X187703123Y-49649818D01*
X187700009Y-49649500D01*
X187696860Y-49649500D01*
X186303140Y-49649500D01*
X186303120Y-49649500D01*
X186299992Y-49649501D01*
X186296860Y-49649820D01*
X186296858Y-49649821D01*
X186203938Y-49659312D01*
X186203928Y-49659313D01*
X186197203Y-49660001D01*
X186190781Y-49662128D01*
X186190776Y-49662130D01*
X186037521Y-49712914D01*
X186037517Y-49712915D01*
X186030666Y-49715186D01*
X186024522Y-49718975D01*
X186024519Y-49718977D01*
X185887488Y-49803497D01*
X185887480Y-49803503D01*
X185881344Y-49807288D01*
X185876242Y-49812389D01*
X185876238Y-49812393D01*
X185762393Y-49926238D01*
X185762389Y-49926242D01*
X185757288Y-49931344D01*
X185753503Y-49937480D01*
X185753497Y-49937488D01*
X185668978Y-50074518D01*
X185665186Y-50080666D01*
X185610001Y-50247203D01*
X185609313Y-50253933D01*
X185609312Y-50253940D01*
X185599819Y-50346859D01*
X185599818Y-50346877D01*
X185599500Y-50349991D01*
X185599500Y-50353138D01*
X185599500Y-50353139D01*
X185599500Y-52446859D01*
X185599500Y-52446878D01*
X184400500Y-52446878D01*
X184400499Y-50349992D01*
X184389999Y-50247203D01*
X184334814Y-50080666D01*
X184242712Y-49931344D01*
X184118656Y-49807288D01*
X184112515Y-49803500D01*
X184112511Y-49803497D01*
X183975480Y-49718977D01*
X183969334Y-49715186D01*
X183802797Y-49660001D01*
X183796064Y-49659313D01*
X183796059Y-49659312D01*
X183703140Y-49649819D01*
X183703123Y-49649818D01*
X183700009Y-49649500D01*
X183696860Y-49649500D01*
X182534180Y-49649500D01*
X182471401Y-49632433D01*
X182425902Y-49585932D01*
X182410210Y-49522795D01*
X182428641Y-49460404D01*
X182484814Y-49369334D01*
X182539999Y-49202797D01*
X182550500Y-49100009D01*
X182550500Y-48524500D01*
X182567113Y-48462500D01*
X182612500Y-48417113D01*
X182674500Y-48400500D01*
X183660394Y-48400500D01*
X183670457Y-48400908D01*
X183723167Y-48405201D01*
X183801748Y-48394493D01*
X183805084Y-48394086D01*
X183883910Y-48385514D01*
X183890287Y-48383364D01*
X183895019Y-48382323D01*
X183899793Y-48381135D01*
X183906468Y-48380227D01*
X183964421Y-48358936D01*
X183980922Y-48352874D01*
X183984076Y-48351762D01*
X184059221Y-48326444D01*
X184064994Y-48322970D01*
X184069460Y-48320904D01*
X184073796Y-48318753D01*
X184080116Y-48316432D01*
X184146972Y-48273697D01*
X184149743Y-48271978D01*
X184217736Y-48231070D01*
X184222629Y-48226434D01*
X184226522Y-48223475D01*
X184230314Y-48220426D01*
X184235989Y-48216800D01*
X184292127Y-48160660D01*
X184294422Y-48158427D01*
X184352041Y-48103849D01*
X184355819Y-48098275D01*
X184359929Y-48093437D01*
X184366749Y-48086038D01*
X186073397Y-46379390D01*
X186080793Y-46372573D01*
X186115972Y-46342693D01*
X186115973Y-46342691D01*
X186121100Y-46338337D01*
X186169135Y-46275146D01*
X186171076Y-46272662D01*
X186220841Y-46210754D01*
X186223833Y-46204719D01*
X186226457Y-46200614D01*
X186228978Y-46196424D01*
X186233054Y-46191064D01*
X186266363Y-46119065D01*
X186267803Y-46116062D01*
X186300047Y-46051049D01*
X186300047Y-46051047D01*
X186303036Y-46045022D01*
X186304660Y-46038490D01*
X186306354Y-46033879D01*
X186307903Y-46029278D01*
X186310732Y-46023167D01*
X186327780Y-45945709D01*
X186328534Y-45942489D01*
X186347684Y-45865495D01*
X186347866Y-45858763D01*
X186348519Y-45853970D01*
X186349051Y-45849075D01*
X186350500Y-45842497D01*
X186350500Y-45763227D01*
X186350545Y-45759870D01*
X186351336Y-45730666D01*
X186352693Y-45680568D01*
X186351424Y-45673957D01*
X186350909Y-45667625D01*
X186350500Y-45657557D01*
X186350500Y-43496829D01*
X188200001Y-43496829D01*
X188200321Y-43503111D01*
X188209805Y-43595959D01*
X188212623Y-43609122D01*
X188263370Y-43762267D01*
X188269432Y-43775266D01*
X188353890Y-43912194D01*
X188362794Y-43923455D01*
X188476544Y-44037205D01*
X188487805Y-44046109D01*
X188624733Y-44130567D01*
X188637732Y-44136629D01*
X188790874Y-44187375D01*
X188804041Y-44190194D01*
X188896890Y-44199680D01*
X188903168Y-44200000D01*
X189233674Y-44200000D01*
X189246549Y-44196549D01*
X189250000Y-44183674D01*
X189250000Y-44183673D01*
X189750000Y-44183673D01*
X189753450Y-44196548D01*
X189766326Y-44199999D01*
X190096829Y-44199999D01*
X190103111Y-44199678D01*
X190195959Y-44190194D01*
X190209122Y-44187376D01*
X190362267Y-44136629D01*
X190375266Y-44130567D01*
X190512194Y-44046109D01*
X190523455Y-44037205D01*
X190637205Y-43923455D01*
X190646109Y-43912194D01*
X190730567Y-43775266D01*
X190736629Y-43762267D01*
X190787375Y-43609125D01*
X190790194Y-43595958D01*
X190799680Y-43503109D01*
X190800000Y-43496832D01*
X190800000Y-42216326D01*
X190796549Y-42203450D01*
X190783674Y-42200000D01*
X189766326Y-42200000D01*
X189753450Y-42203450D01*
X189750000Y-42216326D01*
X189750000Y-44183673D01*
X189250000Y-44183673D01*
X189250000Y-42216326D01*
X189246549Y-42203450D01*
X189233674Y-42200000D01*
X188216327Y-42200000D01*
X188203451Y-42203450D01*
X188200001Y-42216326D01*
X188200001Y-43496829D01*
X186350500Y-43496829D01*
X186350500Y-41683674D01*
X188200000Y-41683674D01*
X188203450Y-41696549D01*
X188216326Y-41700000D01*
X189233674Y-41700000D01*
X189246549Y-41696549D01*
X189250000Y-41683674D01*
X189750000Y-41683674D01*
X189753450Y-41696549D01*
X189766326Y-41700000D01*
X190783673Y-41700000D01*
X190796548Y-41696549D01*
X190799999Y-41683674D01*
X190799999Y-40403171D01*
X190799678Y-40396888D01*
X190790194Y-40304040D01*
X190787376Y-40290877D01*
X190736629Y-40137732D01*
X190730567Y-40124733D01*
X190646109Y-39987805D01*
X190637205Y-39976544D01*
X190523455Y-39862794D01*
X190512194Y-39853890D01*
X190375266Y-39769432D01*
X190362267Y-39763370D01*
X190209125Y-39712624D01*
X190195958Y-39709805D01*
X190103109Y-39700319D01*
X190096832Y-39700000D01*
X189766326Y-39700000D01*
X189753450Y-39703450D01*
X189750000Y-39716326D01*
X189750000Y-41683674D01*
X189250000Y-41683674D01*
X189250000Y-39716327D01*
X189246549Y-39703451D01*
X189233674Y-39700001D01*
X188903171Y-39700001D01*
X188896888Y-39700321D01*
X188804040Y-39709805D01*
X188790877Y-39712623D01*
X188637732Y-39763370D01*
X188624733Y-39769432D01*
X188487805Y-39853890D01*
X188476544Y-39862794D01*
X188362794Y-39976544D01*
X188353890Y-39987805D01*
X188269432Y-40124733D01*
X188263370Y-40137732D01*
X188212624Y-40290874D01*
X188209805Y-40304041D01*
X188200319Y-40396890D01*
X188200000Y-40403168D01*
X188200000Y-41683674D01*
X186350500Y-41683674D01*
X186350500Y-39474500D01*
X186367113Y-39412500D01*
X186412500Y-39367113D01*
X186474500Y-39350500D01*
X190169996Y-39350500D01*
X190208312Y-39356568D01*
X190214258Y-39358500D01*
X190220197Y-39361144D01*
X190226555Y-39362495D01*
X190226557Y-39362496D01*
X190248279Y-39367113D01*
X190405354Y-39400500D01*
X190588143Y-39400500D01*
X190594646Y-39400500D01*
X190779803Y-39361144D01*
X190952730Y-39284151D01*
X191105871Y-39172888D01*
X191232533Y-39032216D01*
X191327179Y-38868284D01*
X191385674Y-38688256D01*
X191405460Y-38500000D01*
X191385674Y-38311744D01*
X191327179Y-38131716D01*
X191232533Y-37967784D01*
X191221725Y-37955781D01*
X191110220Y-37831942D01*
X191110219Y-37831941D01*
X191105871Y-37827112D01*
X191100613Y-37823292D01*
X191100611Y-37823290D01*
X190957988Y-37719669D01*
X190957987Y-37719668D01*
X190952730Y-37715849D01*
X190913178Y-37698239D01*
X190785745Y-37641501D01*
X190785740Y-37641499D01*
X190779803Y-37638856D01*
X190773444Y-37637504D01*
X190773440Y-37637503D01*
X190601008Y-37600852D01*
X190601005Y-37600851D01*
X190594646Y-37599500D01*
X190405354Y-37599500D01*
X190398995Y-37600851D01*
X190398991Y-37600852D01*
X190226557Y-37637503D01*
X190226546Y-37637506D01*
X190220197Y-37638856D01*
X190214261Y-37641498D01*
X190208312Y-37643432D01*
X190169996Y-37649500D01*
X186039606Y-37649500D01*
X186029542Y-37649091D01*
X185983537Y-37645344D01*
X185983528Y-37645344D01*
X185976833Y-37644799D01*
X185970169Y-37645706D01*
X185970165Y-37645707D01*
X185898265Y-37655502D01*
X185894936Y-37655910D01*
X185822771Y-37663759D01*
X185822767Y-37663759D01*
X185816090Y-37664486D01*
X185809730Y-37666628D01*
X185804961Y-37667678D01*
X185800182Y-37668866D01*
X185793532Y-37669773D01*
X185787224Y-37672090D01*
X185787221Y-37672091D01*
X185719073Y-37697126D01*
X185715912Y-37698239D01*
X185671498Y-37713205D01*
X185640779Y-37723556D01*
X185635027Y-37727015D01*
X185630563Y-37729081D01*
X185626183Y-37731253D01*
X185619884Y-37733568D01*
X185614232Y-37737180D01*
X185614225Y-37737184D01*
X185553059Y-37776280D01*
X185550208Y-37778049D01*
X185488017Y-37815468D01*
X185488013Y-37815470D01*
X185482264Y-37818930D01*
X185477394Y-37823541D01*
X185473504Y-37826499D01*
X185469664Y-37829585D01*
X185464011Y-37833200D01*
X185459262Y-37837948D01*
X185459263Y-37837948D01*
X185407959Y-37889251D01*
X185405556Y-37891590D01*
X185352833Y-37941533D01*
X185352828Y-37941538D01*
X185347959Y-37946151D01*
X185344192Y-37951706D01*
X185340060Y-37956571D01*
X185333235Y-37963974D01*
X184926610Y-38370599D01*
X184919207Y-38377424D01*
X184884023Y-38407310D01*
X184884016Y-38407317D01*
X184878900Y-38411663D01*
X184874836Y-38417007D01*
X184874832Y-38417013D01*
X184830923Y-38474772D01*
X184828858Y-38477413D01*
X184783367Y-38534008D01*
X184783361Y-38534016D01*
X184779158Y-38539246D01*
X184776177Y-38545254D01*
X184773557Y-38549354D01*
X184771005Y-38553594D01*
X184766946Y-38558936D01*
X184764128Y-38565026D01*
X184764123Y-38565035D01*
X184733642Y-38630917D01*
X184732194Y-38633939D01*
X184699951Y-38698954D01*
X184699948Y-38698961D01*
X184696964Y-38704979D01*
X184695343Y-38711495D01*
X184693635Y-38716145D01*
X184692086Y-38720739D01*
X184689268Y-38726833D01*
X184687824Y-38733390D01*
X184687820Y-38733404D01*
X184672218Y-38804282D01*
X184671453Y-38807549D01*
X184653936Y-38877986D01*
X184653934Y-38877996D01*
X184652316Y-38884505D01*
X184652133Y-38891214D01*
X184651475Y-38896050D01*
X184650943Y-38900944D01*
X184649500Y-38907503D01*
X184649500Y-38914223D01*
X184649500Y-38986773D01*
X184649454Y-38990130D01*
X184647307Y-39069432D01*
X184648574Y-39076039D01*
X184649091Y-39082375D01*
X184649500Y-39092443D01*
X184649500Y-45346350D01*
X184640061Y-45393803D01*
X184613181Y-45434031D01*
X183384030Y-46663181D01*
X183343802Y-46690061D01*
X183296349Y-46699500D01*
X182674499Y-46699500D01*
X182612499Y-46682887D01*
X182567112Y-46637500D01*
X182550499Y-46575500D01*
X182550499Y-46003141D01*
X182550499Y-46003139D01*
X182550499Y-45999992D01*
X182539999Y-45897203D01*
X182484814Y-45730666D01*
X182392712Y-45581344D01*
X182268656Y-45457288D01*
X182262515Y-45453500D01*
X182262511Y-45453497D01*
X182125480Y-45368977D01*
X182119334Y-45365186D01*
X181952797Y-45310001D01*
X181946064Y-45309313D01*
X181946059Y-45309312D01*
X181853140Y-45299819D01*
X181853123Y-45299818D01*
X181850009Y-45299500D01*
X181846860Y-45299500D01*
X180653140Y-45299500D01*
X180653120Y-45299500D01*
X180649992Y-45299501D01*
X180646860Y-45299820D01*
X180646858Y-45299821D01*
X180553938Y-45309312D01*
X180553928Y-45309313D01*
X180547203Y-45310001D01*
X180540781Y-45312128D01*
X180540776Y-45312130D01*
X180387521Y-45362914D01*
X180387517Y-45362915D01*
X180380666Y-45365186D01*
X180374522Y-45368975D01*
X180374519Y-45368977D01*
X180237488Y-45453497D01*
X180237480Y-45453503D01*
X180231344Y-45457288D01*
X180226242Y-45462389D01*
X180226238Y-45462393D01*
X180112393Y-45576238D01*
X180112389Y-45576242D01*
X180107288Y-45581344D01*
X180103503Y-45587480D01*
X180103497Y-45587488D01*
X180018977Y-45724519D01*
X180015186Y-45730666D01*
X180012915Y-45737517D01*
X180012914Y-45737521D01*
X179974364Y-45853858D01*
X179960001Y-45897203D01*
X179959313Y-45903933D01*
X179959312Y-45903940D01*
X179949819Y-45996859D01*
X179949818Y-45996877D01*
X179949500Y-45999991D01*
X179949500Y-46003139D01*
X179949500Y-46003140D01*
X179949500Y-47596348D01*
X179940061Y-47643801D01*
X179913181Y-47684029D01*
X179426610Y-48170599D01*
X179419207Y-48177424D01*
X179384023Y-48207310D01*
X179384016Y-48207317D01*
X179378900Y-48211663D01*
X179374836Y-48217007D01*
X179374832Y-48217013D01*
X179330923Y-48274772D01*
X179328858Y-48277413D01*
X179283367Y-48334008D01*
X179283361Y-48334016D01*
X179279158Y-48339246D01*
X179276177Y-48345254D01*
X179273557Y-48349354D01*
X179271005Y-48353594D01*
X179266946Y-48358936D01*
X179264128Y-48365026D01*
X179264123Y-48365035D01*
X179233642Y-48430917D01*
X179232194Y-48433939D01*
X179199951Y-48498954D01*
X179199948Y-48498961D01*
X179196964Y-48504979D01*
X179195343Y-48511495D01*
X179193635Y-48516145D01*
X179192086Y-48520739D01*
X179189268Y-48526833D01*
X179187824Y-48533390D01*
X179187820Y-48533404D01*
X179172218Y-48604282D01*
X179171453Y-48607549D01*
X179153936Y-48677986D01*
X179153934Y-48677996D01*
X179152316Y-48684505D01*
X179152133Y-48691214D01*
X179151475Y-48696050D01*
X179150943Y-48700944D01*
X179149500Y-48707503D01*
X179149500Y-48714223D01*
X179149500Y-48786773D01*
X179149454Y-48790130D01*
X179147307Y-48869432D01*
X179148574Y-48876039D01*
X179149091Y-48882375D01*
X179149500Y-48892443D01*
X179149500Y-50206426D01*
X179131038Y-50271523D01*
X179091789Y-50335154D01*
X179091786Y-50335159D01*
X179087997Y-50341303D01*
X179085726Y-50348154D01*
X179085725Y-50348158D01*
X179036781Y-50495863D01*
X179034651Y-50502292D01*
X179033963Y-50509022D01*
X179033962Y-50509029D01*
X179024819Y-50598523D01*
X179024818Y-50598541D01*
X179024500Y-50601655D01*
X179024500Y-50604802D01*
X179024500Y-50604803D01*
X179024500Y-51145194D01*
X179024500Y-51145213D01*
X175000500Y-51145213D01*
X175000500Y-43496829D01*
X179950001Y-43496829D01*
X179950321Y-43503111D01*
X179959805Y-43595959D01*
X179962623Y-43609122D01*
X180013370Y-43762267D01*
X180019432Y-43775266D01*
X180103890Y-43912194D01*
X180112794Y-43923455D01*
X180226544Y-44037205D01*
X180237805Y-44046109D01*
X180374733Y-44130567D01*
X180387732Y-44136629D01*
X180540874Y-44187375D01*
X180554041Y-44190194D01*
X180646890Y-44199680D01*
X180653168Y-44200000D01*
X180983674Y-44200000D01*
X180996549Y-44196549D01*
X181000000Y-44183674D01*
X181000000Y-44183673D01*
X181500000Y-44183673D01*
X181503450Y-44196548D01*
X181516326Y-44199999D01*
X181846829Y-44199999D01*
X181853111Y-44199678D01*
X181945959Y-44190194D01*
X181959122Y-44187376D01*
X182112267Y-44136629D01*
X182125266Y-44130567D01*
X182262194Y-44046109D01*
X182273455Y-44037205D01*
X182387205Y-43923455D01*
X182396109Y-43912194D01*
X182480567Y-43775266D01*
X182486629Y-43762267D01*
X182537375Y-43609125D01*
X182540194Y-43595958D01*
X182549680Y-43503109D01*
X182550000Y-43496832D01*
X182550000Y-42216326D01*
X182546549Y-42203450D01*
X182533674Y-42200000D01*
X181516326Y-42200000D01*
X181503450Y-42203450D01*
X181500000Y-42216326D01*
X181500000Y-44183673D01*
X181000000Y-44183673D01*
X181000000Y-42216326D01*
X180996549Y-42203450D01*
X180983674Y-42200000D01*
X179966327Y-42200000D01*
X179953451Y-42203450D01*
X179950001Y-42216326D01*
X179950001Y-43496829D01*
X175000500Y-43496829D01*
X175000500Y-41683674D01*
X179950000Y-41683674D01*
X179953450Y-41696549D01*
X179966326Y-41700000D01*
X180983674Y-41700000D01*
X180996549Y-41696549D01*
X181000000Y-41683674D01*
X181500000Y-41683674D01*
X181503450Y-41696549D01*
X181516326Y-41700000D01*
X182533673Y-41700000D01*
X182546548Y-41696549D01*
X182549999Y-41683674D01*
X182549999Y-40403171D01*
X182549678Y-40396888D01*
X182540194Y-40304040D01*
X182537376Y-40290877D01*
X182486629Y-40137732D01*
X182480567Y-40124733D01*
X182396109Y-39987805D01*
X182387205Y-39976544D01*
X182273455Y-39862794D01*
X182262194Y-39853890D01*
X182125266Y-39769432D01*
X182112267Y-39763370D01*
X181959125Y-39712624D01*
X181945958Y-39709805D01*
X181853109Y-39700319D01*
X181846832Y-39700000D01*
X181516326Y-39700000D01*
X181503450Y-39703450D01*
X181500000Y-39716326D01*
X181500000Y-41683674D01*
X181000000Y-41683674D01*
X181000000Y-39716327D01*
X180996549Y-39703451D01*
X180983674Y-39700001D01*
X180653171Y-39700001D01*
X180646888Y-39700321D01*
X180554040Y-39709805D01*
X180540877Y-39712623D01*
X180387732Y-39763370D01*
X180374733Y-39769432D01*
X180237805Y-39853890D01*
X180226544Y-39862794D01*
X180112794Y-39976544D01*
X180103890Y-39987805D01*
X180019432Y-40124733D01*
X180013370Y-40137732D01*
X179962624Y-40290874D01*
X179959805Y-40304041D01*
X179950319Y-40396890D01*
X179950000Y-40403168D01*
X179950000Y-41683674D01*
X175000500Y-41683674D01*
X175000500Y-36124500D01*
X175017113Y-36062500D01*
X175062500Y-36017113D01*
X175124500Y-36000500D01*
X194875500Y-36000500D01*
X194937500Y-36017113D01*
G37*
%TD.AperFunction*%
%TD*%
M02*
