%TF.GenerationSoftware,KiCad,Pcbnew,(7.0.0)*%
%TF.CreationDate,2023-05-21T11:17:03+02:00*%
%TF.ProjectId,midi-sync-module,6d696469-2d73-4796-9e63-2d6d6f64756c,rev?*%
%TF.SameCoordinates,Original*%
%TF.FileFunction,Soldermask,Bot*%
%TF.FilePolarity,Negative*%
%FSLAX46Y46*%
G04 Gerber Fmt 4.6, Leading zero omitted, Abs format (unit mm)*
G04 Created by KiCad (PCBNEW (7.0.0)) date 2023-05-21 11:17:03*
%MOMM*%
%LPD*%
G01*
G04 APERTURE LIST*
G04 Aperture macros list*
%AMRoundRect*
0 Rectangle with rounded corners*
0 $1 Rounding radius*
0 $2 $3 $4 $5 $6 $7 $8 $9 X,Y pos of 4 corners*
0 Add a 4 corners polygon primitive as box body*
4,1,4,$2,$3,$4,$5,$6,$7,$8,$9,$2,$3,0*
0 Add four circle primitives for the rounded corners*
1,1,$1+$1,$2,$3*
1,1,$1+$1,$4,$5*
1,1,$1+$1,$6,$7*
1,1,$1+$1,$8,$9*
0 Add four rect primitives between the rounded corners*
20,1,$1+$1,$2,$3,$4,$5,0*
20,1,$1+$1,$4,$5,$6,$7,0*
20,1,$1+$1,$6,$7,$8,$9,0*
20,1,$1+$1,$8,$9,$2,$3,0*%
G04 Aperture macros list end*
%ADD10RoundRect,0.250000X-0.550000X1.500000X-0.550000X-1.500000X0.550000X-1.500000X0.550000X1.500000X0*%
%ADD11R,2.100000X2.100000*%
%ADD12C,2.100000*%
%ADD13R,1.800000X1.800000*%
%ADD14C,1.800000*%
%ADD15O,3.000000X4.500000*%
%ADD16O,3.000000X3.800000*%
%ADD17O,4.000000X2.000000*%
%ADD18C,3.200000*%
%ADD19RoundRect,0.218750X0.381250X-0.218750X0.381250X0.218750X-0.381250X0.218750X-0.381250X-0.218750X0*%
%ADD20RoundRect,0.250000X-0.450000X0.262500X-0.450000X-0.262500X0.450000X-0.262500X0.450000X0.262500X0*%
%ADD21RoundRect,0.225000X0.375000X-0.225000X0.375000X0.225000X-0.375000X0.225000X-0.375000X-0.225000X0*%
%ADD22R,1.500000X1.000000*%
%ADD23RoundRect,0.200000X0.275000X-0.200000X0.275000X0.200000X-0.275000X0.200000X-0.275000X-0.200000X0*%
%ADD24RoundRect,0.150000X-0.512500X-0.150000X0.512500X-0.150000X0.512500X0.150000X-0.512500X0.150000X0*%
%ADD25RoundRect,0.250000X-0.650000X1.000000X-0.650000X-1.000000X0.650000X-1.000000X0.650000X1.000000X0*%
%ADD26RoundRect,0.200000X0.200000X0.275000X-0.200000X0.275000X-0.200000X-0.275000X0.200000X-0.275000X0*%
%ADD27RoundRect,0.225000X0.225000X0.250000X-0.225000X0.250000X-0.225000X-0.250000X0.225000X-0.250000X0*%
%ADD28RoundRect,0.250000X0.250000X0.475000X-0.250000X0.475000X-0.250000X-0.475000X0.250000X-0.475000X0*%
%ADD29RoundRect,0.250000X-0.250000X-0.475000X0.250000X-0.475000X0.250000X0.475000X-0.250000X0.475000X0*%
%ADD30R,1.700000X1.700000*%
%ADD31O,1.700000X1.700000*%
%ADD32RoundRect,0.225000X-0.250000X0.225000X-0.250000X-0.225000X0.250000X-0.225000X0.250000X0.225000X0*%
%ADD33RoundRect,0.250000X0.550000X-1.500000X0.550000X1.500000X-0.550000X1.500000X-0.550000X-1.500000X0*%
%ADD34RoundRect,0.250000X0.650000X-1.000000X0.650000X1.000000X-0.650000X1.000000X-0.650000X-1.000000X0*%
%ADD35R,2.000000X1.780000*%
G04 APERTURE END LIST*
D10*
%TO.C,C4*%
X189500000Y-41950000D03*
X189500000Y-47550000D03*
%TD*%
D11*
%TO.C,J3*%
X190499999Y-102499999D03*
D12*
X185000000Y-108000000D03*
X179500000Y-102500000D03*
X188890000Y-106390000D03*
X181110000Y-106390000D03*
X185000000Y-98000000D03*
%TD*%
D13*
%TO.C,D4*%
X177999999Y-127837499D03*
D14*
X178000000Y-125297500D03*
%TD*%
D13*
%TO.C,D5*%
X191999999Y-127799999D03*
D14*
X192000000Y-125260000D03*
%TD*%
D15*
%TO.C,J1*%
X189699999Y-69399999D03*
D16*
X180299999Y-69399999D03*
D17*
X184999999Y-74799999D03*
X184999999Y-66699999D03*
%TD*%
D18*
%TO.C,REF\u002A\u002A*%
X185000000Y-89800000D03*
%TD*%
D19*
%TO.C,FB2*%
X190000000Y-56212500D03*
X190000000Y-54087500D03*
%TD*%
D20*
%TO.C,R9*%
X177500000Y-121425000D03*
X177500000Y-123250000D03*
%TD*%
D21*
%TO.C,D3*%
X178000000Y-118900000D03*
X178000000Y-115600000D03*
%TD*%
D22*
%TO.C,JP1*%
X176349999Y-109349999D03*
X176349999Y-110649999D03*
%TD*%
D23*
%TO.C,R5*%
X176000000Y-118075000D03*
X176000000Y-116425000D03*
%TD*%
D24*
%TO.C,U3*%
X177362500Y-81062500D03*
X177362500Y-80112500D03*
X177362500Y-79162500D03*
X179637500Y-79162500D03*
X179637500Y-81062500D03*
%TD*%
D25*
%TO.C,D1*%
X183000000Y-51400000D03*
X183000000Y-55400000D03*
%TD*%
D26*
%TO.C,R8*%
X187650000Y-124000000D03*
X186000000Y-124000000D03*
%TD*%
D27*
%TO.C,C7*%
X183825000Y-124000000D03*
X182275000Y-124000000D03*
%TD*%
D28*
%TO.C,C9*%
X179537500Y-83162500D03*
X177637500Y-83162500D03*
%TD*%
D29*
%TO.C,C8*%
X177550000Y-77000000D03*
X179450000Y-77000000D03*
%TD*%
D30*
%TO.C,J2*%
X189999999Y-62249999D03*
D31*
X189999999Y-59709999D03*
X187459999Y-62249999D03*
X187459999Y-59709999D03*
X184919999Y-62249999D03*
X184919999Y-59709999D03*
X182379999Y-62249999D03*
X182379999Y-59709999D03*
X179839999Y-62249999D03*
X179839999Y-59709999D03*
%TD*%
D22*
%TO.C,JP2*%
X179249999Y-109349999D03*
X179249999Y-110649999D03*
%TD*%
D32*
%TO.C,C1*%
X180000000Y-50875000D03*
X180000000Y-52425000D03*
%TD*%
D30*
%TO.C,J5*%
X183859999Y-140824999D03*
D31*
X186399999Y-140824999D03*
X183859999Y-138284999D03*
X186399999Y-138284999D03*
X183859999Y-135744999D03*
X186399999Y-135744999D03*
X183859999Y-133204999D03*
X186399999Y-133204999D03*
X183859999Y-130664999D03*
X186399999Y-130664999D03*
%TD*%
D10*
%TO.C,C6*%
X189250000Y-76200000D03*
X189250000Y-81800000D03*
%TD*%
D32*
%TO.C,C2*%
X190000000Y-50875000D03*
X190000000Y-52425000D03*
%TD*%
D19*
%TO.C,FB1*%
X180000000Y-56212500D03*
X180000000Y-54087500D03*
%TD*%
D32*
%TO.C,C5*%
X194000000Y-78525000D03*
X194000000Y-80075000D03*
%TD*%
D33*
%TO.C,C3*%
X181250000Y-47550000D03*
X181250000Y-41950000D03*
%TD*%
D34*
%TO.C,D2*%
X187000000Y-55400000D03*
X187000000Y-51400000D03*
%TD*%
D35*
%TO.C,U2*%
X180749999Y-121309999D03*
X180749999Y-118769999D03*
X180749999Y-116229999D03*
X180749999Y-113689999D03*
X190279999Y-113689999D03*
X190279999Y-116229999D03*
X190279999Y-118769999D03*
X190279999Y-121309999D03*
%TD*%
D20*
%TO.C,R10*%
X192800000Y-121425000D03*
X192800000Y-123250000D03*
%TD*%
M02*
