%TF.GenerationSoftware,KiCad,Pcbnew,(7.0.0)*%
%TF.CreationDate,2023-05-21T11:17:03+02:00*%
%TF.ProjectId,midi-sync-module,6d696469-2d73-4796-9e63-2d6d6f64756c,rev?*%
%TF.SameCoordinates,Original*%
%TF.FileFunction,Soldermask,Top*%
%TF.FilePolarity,Negative*%
%FSLAX46Y46*%
G04 Gerber Fmt 4.6, Leading zero omitted, Abs format (unit mm)*
G04 Created by KiCad (PCBNEW (7.0.0)) date 2023-05-21 11:17:03*
%MOMM*%
%LPD*%
G01*
G04 APERTURE LIST*
G04 Aperture macros list*
%AMRoundRect*
0 Rectangle with rounded corners*
0 $1 Rounding radius*
0 $2 $3 $4 $5 $6 $7 $8 $9 X,Y pos of 4 corners*
0 Add a 4 corners polygon primitive as box body*
4,1,4,$2,$3,$4,$5,$6,$7,$8,$9,$2,$3,0*
0 Add four circle primitives for the rounded corners*
1,1,$1+$1,$2,$3*
1,1,$1+$1,$4,$5*
1,1,$1+$1,$6,$7*
1,1,$1+$1,$8,$9*
0 Add four rect primitives between the rounded corners*
20,1,$1+$1,$2,$3,$4,$5,0*
20,1,$1+$1,$4,$5,$6,$7,0*
20,1,$1+$1,$6,$7,$8,$9,0*
20,1,$1+$1,$8,$9,$2,$3,0*%
G04 Aperture macros list end*
%ADD10R,2.100000X2.100000*%
%ADD11C,2.100000*%
%ADD12R,1.500000X1.000000*%
%ADD13RoundRect,0.200000X-0.200000X-0.275000X0.200000X-0.275000X0.200000X0.275000X-0.200000X0.275000X0*%
%ADD14RoundRect,0.250000X-0.450000X0.262500X-0.450000X-0.262500X0.450000X-0.262500X0.450000X0.262500X0*%
%ADD15R,3.150000X1.000000*%
%ADD16RoundRect,0.150000X0.587500X0.150000X-0.587500X0.150000X-0.587500X-0.150000X0.587500X-0.150000X0*%
%ADD17R,1.800000X1.800000*%
%ADD18C,1.800000*%
%ADD19R,2.450000X1.600000*%
%ADD20O,3.000000X4.500000*%
%ADD21O,3.000000X3.800000*%
%ADD22O,4.000000X2.000000*%
%ADD23RoundRect,0.200000X0.200000X0.275000X-0.200000X0.275000X-0.200000X-0.275000X0.200000X-0.275000X0*%
%ADD24RoundRect,0.250000X0.450000X-0.262500X0.450000X0.262500X-0.450000X0.262500X-0.450000X-0.262500X0*%
%ADD25C,3.200000*%
%ADD26R,1.700000X1.700000*%
%ADD27O,1.700000X1.700000*%
G04 APERTURE END LIST*
D10*
%TO.C,J3*%
X190499999Y-102499999D03*
D11*
X185000000Y-108000000D03*
X179500000Y-102500000D03*
X188890000Y-106390000D03*
X181110000Y-106390000D03*
X185000000Y-98000000D03*
%TD*%
D12*
%TO.C,JP3*%
X179249999Y-110699999D03*
X179249999Y-111999999D03*
%TD*%
D13*
%TO.C,R2*%
X188250000Y-85500000D03*
X189900000Y-85500000D03*
%TD*%
%TO.C,R1*%
X188250000Y-83500000D03*
X189900000Y-83500000D03*
%TD*%
D14*
%TO.C,R7*%
X176500000Y-114000000D03*
X176500000Y-115825000D03*
%TD*%
D13*
%TO.C,R4*%
X180500000Y-83750000D03*
X182150000Y-83750000D03*
%TD*%
D15*
%TO.C,J4*%
X182474999Y-118459999D03*
X187524999Y-118459999D03*
X182474999Y-120999999D03*
X187524999Y-120999999D03*
X182474999Y-123539999D03*
X187524999Y-123539999D03*
X182474999Y-126079999D03*
X187524999Y-126079999D03*
X182474999Y-128619999D03*
X187524999Y-128619999D03*
%TD*%
D12*
%TO.C,JP4*%
X176499999Y-110762499D03*
X176499999Y-112062499D03*
%TD*%
D16*
%TO.C,Q1*%
X186262500Y-85450000D03*
X186262500Y-83550000D03*
X184387500Y-84500000D03*
%TD*%
D17*
%TO.C,D4*%
X177999999Y-127837499D03*
D18*
X178000000Y-125297500D03*
%TD*%
D12*
%TO.C,JP5*%
X181999999Y-111599999D03*
X181999999Y-112899999D03*
%TD*%
D17*
%TO.C,D5*%
X191999999Y-127799999D03*
D18*
X192000000Y-125260000D03*
%TD*%
D19*
%TO.C,U1*%
X176924999Y-38249999D03*
X176924999Y-40789999D03*
X176924999Y-50949999D03*
X176924999Y-53489999D03*
X193074999Y-53489999D03*
X193074999Y-50949999D03*
X193074999Y-38249999D03*
%TD*%
D20*
%TO.C,J1*%
X189699999Y-69399999D03*
D21*
X180299999Y-69399999D03*
D22*
X184999999Y-74799999D03*
X184999999Y-66699999D03*
%TD*%
D23*
%TO.C,R3*%
X182150000Y-85500000D03*
X180500000Y-85500000D03*
%TD*%
D24*
%TO.C,R6*%
X179000000Y-115825000D03*
X179000000Y-114000000D03*
%TD*%
D25*
%TO.C,REF\u002A\u002A*%
X185000000Y-89800000D03*
%TD*%
D26*
%TO.C,J2*%
X189999999Y-62249999D03*
D27*
X189999999Y-59709999D03*
X187459999Y-62249999D03*
X187459999Y-59709999D03*
X184919999Y-62249999D03*
X184919999Y-59709999D03*
X182379999Y-62249999D03*
X182379999Y-59709999D03*
X179839999Y-62249999D03*
X179839999Y-59709999D03*
%TD*%
D26*
%TO.C,J5*%
X183859999Y-140824999D03*
D27*
X186399999Y-140824999D03*
X183859999Y-138284999D03*
X186399999Y-138284999D03*
X183859999Y-135744999D03*
X186399999Y-135744999D03*
X183859999Y-133204999D03*
X186399999Y-133204999D03*
X183859999Y-130664999D03*
X186399999Y-130664999D03*
%TD*%
M02*
